<?xml version="1.0" encoding="utf-8"?>
<!-- Generator: Adobe Illustrator 18.1.1, SVG Export Plug-In . SVG Version: 6.00 Build 0)  -->
<!DOCTYPE svg PUBLIC "-//W3C//DTD SVG 1.1//EN" "http://www.w3.org/Graphics/SVG/1.1/DTD/svg11.dtd">
<svg version="1.1" id="Layer_1" xmlns="http://www.w3.org/2000/svg" xmlns:xlink="http://www.w3.org/1999/xlink" x="0px" y="0px"
	 viewBox="0 0 270.1 18" enable-background="new 0 0 270.1 18" xml:space="preserve">
<g>
	<g>
		<g>
			<polygon fill="#CA992C" points="110.1,8.4 8.1,8.4 8,9.8 110.1,9.9 			"/>
			<path fill="#CA992C" d="M7.5,6.5C6,6.5,0,9.1,0,9.1s6,2.6,7.5,2.6c1.4,0,2.6-1.2,2.6-2.6S8.9,6.5,7.5,6.5z"/>
		</g>
		<g>
			<polygon fill="#CA992C" points="155,10.1 262.8,10.1 262.7,8.3 155,8.6 			"/>
			<path fill="#CA992C" d="M262.7,6.4c-1.4,0-2.6,1.2-2.6,2.6c0,1.4,1.2,2.6,2.6,2.6c1.4,0,7.5-2.6,7.5-2.6S264.1,6.4,262.7,6.4z"/>
		</g>
		<g>
			<path fill="#CA992C" d="M150.2,3.4L147.6,6l-4-4l-2.6,2.5L136.8,0l-9.5,9.1l9.6,8.9l4.9-4.8l2.4,2.3l3.9-3.7l2.7,2.5l4.9-4.9
				L150.2,3.4z M144,2.8l3.5,3.5l-2.3,2.3l-3.6-3.5L144,2.8z M136.9,0.9l3.9,3.8l-3.8,3.7L133,4.7L136.9,0.9z M128,9.4l4.7-4.5
				l4.1,3.8l-4.7,4.6L128,9.4z M136.6,17.2L136.6,17.2l-0.1,0.1l-3.8-3.5l4.7-4.6l3.8,3.5L136.6,17.2z M141.4,12.4L137.6,9l3.8-3.7
				l3.6,3.5L141.4,12.4z M143.9,14.7L143.9,14.7l-1.9-1.8l3.6-3.6l2,2L143.9,14.7z M147.7,11.1c-0.7-0.7-2-2-2-2l2.3-2.3l2.1,2.1
				C150.1,8.9,148.5,10.4,147.7,11.1z M150.4,13.7l-2.1-2l2.5-2.4l-2.6-2.7l2.3-2.3l0.1,0.3l4.4,4.6L150.4,13.7z"/>
			<path fill="#CA992C" d="M109.4,9.5l4.9,4.9l2.7-2.5l3.9,3.7l2.4-2.3l4.9,4.8l9.6-8.9L128.3,0L124,4.5L121.5,2l-4,4l-2.5-2.6
				L109.4,9.5z M123.5,5.1l-3.6,3.5l-2.3-2.3l3.5-3.5L123.5,5.1z M132.1,4.7L128,8.4l-3.8-3.7l3.9-3.8L132.1,4.7z M132.9,13.2
				l-4.7-4.6l4.1-3.8l4.7,4.5L132.9,13.2z M123.9,12.7l3.8-3.5l4.7,4.6l-3.8,3.5l-0.1-0.1l0,0L123.9,12.7z M120.1,8.8l3.6-3.5
				l3.8,3.7l-3.8,3.5L120.1,8.8z M117.6,11.3l2-2l3.6,3.6l-1.9,1.7l-0.1,0.1L117.6,11.3z M115,8.9l2.1-2.1l2.3,2.3c0,0-1.4,1.3-2,2
				C116.6,10.4,115,8.9,115,8.9z M110.1,9.1l4.4-4.6l0.1-0.3l2.3,2.3l-2.6,2.7l2.5,2.4l-2.1,2L110.1,9.1z"/>
		</g>
	</g>
	<circle fill="#CA992C" cx="106.9" cy="9" r="3.2"/>
	<circle fill="#CA992C" cx="12.7" cy="9" r="3.2"/>
	<circle fill="#CA992C" cx="158.2" cy="9" r="3.2"/>
	<circle fill="#CA992C" cx="257" cy="9" r="3.2"/>
</g>
</svg>
