<?xml version="1.0" encoding="utf-8"?>
<!-- Generator: Adobe Illustrator 19.1.0, SVG Export Plug-In . SVG Version: 6.00 Build 0)  -->
<svg version="1.1" id="Layer_1" xmlns="http://www.w3.org/2000/svg" xmlns:xlink="http://www.w3.org/1999/xlink" x="0px" y="0px"
	 viewBox="-499.5 16.2 1200 19.3" style="enable-background:new -499.5 16.2 1200 19.3;" xml:space="preserve">
<style type="text/css">
	.st0{fill:#CC9900;}
</style>
<g>
	<g>
		<g>
			<polygon class="st0" points="86.9,25.4 -492.4,25.4 -492.5,26.6 86.9,26.7 			"/>
			<path class="st0" d="M-492.9,23.7c-1.3,0-6.6,2.3-6.6,2.3s5.3,2.3,6.6,2.3c1.3,0,2.3-1,2.3-2.3
				C-490.6,24.7-491.7,23.7-492.9,23.7z"/>
		</g>
		<g>
			<polygon class="st0" points="126.3,26.8 694,26.9 693.9,25.3 126.3,25.5 			"/>
			<path class="st0" d="M693.9,23.6c-1.3,0-2.3,1-2.3,2.3c0,1.3,1,2.3,2.3,2.3c1.3,0,6.6-2.3,6.6-2.3S695.1,23.6,693.9,23.6z"/>
		</g>
		<g>
			<path class="st0" d="M122.1,21l-2.2,2.3l-3.5-3.5L114,22l-3.8-4l-8.4,8l8.4,7.9l4.3-4.2l2.1,2l3.5-3.2l2.4,2.2l4.3-4.3L122.1,21z
				 M116.6,20.4l3,3l-2,2.1l-3.1-3.1L116.6,20.4z M110.4,18.8l3.4,3.4l-3.3,3.2l-3.6-3.3L110.4,18.8z M102.6,26.2l4.1-3.9l3.6,3.3
				l-4.1,4L102.6,26.2z M110.1,33.1L110.1,33.1L110.1,33.1l-3.4-3l4.1-4l3.3,3.1L110.1,33.1z M114.3,28.9l-3.3-3l3.3-3.2l3.1,3.1
				L114.3,28.9z M116.5,31L116.5,31l-1.7-1.6l3.1-3.2l1.8,1.7L116.5,31z M119.9,27.7c-0.6-0.6-1.8-1.8-1.8-1.8l2-2.1l1.9,1.9
				C122,25.8,120.6,27.1,119.9,27.7z M122.2,30l-1.8-1.8l2.2-2.1l-2.3-2.3l2-2l0.1,0.2l3.8,4.1L122.2,30z"/>
			<path class="st0" d="M86.2,26.3l4.3,4.3l2.4-2.2l3.5,3.2l2.1-2l4.3,4.2l8.4-7.9l-8.4-8l-3.8,4l-2.3-2.2l-3.5,3.5L91.1,21
				L86.2,26.3z M98.6,22.5l-3.1,3.1l-2-2.1l3-3L98.6,22.5z M106.2,22.1l-3.6,3.3l-3.3-3.2l3.4-3.4L106.2,22.1z M106.9,29.6l-4.1-4
				l3.6-3.3l4.1,3.9L106.9,29.6z M99,29.1l3.3-3.1l4.1,4l-3.3,3.1L103,33l0,0L99,29.1z M95.6,25.7l3.1-3.1l3.3,3.2l-3.3,3.1
				L95.6,25.7z M93.4,27.9l1.8-1.7l3.1,3.2l-1.6,1.5V31L93.4,27.9z M91.1,25.8l1.9-1.9l2,2.1c0,0-1.2,1.2-1.8,1.8
				C92.5,27.1,91.1,25.8,91.1,25.8z M86.9,26l3.8-4.1l0.1-0.2l2,2L90.5,26l2.2,2.1l-1.8,1.8L86.9,26z"/>
		</g>
	</g>
	<circle class="st0" cx="84" cy="25.9" r="2.8"/>
	<circle class="st0" cx="-488.3" cy="25.9" r="2.8"/>
	<circle class="st0" cx="129.1" cy="25.9" r="2.8"/>
	<circle class="st0" cx="688.9" cy="25.9" r="2.8"/>
</g>
</svg>
