<?xml version="1.0" encoding="utf-8"?>
<!-- Generator: Adobe Illustrator 17.1.0, SVG Export Plug-In . SVG Version: 6.00 Build 0)  -->
<!DOCTYPE svg PUBLIC "-//W3C//DTD SVG 1.1//EN" "http://www.w3.org/Graphics/SVG/1.1/DTD/svg11.dtd">
<svg version="1.1" id="Layer_1" xmlns="http://www.w3.org/2000/svg" xmlns:xlink="http://www.w3.org/1999/xlink" x="0px" y="0px"
	 width="43.9px" height="44px" viewBox="0 0 43.9 44" enable-background="new 0 0 43.9 44" xml:space="preserve">
<g>
	<g>
		<g>
			<rect x="41.9" y="42" fill="#CC9900" width="2" height="2"/>
		</g>
		<g>
			<path fill="#CC9900" d="M39.8,44h-2.1v-2h2.1V44z M35.6,44h-2.1v-2h2.1V44z M31.4,44h-2.1v-2h2.1V44z M27.2,44h-2.1v-2h2.1V44z
				 M23,44h-2.1v-2H23V44z M18.8,44h-2.1v-2h2.1V44z M14.6,44h-2.1v-2h2.1V44z M10.4,44H8.3v-2h2.1V44z M6.2,44H4.1v-2h2.1V44z"/>
		</g>
		<g>
			<rect y="42" fill="#CC9900" width="2" height="2"/>
		</g>
		<g>
			<path fill="#CC9900" d="M2,40.1H0v-1.9h2V40.1z M2,36.2H0v-1.9h2V36.2z M2,32.4H0v-1.9h2V32.4z M2,28.6H0v-1.9h2V28.6z M2,24.8H0
				v-1.9h2V24.8z M2,21H0v-1.9h2V21z M2,17.2H0v-1.9h2V17.2z M2,13.4H0v-1.9h2V13.4z M2,9.6H0V7.7h2V9.6z M2,5.8H0V3.9h2V5.8z"/>
		</g>
		<g>
			<rect fill="#CC9900" width="2" height="2"/>
		</g>
		<g>
			<path fill="#CC9900" d="M39.8,2h-2.1V0h2.1V2z M35.6,2h-2.1V0h2.1V2z M31.4,2h-2.1V0h2.1V2z M27.2,2h-2.1V0h2.1V2z M23,2h-2.1V0
				H23V2z M18.8,2h-2.1V0h2.1V2z M14.6,2h-2.1V0h2.1V2z M10.4,2H8.3V0h2.1V2z M6.2,2H4.1V0h2.1V2z"/>
		</g>
		<g>
			<rect x="41.9" fill="#CC9900" width="2" height="2"/>
		</g>
		<g>
			<path fill="#CC9900" d="M43.9,40.1h-2v-1.9h2V40.1z M43.9,36.2h-2v-1.9h2V36.2z M43.9,32.4h-2v-1.9h2V32.4z M43.9,28.6h-2v-1.9h2
				V28.6z M43.9,24.8h-2v-1.9h2V24.8z M43.9,21h-2v-1.9h2V21z M43.9,17.2h-2v-1.9h2V17.2z M43.9,13.4h-2v-1.9h2V13.4z M43.9,9.6h-2
				V7.7h2V9.6z M43.9,5.8h-2V3.9h2V5.8z"/>
		</g>
	</g>
	<path fill="#FFFFFF" d="M28.1,12H15.8c-2.1,0-3.9,1.7-3.9,3.9v4.1v8.2c0,2.1,1.7,3.9,3.9,3.9h12.3c2.1,0,3.9-1.7,3.9-3.9v-8.2v-4.1
		C32,13.7,30.2,12,28.1,12z M29.2,14.3l0.4,0v0.4v3l-3.4,0l0-3.4L29.2,14.3z M19.1,19.9c0.6-0.9,1.7-1.5,2.9-1.5s2.2,0.6,2.9,1.5
		c0.4,0.6,0.7,1.3,0.7,2.1c0,1.9-1.6,3.5-3.5,3.5s-3.5-1.6-3.5-3.5C18.5,21.2,18.7,20.5,19.1,19.9z M30,28.1c0,1.1-0.9,1.9-1.9,1.9
		H15.8c-1.1,0-1.9-0.9-1.9-1.9v-8.2h3c-0.3,0.6-0.4,1.3-0.4,2.1c0,3,2.5,5.5,5.5,5.5c3,0,5.5-2.5,5.5-5.5c0-0.7-0.1-1.4-0.4-2.1h3
		V28.1z"/>
</g>
</svg>
