<svg xmlns="http://www.w3.org/2000/svg" viewBox="0 0 21.67 60.46"><defs><style>.cls-1{fill:#fff;}.cls-2{fill:#231f20;}</style></defs><title>Asset 2</title><g id="Layer_2" data-name="Layer 2"><g id="Layer_1-2" data-name="Layer 1"><polyline class="cls-1" points="5.27 23.49 6.33 21.81 16.82 16.37 17.29 18.34"/><path class="cls-2" d="M5.44,23.59l-.33-.21L6.17,21.7a.19.19,0,0,1,.08-.07l10.49-5.44a.19.19,0,0,1,.28.13l.47,2-.38.09-.42-1.73L6.47,22Z"/><path class="cls-2" d="M6.18,8.17a.66.66,0,1,1,.66.66A.66.66,0,0,1,6.18,8.17Zm.33,0a.33.33,0,1,0,.33-.33A.33.33,0,0,0,6.51,8.17Z"/><polygon class="cls-2" points="5.88 8.45 6.38 7.84 8.71 7.84 8.71 7.51 6.22 7.51 5.63 8.24 5.88 8.45"/><path class="cls-2" d="M2.73,58.64l-.07-.23a23,23,0,0,1-.73-4.55c-.09-.95-.18-1.93-.34-2.89-1-5.91-2-12.62-1.41-17.59a16.27,16.27,0,0,1,5-10l0,0L17.35,18.1l.09.11c5.92,7.16,4.32,17.85,2.83,23.58C19.28,45.65,18.4,53,18.4,53l0,.14-9,1.67Zm2.64-35A15.92,15.92,0,0,0,.57,33.42C0,38.34.95,45,2,50.9c.17,1,.26,2,.35,2.92A24,24,0,0,0,3,58.06l6.31-3.58L18,52.85c.13-1,1-7.57,1.88-11.15,1.46-5.63,3-16.1-2.67-23.13Z"/><path class="cls-2" d="M13.85,52.4,18.2,53s.21-7.57,1.8-11.29c1.48-3.46,3.46-16.75-3.07-23.3l-1.15.87-2.09,4.16"/><path class="cls-2" d="M18.39,53.24l-4.57-.65.05-.38,4.14.59c0-1.29.36-7.74,1.81-11.14,1.64-3.84,3.2-16.65-2.91-23l-1,.74-2.07,4.12-.35-.17,2.11-4.2,1.32-1,.12.12c6.38,6.39,4.79,19.58,3.11,23.51C18.63,45.45,18.4,52.95,18.4,53Z"/><circle class="cls-2" cx="3.38" cy="30.77" r="0.53"/><path class="cls-2" d="M3.38,31.5a.73.73,0,1,1,.73-.73A.73.73,0,0,1,3.38,31.5Zm0-1.07a.34.34,0,1,0,.34.34A.34.34,0,0,0,3.38,30.43Z"/><circle class="cls-2" cx="2.32" cy="39.08" r="0.53"/><path class="cls-2" d="M2.32,39.81A.73.73,0,1,1,3,39.08.73.73,0,0,1,2.32,39.81Zm0-1.07a.34.34,0,1,0,.34.34A.34.34,0,0,0,2.32,38.74Z"/><circle class="cls-2" cx="2.32" cy="45.39" r="0.53"/><path class="cls-2" d="M2.32,46.12A.73.73,0,1,1,3,45.39.73.73,0,0,1,2.32,46.12Zm0-1.07a.34.34,0,1,0,.34.34A.34.34,0,0,0,2.32,45.05Z"/><circle class="cls-2" cx="2.85" cy="51.66" r="0.53"/><path class="cls-2" d="M2.85,52.39a.73.73,0,1,1,.73-.73A.73.73,0,0,1,2.85,52.39Zm0-1.07a.34.34,0,1,0,.34.34A.34.34,0,0,0,2.85,51.32Z"/><path class="cls-1" d="M8.14,59.62s1.21-7.48,2.72-8.94c0,0-.94-1.65-1.15-8.26S8.44,23.59,13.78,23.49s4.57,8.94,4.08,19.13-.78,12.63-2.53,17.77"/><path class="cls-2" d="M15.52,60.46l-.37-.13c1.78-5.23,2-7.84,2.52-17.72l.09-1.76c.37-7.46.69-13.9-1.58-16.25a3.1,3.1,0,0,0-2.38-.92,2.72,2.72,0,0,0-2,.9C9.29,27.21,9.6,34.83,9.83,40.39c0,.72.06,1.4.08,2,.21,6.44,1.11,8.15,1.12,8.17l.07.13-.11.1c-1.44,1.4-2.65,8.75-2.66,8.83L8,59.59c0-.3,1.19-7.25,2.68-8.94-.22-.5-.93-2.55-1.11-8.21,0-.63,0-1.31-.08-2-.23-5.63-.55-13.34,2-16.08a3.13,3.13,0,0,1,2.3-1,3.47,3.47,0,0,1,2.67,1c2.39,2.47,2.07,9,1.69,16.54l-.09,1.76C17.58,52.56,17.31,55.18,15.52,60.46Z"/><path class="cls-2" d="M19.64,60.09h0a.19.19,0,0,1-.19-.2c0-4.7-1.89-6.94-1.9-7a.19.19,0,0,1,.29-.26c.08.09,2,2.36,2,7.22A.19.19,0,0,1,19.64,60.09Z"/><rect class="cls-2" x="3.72" y="57.68" width="0.39" height="1.65"/><polyline class="cls-2" points="9.69 30.24 4.93 33.07 4.65 34.7 9.58 31.58"/><path class="cls-2" d="M4.65,34.89a.19.19,0,0,1-.19-.23L4.74,33a.19.19,0,0,1,.09-.13l4.76-2.83.2.33L5.11,33.19,4.91,34.3l4.56-2.88.21.33L4.75,34.86A.19.19,0,0,1,4.65,34.89Z"/><polyline class="cls-2" points="9.69 44.4 5.59 46.48 5.94 47.9 9.93 45.93"/><path class="cls-2" d="M5.94,48.1l-.08,0a.19.19,0,0,1-.11-.13L5.4,46.52a.19.19,0,0,1,.1-.22l4.1-2.07.18.35-4,2,.25,1,3.77-1.87.17.35-4,2Z"/><path class="cls-2" d="M9.24,20.51,9,20.24A1.37,1.37,0,0,0,9,19a1.52,1.52,0,0,0-1-.55,7.75,7.75,0,0,0-1.35,0h-.1A1.45,1.45,0,0,1,5.35,18a1.44,1.44,0,0,1-.27-.77,8.56,8.56,0,0,1,0-1.78c0-.28,0-.56,0-.84a.19.19,0,0,1,0-.11v0l0-.43a17.91,17.91,0,0,0-.23-2A4.5,4.5,0,0,1,3.55,12a.36.36,0,0,1-.24-.21c-.22-.51.56-2,.91-2.64a4.93,4.93,0,0,0,.35-1.75l0-.2a6.94,6.94,0,0,1,.95-2.93l.33.2A6.54,6.54,0,0,0,5,7.2l0,.19a5.19,5.19,0,0,1-.4,1.91,5.4,5.4,0,0,0-.89,2.29,7.53,7.53,0,0,0,2,0l.3,0a.2.2,0,0,1,.21.17.19.19,0,0,1-.16.22L5.53,12l-.21,0a19,19,0,0,1,.21,2l0,.25,1.24,0a.19.19,0,0,1,0,.39l-1.28.11c0,.23,0,.46,0,.68a8.14,8.14,0,0,0,0,1.7,1.12,1.12,0,0,0,.18.57,1.13,1.13,0,0,0,.9.24h.1a7.9,7.9,0,0,1,1.43,0,1.86,1.86,0,0,1,1.23.71A1.72,1.72,0,0,1,9.24,20.51Z"/><path class="cls-2" d="M2.83,2.91c0-.54.61-.85,1.11-1A33.49,33.49,0,0,1,13,.24a5.41,5.41,0,0,1,1.12,0A4.11,4.11,0,0,1,16.78,2,8.27,8.27,0,0,1,17.86,9.8,21.72,21.72,0,0,0,17,12a2.69,2.69,0,0,1-.36,1,.67.67,0,0,1-.91.2c-.65-.53.34-1.82-.3-2.37s-1.65.25-2-.37c-.17-.28,0-.65-.14-1A1.49,1.49,0,0,0,12.79,9a3.75,3.75,0,0,1-.37-4.86,16.75,16.75,0,0,0-5.79-.44,1.68,1.68,0,0,1-1.7,1.09A2.52,2.52,0,0,1,3.12,3.7,1.23,1.23,0,0,1,2.83,2.91Z"/><path class="cls-2" d="M16,13.52a.67.67,0,0,1-.44-.16c-.41-.34-.31-.89-.22-1.37s.15-.8-.08-1a.65.65,0,0,0-.44-.12,3.85,3.85,0,0,0-.43,0,4,4,0,0,1-.45,0h0a.82.82,0,0,1-.75-.36,1.14,1.14,0,0,1-.12-.62,1.12,1.12,0,0,0,0-.37,1.1,1.1,0,0,0-.32-.39l-.07-.07a4,4,0,0,1-.55-4.9A12.54,12.54,0,0,0,8.6,3.83c-.63,0-1.26,0-1.83,0A1.89,1.89,0,0,1,4.92,5,2.72,2.72,0,0,1,3,3.81a1.38,1.38,0,0,1-.33-.91c0-.5.45-.91,1.23-1.21A33.6,33.6,0,0,1,13,0a5.64,5.64,0,0,1,1.16,0,4.33,4.33,0,0,1,2.76,1.84,8.48,8.48,0,0,1,1.11,8c-.11.28-.23.55-.35.82a9.19,9.19,0,0,0-.54,1.4l0,.18a2.24,2.24,0,0,1-.34.86A1,1,0,0,1,16,13.52Zm-1.18-3a1,1,0,0,1,.69.22c.4.35.3.89.21,1.37s-.14.82.09,1,.48,0,.63-.17a1.93,1.93,0,0,0,.28-.72l0-.19a9.45,9.45,0,0,1,.56-1.46c.12-.26.24-.53.34-.8A8.09,8.09,0,0,0,16.62,2.1,4,4,0,0,0,14.12.41,5.25,5.25,0,0,0,13,.43,33.3,33.3,0,0,0,4,2.06c-.63.24-1,.53-1,.87a1,1,0,0,0,.26.65,2.33,2.33,0,0,0,1.67,1,1.49,1.49,0,0,0,1.5-.95.19.19,0,0,1,.18-.14c.61,0,1.29-.05,2-.05a12.42,12.42,0,0,1,3.88.5.19.19,0,0,1,.09.3,3.55,3.55,0,0,0,.35,4.6l.07.06a1.42,1.42,0,0,1,.42.54,1.45,1.45,0,0,1,.06.5.82.82,0,0,0,.06.42c.07.12.19.17.42.17a3.58,3.58,0,0,0,.4,0A4.16,4.16,0,0,1,14.83,10.48Z"/><path class="cls-2" d="M16.29,16.51a9.74,9.74,0,0,1-.5-3.32h.39a9.31,9.31,0,0,0,.48,3.17Z"/><path class="cls-2" d="M10.67,17.41,10.55,17a3.33,3.33,0,0,0,1-.59A4.2,4.2,0,0,0,12.91,15a4.19,4.19,0,0,0,.23-.85l.28-1.41a.2.2,0,0,1,.2-.16,9.22,9.22,0,0,0,2.06-.15l.07.38a9.72,9.72,0,0,1-2,.16l-.25,1.25a4.48,4.48,0,0,1-.26.92,4.56,4.56,0,0,1-1.51,1.65A3.69,3.69,0,0,1,10.67,17.41Z"/></g></g></svg>