<svg xmlns="http://www.w3.org/2000/svg" viewBox="0 0 22.97 58.99"><defs><style>.cls-1{fill:#231f20;}.cls-2{fill:#fff;}</style></defs><title>Asset 4</title><g id="Layer_2" data-name="Layer 2"><g id="Layer_1-2" data-name="Layer 1"><path class="cls-1" d="M5.81,8.12a.66.66,0,1,1,.66.66A.66.66,0,0,1,5.81,8.12Zm.33,0a.33.33,0,1,0,.33-.33A.33.33,0,0,0,6.14,8.12Z"/><polygon class="cls-1" points="5.51 8.4 6.01 7.79 8.34 7.79 8.34 7.46 5.85 7.46 5.25 8.19 5.51 8.4"/><polyline class="cls-2" points="17.34 15.08 16.78 14.5 8.51 19.23 8.51 21.75"/><path class="cls-1" d="M8.71,21.75H8.32V19.23a.19.19,0,0,1,.1-.17l8.26-4.73a.19.19,0,0,1,.24,0l.56.58-.28.27-.46-.47-8,4.6Z"/><path class="cls-1" d="M.47,58.19l0-.24C-.63,50.46.25,42.39,3.12,33.28A65.27,65.27,0,0,1,8,22L8,21.92l9.32-7.09.12.09c7.46,5.63,5.72,22.39,4.1,25.69-1.73,3.53-.49,10.37-.47,10.43l0,.17-10.38,3Zm7.82-36A65,65,0,0,0,3.49,33.4c-2.82,9-3.7,16.89-2.7,24.25l9.83-3.77,10.06-2.93c-.19-1.12-1.11-7.14.54-10.5.73-1.49,1.59-6.39,1.3-11.72-.24-4.47-1.33-10.4-5.17-13.4Z"/><path class="cls-1" d="M14.93,21.5l.72-5.14,1.69-1.28c7.38,5.57,5.58,22.3,4,25.45-1.78,3.63-.49,10.55-.49,10.55L10.4,55.36l6.06-9.07"/><path class="cls-1" d="M9.89,55.78l6.41-9.59.32.22-5.7,8.54,9.76-4c-.18-1.08-1.12-7.13.53-10.52.73-1.49,1.59-6.39,1.3-11.72-.24-4.47-1.33-10.4-5.17-13.4l-1.5,1.14-.71,5.06-.38-.05.73-5.22,1.87-1.42.12.09c7.46,5.63,5.72,22.39,4.1,25.69-1.73,3.53-.49,10.37-.47,10.43l0,.16Z"/><circle class="cls-1" cx="6.26" cy="28.13" r="0.53"/><path class="cls-1" d="M6.26,28.86A.73.73,0,1,1,7,28.13.73.73,0,0,1,6.26,28.86Zm0-1.07a.34.34,0,1,0,.34.34A.34.34,0,0,0,6.26,27.79Z"/><circle class="cls-1" cx="4.62" cy="33.99" r="0.53"/><path class="cls-1" d="M4.62,34.72A.73.73,0,1,1,5.35,34,.73.73,0,0,1,4.62,34.72Zm0-1.07A.34.34,0,1,0,5,34,.34.34,0,0,0,4.62,33.65Z"/><circle class="cls-1" cx="3.3" cy="41.57" r="0.53"/><path class="cls-1" d="M3.3,42.3A.73.73,0,1,1,4,41.57.73.73,0,0,1,3.3,42.3Zm0-1.07a.34.34,0,1,0,.34.34A.34.34,0,0,0,3.3,41.23Z"/><circle class="cls-1" cx="2.31" cy="47.15" r="0.53"/><path class="cls-1" d="M2.31,47.88A.73.73,0,1,1,3,47.15.73.73,0,0,1,2.31,47.88Zm0-1.07a.34.34,0,1,0,.34.34A.34.34,0,0,0,2.31,46.81Z"/><path class="cls-2" d="M9.91,57.56s1.21-7.48,2.72-8.94c0,0-.94-1.65-1.15-8.26S10.2,21.53,15.54,21.43s4.57,8.94,4.08,19.13-.78,12.63-2.53,17.77"/><path class="cls-1" d="M17.28,58.4l-.37-.13c1.78-5.23,2-7.84,2.52-17.72l.09-1.76c.37-7.46.69-13.9-1.58-16.25a3.07,3.07,0,0,0-2.38-.92,2.72,2.72,0,0,0-2,.9c-2.47,2.62-2.16,10.24-1.93,15.8,0,.72.06,1.4.08,2,.21,6.44,1.11,8.15,1.12,8.17l.07.13-.11.1c-1.44,1.4-2.65,8.75-2.66,8.83l-.38-.06c0-.3,1.19-7.25,2.68-8.94-.22-.5-.93-2.55-1.11-8.21,0-.63,0-1.31-.08-2-.23-5.63-.55-13.34,2-16.08a3.13,3.13,0,0,1,2.3-1,3.5,3.5,0,0,1,2.67,1c2.39,2.47,2.07,9,1.69,16.54l-.09,1.76C19.34,50.49,19.07,53.12,17.28,58.4Z"/><rect class="cls-1" x="2.11" y="57.28" width="0.39" height="1.71"/><path class="cls-1" d="M20.8,51.18s-.29.72,1.2,4.28"/><path class="cls-1" d="M21.81,55.53c-1.48-3.53-1.23-4.34-1.2-4.43l.36.14s-.2.8,1.19,4.14Z"/><polyline class="cls-1" points="11.25 33.45 7.3 33.99 7.3 35.06 11.25 34.52"/><path class="cls-1" d="M7.3,35.25a.19.19,0,0,1-.19-.19V34a.19.19,0,0,1,.17-.19l4-.53.05.38-3.78.51v.68l3.73-.5.05.38-4,.53Z"/><polyline class="cls-1" points="12.17 47.15 6.99 48.88 6.99 50.45 12.63 48.63"/><path class="cls-1" d="M7,50.65a.19.19,0,0,1-.19-.19V48.88a.19.19,0,0,1,.13-.18L12.11,47l.12.37L7.19,49v1.16l5.38-1.75.12.37L7.05,50.64Z"/><path class="cls-1" d="M8.73,19.17a3.79,3.79,0,0,0-1.69-1l-.1,0A1.26,1.26,0,0,1,6,17.75,1.22,1.22,0,0,1,5.9,17L6,15.42a2.14,2.14,0,0,1-.74-1.32h0l0-.06a3.55,3.55,0,0,1,0-1.35,3.63,3.63,0,0,1-1.33,0,1,1,0,0,1-.43-.14c-.37-.25-.41-.76-.11-1.44l.93-2.07a2.31,2.31,0,0,0,.2-.56,2.29,2.29,0,0,0-.06-.78l0-.19A5.9,5.9,0,0,1,5.75,2.61L6,2.87A5.51,5.51,0,0,0,4.7,7.48l0,.18a2.61,2.61,0,0,1,.07.92,2.62,2.62,0,0,1-.22.65L3.64,11.3c-.08.18-.31.76,0,1a.67.67,0,0,0,.27.08,3.28,3.28,0,0,0,1.51-.13A2,2,0,0,1,5.83,12a2.66,2.66,0,0,0,.39-.19.19.19,0,0,1,.21.32,3.6,3.6,0,0,1-.85.44,3.13,3.13,0,0,0-.06,1.26,1.64,1.64,0,0,0,.36-.08,6.35,6.35,0,0,0,.74-.35.19.19,0,0,1,.23.31,2.89,2.89,0,0,1-.83.4l-.39.13a1.82,1.82,0,0,0,.5.84.2.2,0,0,1,.19.09.24.24,0,0,1,0,.24L6.29,17a.9.9,0,0,0,.07.51c.12.18.39.23.65.27l.1,0A4.2,4.2,0,0,1,9,18.88Z"/><path class="cls-1" d="M11.62,7a11.94,11.94,0,0,1-.4-3.79l-3.64.29c-.26,0-.58,0-.69-.23s0-.21-.08-.3c-.14-.3-.58-.22-.88-.09a3.27,3.27,0,0,1-1.68.39c-.58-.08-1.13-.62-1-1.19s.56-.71,1-.89a16.66,16.66,0,0,1,6.24-1A9.82,9.82,0,0,1,13.3.47a5.44,5.44,0,0,1,2.89,2,9.82,9.82,0,0,1,.69,1.17,10.7,10.7,0,0,1,1.45,4.27,9.84,9.84,0,0,1-.46,3.17,2.69,2.69,0,0,1-1.16,1.83,2.79,2.79,0,0,1-1.3.17q-.07-1.2-.23-2.38a2.5,2.5,0,0,1-1.28-.17,3.28,3.28,0,0,1-1.56-1.5A8.29,8.29,0,0,1,11.62,7Z"/><path class="cls-1" d="M15.7,13.32H15.4a.19.19,0,0,1-.19-.18c0-.73-.11-1.46-.2-2.18a2.73,2.73,0,0,1-1.19-.2,3.47,3.47,0,0,1-1.65-1.59A8.53,8.53,0,0,1,11.43,7,12.76,12.76,0,0,1,11,3.41l-3.41.28H7.42a.7.7,0,0,1-.71-.35.78.78,0,0,1-.06-.2.5.5,0,0,0,0-.11S6.58,3,6.42,3a1.14,1.14,0,0,0-.42.1,3.44,3.44,0,0,1-1.78.41,1.49,1.49,0,0,1-1-.61A1,1,0,0,1,3,2a1.67,1.67,0,0,1,1.1-1,17,17,0,0,1,6.31-1h.36a9.2,9.2,0,0,1,2.53.28,5.61,5.61,0,0,1,3,2.12,9.93,9.93,0,0,1,.7,1.19,10.91,10.91,0,0,1,1.47,4.35,10.08,10.08,0,0,1-.47,3.23,2.86,2.86,0,0,1-1.26,2A2.46,2.46,0,0,1,15.7,13.32Zm-.12-.39a2.3,2.3,0,0,0,1-.16,2.55,2.55,0,0,0,1.06-1.71A9.75,9.75,0,0,0,18.13,8a10.59,10.59,0,0,0-1.43-4.19A9.63,9.63,0,0,0,16,2.62a5.23,5.23,0,0,0-2.79-2A8.84,8.84,0,0,0,10.82.39h-.36a16.65,16.65,0,0,0-6.17,1c-.53.22-.8.46-.87.75a.64.64,0,0,0,.11.51,1.1,1.1,0,0,0,.73.44,3.1,3.1,0,0,0,1.58-.38,1.56,1.56,0,0,1,.57-.13A.57.57,0,0,1,7,2.88.79.79,0,0,1,7,3.08a.49.49,0,0,0,0,.1c.06.14.32.13.5.12L11.2,3a.19.19,0,0,1,.15.06.19.19,0,0,1,.06.15,11.91,11.91,0,0,0,.4,3.72,8.21,8.21,0,0,0,.69,2A3.09,3.09,0,0,0,14,10.39a2.33,2.33,0,0,0,1.18.16.19.19,0,0,1,.22.17C15.47,11.45,15.54,12.19,15.58,12.93Z"/><path class="cls-1" d="M16.33,14.66c0-.09,0-.18,0-.28a4,4,0,0,1,0-1.16.2.2,0,0,1,0-.1,1.6,1.6,0,0,0,.06-.16.64.64,0,0,1,.17-.34l.24.31-.12-.15.15.13a1.43,1.43,0,0,0-.06.17,1.21,1.21,0,0,1-.1.26,3.77,3.77,0,0,0,0,1c0,.1,0,.2,0,.29Z"/><path class="cls-1" d="M13.11,15.72l-.37-.12a6.56,6.56,0,0,0,.2-1c0-.18.05-.36.08-.53a2.86,2.86,0,0,1,.69-1.54.84.84,0,0,1,.36-.23.91.91,0,0,1,.28,0h.88v.39h-1a.48.48,0,0,0-.19.13,2.5,2.5,0,0,0-.59,1.34c0,.17-.06.34-.08.52A7,7,0,0,1,13.11,15.72Z"/></g></g></svg>