<svg xmlns="http://www.w3.org/2000/svg" viewBox="0 0 22.28 60.34"><defs><style>.cls-1{fill:#231f20;}.cls-2{fill:#fff;}</style></defs><title>Asset 3</title><g id="Layer_2" data-name="Layer 2"><g id="Layer_1-2" data-name="Layer 1"><path class="cls-1" d="M5.52,8.72a.66.66,0,1,1,.66.66A.66.66,0,0,1,5.52,8.72Zm.33,0a.33.33,0,1,0,.33-.33A.33.33,0,0,0,5.85,8.72Z"/><polygon class="cls-1" points="5.23 9 5.72 8.39 8.05 8.39 8.05 8.06 5.57 8.06 4.97 8.79 5.23 9"/><polyline class="cls-2" points="6.08 23.1 7.13 21.42 16.85 16.24 17.73 18.05"/><path class="cls-1" d="M6.24,23.21,5.91,23,7,21.32A.19.19,0,0,1,7,21.25l9.71-5.18a.19.19,0,0,1,.27.09L17.91,18l-.35.17-.8-1.63L7.27,21.57Z"/><path class="cls-1" d="M.47,59.18l0-.21c-1.14-8,.19-18.24.9-23.72.1-.79.19-1.48.26-2.07A18.82,18.82,0,0,1,5.94,23l.06,0,11.75-5.17V18a8,8,0,0,0,1.42,3.66c3.71,6.06,3.45,16.58,1.9,19.74-1.73,3.54-.89,11.08-.88,11.16l0,.14-9.91,4.14ZM6.19,23.26a18.54,18.54,0,0,0-4.2,10c-.07.59-.16,1.28-.26,2.07C1,40.71-.28,50.74.8,58.71l9.38-2.19,9.61-4c-.12-1.11-.73-7.82.93-11.23,1.52-3.1,1.77-13.41-1.88-19.37a9.08,9.08,0,0,1-1.46-3.57Z"/><path class="cls-1" d="M15.4,54.77l4.66-1.36s-.75-9.06.84-12.78c1.32-3.1,2.36-10.81-1.61-18.4a29.59,29.59,0,0,1-1.62-4.29l-1.27,1-2.09,4.16"/><path class="cls-1" d="M15.45,55l-.11-.37,4.51-1.32c-.1-1.26-.62-9.22.87-12.71s2.19-11-1.6-18.23a29.4,29.4,0,0,1-1.55-4.05l-1,.78-2.07,4.12L14.14,23l2.09-4.16a.19.19,0,0,1,.05-.07l1.27-1a.19.19,0,0,1,.31.1,29.56,29.56,0,0,0,1.6,4.25c3.85,7.37,3.08,15.14,1.61,18.57-1.55,3.63-.83,12.6-.83,12.69a.19.19,0,0,1-.14.2Z"/><circle class="cls-1" cx="4.19" cy="30.39" r="0.53"/><path class="cls-1" d="M4.19,31.12a.73.73,0,1,1,.73-.73A.73.73,0,0,1,4.19,31.12Zm0-1.07a.34.34,0,1,0,.34.34A.34.34,0,0,0,4.19,30Z"/><circle class="cls-1" cx="3.12" cy="38.69" r="0.53"/><path class="cls-1" d="M3.12,39.42a.73.73,0,1,1,.73-.73A.73.73,0,0,1,3.12,39.42Zm0-1.07a.34.34,0,1,0,.34.34A.34.34,0,0,0,3.12,38.35Z"/><polyline class="cls-1" points="10.85 31.67 6.09 34.5 5.8 36.13 10.74 33.01"/><path class="cls-1" d="M5.81,36.32a.19.19,0,0,1-.19-.23l.29-1.63A.19.19,0,0,1,6,34.33l4.76-2.83.2.33L6.27,34.62l-.19,1.11,4.56-2.88.21.33L5.91,36.29A.19.19,0,0,1,5.81,36.32Z"/><circle class="cls-1" cx="3.12" cy="45.01" r="0.53"/><path class="cls-1" d="M3.12,45.73A.73.73,0,1,1,3.85,45,.73.73,0,0,1,3.12,45.73Zm0-1.07a.34.34,0,1,0,.34.34A.34.34,0,0,0,3.12,44.67Z"/><circle class="cls-1" cx="3.65" cy="51.27" r="0.53"/><path class="cls-1" d="M3.65,52a.73.73,0,1,1,.73-.73A.73.73,0,0,1,3.65,52Zm0-1.07a.34.34,0,1,0,.34.34A.34.34,0,0,0,3.65,50.93Z"/><path class="cls-2" d="M8.95,59.23s1.21-7.48,2.72-8.94c0,0-.94-1.65-1.15-8.26S9.24,23.2,14.58,23.1,19.15,32,18.66,42.24,17.88,54.86,16.14,60"/><path class="cls-1" d="M16.32,60.07,16,59.95c1.78-5.23,2-7.84,2.52-17.72l.09-1.76c.37-7.46.69-13.9-1.58-16.25a3.07,3.07,0,0,0-2.38-.92,2.72,2.72,0,0,0-2,.9c-2.47,2.62-2.16,10.24-1.93,15.8,0,.72.06,1.4.08,2,.21,6.44,1.11,8.15,1.12,8.17l.07.13-.11.1c-1.44,1.4-2.65,8.75-2.66,8.83l-.38-.06c0-.3,1.19-7.25,2.68-8.94-.22-.5-.93-2.55-1.11-8.21,0-.63,0-1.31-.08-2-.23-5.63-.55-13.34,2-16.08a3.13,3.13,0,0,1,2.3-1,3.51,3.51,0,0,1,2.67,1c2.39,2.47,2.07,9,1.69,16.54l-.09,1.76C18.38,52.17,18.11,54.8,16.32,60.07Z"/><rect class="cls-1" x="1.93" y="58.21" width="0.39" height="2.13"/><polyline class="cls-1" points="10.5 44.02 6.4 46.09 6.08 47.97 10.73 45.54"/><path class="cls-1" d="M6.08,48.16a.19.19,0,0,1-.19-.23l.32-1.88a.19.19,0,0,1,.1-.14l4.1-2.07.18.35-4,2-.24,1.4,4.3-2.25.18.34L6.17,48.14Z"/><path class="cls-1" d="M19.42,53.59A23.93,23.93,0,0,0,21.16,60"/><path class="cls-1" d="M21,60.09a24.39,24.39,0,0,1-1.76-6.48l.39,0a24,24,0,0,0,1.73,6.36Z"/><path class="cls-1" d="M9.41,20.39c-.33,0-.42-.34-.49-.57a1.35,1.35,0,0,0-.08-.24,1.88,1.88,0,0,1-.1-.26A.58.58,0,0,0,8.57,19a.57.57,0,0,0-.27,0L6,18.91a.69.69,0,0,1-.44-.13.63.63,0,0,1-.2-.43,5.22,5.22,0,0,1,0-.75A1.75,1.75,0,0,0,5,16.28a1.82,1.82,0,0,0-.22-.18,1,1,0,0,1-.52-.8,1.05,1.05,0,0,1,.3-.75.66.66,0,0,1-.36-.47,2.3,2.3,0,0,1,.05-1.21,1.28,1.28,0,0,1,.2-.35,5.76,5.76,0,0,1-.61,0,.66.66,0,0,1-.51-.26.61.61,0,0,1-.1-.53,6.59,6.59,0,0,1,.59-1.33A4.75,4.75,0,0,0,4.44,8.8a4.7,4.7,0,0,0,0-.68,4.64,4.64,0,0,1,0-.8,4.64,4.64,0,0,1,.37-1.13L5.9,3.68a.19.19,0,0,1,.36.15L5.2,6.34a4.35,4.35,0,0,0-.34,1,4.3,4.3,0,0,0,0,.73,5.06,5.06,0,0,1,0,.73,5.11,5.11,0,0,1-.67,1.76,6.22,6.22,0,0,0-.55,1.25.22.22,0,0,0,0,.19.26.26,0,0,0,.21.11,6.42,6.42,0,0,0,.72,0l.55,0a.9.9,0,0,1,.54,0,.19.19,0,0,1-.1.37,2.49,2.49,0,0,0-.39,0l-.08,0a.91.91,0,0,0-.47.5,1.86,1.86,0,0,0,0,1,.29.29,0,0,0,.29.22H5A3.83,3.83,0,0,1,5.77,14L6,13.92l.44-.15a.19.19,0,0,1,.14.36,2.83,2.83,0,0,1-.46.16l-.05,0a4.8,4.8,0,0,1-.94.28,1.33,1.33,0,0,0-.22.14.7.7,0,0,0-.28.55c0,.23.14.33.36.5a2.12,2.12,0,0,1,.27.22,2.05,2.05,0,0,1,.4,1.6,5,5,0,0,0,0,.7s0,.14.06.18a.4.4,0,0,0,.2,0l2.35.06a.9.9,0,0,1,.47.11.87.87,0,0,1,.33.51,1.51,1.51,0,0,0,.08.2,1.63,1.63,0,0,1,.11.32.82.82,0,0,0,.11.29.2.2,0,0,1,.2.19.19.19,0,0,1-.19.2Z"/><path class="cls-1" d="M14.84,11.45c-.36-.75-1.33-.91-2.12-1.18a.88.88,0,0,1-.41-.24.85.85,0,0,1-.15-.33A13.34,13.34,0,0,1,12,6.9a2.91,2.91,0,0,0-1.16-2.44A3.57,3.57,0,0,0,9.31,4.1L5.66,3.8C4.92,3.74,4,3.57,3.79,2.88a1.27,1.27,0,0,1,.32-1.24A2.89,2.89,0,0,1,5.25,1,12.15,12.15,0,0,1,8.13.31,12.62,12.62,0,0,1,14.58,1a7,7,0,0,1,4.15,4.76,3.82,3.82,0,0,1-.28,2.56c-.23.42-.56.78-.77,1.21a5.13,5.13,0,0,0-.4,1.89L17,14.61a2,2,0,0,1-2-1.57A6.3,6.3,0,0,0,14.84,11.45Z"/><path class="cls-1" d="M17,14.8a2.18,2.18,0,0,1-2.09-1.73,4.11,4.11,0,0,1-.05-.65,2.21,2.21,0,0,0-.14-.89c-.26-.54-.92-.74-1.55-.94l-.45-.15a1.06,1.06,0,0,1-.49-.3,1,1,0,0,1-.18-.4,7.13,7.13,0,0,1-.16-1.94c0-.3,0-.6,0-.9a2.78,2.78,0,0,0-1.06-2.28,3.44,3.44,0,0,0-1.46-.34L5.64,4c-.73-.06-1.75-.23-2-1.05A1.45,1.45,0,0,1,4,1.51,3.11,3.11,0,0,1,5.18.77,12.22,12.22,0,0,1,8.11.12a12.75,12.75,0,0,1,6.55.73,7.15,7.15,0,0,1,4.27,4.9,4,4,0,0,1-.3,2.69,6,6,0,0,1-.38.59,4.91,4.91,0,0,0-.39.62,5,5,0,0,0-.38,1.82l-.26,3.17a.19.19,0,0,1-.19.18ZM10.13.39a17.39,17.39,0,0,0-2,.12,11.8,11.8,0,0,0-2.83.63,2.76,2.76,0,0,0-1.07.64,1.07,1.07,0,0,0-.28,1c.22.61,1.08.74,1.7.8l3.65.3A3.73,3.73,0,0,1,11,4.3a3.14,3.14,0,0,1,1.25,2.6c0,.31,0,.62,0,.93a6.73,6.73,0,0,0,.14,1.83.69.69,0,0,0,.11.25.71.71,0,0,0,.32.18l.44.14A2.63,2.63,0,0,1,15,11.37a2.52,2.52,0,0,1,.18,1,3.83,3.83,0,0,0,0,.59,1.81,1.81,0,0,0,1.6,1.41l.25-3a5.31,5.31,0,0,1,.42-2,5.27,5.27,0,0,1,.42-.67,5.6,5.6,0,0,0,.35-.55,3.63,3.63,0,0,0,.26-2.43,6.75,6.75,0,0,0-4-4.62A11,11,0,0,0,10.13.39Z"/><path class="cls-1" d="M11.28,19.35a.24.24,0,0,1-.17-.07.19.19,0,0,1,0-.27h0a.19.19,0,0,1,.17-.15c.16,0,.3-.22.4-.59l.54-2a27.08,27.08,0,0,1,.91-2.95.19.19,0,0,1,.36.14,26.83,26.83,0,0,0-.89,2.91l-.54,2c0,.18-.18.69-.58.84a.26.26,0,0,1-.11.13Z"/><path class="cls-1" d="M16.51,16.5a.19.19,0,0,1-.12,0c-.26-.19-.32-.55-.17-1.06l.2-.68a.19.19,0,1,1,.37.11l-.2.68c-.07.23-.12.53,0,.64a.19.19,0,0,1-.12.35Z"/></g></g></svg>