<svg xmlns="http://www.w3.org/2000/svg" viewBox="0 0 41.85 85.29"><defs><style>.cls-1{fill:#231f20;}.cls-2{fill:#fff;}</style></defs><title>Asset 5</title><g id="Layer_2" data-name="Layer 2"><g id="Layer_1-2" data-name="Layer 1"><path class="cls-1" d="M19.77,21.44a4.28,4.28,0,0,1-3.51-1.74A14.14,14.14,0,0,1,15,16.55c-.61-1.77-.61-4.4-.6-10.74V5.12a.19.19,0,0,1,.39,0v.69c0,6.3,0,8.91.58,10.62a13.58,13.58,0,0,0,1.23,3.07A4,4,0,0,0,19.81,21a.19.19,0,0,1,.2.19.19.19,0,0,1-.19.2Z"/><path class="cls-1" d="M24,20.37a.19.19,0,0,1-.12-.35l2.66-2a1.9,1.9,0,0,0,.76-1.52V14.93a.19.19,0,0,1,.39,0v1.58a2.3,2.3,0,0,1-.91,1.83l-2.66,2A.19.19,0,0,1,24,20.37Z"/><path class="cls-1" d="M19.42,14.62a11.17,11.17,0,0,1-1.86-.18.19.19,0,0,1,.07-.38,8.36,8.36,0,0,0,2.84.06l-.13-.59a.19.19,0,1,1,.38-.09l.17.76a.19.19,0,0,1-.12.23A4.13,4.13,0,0,1,19.42,14.62Z"/><path class="cls-1" d="M19.72,17.12a8.9,8.9,0,0,1-1.91-.21.19.19,0,1,1,.08-.38,8.48,8.48,0,0,0,3.66,0,.19.19,0,1,1,.08.38A8.9,8.9,0,0,1,19.72,17.12Z"/><path class="cls-1" d="M18.42,17A2.26,2.26,0,0,0,21,17"/><path class="cls-1" d="M19.71,17.63a2,2,0,0,1-1.43-.47.19.19,0,0,1,.28-.27,1.73,1.73,0,0,0,1.23.35,1.62,1.62,0,0,0,1.08-.34.19.19,0,1,1,.29.25,1.91,1.91,0,0,1-1.36.48Z"/><path class="cls-1" d="M19.18.68a8.32,8.32,0,0,1,6.09.2,14.77,14.77,0,0,1,1.66.89,9.26,9.26,0,0,1,1.26.85,6.51,6.51,0,0,1,1.42,1.79,6.52,6.52,0,0,1,.76,2,9.94,9.94,0,0,1,.12,1.78l0,4.45a2,2,0,0,1-.08.73,2.06,2.06,0,0,1-.94.92,2.6,2.6,0,0,1-2.09.57,2.11,2.11,0,0,0,.86-1.2,1.43,1.43,0,0,0-.12-1.13.88.88,0,0,0-1-.39,14.45,14.45,0,0,1-.9-4A3.42,3.42,0,0,1,27.17,5a16.53,16.53,0,0,1-2.77.28q-2.88.12-5.76.17a18.52,18.52,0,0,1-5.12-.41C13.3,5,13,4.91,13,4.69a.67.67,0,0,1,.07-.4,3.48,3.48,0,0,1,1-1.62c.26-.18.56-.29.8-.49s.46-.54.72-.78A3.56,3.56,0,0,1,18.29.82a2.12,2.12,0,0,0,.41,0A2.42,2.42,0,0,0,19.18.68Z"/><path class="cls-1" d="M27.84,15.09a1.57,1.57,0,0,1-.5-.08.19.19,0,0,1,0-.35,1.92,1.92,0,0,0,.78-1.08,1.23,1.23,0,0,0-.1-1,.7.7,0,0,0-.78-.31.19.19,0,0,1-.25-.11,14.61,14.61,0,0,1-.92-4,4.12,4.12,0,0,1,.56-2.84,21,21,0,0,1-2.19.17c-1.91.08-3.85.14-5.76.17H17.53a15.71,15.71,0,0,1-4.06-.43c-.14,0-.58-.15-.67-.52a.85.85,0,0,1,.08-.52A3.66,3.66,0,0,1,14,2.51a3.65,3.65,0,0,1,.39-.23A2.7,2.7,0,0,0,14.78,2a2.69,2.69,0,0,0,.37-.4,3.7,3.7,0,0,1,.34-.37A3.06,3.06,0,0,1,17.63.61l.67,0a1.9,1.9,0,0,0,.37,0,2,2,0,0,0,.39-.11l.05,0A8.38,8.38,0,0,1,22,0a8.5,8.5,0,0,1,3.38.7A15,15,0,0,1,27,1.6a9.45,9.45,0,0,1,1.28.87,6.63,6.63,0,0,1,1.47,1.85,6.65,6.65,0,0,1,.78,2,10.13,10.13,0,0,1,.12,1.82l0,4.45a2.22,2.22,0,0,1-.1.8,2.24,2.24,0,0,1-1,1A3.51,3.51,0,0,1,27.84,15.09Zm-.46-3.22a1.13,1.13,0,0,1,.92.52,1.62,1.62,0,0,1,.14,1.28,2.32,2.32,0,0,1-.59,1,3.23,3.23,0,0,0,1.54-.61,1.87,1.87,0,0,0,.86-.82,1.9,1.9,0,0,0,.07-.66l0-4.45a9.82,9.82,0,0,0-.12-1.75,6.27,6.27,0,0,0-.73-1.91,6.25,6.25,0,0,0-1.38-1.74,9.11,9.11,0,0,0-1.23-.84,14.64,14.64,0,0,0-1.63-.88A8.11,8.11,0,0,0,22,.39a8,8,0,0,0-2.72.47l-.05,0a2.27,2.27,0,0,1-.47.13,2.31,2.31,0,0,1-.45,0l-.65,0a2.61,2.61,0,0,0-1.87.54,3.38,3.38,0,0,0-.3.34,3,3,0,0,1-.43.45,3,3,0,0,1-.46.29,3.29,3.29,0,0,0-.35.21,3.37,3.37,0,0,0-1,1.54.53.53,0,0,0-.06.28c0,.1.15.18.39.24a15.36,15.36,0,0,0,4,.41h1.1c1.91,0,3.84-.09,5.76-.17a16.11,16.11,0,0,0,2.74-.27.19.19,0,0,1,.22.11.19.19,0,0,1-.06.24c-.7.51-1,1.5-.87,2.95a14.23,14.23,0,0,0,.83,3.74Z"/><polyline class="cls-2" points="21.29 29.43 20.11 52.68 22.55 56.03 24.98 52.44 23.62 29.43"/><path class="cls-1" d="M22.55,56.23a.19.19,0,0,1-.16-.08L20,52.8a.19.19,0,0,1,0-.12l1.17-23.26a.19.19,0,0,1,.39,0L20.31,52.63l2.23,3.07,2.24-3.31L23.42,29.44a.19.19,0,0,1,.18-.21.19.19,0,0,1,.21.18l1.37,23a.19.19,0,0,1,0,.12l-2.44,3.59a.19.19,0,0,1-.16.09Z"/><rect class="cls-1" x="18.08" y="21.05" width="0.39" height="1.79"/><path class="cls-1" d="M27.21,21.66a.19.19,0,0,1-.16-.08A2.62,2.62,0,0,1,26.7,20V18a.19.19,0,0,1,.19-.2h0a.19.19,0,0,1,.19.19v2a2.24,2.24,0,0,0,.28,1.34.19.19,0,0,1-.16.31Z"/><path class="cls-2" d="M27.5,21.24s-3.79,3.91-5,4.51c0,0,2.54,2.43,2.54,4a40,40,0,0,0,2.5-4.44A4.13,4.13,0,0,0,27.5,21.24Z"/><path class="cls-1" d="M25,29.94H25a.19.19,0,0,1-.14-.19c0-1.45-2.46-3.82-2.48-3.85a.19.19,0,0,1,.05-.32c1.14-.55,4.7-4.11,5-4.43a.19.19,0,0,1,.34,0,4.31,4.31,0,0,1,0,4.22,39.41,39.41,0,0,1-2.51,4.47A.19.19,0,0,1,25,29.94Zm-2.23-4.14a9.88,9.88,0,0,1,2.34,3.4,34.25,34.25,0,0,0,2.2-4,4,4,0,0,0,.14-3.65A36.54,36.54,0,0,1,22.78,25.79Zm3.67-2.23a.19.19,0,1,1,.19-.19A.19.19,0,0,1,26.45,23.56Z"/><path class="cls-1" d="M23.62,29.62H21.29a.19.19,0,0,1-.16-.08l-.73-1.06a.19.19,0,1,1,.32-.22l.67,1h2.13l.7-1a.19.19,0,1,1,.32.23l-.76,1.06A.19.19,0,0,1,23.62,29.62Z"/><path class="cls-1" d="M9.15,85.29C7.67,74.43,8.71,70.6,8.76,70.45l.37.11s-1.06,3.93.4,14.68Z"/><rect class="cls-1" x="34.66" y="73.79" width="0.39" height="9.59"/><rect class="cls-1" x="29.35" y="74.89" width="0.39" height="8.5"/><path class="cls-2" d="M7.8,74.06c0,.54-.18.6-.44.61a.7.7,0,0,1-.75-.58l0-1.13a.18.18,0,0,0-.11-.16l-1.19-.55a.27.27,0,0,0-.23,0,.18.18,0,0,0-.11.16,5,5,0,0,0-.26,1.42,8.77,8.77,0,0,0,.26,1.7.17.17,0,0,0,.07.14l2.25,1.68c.82.42,1,1.06,1,1.26h0c-.67,0-3.33-1.27-5-2.15a21,21,0,0,1-.79-4.28A14.35,14.35,0,0,1,3,68.72H6.47s1.45,1.89,1.45,3S7.8,74.06,7.8,74.06Z"/><path class="cls-1" d="M8.41,78.81H8.26c-1,0-4.94-2.08-5.11-2.17l-.07,0,0-.08a20.87,20.87,0,0,1-.8-4.33,14.36,14.36,0,0,1,.6-3.52l0-.14H6.56l.06.08c.06.08,1.49,2,1.49,3.07S8,74.07,8,74.08a.8.8,0,0,1-.15.61.63.63,0,0,1-.47.18h0a.89.89,0,0,1-.95-.76l0-1.14L5.2,72.43l-.14-.18.08.21v0a4.84,4.84,0,0,0-.25,1.36,8.62,8.62,0,0,0,.25,1.65v0L7.38,77.2c.89.45,1.14,1.18,1.07,1.46Zm-5-2.48A29.48,29.48,0,0,0,8,78.39a1.75,1.75,0,0,0-.86-.86L4.9,75.83a.36.36,0,0,1-.15-.26,8.7,8.7,0,0,1-.26-1.73,5.12,5.12,0,0,1,.26-1.46.38.38,0,0,1,.22-.3.47.47,0,0,1,.39,0l1.19.55a.37.37,0,0,1,.23.33l0,1.13c0,.21.26.39.55.39.11,0,.17,0,.19,0s.07-.1.05-.36c0,0,.12-1.36.12-2.4a6.72,6.72,0,0,0-1.35-2.76H3.18a13.77,13.77,0,0,0-.54,3.27A20.16,20.16,0,0,0,3.4,76.33Z"/><path class="cls-2" d="M35.88,71.21c0-1.06,1.45-3,1.45-3h3.43a14.35,14.35,0,0,1,.59,3.46A21,21,0,0,1,40.56,76c-1.69.89-4.35,2.15-5,2.15h0c0-.2.18-.84,1-1.26l2.25-1.68a.17.17,0,0,0,.07-.14,8.77,8.77,0,0,0,.26-1.7A5,5,0,0,0,38.86,72a.18.18,0,0,0-.11-.16.27.27,0,0,0-.23,0l-1.19.55a.18.18,0,0,0-.11.16l0,1.13a.7.7,0,0,1-.75.58c-.26,0-.47-.07-.44-.61C36,73.6,35.88,72.27,35.88,71.21Z"/><path class="cls-1" d="M35.54,78.35h-.16l0-.15c-.07-.28.18-1,1.1-1.47l2.22-1.67a9.36,9.36,0,0,0,.26-1.68A4.82,4.82,0,0,0,38.68,72V72l-.06,0-1.19.55,0,1.12a.89.89,0,0,1-.94.77.64.64,0,0,1-.48-.18.84.84,0,0,1-.15-.64h0s-.12-1.32-.12-2.38,1.43-3,1.49-3.07l.06-.08h3.67l0,.14a14.36,14.36,0,0,1,.6,3.52,20.88,20.88,0,0,1-.8,4.33l0,.08-.07,0C40.48,76.26,36.49,78.35,35.54,78.35Zm3.51-3.24a.37.37,0,0,1-.15.26l-2.25,1.68a1.81,1.81,0,0,0-.89.87,29.54,29.54,0,0,0,4.63-2.06,20.18,20.18,0,0,0,.76-4.14,13.77,13.77,0,0,0-.54-3.27H37.43a6.84,6.84,0,0,0-1.35,2.76c0,1,.12,2.36.12,2.37,0,.28,0,.36.05.38s.08,0,.2,0a.51.51,0,0,0,.54-.39l0-1.12a.37.37,0,0,1,.23-.33l1.19-.55a.48.48,0,0,1,.39,0,.38.38,0,0,1,.22.3,5.12,5.12,0,0,1,.26,1.46A8.71,8.71,0,0,1,39.05,75.1Z"/><path class="cls-1" d="M20.8,84.83a6.63,6.63,0,0,1,.42-2c.15-.53.33-1.12.49-1.78a27.16,27.16,0,0,0,.56-4.36.19.19,0,0,1,.37-.07,35.14,35.14,0,0,1,1.92,7.43l-.38.05a37.81,37.81,0,0,0-1.58-6.54,23.59,23.59,0,0,1-.52,3.58c-.17.67-.34,1.27-.49,1.8a7.15,7.15,0,0,0-.41,1.82Z"/><rect class="cls-1" x="14.52" y="73.79" width="0.39" height="7.62"/><g id="_Group_" data-name="&lt;Group&gt;"><path class="cls-2" d="M35.26,68.63c.14,3.08.28,5.05.28,5.05a32.39,32.39,0,0,0-3.89.88c-2.82.75-4.14,0-4.14,0l-5-2.66s-3.15,3.09-6,2.51-7.93-4.15-7.93-4.15c0-2.94,1.21-13.19.74-15.67C9.18,53.9,9.1,51.68,9,49h-.1C7.53,55.95,8.51,68.8,7.72,68.5l-6.19,2c-2.62-23.12,2-38.75,5-42.13,1.88-2.18,5.79-3.61,8.33-4.35l-.88,3.29,2.65,2.12-1.94,1.86c.82,1.6,7.56,10.84,8,11.41l0,0L30,31.83l-.84-2.4,1.75-2.2-1.32-3.31,0-.08,8.05,3.39s2.62.9,3,4.6,1.07,23.8,1,36.68C41.65,68.5,38.28,70.35,35.26,68.63Z"/><path class="cls-2" d="M29.58,23.91l1.32,3.31-1.75,2.2.84,2.4-7.35,10.9A72.3,72.3,0,0,0,28,23.17l1.57.66h0Z"/><path class="cls-2" d="M22.63,42.7c-.42-.58-7.16-9.82-8-11.41l1.94-1.86-2.65-2.12L14.82,24c1.4-.41,2.38-.61,2.38-.61S19.56,38,22.63,42.7Z"/><path class="cls-1" d="M1.54,70.69a.19.19,0,0,1-.19-.17c-2.58-22.78,2-38.78,5-42.28,1.86-2.16,5.61-3.59,8.42-4.41a.19.19,0,0,1,.11.37c-2.26.66-6.34,2.1-8.23,4.29C3.67,31.94-.81,47.7,1.7,70.24l6-1.92h0a32.08,32.08,0,0,0,.21-5.19c0-4.29.05-10.16.87-14.11a.19.19,0,0,1,.38.08c-.81,3.92-.84,9.77-.86,14,0,4-.05,5.31-.38,5.53a.27.27,0,0,1-.16,0l-6.14,2Z"/><path class="cls-1" d="M22.51,42.87l0-.06C19.57,38.39,17.35,25.49,17,23.64c-.35.08-1.15.26-2.17.56l-.11-.37c1.39-.41,2.39-.61,2.4-.61a.19.19,0,0,1,.23.16c0,.15,2.39,14.63,5.4,19.22Z"/><path class="cls-1" d="M22.47,42.82c-.07-.1-7.15-9.78-8-11.44a.19.19,0,0,1,0-.23l1.78-1.71-2.48-2a.19.19,0,0,1-.07-.2l.9-3.4L15,24l0,.1-.85,3.17,2.55,2a.19.19,0,0,1,0,.29l-1.84,1.76c.92,1.63,6,8.63,7.9,11.26Z"/><path class="cls-1" d="M29.34,75.08a4.08,4.08,0,0,1-1.93-.37L22.5,72.12c-.58.54-3.41,3-6,2.47-2.82-.58-7.79-4-8-4.18a.19.19,0,0,1-.08-.16c0-1.1.16-3.16.35-5.55.3-3.81.68-8.55.39-10.09A54.53,54.53,0,0,1,8.85,49c-.1-5-.1-11.59-.1-11.66a.19.19,0,0,1,.19-.19H9a.19.19,0,0,1,.19.19c0,.07,0,6.64.1,11.65.06,3.07.15,4.92.26,5.5.3,1.58-.06,6.16-.39,10.19C8.93,67,8.77,69,8.76,70.14c.67.46,5.22,3.54,7.77,4.06s5.77-2.43,5.8-2.46a.19.19,0,0,1,.23,0l5,2.66s1.31.72,4,0c2.19-.59,3.32-.79,3.73-.86,0-.55-.15-2.35-.26-4.87-.37-7.67-.83-21.81.28-30.31a.19.19,0,0,1,.22-.17.19.19,0,0,1,.17.22c-1.1,8.47-.64,22.58-.27,30.24.14,3,.27,5,.28,5a.19.19,0,0,1-.17.21,32.87,32.87,0,0,0-3.86.87A9.13,9.13,0,0,1,29.34,75.08Z"/><path class="cls-1" d="M38.14,69.56a5.94,5.94,0,0,1-3-.76.19.19,0,0,1-.11-.17.19.19,0,0,1,.19-.19h0l.1,0c2.61,1.49,5.53.2,6.11-.08.09-12.43-.57-32.67-1-36.54-.37-3.53-2.78-4.4-2.88-4.44l-7.72-3.25,1.19,3a.19.19,0,0,1,0,.19l-1.68,2.12.81,2.3a.19.19,0,0,1,0,.17l-7.35,10.9a.19.19,0,0,1-.34-.19,72.68,72.68,0,0,0,5.38-19.5.19.19,0,0,1,.27-.16l1.57.66,0,0,8,3.38c.1,0,2.73,1,3.13,4.76s1.07,24.27,1,36.7a.19.19,0,0,1-.1.17A8.19,8.19,0,0,1,38.14,69.56ZM28.2,23.45a75.12,75.12,0,0,1-4.53,17.41l6.11-9.06L29,29.49a.19.19,0,0,1,0-.19l1.68-2.11L29.4,24v0Z"/></g><line class="cls-2" x1="22.47" y1="71.88" x2="22.65" y2="42.73"/><path class="cls-1" d="M22.47,72.07h0a.19.19,0,0,1-.19-.2l.18-29.15a.19.19,0,0,1,.19-.19h0a.19.19,0,0,1,.19.2l-.18,29.15A.19.19,0,0,1,22.47,72.07Z"/><circle class="cls-1" cx="25.05" cy="54.14" r="0.67"/><path class="cls-2" d="M22.47,25.76s-2.16,2.11-2.35,4a25.5,25.5,0,0,1-2.26-3.6c-.14-.43-1.53-2.66,0-3.6Z"/><path class="cls-1" d="M20.11,29.94a.19.19,0,0,1-.16-.08,25,25,0,0,1-2.29-3.66c0-.06-.06-.15-.12-.27-.37-.8-1.25-2.66.2-3.56a.19.19,0,0,1,.21,0l4.62,3.22a.19.19,0,0,1,0,.3s-2.11,2.08-2.3,3.87a.19.19,0,0,1-.14.17Zm-2.26-7.17c-.88.65-.48,1.87,0,3,.07.14.12.25.14.32a20.69,20.69,0,0,0,2,3.18,9.06,9.06,0,0,1,2.16-3.47Z"/><circle class="cls-1" cx="25.05" cy="63.96" r="0.67"/><g id="_Group_2" data-name="&lt;Group&gt;"><rect class="cls-2" x="10.78" y="60.68" width="2.43" height="2.3"/><rect class="cls-2" x="10.78" y="58.37" width="2.43" height="2.3"/><rect class="cls-2" x="10.78" y="56.07" width="2.43" height="2.3"/><rect class="cls-2" x="10.78" y="53.79" width="2.43" height="2.28"/><rect class="cls-2" x="10.78" y="51.15" width="2.43" height="2.65"/><rect class="cls-2" x="10.78" y="48.5" width="2.43" height="2.65"/><rect class="cls-2" x="10.78" y="45.85" width="2.43" height="2.65"/><rect class="cls-2" x="10.78" y="43.21" width="2.43" height="2.65"/><rect class="cls-2" x="10.78" y="40.56" width="2.43" height="2.65"/><rect class="cls-2" x="10.78" y="37.91" width="2.43" height="2.65"/><rect class="cls-2" x="10.78" y="35.27" width="2.43" height="2.65"/><rect class="cls-2" x="10.78" y="32.62" width="2.43" height="2.65"/><rect class="cls-2" x="10.78" y="29.97" width="2.43" height="2.65"/><rect class="cls-2" x="10.78" y="27.33" width="2.43" height="2.65"/><rect class="cls-1" x="13.02" y="25.06" width="0.39" height="46.77"/><rect class="cls-1" x="10.59" y="25.29" width="0.39" height="46.64"/><rect class="cls-1" x="10.78" y="53.6" width="2.43" height="0.39"/><rect class="cls-1" x="10.78" y="55.88" width="2.43" height="0.39"/><rect class="cls-1" x="10.78" y="58.18" width="2.43" height="0.39"/><rect class="cls-1" x="10.78" y="60.48" width="2.43" height="0.39"/><rect class="cls-1" x="10.78" y="62.78" width="2.43" height="0.39"/><rect class="cls-1" x="10.78" y="64.93" width="2.43" height="0.39"/><rect class="cls-1" x="10.78" y="67.08" width="2.43" height="0.39"/><rect class="cls-1" x="10.78" y="69.23" width="2.43" height="0.39"/><rect class="cls-1" x="10.78" y="71.15" width="2.43" height="0.39"/><rect class="cls-1" x="10.78" y="50.95" width="2.43" height="0.39"/><rect class="cls-1" x="10.78" y="48.3" width="2.43" height="0.39"/><rect class="cls-1" x="10.78" y="45.66" width="2.43" height="0.39"/><rect class="cls-1" x="10.78" y="43.01" width="2.43" height="0.39"/><rect class="cls-1" x="10.78" y="40.37" width="2.43" height="0.39"/><rect class="cls-1" x="10.78" y="37.72" width="2.43" height="0.39"/><rect class="cls-1" x="10.78" y="35.07" width="2.43" height="0.39"/><rect class="cls-1" x="10.78" y="32.43" width="2.43" height="0.39"/><rect class="cls-1" x="10.78" y="29.78" width="2.43" height="0.39"/><rect class="cls-1" x="10.78" y="27.13" width="2.43" height="0.39"/></g><path class="cls-2" d="M1.5,17.29a41.15,41.15,0,0,0,5.38,1.26c1.44.24,3,.46,4,1.5a6.32,6.32,0,0,1,.61.79,23.1,23.1,0,0,1,2.23,4.29.59.59,0,0,1-1,.58l-1-1.29a7.38,7.38,0,0,0-2.25-1.9,1,1,0,0,0-1.15.26,1.06,1.06,0,0,0,.21,1.33,3.61,3.61,0,0,0,1.29.69,1.93,1.93,0,0,1,.75.44.73.73,0,0,1,.15.81c-.19.35-.67.38-1.06.34A9.93,9.93,0,0,1,4.11,24c-1.25-1.09-2.31-2.54-3.92-3"/><path class="cls-1" d="M9.9,26.61H9.63A10.13,10.13,0,0,1,4,24.17c-.33-.28-.64-.6-1-.9a6.75,6.75,0,0,0-2.89-2,.19.19,0,1,1,.1-.38A7.14,7.14,0,0,1,3.3,23c.3.3.62.61.94.88a9.74,9.74,0,0,0,5.43,2.33c.32,0,.73,0,.87-.24a.54.54,0,0,0-.13-.58A1.77,1.77,0,0,0,9.74,25l-.13,0a3.39,3.39,0,0,1-1.23-.68,1.25,1.25,0,0,1-.23-1.58,1.23,1.23,0,0,1,1.37-.33,5.07,5.07,0,0,1,1.84,1.45c.17.18.33.35.49.5l.5.62.56.69a.4.4,0,0,0,.65-.41A23,23,0,0,0,11.35,21a6.21,6.21,0,0,0-.59-.76A6.43,6.43,0,0,0,7,18.77l-.18,0a41.47,41.47,0,0,1-5.4-1.27.19.19,0,1,1,.11-.37A41.09,41.09,0,0,0,6.9,18.36l.18,0A6.81,6.81,0,0,1,11,19.92a6.49,6.49,0,0,1,.63.81,23.29,23.29,0,0,1,2.26,4.35.77.77,0,0,1-.35.88.78.78,0,0,1-1-.11L12,25.16l-.49-.6c-.15-.14-.31-.32-.48-.5A4.81,4.81,0,0,0,9.4,22.71a.85.85,0,0,0-.93.2A.87.87,0,0,0,8.66,24a3.1,3.1,0,0,0,1.09.6l.13,0a2.09,2.09,0,0,1,.82.49.91.91,0,0,1,.18,1A1,1,0,0,1,9.9,26.61Z"/><path class="cls-2" d="M1.5,80.17a41.15,41.15,0,0,1,5.38-1.26c1.44-.24,3-.46,4-1.5a6.32,6.32,0,0,0,.61-.79,23.1,23.1,0,0,0,2.23-4.29.59.59,0,0,0-1-.58l-1,1.29a7.38,7.38,0,0,1-2.25,1.9,1,1,0,0,1-1.15-.26,1.06,1.06,0,0,1,.21-1.33,3.61,3.61,0,0,1,1.29-.69,1.93,1.93,0,0,0,.75-.44.73.73,0,0,0,.15-.81c-.19-.35-.67-.38-1.06-.34a9.93,9.93,0,0,0-5.54,2.38C2.86,74.53,1.8,76,.19,76.39"/><path class="cls-1" d="M1.5,80.36A.19.19,0,0,1,1.44,80a41.47,41.47,0,0,1,5.4-1.27l.18,0a6.43,6.43,0,0,0,3.73-1.42,6.19,6.19,0,0,0,.59-.76,23,23,0,0,0,2.2-4.23.38.38,0,0,0-.18-.45.39.39,0,0,0-.48.05l-.3.38-.74.91c-.16.15-.32.33-.49.5a5.07,5.07,0,0,1-1.84,1.45,1.23,1.23,0,0,1-1.37-.33,1.25,1.25,0,0,1,.23-1.58,3.39,3.39,0,0,1,1.23-.68l.13,0a1.78,1.78,0,0,0,.67-.39.54.54,0,0,0,.13-.58c-.14-.25-.55-.27-.87-.24a9.74,9.74,0,0,0-5.43,2.33c-.32.28-.63.59-.93.88A7.14,7.14,0,0,1,.24,76.58a.19.19,0,1,1-.1-.38,6.75,6.75,0,0,0,2.89-2c.31-.3.63-.62,1-.9a10.13,10.13,0,0,1,5.65-2.43c.64-.06,1.06.09,1.25.44a.92.92,0,0,1-.18,1,2.09,2.09,0,0,1-.82.49l-.13,0a3.1,3.1,0,0,0-1.09.6.87.87,0,0,0-.2,1.07.85.85,0,0,0,.93.2,4.8,4.8,0,0,0,1.68-1.34c.17-.18.34-.36.5-.52h0l.71-.88.32-.4a.78.78,0,0,1,1-.12.77.77,0,0,1,.35.88,23.29,23.29,0,0,1-2.26,4.35,6.49,6.49,0,0,1-.63.81,6.81,6.81,0,0,1-3.95,1.53l-.18,0a41.09,41.09,0,0,0-5.35,1.26Z"/><path class="cls-1" d="M16.29,11.33a.78.78,0,1,1,.78-.78A.78.78,0,0,1,16.29,11.33Zm0-1.16a.39.39,0,1,0,.39.39A.39.39,0,0,0,16.29,10.17Z"/><polygon class="cls-1" points="17.71 10.88 17.13 10.17 14.38 10.17 14.38 9.78 17.31 9.78 18.01 10.63 17.71 10.88"/><path class="cls-1" d="M21.24,10.55a.78.78,0,1,1,.78.78A.78.78,0,0,1,21.24,10.55Zm.39,0a.39.39,0,1,0,.39-.39A.39.39,0,0,0,21.63,10.55Z"/><polygon class="cls-1" points="20.59 10.88 21.18 10.17 23.92 10.17 23.92 9.78 20.99 9.78 20.29 10.63 20.59 10.88"/></g></g></svg>