<svg xmlns="http://www.w3.org/2000/svg" viewBox="0 0 21.11 61.84"><defs><style>.cls-1{fill:#fff;}.cls-2{fill:#231f20;}</style></defs><title>Asset 1</title><g id="Layer_2" data-name="Layer 2"><g id="Layer_1-2" data-name="Layer 1"><polyline class="cls-1" points="3.58 27.3 4.89 23.23 14.41 15.56 15.38 17.45"/><polygon class="cls-2" points="3.76 27.36 3.39 27.24 4.72 23.12 14.47 15.26 15.55 17.36 15.21 17.54 14.34 15.86 5.06 23.35 3.76 27.36"/><path class="cls-2" d="M4.13,7.33A.66.66,0,1,1,4.79,8,.66.66,0,0,1,4.13,7.33Zm.33,0A.33.33,0,1,0,4.79,7,.33.33,0,0,0,4.46,7.33Z"/><polygon class="cls-2" points="3.83 7.6 4.33 7 6.66 7 6.66 6.67 4.17 6.67 3.58 7.39 3.83 7.6"/><path class="cls-1" d="M15.38,17.45,9.26,22.12S1.39,27.17.61,33.67A62.81,62.81,0,0,0,2.56,58.15l6-3,10.2-5s-1.26-4.37.58-8S22.86,25.22,15.38,17.45Z"/><path class="cls-2" d="M2.44,58.43l-.07-.22A63.42,63.42,0,0,1,.42,33.65C1.2,27.13,9.07,22,9.15,22l6.24-4.76.12.12c7.25,7.53,6.1,20.93,4,25-1.79,3.48-.58,7.78-.57,7.82l0,.16-10.35,5ZM15.36,17.71l-6,4.56c-.09.06-7.81,5.09-8.57,11.43A63.11,63.11,0,0,0,2.68,57.87L8.49,55l10.06-4.88c-.21-.83-1-4.67.64-7.95S22.76,25.57,15.36,17.71Z"/><path class="cls-2" d="M13.21,52.89l5.57-2.7s-1.26-4.37.58-8,3.5-17-4-24.77l-1.15.87L13,24"/><path class="cls-2" d="M13.3,53.07l-.17-.35,5.42-2.63c-.21-.83-1-4.67.64-7.95s3.58-16.56-3.83-24.42l-1,.73L13.24,24l-.38-.08,1.2-5.7,1.34-1,.12.12c7.25,7.53,6.1,20.93,4,25-1.79,3.48-.58,7.78-.57,7.82l0,.16Z"/><circle class="cls-2" cx="2.65" cy="31.25" r="0.53"/><path class="cls-2" d="M2.65,32a.73.73,0,1,1,.73-.73A.73.73,0,0,1,2.65,32Zm0-1.07a.34.34,0,1,0,.34.34A.34.34,0,0,0,2.65,30.91Z"/><circle class="cls-2" cx="1.59" cy="39.55" r="0.53"/><path class="cls-2" d="M1.59,40.28a.73.73,0,1,1,.73-.73A.73.73,0,0,1,1.59,40.28Zm0-1.07a.34.34,0,1,0,.34.34A.34.34,0,0,0,1.59,39.21Z"/><circle class="cls-2" cx="1.59" cy="45.86" r="0.53"/><path class="cls-2" d="M1.59,46.59a.73.73,0,1,1,.73-.73A.73.73,0,0,1,1.59,46.59Zm0-1.07a.34.34,0,1,0,.34.34A.34.34,0,0,0,1.59,45.52Z"/><circle class="cls-2" cx="2.12" cy="52.13" r="0.53"/><path class="cls-2" d="M2.12,52.86a.73.73,0,1,1,.73-.73A.73.73,0,0,1,2.12,52.86Zm0-1.07a.34.34,0,1,0,.34.34A.34.34,0,0,0,2.12,51.79Z"/><polyline class="cls-2" points="9.68 49.7 6.54 51.26 6.83 53.1 9.79 51.59 10.33 50.72"/><path class="cls-2" d="M6.83,53.29l-.09,0a.19.19,0,0,1-.1-.14l-.29-1.85a.19.19,0,0,1,.11-.2L9.6,49.53l.17.35-3,1.49L7,52.81l2.68-1.36.5-.83.33.2L10,51.7a.19.19,0,0,1-.08.07l-3,1.51Z"/><polyline class="cls-2" points="8.73 33.87 5.57 35.67 5.3 37.91 8.76 35.57"/><path class="cls-2" d="M5.3,38.11a.19.19,0,0,1-.19-.22l.27-2.25a.19.19,0,0,1,.1-.15l3.16-1.8.19.34L5.75,35.79l-.21,1.73,3.1-2.1.22.32L5.41,38.07A.2.2,0,0,1,5.3,38.11Z"/><path class="cls-1" d="M7.41,60.09s1.21-7.48,2.72-8.94c0,0-.94-1.65-1.15-8.26S7.71,24.06,13,24s4.57,8.94,4.08,19.13-.78,12.63-2.53,17.77"/><path class="cls-2" d="M14.79,60.93l-.37-.13c1.78-5.23,2-7.84,2.52-17.72L17,41.32c.37-7.46.69-13.9-1.58-16.25a3.1,3.1,0,0,0-2.38-.92,2.72,2.72,0,0,0-2,.9C8.56,27.68,8.87,35.3,9.1,40.86c0,.72.06,1.4.08,2,.21,6.44,1.11,8.15,1.12,8.17l.07.13-.11.1c-1.44,1.4-2.65,8.75-2.66,8.83l-.38-.06c0-.3,1.19-7.25,2.68-8.94-.22-.5-.93-2.55-1.11-8.21,0-.63,0-1.31-.08-2-.23-5.63-.55-13.34,2-16.08a3.13,3.13,0,0,1,2.3-1,3.47,3.47,0,0,1,2.67,1c2.39,2.47,2.07,9,1.69,16.54l-.09,1.76C16.85,53,16.58,55.66,14.79,60.93Z"/><path class="cls-2" d="M20,61.84h0a.19.19,0,0,1-.19-.2c.28-7.51-2-10.93-2-11a.19.19,0,0,1,.32-.22c.1.14,2.37,3.55,2.08,11.2A.19.19,0,0,1,20,61.84Z"/><path class="cls-2" d="M3.19,60A.19.19,0,0,1,3,59.8v-2a.19.19,0,1,1,.39,0v2A.19.19,0,0,1,3.19,60Z"/><path class="cls-2" d="M7.8,20.9a.19.19,0,0,1-.13,0,2,2,0,0,1-.55-1,2.92,2.92,0,0,0-.25-.66,2.26,2.26,0,0,0-1.31-1.22,3.09,3.09,0,0,0-.67-.06,1.71,1.71,0,0,1-1.29-.37c-.46-.47-.31-1.09-.16-1.69a2.25,2.25,0,0,0,.09-1.23.19.19,0,0,1,0-.18l0,0a.19.19,0,0,1,0-.11c.12-.34-.2-.7-.29-.81L3,13.2a2.76,2.76,0,0,1-.53-.58,1.13,1.13,0,0,1-.13-.87,1.58,1.58,0,0,1-1.55-.59c-.39-.67.09-1.44.4-2a10.74,10.74,0,0,0,1.26-3l.08-.31A5.43,5.43,0,0,1,3,4.57a1.86,1.86,0,0,1,1.48-1,.2.2,0,0,1,.2.19.19.19,0,0,1-.19.2,1.47,1.47,0,0,0-1.15.84A5.07,5.07,0,0,0,2.92,6l-.08.32a11.14,11.14,0,0,1-1.3,3.09C1.19,10,.9,10.53,1.15,11s.72.47,1.57.35a.19.19,0,0,1,.14.35c-.2.14-.18.51,0,.75a2.43,2.43,0,0,0,.46.5l.29.27a1.33,1.33,0,0,1,.42,1l.31,0a4.12,4.12,0,0,1,.54.1.19.19,0,0,1-.06.38H4a3.14,3.14,0,0,1-.14,1.2c-.13.54-.25,1,.06,1.32a1.41,1.41,0,0,0,1,.25,3.44,3.44,0,0,1,.76.07,2.61,2.61,0,0,1,1.56,1.41,3.22,3.22,0,0,1,.29.75,1.65,1.65,0,0,0,.44.86.19.19,0,0,1-.13.34Z"/><path class="cls-2" d="M12,13.36c.18-1.19,1.46-2.17,1.18-3.34a18.38,18.38,0,0,0-3,.11,15.6,15.6,0,0,0,.39-3.34C9.9,6.66,9,6.39,8.82,5.64c-.06-.3,0-.64-.17-.89A1.05,1.05,0,0,0,8,4.42L4.65,3.7a1.22,1.22,0,0,0-.67,0,.42.42,0,0,0-.27.54A1,1,0,0,1,2.38,4a2.1,2.1,0,0,1-.44-1.37,1.35,1.35,0,0,1,.21-.85,1.45,1.45,0,0,1,.6-.4A19.85,19.85,0,0,1,10.37.2a9.13,9.13,0,0,1,1.7.07,4.65,4.65,0,0,1,3.51,2.88,6.56,6.56,0,0,1,.36,1.73,11.71,11.71,0,0,1-1.33,6.55c-.37.7-.83,1.53-.46,2.23Z"/><path class="cls-2" d="M14.16,13.86h0L12,13.55a.19.19,0,0,1-.16-.22,4.29,4.29,0,0,1,.64-1.5,2.75,2.75,0,0,0,.57-1.62,18,18,0,0,0-2.77.12.19.19,0,0,1-.17-.06.19.19,0,0,1,0-.17A15.4,15.4,0,0,0,10.46,7c-.54-.1-1.64-.37-1.83-1.27a2.22,2.22,0,0,1,0-.36.87.87,0,0,0-.1-.46.9.9,0,0,0-.56-.25L4.61,3.89a1.1,1.1,0,0,0-.56,0A.3.3,0,0,0,3.88,4a.12.12,0,0,0,0,.1.19.19,0,0,1-.06.25,1.25,1.25,0,0,1-1.58-.25,2.26,2.26,0,0,1-.49-1.5,1.53,1.53,0,0,1,.25-1,1.63,1.63,0,0,1,.67-.46C5.11.12,7.9.06,10.37,0h.57a6.94,6.94,0,0,1,1.17.08,4.84,4.84,0,0,1,3.66,3,6.65,6.65,0,0,1,.38,1.79,12,12,0,0,1-1.35,6.65c-.36.68-.76,1.42-.48,2a.19.19,0,0,1,0,.13.19.19,0,0,1-.2.19Zm-1.89-.67,1.6.23a3.16,3.16,0,0,1,.57-2.05,11.6,11.6,0,0,0,1.32-6.47,6.28,6.28,0,0,0-.35-1.68A4.44,4.44,0,0,0,12,.46a6.54,6.54,0,0,0-1.1-.08h-.56C7.95.45,5.2.5,2.83,1.54a1.29,1.29,0,0,0-.52.34,1.18,1.18,0,0,0-.17.73,1.89,1.89,0,0,0,.39,1.25.9.9,0,0,0,1,.26.54.54,0,0,1,0-.24.69.69,0,0,1,.39-.39,1.46,1.46,0,0,1,.78,0L8,4.22a1.27,1.27,0,0,1,.82.42A1.2,1.2,0,0,1,9,5.3a1.91,1.91,0,0,0,0,.3c.11.5.65.83,1.68,1a.19.19,0,0,1,.16.19,15.81,15.81,0,0,1-.34,3.11,18.64,18.64,0,0,1,2.72-.08.19.19,0,0,1,.18.15A2.79,2.79,0,0,1,12.83,12,4.78,4.78,0,0,0,12.27,13.19Z"/><path class="cls-2" d="M9.79,16a.19.19,0,0,1-.1-.36,2.82,2.82,0,0,0,1.16-1.35,5.16,5.16,0,0,0,.37-1.82.19.19,0,0,1,.24-.18,2,2,0,0,0,.71,0,.19.19,0,1,1,0,.39,2.26,2.26,0,0,1-.62,0,5.3,5.3,0,0,1-.39,1.73,3.21,3.21,0,0,1-1.32,1.54Z"/><path class="cls-2" d="M14.41,15.75a.19.19,0,0,1-.19-.15c-.06-.26-.12-.5-.18-.74a11,11,0,0,1-.26-1.16.19.19,0,0,1,.38-.06,10.54,10.54,0,0,0,.25,1.12c.06.25.13.5.19.76a.19.19,0,0,1-.15.23Z"/></g></g></svg>