<svg xmlns="http://www.w3.org/2000/svg" viewBox="0 0 42.54 29.11"><defs><style>.cls-1{fill:#231f20;}.cls-2{fill:none;stroke:#231f20;stroke-miterlimit:10;stroke-width:0.5px;}</style></defs><title>Asset 6</title><g id="Layer_2" data-name="Layer 2"><g id="Layer_1-2" data-name="Layer 1"><path class="cls-1" d="M16.26,20.7a.19.19,0,0,0,.07-.15V19.36c.27-.17,1.5-.75,5.18-.75s4.63.59,4.79.72v1.54a.19.19,0,0,0,.14.19,2.66,2.66,0,0,0,.25-.32V19.26a.19.19,0,0,0,0-.1c-.06-.1-.7-.93-5.15-.93s-5.47.86-5.51.89a.19.19,0,0,0-.06.14v1.2"/><path class="cls-1" d="M26.44,21.06c-4-1.2-10.21-.33-10.28-.32l-.06-.38c.26,0,6.4-.9,10.44.33Z"/><path class="cls-1" d="M26.21,19a1.68,1.68,0,0,1-.68-.14.19.19,0,0,1-.08-.06l-1.18-1.65.32-.23,1.14,1.61a1.51,1.51,0,0,0,1.35-.18A2.31,2.31,0,0,0,28,17.12l.17-.48a4.39,4.39,0,0,0,.39-2c-.09-.69-.16-1.49-.23-2.34a27.91,27.91,0,0,0-.85-5.65l.37-.12a28.15,28.15,0,0,1,.87,5.74c.07.84.14,1.64.23,2.33a4.75,4.75,0,0,1-.41,2.2l-.16.47a2.7,2.7,0,0,1-1,1.42A2,2,0,0,1,26.21,19Z"/><path class="cls-1" d="M20.37.4a15,15,0,0,1,2-.21,6.29,6.29,0,0,1,3.93,1.23A4.63,4.63,0,0,1,28.15,5a2,2,0,0,1-1,1.88c-.56.21-1.25,0-1.77.3A8,8,0,0,1,25,9.61a.43.43,0,0,1-.3-.05A.63.63,0,0,0,23.87,9a3.4,3.4,0,0,0-.49,2,2,2,0,0,0,1.21,1.64c-.57,0-.87.68-1,1.24a11.18,11.18,0,0,0-.21,2.81l-6.52-.46a1.07,1.07,0,0,0-.68.1c-.19.13-.26.46-.06.59-.3.05-.53-.23-.69-.49A17.09,17.09,0,0,1,13,6.39a4.72,4.72,0,0,1,.38-1.71,5.44,5.44,0,0,1,1-1.27,10.24,10.24,0,0,1,2.11-1.89A10.25,10.25,0,0,1,20.37.4Z"/><path class="cls-1" d="M16.07,17.2c-.28,0-.55-.2-.78-.59A17.29,17.29,0,0,1,12.85,6.37a4.9,4.9,0,0,1,.4-1.78,5.64,5.64,0,0,1,1-1.31,10.49,10.49,0,0,1,2.15-1.93A10.41,10.41,0,0,1,20.34.21a15.33,15.33,0,0,1,2-.21h.1a6.46,6.46,0,0,1,4,1.27A4.85,4.85,0,0,1,28.34,5,2.15,2.15,0,0,1,27.18,7.1a2.73,2.73,0,0,1-.87.13,2.19,2.19,0,0,0-.77.11,8.22,8.22,0,0,1-.34,2.33A.2.2,0,0,1,25,9.8a.63.63,0,0,1-.44-.07.19.19,0,0,1-.09-.16A.45.45,0,0,0,24,9.2a3.2,3.2,0,0,0-.43,1.86,1.79,1.79,0,0,0,1.08,1.48.19.19,0,0,1-.06.38c-.54,0-.74.83-.79,1.09a11,11,0,0,0-.2,2.76.19.19,0,0,1-.06.15.19.19,0,0,1-.15.06l-6.52-.46a1,1,0,0,0-.56.07.24.24,0,0,0-.1.19.08.08,0,0,0,0,.07.19.19,0,0,1-.07.35ZM22.47.39h-.09a15,15,0,0,0-2,.2,10.12,10.12,0,0,0-3.8,1.1,10.19,10.19,0,0,0-2.07,1.86,5.24,5.24,0,0,0-.93,1.22,4.55,4.55,0,0,0-.36,1.64,16.9,16.9,0,0,0,2.38,10,1.41,1.41,0,0,0,.22.28.63.63,0,0,1,.26-.44,1,1,0,0,1,.56-.14h.24l6.3.45a11.37,11.37,0,0,1,.22-2.63,1.91,1.91,0,0,1,.68-1.24,2.29,2.29,0,0,1-.91-1.57,3.57,3.57,0,0,1,.51-2.17.19.19,0,0,1,.09-.08.71.71,0,0,1,.29-.06.85.85,0,0,1,.8.58,7.79,7.79,0,0,0,.28-2.16.2.2,0,0,1,.1-.17,2.17,2.17,0,0,1,1-.21,2.38,2.38,0,0,0,.75-.1A1.78,1.78,0,0,0,28,5a4.45,4.45,0,0,0-1.76-3.46A6.07,6.07,0,0,0,22.47.39Z"/><path class="cls-1" d="M16.85,18.9l-.35.1a4.28,4.28,0,0,0-.17-1.67,1.32,1.32,0,0,1-.24-1l.37.11a1,1,0,0,0,.2.67A3,3,0,0,1,16.85,18.9Z"/><path class="cls-2" d="M26.51,20.84a48,48,0,0,1,15.89,8.07"/><path class="cls-2" d="M16.23,20.44A55,55,0,0,0,.15,28.91"/></g></g></svg>