<svg xmlns="http://www.w3.org/2000/svg" viewBox="0 0 59.61 81.88"><defs><style>.cls-1{fill:#231f20;}.cls-2{fill:#fff;}</style></defs><title>Asset 9</title><g id="Layer_2" data-name="Layer 2"><g id="Layer_1-2" data-name="Layer 1"><path class="cls-1" d="M31.8,19a1.68,1.68,0,0,1-.68-.14.19.19,0,0,1-.08-.06l-1.18-1.65.32-.23,1.14,1.61a1.51,1.51,0,0,0,1.35-.18,2.31,2.31,0,0,0,.88-1.22l.17-.48a4.39,4.39,0,0,0,.39-2c-.09-.69-.16-1.49-.23-2.34A27.88,27.88,0,0,0,33,6.63l.37-.12a28.18,28.18,0,0,1,.87,5.74c.07.84.14,1.64.23,2.32a4.74,4.74,0,0,1-.41,2.2l-.17.47a2.7,2.7,0,0,1-1,1.42A2,2,0,0,1,31.8,19Z"/><path class="cls-1" d="M26,.4a15,15,0,0,1,2-.21A6.29,6.29,0,0,1,31.9,1.42,4.63,4.63,0,0,1,33.74,5a2,2,0,0,1-1,1.88c-.56.21-1.25,0-1.77.3a8,8,0,0,1-.33,2.39.43.43,0,0,1-.3-.05A.63.63,0,0,0,29.46,9a3.4,3.4,0,0,0-.49,2,2,2,0,0,0,1.21,1.64c-.57,0-.87.68-1,1.24A11.18,11.18,0,0,0,29,16.77l-6.52-.46a1.07,1.07,0,0,0-.68.1c-.19.13-.26.46-.06.59-.3.05-.53-.23-.69-.49A17.09,17.09,0,0,1,18.63,6.39,4.72,4.72,0,0,1,19,4.68a5.44,5.44,0,0,1,1-1.27,10.24,10.24,0,0,1,2.11-1.89A10.25,10.25,0,0,1,26,.4Z"/><path class="cls-1" d="M21.66,17.2c-.28,0-.55-.2-.78-.59A17.28,17.28,0,0,1,18.44,6.37a4.88,4.88,0,0,1,.4-1.77,5.66,5.66,0,0,1,1-1.31A10.5,10.5,0,0,1,22,1.36,10.41,10.41,0,0,1,25.93.21,15.28,15.28,0,0,1,28,0h.1a6.46,6.46,0,0,1,4,1.27A4.85,4.85,0,0,1,33.93,5,2.15,2.15,0,0,1,32.77,7.1a2.72,2.72,0,0,1-.87.13,2.19,2.19,0,0,0-.77.11,8.21,8.21,0,0,1-.34,2.33.19.19,0,0,1-.15.13.63.63,0,0,1-.44-.07.19.19,0,0,1-.09-.16.45.45,0,0,0-.51-.37,3.21,3.21,0,0,0-.43,1.86,1.79,1.79,0,0,0,1.08,1.48.19.19,0,0,1-.06.38c-.54,0-.74.83-.79,1.09a11,11,0,0,0-.2,2.76.19.19,0,0,1-.06.15A.19.19,0,0,1,29,17l-6.52-.46h-.21a.61.61,0,0,0-.35.08.24.24,0,0,0-.1.19.08.08,0,0,0,0,.07.19.19,0,0,1-.07.35ZM28.06.39H28a15,15,0,0,0-2,.2,10.12,10.12,0,0,0-3.8,1.1,10.2,10.2,0,0,0-2.07,1.86,5.28,5.28,0,0,0-.93,1.22,4.54,4.54,0,0,0-.36,1.64,16.9,16.9,0,0,0,2.38,10,1.4,1.4,0,0,0,.22.28.63.63,0,0,1,.26-.44,1,1,0,0,1,.56-.14h.24l6.3.45A11.38,11.38,0,0,1,29,13.93a1.91,1.91,0,0,1,.68-1.24,2.29,2.29,0,0,1-.91-1.57,3.57,3.57,0,0,1,.51-2.17.19.19,0,0,1,.09-.08.71.71,0,0,1,.29-.06.85.85,0,0,1,.8.58,7.8,7.8,0,0,0,.28-2.16.19.19,0,0,1,.1-.17,2.17,2.17,0,0,1,1-.21,2.39,2.39,0,0,0,.75-.1A1.78,1.78,0,0,0,33.55,5a4.46,4.46,0,0,0-1.76-3.46A6.07,6.07,0,0,0,28.06.39Z"/><path class="cls-1" d="M22.44,18.9l-.33-.2a3,3,0,0,0-.19-1.37,1.32,1.32,0,0,1-.24-1l.37.11a1,1,0,0,0,.2.67A3,3,0,0,1,22.44,18.9Z"/><path class="cls-1" d="M15,74.27H12.41a.19.19,0,0,1-.18-.13A94.42,94.42,0,0,1,6.78,47.26c0-3.86,1.36-19.11,5.43-21.68s12.69-4.94,12.78-5l.1.37c-.09,0-8.66,2.39-12.67,4.91C10.74,27,9.32,30.54,8.3,36.23a75.42,75.42,0,0,0-1.14,11,94,94,0,0,0,5.38,26.61H15Z"/><path class="cls-1" d="M31.45,77.57a150.22,150.22,0,0,1-15.37-1,1.62,1.62,0,0,1-1.42-1.84c.52-3.66,2.22-15.91,2.22-19.6,0-4.38-4.79-16.32-4.84-16.44l.36-.15c.2.49,4.87,12.13,4.87,16.58,0,3.62-1.55,15-2.22,19.66a1.23,1.23,0,0,0,1.08,1.4,149.87,149.87,0,0,0,15.32,1,107.64,107.64,0,0,0,13-.88,1.67,1.67,0,0,0,1.42-2c-1-4.38-3.16-15-3.16-19.15,0-5.21,2.5-16.92,2.53-17l.38.08c0,.12-2.52,11.79-2.52,17,0,4.09,2.21,14.7,3.15,19.07a2.06,2.06,0,0,1-1.75,2.48A108.06,108.06,0,0,1,31.45,77.57Z"/><rect class="cls-1" x="27.76" y="20.8" width="0.39" height="56.58" transform="translate(-1.34 0.79) rotate(-1.57)"/><rect class="cls-1" x="13.31" y="78.93" width="5.49" height="0.39" transform="translate(-63.34 93.79) rotate(-88.99)"/><rect class="cls-1" x="45.19" y="76.1" width="0.39" height="5.49"/><rect class="cls-1" x="23.97" y="77.11" width="0.39" height="3.47"/><rect class="cls-1" x="38.14" y="77.11" width="0.39" height="2.6"/><path class="cls-1" d="M49,73.42H45.85V73h3c3.16-11.56.29-34.59-1.09-44-.08-.55-.09-.6-.09-.63s0-3.5-2.82-4.48c-6.7-2.34-18-3.14-18.11-3.15l0-.39c.11,0,11.46.81,18.22,3.17,3,1.07,3.08,4.81,3.08,4.85s0,.23.08.58c1.39,9.45,4.28,32.69,1,44.28A.19.19,0,0,1,49,73.42Z"/><path class="cls-1" d="M13.6,74.13c-5.13-16.52-2.76-34.6-2.74-34.78l.38.05c0,.18-2.38,18.18,2.72,34.61Z"/><path class="cls-1" d="M47,73.27l-.38-.07c3.19-16.77,0-37.39,0-37.6l.38-.06C47,35.74,50.19,56.43,47,73.27Z"/><g id="_Group_" data-name="&lt;Group&gt;"><rect class="cls-2" x="45.75" y="25.35" width="2.13" height="2.43"/><rect class="cls-2" x="43.45" y="25.35" width="2.3" height="2.43"/><rect class="cls-2" x="41.15" y="25.35" width="2.3" height="2.43"/><rect class="cls-2" x="38.85" y="25.35" width="2.3" height="2.43"/><rect class="cls-2" x="36.57" y="25.35" width="2.28" height="2.43"/><rect class="cls-2" x="33.92" y="25.35" width="2.65" height="2.43"/><rect class="cls-2" x="31.27" y="25.35" width="2.65" height="2.43"/><rect class="cls-2" x="28.63" y="25.35" width="2.65" height="2.43"/><rect class="cls-2" x="25.98" y="25.35" width="2.65" height="2.43"/><rect class="cls-2" x="23.34" y="25.35" width="2.65" height="2.43"/><rect class="cls-2" x="20.69" y="25.35" width="2.65" height="2.43"/><rect class="cls-2" x="18.04" y="25.35" width="2.65" height="2.43"/><rect class="cls-2" x="15.4" y="25.35" width="2.65" height="2.43"/><rect class="cls-2" x="12.75" y="25.35" width="2.65" height="2.43"/><rect class="cls-1" x="7.84" y="25.16" width="40.68" height="0.39"/><rect class="cls-1" x="8.06" y="27.58" width="40.77" height="0.39"/><rect class="cls-1" x="36.38" y="25.35" width="0.39" height="2.43"/><rect class="cls-1" x="38.65" y="25.35" width="0.39" height="2.43"/><rect class="cls-1" x="40.95" y="25.35" width="0.39" height="2.43"/><rect class="cls-1" x="43.26" y="25.35" width="0.39" height="2.43"/><rect class="cls-1" x="45.56" y="25.35" width="0.39" height="2.43"/><rect class="cls-1" x="47.69" y="25.35" width="0.39" height="2.43"/><rect class="cls-1" x="33.73" y="25.35" width="0.39" height="2.43"/><rect class="cls-1" x="31.08" y="25.35" width="0.39" height="2.43"/><rect class="cls-1" x="28.43" y="25.35" width="0.39" height="2.43"/><rect class="cls-1" x="25.79" y="25.35" width="0.39" height="2.43"/><rect class="cls-1" x="23.14" y="25.35" width="0.39" height="2.43"/><rect class="cls-1" x="20.49" y="25.35" width="0.39" height="2.43"/><rect class="cls-1" x="17.85" y="25.35" width="0.39" height="2.43"/><rect class="cls-1" x="15.2" y="25.35" width="0.39" height="2.43"/><rect class="cls-1" x="12.56" y="25.35" width="0.39" height="2.43"/></g><path class="cls-2" d="M.19,23.71a41.15,41.15,0,0,0,5.43-1c1.41-.37,2.93-.81,4.29-.26a6.32,6.32,0,0,1,.88.47,23.1,23.1,0,0,1,3.78,3,.59.59,0,0,1-.66.93l-1.48-.75a7.38,7.38,0,0,0-2.83-.82,1,1,0,0,0-.94.71,1.06,1.06,0,0,0,.74,1.13,3.61,3.61,0,0,0,1.46.11,1.93,1.93,0,0,1,.86.1.73.73,0,0,1,.47.67c0,.39-.46.62-.83.74a9.93,9.93,0,0,1-6,.08c-1.58-.49-3.15-1.38-4.78-1.11"/><path class="cls-1" d="M8.21,29.41A10.05,10.05,0,0,1,5.26,29c-.41-.13-.83-.28-1.24-.43a6.74,6.74,0,0,0-3.45-.67.19.19,0,1,1-.06-.38,7.15,7.15,0,0,1,3.66.69c.4.15.81.3,1.21.43a9.74,9.74,0,0,0,5.91-.08c.31-.1.68-.29.7-.57a.54.54,0,0,0-.35-.48,1.78,1.78,0,0,0-.78-.08h-.14a3.39,3.39,0,0,1-1.4-.13,1.25,1.25,0,0,1-.86-1.35,1.23,1.23,0,0,1,1.11-.86,5.1,5.1,0,0,1,2.27.57l.65.26.09,0,1.41.71a.4.4,0,0,0,.42-.64,23,23,0,0,0-3.73-3,6.15,6.15,0,0,0-.85-.46,6.43,6.43,0,0,0-4,.22l-.18,0a41.52,41.52,0,0,1-5.45,1,.19.19,0,0,1,0-.39,41.12,41.12,0,0,0,5.4-1l.18,0A6.81,6.81,0,0,1,10,22.23a6.43,6.43,0,0,1,.91.48,23.28,23.28,0,0,1,3.83,3.06.77.77,0,0,1,0,1,.78.78,0,0,1-.91.29l-1.43-.72-.07,0L11.7,26a4.8,4.8,0,0,0-2.08-.54.85.85,0,0,0-.77.56.87.87,0,0,0,.62.9,3.1,3.1,0,0,0,1.24.1h.14a2.09,2.09,0,0,1,.95.12.91.91,0,0,1,.58.87c0,.4-.36.71-1,.91A10.08,10.08,0,0,1,8.21,29.41Z"/><path class="cls-2" d="M59.41,23.71a41.15,41.15,0,0,1-5.43-1c-1.41-.37-2.93-.81-4.29-.26a6.32,6.32,0,0,0-.88.47,23.1,23.1,0,0,0-3.78,3,.59.59,0,0,0,.66.93l1.48-.75A7.38,7.38,0,0,1,50,25.25,1,1,0,0,1,51,26a1.06,1.06,0,0,1-.74,1.13,3.61,3.61,0,0,1-1.46.11,1.93,1.93,0,0,0-.86.1.73.73,0,0,0-.47.67c0,.39.46.62.83.74a9.93,9.93,0,0,0,6,.08c1.58-.49,3.15-1.38,4.78-1.11"/><path class="cls-1" d="M51.4,29.41a10.08,10.08,0,0,1-3.2-.52c-.61-.2-.93-.51-1-.91a.91.91,0,0,1,.58-.87,2.09,2.09,0,0,1,.95-.12h.14a3.1,3.1,0,0,0,1.24-.1.87.87,0,0,0,.62-.9.85.85,0,0,0-.77-.56,4.8,4.8,0,0,0-2.08.54l-.67.27-.1.05-1.38.7a.78.78,0,0,1-.91-.29.77.77,0,0,1,0-1,23.29,23.29,0,0,1,3.83-3.06,6.48,6.48,0,0,1,.91-.48,6.81,6.81,0,0,1,4.23.21l.18,0a41.12,41.12,0,0,0,5.4,1,.19.19,0,0,1,0,.39,41.52,41.52,0,0,1-5.45-1l-.18,0a6.43,6.43,0,0,0-4-.22,6.21,6.21,0,0,0-.85.46,23,23,0,0,0-3.73,3,.38.38,0,0,0,0,.48.39.39,0,0,0,.46.15L47,26l.13-.06.67-.27A5.07,5.07,0,0,1,50,25.06a1.23,1.23,0,0,1,1.11.86,1.25,1.25,0,0,1-.86,1.35,3.39,3.39,0,0,1-1.4.13h-.14a1.78,1.78,0,0,0-.78.08.54.54,0,0,0-.35.48c0,.29.39.47.7.57a9.74,9.74,0,0,0,5.91.08c.4-.12.82-.28,1.21-.43a7.14,7.14,0,0,1,3.66-.69.19.19,0,0,1-.06.38,6.76,6.76,0,0,0-3.46.67c-.4.15-.82.31-1.24.43A10.06,10.06,0,0,1,51.4,29.41Z"/><path class="cls-1" d="M16,78.09l-.47-.34c-1.38-1-2.58-1.81-3-3.59l.38-.09c.39,1.64,1.48,2.4,2.85,3.37l.48.34Z"/><path class="cls-1" d="M45.5,77.38l-.23-.31c.32-.23.62-.43.9-.61a4.06,4.06,0,0,0,2.29-3.29l.38.06a4.41,4.41,0,0,1-2.46,3.55C46.1,77,45.81,77.16,45.5,77.38Z"/><path class="cls-1" d="M20.49,22.16s-.09-3.68,2.83-3.89c2.75-.19,6.64,0,6.68,0a3.48,3.48,0,0,1,2.31.87A2.54,2.54,0,0,1,33,21.09h-.39A2.16,2.16,0,0,0,32,19.41a3.13,3.13,0,0,0-2-.75c-.05,0-3.92-.19-6.64,0-2.55.18-2.47,3.35-2.47,3.49Z"/></g></g></svg>