<svg xmlns="http://www.w3.org/2000/svg" viewBox="0 0 34.4 22.84"><defs><style>.cls-1{fill:#231f20;}</style></defs><title>Asset 8</title><g id="Layer_2" data-name="Layer 2"><g id="Layer_1-2" data-name="Layer 1"><path class="cls-1" d="M34.4,22.84,22.63,21.38a.19.19,0,0,1-.13-.18V19.33c-.16-.13-1.08-.72-4.79-.72s-4.91.58-5.18.75v1.52a.19.19,0,0,1-.14.19L0,22.66l0-.38,12.15-1.54V19.26a.19.19,0,0,1,.06-.14s1-.89,5.51-.89,5.09.84,5.15.93a.19.19,0,0,1,0,.1v1.81l11.5,1.39Z"/><path class="cls-1" d="M22.64,21.39c-4-1.2-10.21-.33-10.28-.32l-.06-.38c.26,0,6.4-.9,10.44.33Z"/><path class="cls-1" d="M22.41,19a1.69,1.69,0,0,1-.69-.14.19.19,0,0,1-.08-.06l-1.18-1.65.32-.23,1.14,1.61a1.51,1.51,0,0,0,1.35-.18,2.31,2.31,0,0,0,.88-1.22l.17-.48a4.39,4.39,0,0,0,.39-2c-.09-.69-.16-1.49-.23-2.34a27.89,27.89,0,0,0-.85-5.65L24,6.51a28.18,28.18,0,0,1,.87,5.74c.07.84.14,1.64.23,2.32a4.75,4.75,0,0,1-.41,2.2l-.16.47a2.7,2.7,0,0,1-1,1.42A2,2,0,0,1,22.41,19Z"/><path class="cls-1" d="M16.57.4a15,15,0,0,1,2-.21,6.29,6.29,0,0,1,3.93,1.23A4.63,4.63,0,0,1,24.35,5a2,2,0,0,1-1,1.88c-.56.21-1.25,0-1.77.3a8,8,0,0,1-.33,2.39.43.43,0,0,1-.3-.05A.63.63,0,0,0,20.07,9a3.4,3.4,0,0,0-.49,2,2,2,0,0,0,1.21,1.64c-.57,0-.87.68-1,1.24a11.18,11.18,0,0,0-.21,2.81l-6.52-.46a1.07,1.07,0,0,0-.68.1c-.19.13-.26.46-.06.59-.3.05-.53-.23-.69-.49A17.09,17.09,0,0,1,9.25,6.39a4.72,4.72,0,0,1,.38-1.71,5.44,5.44,0,0,1,1-1.27A10.24,10.24,0,0,1,12.7,1.53,10.25,10.25,0,0,1,16.57.4Z"/><path class="cls-1" d="M12.27,17.2c-.28,0-.55-.2-.78-.59A17.28,17.28,0,0,1,9.06,6.37a4.88,4.88,0,0,1,.4-1.78,5.65,5.65,0,0,1,1-1.31A10.48,10.48,0,0,1,12.6,1.36,10.41,10.41,0,0,1,16.54.21a15.31,15.31,0,0,1,2-.21h.1a6.46,6.46,0,0,1,4,1.27A4.85,4.85,0,0,1,24.55,5,2.15,2.15,0,0,1,23.38,7.1a2.73,2.73,0,0,1-.87.13,2.19,2.19,0,0,0-.77.11,8.22,8.22,0,0,1-.34,2.33.2.2,0,0,1-.15.14.63.63,0,0,1-.44-.07.19.19,0,0,1-.09-.16.45.45,0,0,0-.51-.37,3.21,3.21,0,0,0-.43,1.86,1.79,1.79,0,0,0,1.08,1.48.19.19,0,0,1-.06.38c-.54,0-.74.83-.79,1.09a11,11,0,0,0-.2,2.76.19.19,0,0,1-.06.15.19.19,0,0,1-.15.06l-6.52-.46a1,1,0,0,0-.56.07.24.24,0,0,0-.1.19.08.08,0,0,0,0,.07.19.19,0,0,1-.07.35ZM18.68.39h-.09a15,15,0,0,0-2,.2,10.12,10.12,0,0,0-3.8,1.1,10.19,10.19,0,0,0-2.07,1.86,5.27,5.27,0,0,0-.93,1.22A4.54,4.54,0,0,0,9.44,6.4a16.9,16.9,0,0,0,2.38,10,1.41,1.41,0,0,0,.22.28.63.63,0,0,1,.26-.44,1,1,0,0,1,.56-.14h.24l6.3.45a11.38,11.38,0,0,1,.22-2.63,1.91,1.91,0,0,1,.68-1.24,2.29,2.29,0,0,1-.91-1.57,3.57,3.57,0,0,1,.51-2.17A.19.19,0,0,1,20,8.86a.71.71,0,0,1,.29-.06.85.85,0,0,1,.8.58,7.81,7.81,0,0,0,.28-2.16.2.2,0,0,1,.1-.17,2.17,2.17,0,0,1,1-.21,2.38,2.38,0,0,0,.75-.1A1.78,1.78,0,0,0,24.16,5,4.45,4.45,0,0,0,22.4,1.58,6.07,6.07,0,0,0,18.68.39Z"/><path class="cls-1" d="M13.11,19.06l-.33-.2a3.83,3.83,0,0,0-.24-1.53,1.32,1.32,0,0,1-.24-1l.37.11a1,1,0,0,0,.2.67A3.49,3.49,0,0,1,13.11,19.06Z"/></g></g></svg>