<svg xmlns="http://www.w3.org/2000/svg" viewBox="0 0 24.62 60.37"><defs><style>.cls-1{fill:#fff;}.cls-2{fill:#231f20;}</style></defs><title>Asset 5</title><g id="Layer_2" data-name="Layer 2"><g id="Layer_1-2" data-name="Layer 1"><polyline class="cls-1" points="20.02 15.83 19.45 14.5 11.19 19.23 11.19 21.75"/><path class="cls-2" d="M11.38,21.75H11V19.23a.19.19,0,0,1,.1-.17l8.26-4.73a.19.19,0,0,1,.16,0,.19.19,0,0,1,.12.11l.56,1.33-.36.15-.48-1.13-8,4.56Z"/><path class="cls-2" d="M.45,59.19l0-.17c-1.42-8.86,1-15.85,3.16-22,.44-1.26.85-2.45,1.22-3.61a48.44,48.44,0,0,1,5-10.88l.05-.05L20,15.58l.11.1c3.07,2.81,4.58,10.51,4.47,22.9-.08,9.2-1.07,17.69-1.08,17.77l0,.14L13.36,58.86Zm9.67-36.42A48.22,48.22,0,0,0,5.17,33.51c-.37,1.17-.78,2.36-1.22,3.63C1.83,43.22-.57,50.11.78,58.79l12.55-.32,9.83-2.3c.26-2.33,3.6-33.54-3.17-40.1Z"/><path class="cls-2" d="M13.36,58.66l10-2.33s4-33.83-3.33-40.5l-.88.6-.35,5"/><path class="cls-2" d="M13.4,58.85l-.09-.38,9.85-2.3c.26-2.33,3.6-33.54-3.17-40.1l-.67.46L19,21.44l-.39,0,.36-5.1L20,15.58l.11.1c3.07,2.81,4.58,10.51,4.47,22.9-.08,9.2-1.07,17.69-1.08,17.77l0,.14Z"/><circle class="cls-2" cx="8.94" cy="29.26" r="0.53"/><path class="cls-2" d="M8.94,30a.73.73,0,1,1,.73-.73A.73.73,0,0,1,8.94,30Zm0-1.07a.34.34,0,1,0,.34.34A.34.34,0,0,0,8.94,28.92Z"/><circle class="cls-2" cx="6.76" cy="35.22" r="0.53"/><path class="cls-2" d="M6.76,35.95a.73.73,0,1,1,.73-.73A.73.73,0,0,1,6.76,35.95Zm0-1.07a.34.34,0,1,0,.34.34A.34.34,0,0,0,6.76,34.88Z"/><circle class="cls-2" cx="4.45" cy="41.57" r="0.53" transform="translate(-37.34 42.61) rotate(-85.32)"/><path class="cls-2" d="M4.45,42.3H4.39a.73.73,0,0,1-.67-.79.73.73,0,1,1,.73.79Zm0-1.07a.35.35,0,0,0-.36.31.34.34,0,0,0,.31.37h0a.34.34,0,0,0,0-.68Z"/><polyline class="cls-2" points="13.93 31.75 9.98 32.28 9.98 33.35 13.93 32.81"/><path class="cls-2" d="M10,33.54a.19.19,0,0,1-.19-.19V32.28a.19.19,0,0,1,.17-.19l4-.53.05.38-3.78.51v.68l3.73-.5L14,33l-4,.53Z"/><polyline class="cls-2" points="14.86 44.97 9.69 46.7 9.69 48.27 15.32 46.44"/><path class="cls-2" d="M9.69,48.46a.19.19,0,0,1-.19-.19V46.7a.19.19,0,0,1,.13-.18l5.17-1.73.12.37-5,1.69V48l5.38-1.75.12.37L9.75,48.45Z"/><circle class="cls-2" cx="2.17" cy="49.39" r="0.53"/><path class="cls-2" d="M2.17,50.11a.73.73,0,1,1,.73-.73A.73.73,0,0,1,2.17,50.11Zm0-1.07a.34.34,0,1,0,.34.34A.34.34,0,0,0,2.17,49Z"/><path class="cls-1" d="M11.19,59.48s1.21-8,2.72-9.55c0,0-.94-1.76-1.15-8.82S11.48,21,16.82,20.88s4.57,9.55,4.08,20.44-.78,13.49-2.53,19"/><path class="cls-2" d="M18.56,60.37l-.37-.12c1.78-5.59,2-8.38,2.52-18.94l.09-1.88c.37-8.06.7-15-1.67-17.46a2.94,2.94,0,0,0-2.3-.9,2.62,2.62,0,0,0-1.94.88c-2.56,2.72-2.25,11-2,17,0,.77.06,1.5.08,2.17.21,6.89,1.12,8.72,1.13,8.74l.06.12-.1.1c-1.45,1.49-2.66,9.36-2.67,9.44L11,59.45c0-.32,1.19-7.77,2.68-9.55-.21-.51-.93-2.68-1.11-8.78,0-.67,0-1.4-.08-2.17-.23-6.09-.56-14.43,2.12-17.27a3,3,0,0,1,2.21-1,3.38,3.38,0,0,1,2.58,1c2.48,2.55,2.16,9.6,1.78,17.75l-.09,1.88C20.62,51.93,20.35,54.74,18.56,60.37Z"/><line class="cls-2" x1="0.61" y1="58.99" x2="0.61" y2="60.02"/><rect class="cls-2" x="0.42" y="58.99" width="0.39" height="1.03"/><path class="cls-2" d="M21.25,56.82a9.69,9.69,0,0,1,0,3.49"/><path class="cls-2" d="M21.44,60.34l-.38-.06a9.63,9.63,0,0,0,0-3.42l.38-.09A9.81,9.81,0,0,1,21.44,60.34Z"/><path class="cls-2" d="M8.57,8.12a.66.66,0,1,1,.66.66A.66.66,0,0,1,8.57,8.12Zm.33,0a.33.33,0,1,0,.33-.33A.33.33,0,0,0,8.9,8.12Z"/><polygon class="cls-2" points="8.27 8.4 8.77 7.79 11.1 7.79 11.1 7.46 8.61 7.46 8.02 8.19 8.27 8.4"/><path class="cls-2" d="M11.5,19.17a3.79,3.79,0,0,0-1.69-1l-.1,0a1.26,1.26,0,0,1-.91-.44A1.22,1.22,0,0,1,8.66,17l.06-1.59A2.14,2.14,0,0,1,8,14.11H8l0-.06a3.55,3.55,0,0,1,0-1.35,3.63,3.63,0,0,1-1.33,0,1,1,0,0,1-.43-.14c-.37-.25-.41-.76-.11-1.44L7,9.08a2.31,2.31,0,0,0,.2-.56,2.3,2.3,0,0,0-.06-.79l0-.18A5.91,5.91,0,0,1,8.52,2.61l.29.26a5.51,5.51,0,0,0-1.34,4.6l0,.18a2.63,2.63,0,0,1,.07.92,2.65,2.65,0,0,1-.23.66L6.4,11.3c-.08.18-.31.76,0,1a.67.67,0,0,0,.27.08,3.28,3.28,0,0,0,1.51-.13A2,2,0,0,1,8.59,12,2.64,2.64,0,0,0,9,11.79a.19.19,0,0,1,.21.32,3.6,3.6,0,0,1-.85.44,3.13,3.13,0,0,0-.06,1.26,1.64,1.64,0,0,0,.36-.08,6.35,6.35,0,0,0,.74-.35.19.19,0,0,1,.23.31,2.89,2.89,0,0,1-.83.4l-.39.13a1.82,1.82,0,0,0,.5.84.19.19,0,0,1,.19.09.24.24,0,0,1,0,.24L9.05,17a.89.89,0,0,0,.07.51c.12.18.39.23.65.27l.1,0a4.2,4.2,0,0,1,1.88,1.06Z"/><path class="cls-2" d="M14.39,7A11.94,11.94,0,0,1,14,3.2l-3.64.29c-.26,0-.58,0-.69-.23s0-.21-.08-.3c-.14-.3-.58-.22-.88-.09A3.27,3.27,0,0,1,7,3.26c-.58-.08-1.13-.62-1-1.19s.56-.71,1-.89a16.66,16.66,0,0,1,6.24-1,9.82,9.82,0,0,1,2.83.27,5.44,5.44,0,0,1,2.89,2,9.82,9.82,0,0,1,.69,1.17,10.7,10.7,0,0,1,1.45,4.27,9.84,9.84,0,0,1-.46,3.17,2.69,2.69,0,0,1-1.16,1.83,2.79,2.79,0,0,1-1.3.17q-.07-1.2-.23-2.38a2.5,2.5,0,0,1-1.28-.17,3.28,3.28,0,0,1-1.56-1.5A8.29,8.29,0,0,1,14.39,7Z"/><path class="cls-2" d="M18.47,13.32h-.31a.19.19,0,0,1-.19-.18c0-.72-.11-1.46-.2-2.18a2.73,2.73,0,0,1-1.19-.2,3.47,3.47,0,0,1-1.65-1.59A8.53,8.53,0,0,1,14.2,7a12.74,12.74,0,0,1-.43-3.62l-3.41.28h-.17a.7.7,0,0,1-.71-.35.78.78,0,0,1-.06-.2.5.5,0,0,0,0-.11S9.35,3,9.18,3a1.14,1.14,0,0,0-.42.1A3.45,3.45,0,0,1,7,3.46a1.48,1.48,0,0,1-1-.61A1,1,0,0,1,5.81,2a1.67,1.67,0,0,1,1.1-1,17,17,0,0,1,6.31-1h.36a9.2,9.2,0,0,1,2.53.28,5.61,5.61,0,0,1,3,2.12,10,10,0,0,1,.7,1.19,10.91,10.91,0,0,1,1.47,4.35,10.09,10.09,0,0,1-.47,3.23,2.86,2.86,0,0,1-1.26,2A2.46,2.46,0,0,1,18.47,13.32Zm-.12-.39a2.31,2.31,0,0,0,1-.16,2.55,2.55,0,0,0,1.06-1.71A9.75,9.75,0,0,0,20.9,8a10.59,10.59,0,0,0-1.43-4.19,9.76,9.76,0,0,0-.68-1.15A5.23,5.23,0,0,0,16,.65,8.84,8.84,0,0,0,13.58.39h-.36a16.65,16.65,0,0,0-6.17,1c-.53.22-.8.46-.87.75a.64.64,0,0,0,.11.51A1.1,1.1,0,0,0,7,3.07a3.1,3.1,0,0,0,1.58-.38,1.55,1.55,0,0,1,.57-.13.57.57,0,0,1,.56.32.79.79,0,0,1,.06.19.49.49,0,0,0,0,.1c.06.14.32.13.5.12L14,3a.19.19,0,0,1,.21.21,11.9,11.9,0,0,0,.4,3.72,8.21,8.21,0,0,0,.69,2,3.09,3.09,0,0,0,1.46,1.42,2.33,2.33,0,0,0,1.18.16.19.19,0,0,1,.14,0,.2.2,0,0,1,.07.13C18.23,11.45,18.3,12.2,18.35,12.93Z"/><path class="cls-2" d="M19.09,14.66c0-.09,0-.18,0-.28a4,4,0,0,1,0-1.16.2.2,0,0,1,0-.1,1.6,1.6,0,0,0,.06-.16.64.64,0,0,1,.17-.34l.12.15.15.13a1.43,1.43,0,0,0-.06.17,1.21,1.21,0,0,1-.1.26,3.77,3.77,0,0,0,0,1c0,.1,0,.2,0,.29Z"/><path class="cls-2" d="M15.88,15.72l-.37-.12a6.56,6.56,0,0,0,.2-1c0-.18.05-.36.08-.53a2.86,2.86,0,0,1,.69-1.54.83.83,0,0,1,.36-.23,1,1,0,0,1,.28,0H18v.39h-1a.49.49,0,0,0-.19.13,2.5,2.5,0,0,0-.59,1.34c0,.17-.06.34-.08.52A7,7,0,0,1,15.88,15.72Z"/></g></g></svg>