<?xml version="1.0" encoding="utf-8"?>
<!-- Generator: Adobe Illustrator 18.1.1, SVG Export Plug-In . SVG Version: 6.00 Build 0)  -->
<svg version="1.1" id="Layer_1" xmlns="http://www.w3.org/2000/svg" xmlns:xlink="http://www.w3.org/1999/xlink" x="0px" y="0px"
	 viewBox="0 0 1198.8 291.1" enable-background="new 0 0 1198.8 291.1" xml:space="preserve">
<g>
	<rect x="0" y="0" fill="#FFFFFF" width="1198.8" height="291.1"/>
	<g>
		<path fill="#12693B" d="M355.3,185.7c1-2.4,1.9-4.9,2.9-7.3c1.5-4,3.1-8,4.6-12c0.3-0.9,0.4-0.9,1.3-0.9c0.7,0,1.4,0,2,0
			c0.9,0,0.9,0,1.3,0.9c1,2.6,2,5.1,3,7.7c1.4,3.6,2.8,7.3,4.2,10.9c0.1,0.3,0.2,0.6,0.3,1c-1.3,0-2.6,0-3.9,0
			c-0.6-1.7-1.2-3.4-1.9-5.2c-0.3,0-0.5-0.1-0.8-0.1c-2.1,0-4.3,0-6.4,0c-0.9,0-0.9,0-1.2,0.9c-0.4,1.2-0.9,2.4-1.3,3.7
			c-0.3,0.8-0.3,0.8-1.1,0.8c-1,0-1.9,0-2.9,0C355.3,185.9,355.3,185.8,355.3,185.7z M362,177.8c2.1,0,4,0,6,0
			c-1-2.8-1.9-5.5-2.9-8.2c-0.1,0-0.1,0-0.2,0C363.9,172.3,363,175,362,177.8z"/>
		<path fill="#FEC524" d="M427.3,165.1c0.8,0.2,1.5,0.4,2.3,0.7c2.1,0.8,3.6,2.3,4.4,4.4c0.2,0.5,0.2,1,0.4,1.6c-0.6,0-1.1,0-1.6,0
			c-0.5,0-0.5-0.4-0.6-0.8c-0.7-2.1-2.1-3.5-4.3-4c-3.9-0.9-7.2,0.8-8.7,4.6c-1.1,3-1,6,0.3,8.9c1,2.2,2.7,3.6,5.2,4
			c4,0.7,6.9-1.6,7.8-5.1c0.1-0.4,0.2-0.7,0.3-1.2c0.6,0,1.2,0,1.8,0c0,0.2,0.1,0.5,0.1,0.7c-0.4,2.3-1.3,4.3-3.2,5.8
			c-1.1,0.9-2.4,1.5-3.9,1.6c-2.8,0.3-5.4-0.2-7.6-2.1c-1.8-1.5-2.7-3.5-3.2-5.8c-0.5-2.5-0.4-4.9,0.6-7.3c1.3-3.3,3.6-5.3,7.1-5.9
			c0.2,0,0.3-0.1,0.5-0.2C425.6,165.1,426.5,165.1,427.3,165.1z"/>
		<path fill="#12693B" d="M586.4,186c-0.3,0-0.7,0-1.1,0c0-0.9-0.1-1.7-0.1-2.6c-0.3,0.3-0.5,0.5-0.6,0.7c-2.3,3-6.6,2.7-8.7,1.1
			c-0.9-0.7-1.6-1.7-2-2.8c-1-3-1-6.1,0.7-8.9c1.1-1.7,2.7-2.5,4.8-2.6c2-0.1,3.7,0.4,5,1.9c0.3,0.3,0.5,0.6,0.8,1
			c0-0.4,0.1-0.6,0.1-0.9c0-2.1,0-4.3,0-6.4c0-0.3,0.1-0.7,0.1-1.1c0.4,0,0.8,0,1.1-0.1C586.4,172.3,586.4,179.2,586.4,186z
			 M585.1,178.7c0.1-1.5-0.2-2.9-0.9-4.1c-1.1-2-2.9-2.7-5.1-2.5c-2,0.2-3.3,1.2-4,3c-1,2.4-1,4.8,0,7.2c0.8,1.9,2.3,3,4.4,3.1
			c2.2,0.1,3.8-0.9,4.8-2.8C584.9,181.3,585.2,180,585.1,178.7z"/>
		<path fill="#12693B" d="M580.2,208.7c-0.1-0.4-0.3-0.8-0.4-1.2c0.2,0,0.3-0.1,0.4-0.1c1.4,0,2.1-0.9,1.6-2.3
			c-0.7-1.8-1.4-3.6-2.1-5.5c-0.1-0.3-0.2-0.5-0.3-0.8c1-0.4,1.3-0.3,1.6,0.5c0.5,1.5,1.1,3,1.7,4.6c0.6-1.6,1.1-3.1,1.7-4.6
			c0.3-0.9,0.5-1,1.5-0.7c0,0.1,0,0.3,0,0.4c-1,2.6-1.9,5.1-2.9,7.7c-0.3,0.8-0.8,1.4-1.5,1.8C581,208.7,580.6,208.7,580.2,208.7z"
			/>
		<path fill="#12693B" d="M404.6,175.4c-1.2,0-2.3,0-3.4,0c-0.1-0.1-0.2-0.3-0.2-0.4c-0.3-0.7-0.9-1.2-1.7-1.3
			c-1-0.2-1.9-0.2-2.9,0.2c-0.5,0.2-0.8,0.5-0.8,1c-0.1,0.5,0.2,1,0.6,1.2c0.7,0.3,1.4,0.6,2.1,0.8c0.8,0.2,1.7,0.3,2.5,0.6
			c0.8,0.2,1.5,0.5,2.2,0.8c3,1.4,2.6,5.3,0.5,6.9c-1,0.7-2.1,1.2-3.3,1.3c-2,0.2-4,0.3-5.9-0.8c-1.6-0.9-2.5-2.3-2.5-4.2
			c0.7-0.2,2.3-0.3,3.3-0.1c0.1,0.2,0.2,0.4,0.2,0.5c0.3,1,1,1.6,2,1.8c1,0.2,2.1,0.2,3.1-0.2c0.8-0.3,1.2-0.8,1.3-1.4
			c0-0.7-0.3-1.3-1.2-1.6c-0.9-0.3-1.8-0.5-2.7-0.8c-1-0.3-2.1-0.5-3.1-0.9c-2.1-0.8-3.1-2.8-2.5-4.9c0.3-0.9,0.8-1.7,1.7-2.1
			c2.6-1.4,5.4-1.6,8.1-0.3C403.6,172.3,404.4,173.5,404.6,175.4z"/>
		<path fill="#12693B" d="M385.9,171.2c1.2,0,2.2,0,3.3,0c0,5,0,9.8,0,14.8c-1.1,0-2.1,0-3.2,0c0-0.5-0.1-1-0.1-1.6
			c-0.7,0.8-1.5,1.5-2.5,1.8c-1.6,0.5-3.2,0.4-4.7-0.3c-0.9-0.4-1.6-1.2-1.9-2.1c-0.3-0.8-0.5-1.7-0.5-2.6c-0.1-3.1,0-6.2,0-9.3
			c0-0.2,0-0.3,0.1-0.6c1.1-0.1,2.1-0.1,3.3,0c0,0.4,0.1,0.8,0.1,1.1c0,2.6,0,5.3,0,7.9c0,0.6,0.1,1.1,0.2,1.7
			c0.3,1.2,1.1,1.8,2.3,1.9c0.5,0,1,0,1.4-0.1c1.5-0.3,2.4-1.5,2.4-3.4c0-1.7,0-3.4,0-5C385.9,173.9,385.9,172.6,385.9,171.2z"/>
		<path fill="#FEC524" d="M478.6,186c-0.7,0-1.1,0-1.7,0c0-0.4-0.1-0.7-0.1-1.1c0-2.8,0-5.7,0-8.5c0-0.8-0.2-1.7-0.5-2.5
			c-0.3-0.9-1.1-1.4-1.9-1.5c-2.4-0.3-4.2,0.7-4.8,3.2c-0.2,0.6-0.2,1.3-0.2,1.9c0,2.4,0,4.8,0,7.3c0,0.3,0,0.7,0,1.1
			c-0.7,0-1.2,0-1.9,0c0-4.9,0-9.7,0-14.7c0.5,0,1,0,1.6,0c0,0.7,0.1,1.4,0.1,2.3c1.2-1.8,2.6-2.7,4.7-2.8c2,0,3.6,0.7,4.4,2.7
			c0.2-0.3,0.4-0.6,0.6-0.8c1.8-2.3,4.8-2.3,6.8-1.4c1.3,0.6,1.9,1.8,2.2,3.2c0.1,0.8,0.2,1.5,0.2,2.3c0,2.7,0,5.4,0,8.1
			c0,0.3,0,0.7,0,1.1c-0.7,0-1.2,0-1.9,0c0-0.4-0.1-0.7-0.1-1.1c0-3,0-5.9,0-8.9c0-0.4-0.1-0.9-0.1-1.3c-0.2-1.3-1.1-2-2.3-2.2
			c-2.5-0.4-4.2,0.6-4.8,3.2c-0.2,0.7-0.2,1.5-0.2,2.2c0,2.4,0,4.7,0,7.1C478.6,185.2,478.6,185.6,478.6,186z"/>
		<path fill="#12693B" d="M408.5,173.9c-0.9-0.1-1.6-0.1-2.4-0.2c0-0.9,0-1.6,0-2.5c0.8,0,1.5-0.1,2.4-0.1c0-1.4,0-2.8,0-4.3
			c1.2,0,2.2,0,3.4,0c0,1.4,0,2.8,0,4.4c1,0,1.9,0,2.9,0c0,0.9,0,1.7,0,2.6c-0.9,0-1.8,0.1-2.8,0.1c0,0.3-0.1,0.6-0.1,1
			c0,2.3,0,4.6,0,6.9c0,1.5,0.4,1.8,1.9,1.8c0.3,0,0.6,0,1,0c0,0.9,0,1.7,0,2.5c-1.4,0.4-2.8,0.4-4.2,0c-1-0.3-1.8-0.9-2-2
			c-0.1-0.5-0.2-1.1-0.2-1.7c0-2.4,0-4.9,0-7.3C408.5,174.6,408.5,174.3,408.5,173.9z"/>
		<path fill="#FEC524" d="M454.2,175.7c-0.6,0-1,0-1.6,0c-0.2-1.2,0.3-2.2,1-3c1-1.3,2.4-1.7,3.9-1.8c1.2-0.1,2.4-0.1,3.5,0.3
			c1.8,0.6,2.9,2,2.9,3.9c0,2.3,0,4.7,0,7c0,0.3,0,0.5,0,0.8c0,1.3,0.2,1.5,1.5,1.7c0,0.2,0.1,0.4,0.1,0.6c0,0.8-0.1,0.9-0.9,1
			c-1.3,0.1-2.3-0.4-2.3-2c0-0.1,0-0.2-0.1-0.4c-0.3,0.4-0.6,0.7-0.9,1.1c-0.8,0.9-1.7,1.5-2.9,1.6c-1.3,0.2-2.6,0.2-3.9-0.2
			c-1.7-0.6-2.7-2-2.7-3.9c0-1.9,0.8-3.3,2.5-3.9c1.2-0.4,2.6-0.6,3.9-0.8c0.8-0.2,1.7-0.2,2.5-0.4c0.8-0.2,1.2-0.7,1.3-1.5
			c0.2-1.4-0.7-2.7-2.1-3.1c-1.1-0.3-2.3-0.3-3.4,0c-1.2,0.4-1.9,1.1-2.2,2.3C454.3,175.2,454.2,175.4,454.2,175.7z M462.1,178.2
			c-0.8,0.2-1.4,0.4-2,0.5c-0.6,0.1-1.3,0.2-1.9,0.3c-1,0.2-2,0.4-2.9,0.8c-0.9,0.3-1.4,1-1.5,2c-0.1,1.1,0.3,2,1.3,2.6
			c0.8,0.5,1.7,0.5,2.7,0.4c2.2-0.1,4.1-1.8,4.3-3.8C462,180.1,462,179.2,462.1,178.2z"/>
		<path fill="#FEC524" d="M449.1,186c-0.6,0-1.1,0-1.7,0c0-0.4-0.1-0.7-0.1-1.1c0-2.8,0-5.6,0-8.4c0-0.7-0.1-1.4-0.3-2
			c-0.3-1.1-1-1.7-2.2-2c-2.7-0.7-5.2,1-5.7,3.8c-0.1,0.7-0.2,1.4-0.2,2.1c0,2.2,0,4.4,0,6.6c0,0.3,0,0.6-0.1,1c-0.6,0-1.1,0-1.7,0
			c0-6.8,0-13.6,0-20.4c0.5,0,1,0,1.7,0c0.1,1.3,0,2.6,0,3.9c0,1.3,0,2.6,0,4.1c0.3-0.4,0.5-0.6,0.7-0.8c1.5-1.7,3.3-2.2,5.4-1.8
			c0.6,0.1,1.3,0.3,1.8,0.6c1.4,0.7,2.1,1.9,2.1,3.4c0.1,3.6,0.1,7.1,0.2,10.7C449.3,185.7,449.2,185.8,449.1,186z"/>
		<path fill="#12693B" d="M544.9,175.8c-0.2-1.7,0.7-3.4,2.2-4.2c0.5-0.3,1-0.4,1.6-0.5c1.5-0.2,2.9-0.3,4.4,0.2
			c1.8,0.6,2.6,1.7,2.6,3.6c0,2.5,0,5.1,0,7.6c0,0.3,0,0.6,0,0.9c0,1.4,0,1.4,1.5,1.6c0.1,0,0.1,0,0.2,0.1c0.2,0.8,0.1,1-0.7,1
			c-1.4,0.1-2.1-0.5-2.2-1.8c0-0.2,0-0.3-0.1-0.5c-0.1,0-0.2,0.1-0.2,0.1c-1.9,2.5-4.4,3-7.3,2.3c-1.9-0.4-2.8-1.8-2.9-3.7
			c-0.1-1.8,0.8-3.3,2.5-4c1.3-0.5,2.6-0.6,4-0.7c0.8-0.1,1.6-0.2,2.4-0.3c1.1-0.2,1.5-0.7,1.5-1.8c0.1-1.8-0.7-3-2.5-3.3
			c-0.9-0.2-2-0.2-2.9,0c-1.6,0.3-2.6,1.3-2.9,2.9C546,176,545.9,176,544.9,175.8z M554.5,177.9c-1.7,0.7-3.3,0.7-4.8,0.9
			c-0.9,0.1-1.8,0.3-2.6,0.6c-1.3,0.4-1.8,1.4-1.8,2.8c0,1.3,0.7,2.3,1.9,2.7c0.9,0.4,1.8,0.4,2.7,0.3c2.3-0.2,4-1.6,4.4-3.8
			C554.5,180.4,554.4,179.2,554.5,177.9z"/>
		<path fill="#12693B" d="M521,175.8c-0.3-2.1,1.2-3.9,2.6-4.4c2-0.7,3.9-0.7,5.9,0c1.5,0.6,2.2,1.8,2.2,3.4c0,2.7,0,5.4,0,8.2
			c0,0.2,0,0.5,0,0.7c0,1.1,0.2,1.2,1.3,1.3c0.1,0,0.2,0,0.4,0.1c0,0.3,0,0.6,0,0.8c-1.8,0.6-2.6,0-3.1-2.1c-0.1,0-0.1,0-0.2,0.1
			c-1.9,2.5-4.4,3-7.3,2.3c-1.8-0.4-2.9-1.8-2.9-3.8c-0.1-1.9,0.7-3.2,2.5-4c1.3-0.5,2.6-0.6,4-0.7c0.9-0.1,1.8-0.2,2.6-0.4
			c1-0.2,1.3-0.6,1.3-1.6c0.1-2.2-1.1-3.5-3.3-3.6c-0.8,0-1.5,0-2.3,0.2c-1.5,0.3-2.4,1.4-2.7,2.9C522,176,522,176,521,175.8z
			 M530.6,178c-0.9,0.2-1.6,0.4-2.3,0.5c-0.7,0.1-1.5,0.1-2.2,0.2c-0.9,0.1-1.8,0.2-2.6,0.5c-1.5,0.4-2.2,1.5-2.2,3
			c0,1.4,0.9,2.5,2.3,2.9c0.7,0.2,1.5,0.2,2.2,0.2c2.3-0.1,4-1.6,4.5-3.8C530.6,180.4,530.5,179.2,530.6,178z"/>
		<path fill="#12693B" d="M507.1,186c-0.4,0-0.7,0-1.1,0c0-0.4-0.1-0.7-0.1-1c0-6.1,0-12.3,0-18.4c0-0.3,0.1-0.6,0.1-1
			c0.4,0,0.7,0,1.1,0c0,1.4,0,2.8,0,4.2c0,1.4,0,2.8,0,4.3c0.2-0.3,0.3-0.4,0.4-0.6c1.1-1.6,2.6-2.5,4.5-2.5c0.7,0,1.5,0,2.2,0.2
			c1.6,0.4,2.7,1.4,3.1,3c0.2,0.8,0.3,1.6,0.3,2.4c0,2.9,0,5.7,0,8.6c0,0.3,0,0.6-0.1,0.9c-0.4,0-0.7,0-1.1,0c0-0.4-0.1-0.7-0.1-1.1
			c0-2.8,0-5.6,0-8.4c0-0.6-0.1-1.2-0.2-1.8c-0.3-1.4-1.2-2.3-2.6-2.6c-3.5-0.6-5.8,1.2-6.3,4.4c-0.1,0.8-0.2,1.7-0.2,2.6
			c0,1.9,0,3.9,0,5.8C507.1,185.3,507.1,185.6,507.1,186z"/>
		<path fill="#12693B" d="M497.7,186c-0.6,0-0.9,0-1.4,0c0-6.4,0-12.8,0-19.2c-2.4,0-4.7,0-7.1,0c0-0.4-0.1-0.8-0.1-1.1
			c0.7-0.3,14.6-0.3,15.7-0.1c0,0.3,0,0.6,0,1.1c-2.3,0-4.6,0-7,0C497.7,173.2,497.7,179.6,497.7,186z"/>
		<path fill="#12693B" d="M570.7,186c-0.4,0-0.7,0-1.1,0c0-0.4-0.1-0.7-0.1-1.1c0-2.9,0-5.8,0-8.7c0-0.7-0.2-1.5-0.4-2.2
			c-0.4-1.1-1.3-1.7-2.4-1.9c-4.2-0.7-6.2,2-6.3,5c-0.1,2.6,0,5.1-0.1,7.7c0,0.4,0,0.8-0.1,1.2c-0.4,0-0.7,0-1,0.1
			c-0.3-0.7-0.3-13.5-0.1-14.7c0.3,0,0.6,0,1.1,0c0,0.8,0,1.5,0,2.2c0.1,0,0.1,0,0.2,0.1c0.1-0.1,0.3-0.3,0.4-0.4
			c1.1-1.5,2.6-2.3,4.5-2.3c1,0,1.9,0,2.9,0.5c1.1,0.5,1.9,1.3,2.2,2.4c0.2,0.7,0.4,1.5,0.4,2.2c0.1,3.1,0,6.2,0,9.3
			C570.8,185.5,570.7,185.7,570.7,186z"/>
		<path fill="#12693B" d="M355.8,205.8c-0.3-0.7-0.3-8.9,0-9.7c0.2,0,0.4-0.1,0.6-0.1c1.3,0,2.7,0,4,0.1c1.1,0.1,1.9,0.7,2.2,1.7
			c0.3,1,0,1.8-0.8,2.5c0,0-0.1,0.1-0.1,0.2c0.2,0.2,0.4,0.4,0.6,0.6c1.4,1.3,1,3.7-0.8,4.5c-0.1,0-0.1,0-0.2,0.1
			C360.4,206,356.9,206.1,355.8,205.8z M357.2,204.5c0.2,0,0.3,0.1,0.4,0.1c0.6,0,1.3,0,1.9,0c0.4,0,0.9-0.1,1.3-0.2
			c0.6-0.2,0.9-0.8,0.9-1.5c0-0.7-0.4-1.2-1-1.3c-1.2-0.2-2.3-0.1-3.5-0.1C357.2,202.6,357.2,203.5,357.2,204.5z M357.2,197.2
			c0,1,0,1.9,0,2.8c1.1,0,2.1,0.1,3.1,0c0.7-0.1,1-0.6,1-1.2c0-0.8-0.3-1.2-1-1.3C359.3,197.3,358.3,197.3,357.2,197.2z"/>
		<path fill="#12693B" d="M550.9,205.8c0-1.4,0-2.7,0-4c0-0.3,0-0.6,0-0.9c-0.1-0.5-0.2-1.1-0.9-1.2c-0.6-0.1-1.2,0.1-1.5,0.6
			c-0.2,0.3-0.3,0.8-0.3,1.2c-0.1,1.1,0,2.1,0,3.2c0,0.3-0.1,0.7-0.1,1.1c-0.4,0-0.8,0-1.1,0.1c-0.3-0.7-0.3-6.1-0.1-7.1
			c0.5-0.3,1-0.1,1.3,0.4c1.7-1,2.8-0.9,3.9,0.3c0.2-0.1,0.4-0.3,0.6-0.4c0.7-0.5,1.5-0.6,2.4-0.4c0.6,0.1,1,0.5,1.2,1.1
			c0.1,0.4,0.2,0.8,0.3,1.2c0,1.4,0,2.9,0,4.3c0,0.2-0.1,0.3-0.1,0.6c-0.4,0-0.7,0-1.2,0.1c0-0.4-0.1-0.7-0.1-1c0-1.3,0-2.6,0-3.9
			c0-0.8-0.3-1.1-0.8-1.3c-0.7-0.2-1.4,0.1-1.6,0.7c-0.2,0.4-0.3,0.9-0.3,1.4c0,1,0,2,0,3c0,0.3,0,0.6,0,0.9
			C551.7,205.8,551.3,205.8,550.9,205.8z"/>
		<path fill="#12693B" d="M540.8,205.8c-0.5,0-0.8,0-1.2,0c0-0.3-0.1-0.6-0.1-0.9c0-1.1,0-2.1,0-3.2c0-0.2,0-0.5,0-0.7
			c-0.1-0.9-0.4-1.3-1.1-1.3c-0.8,0-1.5,0.5-1.6,1.2c-0.1,0.7-0.2,1.3-0.2,2c0,0.9,0,1.8,0,2.8c-0.4,0-0.8,0-1.1,0.1
			c-0.2-0.7-0.3-5.9-0.1-7c0.8-0.3,0.8-0.3,1.3,0.4c1.3-0.9,2.7-1.1,3.9,0.3c0.2-0.2,0.4-0.3,0.6-0.5c0.7-0.5,1.5-0.6,2.4-0.4
			c0.6,0.2,1.1,0.6,1.3,1.3c0.1,0.4,0.2,0.9,0.2,1.3c0,1.2,0,2.5,0,3.7c0,0.3,0,0.6-0.1,0.9c-0.4,0-0.8,0-1.3,0c0-0.4-0.1-0.7-0.1-1
			c0-1.3,0-2.5,0-3.8c0-0.8-0.2-1.1-0.8-1.3c-0.7-0.2-1.4,0.1-1.7,0.7c-0.2,0.4-0.3,0.9-0.3,1.4
			C540.8,203.1,540.8,204.4,540.8,205.8z"/>
		<path fill="#12693B" d="M525.1,202.4c0.4,0.1,0.8,0.2,1.3,0.3c-0.2,1.3-0.8,2.2-1.9,2.8c-2.8,1.6-6.1,0.1-6.7-3.2
			c-0.3-1.7-0.2-3.3,0.8-4.7c1.5-2.1,5-2.4,6.7-0.5c0.4,0.4,0.6,1,1,1.7c-0.6,0.2-1,0.3-1.4,0.4c-0.1-0.2-0.2-0.4-0.3-0.5
			c-0.5-1-1.3-1.5-2.4-1.5c-1.2,0-2.2,0.5-2.6,1.6c-0.7,1.5-0.7,3.1,0.1,4.6c0.5,1.1,1.5,1.5,2.6,1.5c1.1,0,1.9-0.5,2.4-1.5
			C524.8,203,524.9,202.7,525.1,202.4z"/>
		<path fill="#12693B" d="M434.9,198.8c-0.5,0.1-0.9,0.2-1.3,0.3c-0.1-0.2-0.2-0.4-0.3-0.5c-0.5-1.1-1.4-1.6-2.6-1.5
			c-1.2,0.1-2.2,0.6-2.6,1.8c-0.5,1.3-0.5,2.7,0,4.1c0.4,1.2,1.4,1.8,2.7,1.8c1.2,0,2.1-0.5,2.6-1.7c0.1-0.2,0.2-0.5,0.3-0.8
			c0.4,0.1,0.8,0.2,1.2,0.3c0,1.4-1.1,2.8-2.7,3.2c-2.5,0.7-5-0.3-5.7-3.2c-0.4-1.6-0.3-3.2,0.5-4.7c0.9-1.5,2.3-2.1,4-2.1
			c1.5,0,2.7,0.6,3.4,1.9C434.6,198,434.7,198.3,434.9,198.8z"/>
		<path fill="#12693B" d="M460.2,202.8c0.1,1.2,0.5,1.8,1.5,2.1c0.9,0.3,1.5,0,2.4-1.3c0.4,0,0.7,0.1,1.2,0.1c-0.2,1-0.7,1.6-1.5,2
			c-1.8,0.9-4.9,0.3-5.1-3c0-0.6,0.1-1.2,0.2-1.8c0.5-1.6,1.8-2.4,3.3-2.3c1.7,0,2.8,1.1,3.1,2.8c0.2,1.4,0.2,1.4-1.2,1.4
			c-1,0-1.9,0-2.9,0C460.8,202.7,460.5,202.7,460.2,202.8z M463.8,201.4c0-1.1-0.6-1.7-1.7-1.7c-1.1,0-1.7,0.6-1.8,1.7
			C461.5,201.4,462.6,201.4,463.8,201.4z"/>
		<path fill="#12693B" d="M395.9,202.7c-1.7,0-3.4,0-5,0c-0.1,1,0.3,1.8,1.1,2.1c1,0.4,1.8,0,2.7-1.3c0.4,0,0.7,0.1,1.2,0.1
			c-0.1,0.9-0.6,1.5-1.3,1.9c-1.9,1.1-4.7,0.4-5.2-2.2c-0.2-0.9-0.1-1.8,0.1-2.6c0.4-1.4,1.7-2.3,3.3-2.2c1.6,0.1,2.8,1.2,3,2.8
			C396,201.7,395.9,202.1,395.9,202.7z M394.4,201.4c0-1-0.5-1.6-1.4-1.7c-1.2-0.1-1.9,0.5-2,1.7C392,201.4,393.2,201.4,394.4,201.4
			z"/>
		<path fill="#12693B" d="M540.3,165.5c0.3,0,0.6,0,0.9,0c0.2,0.7,0.3,19.2,0.1,20.4c-0.3,0-0.6,0-0.9,0.1
			C540.1,185.3,540,166.7,540.3,165.5z"/>
		<path fill="#12693B" d="M534.1,202.3c-0.1,2.1-1,3.3-2.8,3.7c-1.9,0.4-3.5-0.5-3.9-2.4c-0.2-0.9-0.1-1.9,0.1-2.8
			c0.3-1.4,1.6-2.3,3.1-2.3c1.5,0,2.8,0.8,3.2,2.2C533.9,201.2,534,201.8,534.1,202.3z M532.7,202.3c-0.1-0.5-0.1-0.9-0.3-1.3
			c-0.3-0.9-0.9-1.3-1.8-1.3c-0.9,0-1.6,0.5-1.8,1.4c-0.3,0.9-0.3,1.7,0.1,2.6c0.3,0.8,0.9,1.2,1.8,1.3c0.8,0.1,1.5-0.4,1.8-1.2
			C532.5,203.3,532.6,202.8,532.7,202.3z"/>
		<path fill="#12693B" d="M479.9,202.3c-0.1-1.2,0.2-2.2,1.1-3c1.7-1.4,5.1-1,5.5,2.1c0.1,0.7,0.1,1.5-0.1,2.3
			c-0.4,1.9-2.2,2.5-3.4,2.4c-1.7-0.1-2.9-1.3-3.1-3C479.9,202.8,479.9,202.6,479.9,202.3z M485.3,202.3c-0.1-0.4-0.1-0.8-0.2-1.2
			c-0.3-1-0.9-1.4-1.9-1.4c-1,0-1.5,0.5-1.8,1.5c-0.2,0.8-0.2,1.6,0,2.4c0.3,0.8,1,1.4,1.8,1.4c0.8,0,1.6-0.5,1.8-1.3
			C485.2,203.2,485.2,202.7,485.3,202.3z"/>
		<path fill="#12693B" d="M439.3,198.5c2.5,0.1,3.4,1.8,3.4,4c0,0.2-0.1,0.3-0.1,0.5c-0.1,2.4-2.6,3.6-4.6,2.8
			c-1.1-0.4-1.8-1.2-2-2.3c-0.1-0.8-0.2-1.7,0-2.5C436.3,199.5,437.7,198.5,439.3,198.5z M441.4,202.4c-0.1-0.6-0.2-1.1-0.3-1.5
			c-0.3-0.7-0.8-1.2-1.6-1.2c-0.9-0.1-1.5,0.3-1.9,1c-0.5,1-0.5,2.1,0,3.1c0.6,1.3,2.5,1.5,3.2,0.2
			C441.1,203.6,441.2,202.9,441.4,202.4z"/>
		<path fill="#12693B" d="M403.7,203.7c0.5-0.1,0.8-0.1,1.2-0.2c0.3,0.8,0.7,1.4,1.6,1.4c0.4,0,0.9,0,1.2-0.1
			c0.3-0.1,0.5-0.5,0.6-0.8c0.1-0.4-0.2-0.6-0.6-0.8c-0.5-0.2-1-0.3-1.5-0.5c-0.4-0.1-0.8-0.3-1.2-0.4c-0.7-0.3-1.1-0.8-1.1-1.6
			c0-0.8,0.3-1.4,1.1-1.8c1.2-0.6,2.4-0.5,3.6,0.1c0.5,0.3,0.7,0.7,0.9,1.6c-0.3,0.1-0.7,0.2-1.1,0.3c-0.3-1.1-1.1-1.3-2.1-1.1
			c-0.2,0-0.5,0.1-0.7,0.3c-0.4,0.3-0.3,0.7,0.1,1c0.3,0.2,0.6,0.3,1,0.4c0.6,0.2,1.2,0.4,1.9,0.6c1.5,0.4,1.8,2.3,0.6,3.4
			c-1.1,0.9-3.3,0.9-4.4,0C404,205,403.8,204.4,403.7,203.7z"/>
		<path fill="#12693B" d="M387.9,205.9c-0.3,0-0.7,0-1.1,0c0-0.4-0.1-0.7-0.1-1c0-1.2,0-2.4,0-3.5c0-1-0.4-1.5-1.2-1.6
			c-0.9-0.1-1.7,0.4-1.9,1.3c-0.1,0.4-0.1,0.8-0.1,1.2c0,1.1,0,2.3,0,3.5c-0.5,0-0.8,0.1-1.3,0.1c-0.2-2.4-0.1-4.7-0.1-7
			c1-0.4,1.1-0.3,1.3,0.5c0.8-0.7,1.8-1,2.9-0.8c0.8,0.2,1.5,0.7,1.6,1.6c0.1,1.8,0.1,3.6,0.1,5.5C388,205.7,388,205.7,387.9,205.9z
			"/>
		<path fill="#12693B" d="M495.1,203.7c0.4-0.1,0.7-0.1,1.1-0.2c0.1,0.1,0.2,0.2,0.2,0.3c0.5,1,1.4,1.4,2.5,1
			c0.4-0.2,0.7-0.4,0.7-0.9c0-0.5-0.3-0.7-0.7-0.8c-0.5-0.2-1.1-0.3-1.6-0.5c-0.3-0.1-0.6-0.2-0.9-0.3c-0.7-0.3-1.1-0.9-1.1-1.7
			c0-0.8,0.4-1.4,1-1.7c1.2-0.6,2.5-0.6,3.6,0.1c0.5,0.3,0.8,0.8,0.8,1.6c-0.4,0.1-0.7,0.1-1,0.2c-0.9-1.1-1.3-1.2-2.3-1.1
			c-0.5,0.1-0.8,0.3-0.9,0.7c-0.1,0.5,0.3,0.7,0.7,0.8c0.7,0.2,1.4,0.4,2.1,0.6c1.1,0.4,1.7,1,1.7,1.9c0,1-0.7,1.8-1.7,2.1
			c-0.9,0.3-1.7,0.3-2.6,0C495.8,205.5,495.2,204.9,495.1,203.7z"/>
		<path fill="#12693B" d="M377.5,200.6c-0.4,0.1-0.7,0.1-1.1,0.2c-0.4-1.1-1.2-1.2-2.2-1.1c-0.4,0.1-0.7,0.2-0.8,0.7
			c0,0.5,0.3,0.7,0.7,0.8c0.7,0.2,1.5,0.4,2.2,0.6c0.8,0.3,1.5,0.8,1.5,1.7c0.1,0.9-0.5,1.7-1.4,2.1c-1,0.4-2,0.4-3,0
			c-0.9-0.4-1.4-1-1.5-2.1c0.4-0.1,0.8-0.1,1.2-0.2c0.3,0.6,0.6,1.3,1.3,1.3c0.5,0,0.9,0,1.4-0.1c0.4-0.1,0.6-0.4,0.6-0.8
			c0-0.4-0.2-0.6-0.6-0.8c-0.4-0.1-0.9-0.2-1.3-0.4c-0.4-0.1-0.7-0.2-1.1-0.3c-0.9-0.4-1.4-1-1.4-1.9c0-0.9,0.6-1.6,1.5-1.9
			c1-0.3,1.9-0.3,2.8,0.2C377,199.2,377.4,199.7,377.5,200.6z"/>
		<path fill="#12693B" d="M397,203.7c0.3-0.1,0.7-0.1,1-0.2c0.1,0.1,0.2,0.1,0.2,0.2c0.3,1.2,1.6,1.4,2.5,1.1
			c0.4-0.1,0.7-0.4,0.7-0.8c0-0.5-0.3-0.7-0.7-0.8c-0.8-0.2-1.5-0.4-2.3-0.7c-1-0.4-1.4-1-1.4-1.9c0-0.8,0.4-1.4,1.2-1.7
			c1-0.4,2.1-0.4,3.1,0c0.7,0.3,1.1,0.8,1.2,1.7c-0.4,0.1-0.7,0.2-1,0.2c-0.8-1.1-1.3-1.3-2.3-1.1c-0.4,0.1-0.8,0.2-0.8,0.7
			c-0.1,0.5,0.3,0.7,0.7,0.8c0.7,0.2,1.4,0.4,2.1,0.6c1.2,0.4,1.6,1,1.6,1.9c0,1-0.7,1.8-1.7,2.1c-0.9,0.3-1.7,0.3-2.6,0
			C397.6,205.5,397,204.7,397,203.7z"/>
		<path fill="#12693B" d="M369.3,198.7c0.5,0,0.8,0,1.2,0c0,2.4,0,4.7,0,7c-0.8,0.3-0.9,0.3-1.3-0.4c-0.2,0.1-0.4,0.3-0.7,0.4
			c-0.8,0.4-1.6,0.5-2.4,0.2c-0.9-0.3-1.4-1-1.4-1.9c-0.1-1.7,0-3.4,0-5c0,0,0.1-0.1,0.1-0.2c0.3,0,0.7,0,1.1,0
			c0,0.4,0.1,0.7,0.1,1.1c0,1.2,0,2.4,0,3.5c0,1,0.3,1.4,1.1,1.5c0.9,0.1,1.7-0.4,1.9-1.2c0.1-0.5,0.1-1.1,0.2-1.7
			C369.3,200.9,369.3,199.8,369.3,198.7z"/>
		<path fill="#12693B" d="M449.8,205.9c-0.5,0-0.8,0-1.2,0c0-0.3-0.1-0.7-0.1-1c0-1.2,0-2.4,0-3.6c0-1-0.3-1.4-1.1-1.5
			c-0.9-0.1-1.7,0.3-1.9,1.2c-0.1,0.4-0.2,0.9-0.2,1.4c0,1.1,0,2.3,0,3.5c-0.5,0-0.8,0-1.2,0c0-2.4,0-4.7,0-7
			c0.8-0.3,0.8-0.3,1.3,0.4c0.7-0.5,1.6-0.8,2.5-0.6c1.2,0.2,1.9,0.8,1.9,1.9C449.9,202.3,449.8,204,449.8,205.9z"/>
		<path fill="#12693B" d="M451.6,205.9c0-2.5,0-4.8,0-7.1c0.9-0.3,0.9-0.3,1.2,0.5c0.8-0.7,1.7-1,2.8-0.8c0.9,0.2,1.6,0.7,1.7,1.7
			c0.1,0.6,0.1,1.2,0.1,1.8c0,1.2,0,2.4,0,3.7c-0.5,0-0.9,0-1.4,0c0-0.4-0.1-0.7-0.1-1c0-1.2,0-2.4,0-3.6c0-0.9-0.4-1.3-1.1-1.5
			c-0.8-0.1-1.6,0.3-1.9,1c-0.1,0.4-0.2,0.7-0.2,1.1c0,1,0,2,0,3c0,0.3,0,0.6-0.1,1C452.4,205.9,452.1,205.9,451.6,205.9z"/>
		<path fill="#12693B" d="M558.1,198.7c0.4,0,0.7,0,1.2,0c0,0.5,0,0.9,0,1.3c0,1.2,0.1,2.4,0.1,3.5c0,0.8,0.6,1.3,1.3,1.3
			c0.9,0,1.6-0.5,1.7-1.3c0.1-0.8,0.1-1.6,0.2-2.5c0-0.8,0-1.5,0-2.4c0.5,0,0.8,0,1.3,0c0,2.4,0,4.7,0,7c-0.9,0.3-0.9,0.3-1.3-0.4
			c-0.2,0.1-0.4,0.3-0.7,0.4c-0.8,0.4-1.6,0.5-2.5,0.1c-0.7-0.3-1.2-0.8-1.2-1.6C558,202.4,558.1,200.6,558.1,198.7z"/>
		<path fill="#12693B" d="M493.7,205.8c-0.2,0-0.4,0.1-0.5,0.1c-0.2,0-0.3,0-0.6-0.1c0-0.3-0.1-0.7-0.1-1c0-1.3,0-2.5-0.1-3.8
			c-0.1-0.9-0.4-1.2-1.2-1.3c-0.8-0.1-1.6,0.4-1.8,1.1c-0.1,0.6-0.2,1.2-0.2,1.8c0,1.1,0,2.1,0,3.2c-0.5,0-0.8,0-1.1,0
			c-0.2-0.6-0.3-6-0.1-7.1c0.6-0.3,1-0.2,1.3,0.4c0.8-0.6,1.6-0.8,2.6-0.6c1,0.2,1.7,0.7,1.8,1.7
			C493.8,202.1,493.7,203.9,493.7,205.8z"/>
		<path fill="#12693B" d="M565.7,198.8c0.6-0.2,1.1-0.2,1.3,0.5c0.8-0.5,1.6-0.8,2.5-0.7c1.1,0.2,1.9,0.7,1.9,1.9
			c0.1,1.8,0,3.5,0,5.4c-0.4,0-0.8,0-1.2,0c0-0.3-0.1-0.6-0.1-0.9c0-1,0-2,0-3c0-0.3,0-0.6-0.1-1c-0.2-0.9-0.5-1.2-1.2-1.2
			c-0.8,0-1.6,0.4-1.7,1.1c-0.1,0.5-0.2,1.1-0.2,1.7c0,1.1,0,2.2,0,3.3c-0.5,0-0.8,0-1.2,0C565.7,203.5,565.7,201.1,565.7,198.8z"/>
		<path fill="#12693B" d="M472.4,200.9c-0.4,0.1-0.8,0.1-1.1,0.2c-0.1-0.2-0.2-0.3-0.2-0.4c-0.3-0.6-0.8-0.9-1.5-0.9
			c-0.8,0-1.3,0.4-1.6,1c-0.4,1.1-0.4,2.2,0.1,3.3c0.3,0.6,0.9,0.9,1.5,0.9c0.6,0,1.2-0.2,1.5-0.9c0.1-0.2,0.2-0.4,0.3-0.7
			c0.3,0,0.7,0,1.2,0.1c0,1.1-0.6,1.9-1.4,2.4c-1.5,0.9-3.5,0.3-4.3-1.2c-0.8-1.5-0.7-3,0-4.4c0.8-1.6,3.2-2,4.6-1
			C472,199.5,472.4,200.1,472.4,200.9z"/>
		<path fill="#12693B" d="M536.4,186c-0.4,0-0.7,0-1.1,0c0-4.9,0-9.8,0-14.6c0.3-0.1,0.4-0.1,0.6-0.1c0.2,0,0.3,0,0.5,0.1
			C536.6,172,536.7,185,536.4,186z"/>
		<path fill="#12693B" d="M578.9,199.7c-0.4,0.1-0.7,0.1-1.2,0.2c0.1,1.6-0.2,3.2,0.2,4.7c0.4,0.1,0.6,0.1,1,0.2
			c0.1,0.3,0.1,0.6,0.2,1.1c-0.7,0-1.2,0.1-1.7,0c-0.6-0.1-1-0.7-1-1.5c0-1.1,0-2.2,0-3.4c0-0.4,0-0.7,0-1.1
			c-0.3-0.1-0.5-0.2-0.8-0.3c0-0.2,0-0.5-0.1-0.7c0.3-0.1,0.5-0.2,0.8-0.4c0.1-0.8-0.1-1.9,1.3-2.1c0,0.7,0.1,1.4,0.1,2.1
			c0.4,0.1,0.7,0.2,1.1,0.2C578.9,199.1,578.9,199.3,578.9,199.7z"/>
		<path fill="#12693B" d="M476.5,205.9c-0.7,0-1.2,0.1-1.7,0c-0.6-0.1-1-0.7-1-1.5c0-1.2,0-2.4,0-3.5c0-0.3,0-0.6,0-1
			c-0.3-0.1-0.5-0.2-0.8-0.3c0-0.3,0-0.5,0-0.8c0.3-0.1,0.5-0.2,0.8-0.3c0-0.9-0.1-1.9,1.3-2.1c0,0.7,0.1,1.4,0.1,2.1
			c0.4,0.1,0.7,0.2,1.1,0.2c0,0.3,0,0.5,0,0.9c-0.3,0.1-0.7,0.1-1.2,0.2c0,0.3,0,0.7,0,1.1c0,0.8,0,1.6,0,2.4c0,1.2,0,1.2,1.2,1.5
			C476.3,205.1,476.4,205.4,476.5,205.9z"/>
		<path fill="#12693B" d="M477.4,198.7c0.4,0,0.8,0,1.3,0c0,2.4,0.1,4.7,0,7.1c-0.5,0-0.8,0-1.2,0
			C477.2,205.2,477.2,199.9,477.4,198.7z"/>
		<path fill="#12693B" d="M379.1,198.7c0.5,0,0.9,0,1.3,0c0,2.4,0,4.7,0,7.1c-0.4,0-0.7,0-1.2,0.1
			C379,203.5,379.1,201.2,379.1,198.7z"/>
		<path fill="#12693B" d="M508.9,205.6c0-3.4,0-6.8,0-10.2c0.5-0.2,0.8-0.1,0.8,0.4c0,0.1,0,0.2,0,0.4c0,2.9,0,5.9,0,8.8
			C509.7,205.7,509.7,205.7,508.9,205.6z"/>
		<path fill="#12693B" d="M573.3,198.7c0.4,0,0.7,0,1.2,0c0,2.4,0,4.7,0,7.1c-0.5,0-0.8,0-1.1,0
			C573.2,205.2,573.1,200.1,573.3,198.7z"/>
		<path fill="#12693B" d="M417.5,195.4c0.5-0.2,0.7-0.2,0.8,0.2c0,0.1,0,0.3,0,0.4c0,3,0,5.9,0,8.9c0,0.4,0,0.9-0.8,0.7
			C417.5,202.3,417.5,198.9,417.5,195.4z"/>
		<path fill="#12693B" d="M536.5,168.5c-1,0.3-1.2,0.1-1.2-0.8c0-0.4,0-0.9,0-1.3c0-0.9,0.2-1,1.2-0.8
			C536.5,166.5,536.5,167.5,536.5,168.5z"/>
		<path fill="#12693B" d="M477.4,196c0.5,0,0.8,0,1.3,0c0,0.5,0,0.9,0,1.4c-0.4,0-0.8,0-1.3,0C477.4,197,477.4,196.6,477.4,196z"/>
		<path fill="#12693B" d="M379.2,196c0.4,0,0.8,0,1.2,0c0,0.5,0,0.9,0,1.3c-0.4,0.2-0.9,0.4-1.2,0C378.9,197,379.1,196.5,379.2,196z
			"/>
		<path fill="#12693B" d="M573.3,196c0.4,0,0.7,0,1.1,0c0,0.5,0,0.9,0,1.4c-0.4,0-0.7,0-1.1,0C573.3,197,573.3,196.6,573.3,196z"/>
	</g>
	<g>
		<path fill="#E5AD1A" d="M728,135.5c0.2,0.2,0.5,0.4,0.5,0.7c0.1,0.8,0.5,1.4,0.7,2.2c0.2,0.9,0.6,1.6,0.8,2.5
			c0.2,0.8,0.6,1.6,0.7,2.4c0.1,0.7,0.5,1.2,0.6,1.9c0.2,0.8,0.5,1.5,0.8,2.3c0.3,1,0.7,2,1,3c0.2,0.9,0.7,1.6,0.9,2.4
			c0.4,1.7,1.1,3.4,1.6,5c0.7,1.7,1.1,3.4,1.8,5.1c0.6,1.2,0.8,2.5,1.4,3.7c0.3,0.7,0.5,1.6,0.9,2.3c0.3,0.5,0.4,1.1,0.7,1.7
			c0.5,1.1,0.7,2.4,1.4,3.5c0.7,1.5,1.3,3.1,1.8,4.7c0.7,1.1,1,2.4,1.7,3.6c0.6,1.5,1.5,2.9,2,4.4c0.1,0.3,0.3,0.5,0.4,0.7
			c0.7,1.1,1.1,2.3,1.9,3.4c0.4,0.6,0.5,1.3,1,1.8c0.4,0.4,0.5,1.1,0.9,1.6c0.7,0.7,0.9,1.8,1.5,2.6c0.9,1.6,2,3,2.9,4.5
			c0.3,0.5,0.5,1,0.9,1.4c0.3,0.3,0.4,0.8,0.6,1.2c0.3,0.5,0.8,0.8,1,1.3c0.4,0.7,0.7,1.5,1.3,2.1c0.6,0.5,0.8,1.4,1.4,2
			c1.1,1.1,1.7,2.6,2.8,3.7c0.6,0.7,1,1.6,1.6,2.2c0.4,0.4,0.8,0.8,1.1,1.3c0.4,0.6,0.9,1,1.3,1.5c0.5,0.8,1.2,1.4,1.6,2.1
			c1,1.1,2.2,2.2,3.2,3.3c0.7,0.7,1.4,1.5,2.3,2.1c0.8,0.5,1.6,1.2,2.6,1.5c0.5,0.2,1.1,0.4,1.7,0.2c0.7-0.4,1.5-0.8,1.7-1.7
			c0.3-1.3-0.4-2.5-1.1-3.6c-0.3-0.5-1-0.6-1.3-1.1c-0.3-0.5-0.7-0.9-1-1.4c-0.4-0.5-0.8-0.9-1.1-1.5c-0.2-0.6-0.4-1.2-0.6-1.9
			c-0.1-0.6-0.1-1.2-0.2-1.7c-0.2-1.2,0.2-2.4,0.5-3.5c0.1-0.4,0-0.9,0.2-1.3c0.2-0.5,0.6-0.9,0.8-1.4c0.2-0.4,0.5-0.9,0.8-1.2
			c0.6-0.6,1.1-1.4,1.8-1.9c0.7-0.7,1.6-1.3,2.6-1.5c-0.2,0.9-0.3,1.8-0.6,2.6c-0.1,0.8,0,1.6,0,2.4c0.2,1.8,0.5,3.8,1.8,5.1
			c0.5,0.4,0.7,1.1,1.3,1.4c0.6,0.4,1.1,1,1.7,1.3c1.3,0.7,2.8,1.2,4.3,1.6c0.4,0.1,0.6,0.4,0.6,0.8c0,6.6,0,13.1,0,19.7
			c-6.4,0-12.8,0-19.1,0c-0.3,0-0.6,0-0.9-0.2c-0.5-0.4-0.9-0.9-1.2-1.4c-0.5-0.8-1.3-1.3-1.8-2.1c-0.5-0.7-1.2-1.2-1.6-2
			c-0.5-0.8-1.4-1.3-1.8-2.2c-0.4-0.7-1.1-1.1-1.5-1.7c-0.5-0.8-1-1.6-1.7-2.2c-1.2-1-1.9-2.5-2.9-3.6c-0.8-0.9-1.3-2.1-2.1-3
			c-1.3-1.3-2.1-3-3.4-4.4c-0.3-0.4-0.4-0.8-0.7-1.1c-0.7-1-1.5-1.8-2.1-2.9c-0.3-0.7-1.1-1.1-1.4-1.8c-0.3-0.7-0.9-1.2-1.3-1.9
			c-0.5-0.9-1.2-1.7-1.6-2.7c-0.3-0.6-0.8-1-1-1.6c-0.3-0.8-0.9-1.4-1.3-2.2c-0.2-0.5-0.6-1-0.8-1.5c-0.7-1.4-1.4-2.8-2.2-4.2
			c-0.3-1.1-1.2-2-1.6-3.1c-0.2-0.7-0.7-1.2-1-1.9c-0.2-0.5-0.5-1-0.7-1.5c-0.6-1.5-1.5-2.8-2-4.3c-0.5-1.2-1.2-2.2-1.6-3.4
			c-0.4-1-0.8-2-1.3-2.9c-0.6-1.4-1.1-2.7-1.6-4.1c-0.2-0.6-0.6-1.1-0.8-1.7c-0.5-1-0.7-2-1.2-2.9c-0.2-0.4-0.3-1-0.4-1.4
			c-0.1-0.5-0.5-1-0.7-1.5c-0.1-0.4-0.3-0.7-0.5-1.1c-0.1,0-0.2,0.1-0.3,0.2c-0.4,1.4-1.1,2.8-1.6,4.2c-0.3,0.8-0.7,1.5-1,2.3
			c-0.2,0.5-0.4,0.9-0.5,1.4c-0.4,1.1-1,2.1-1.4,3.2c-0.4,0.8-0.6,1.8-1.1,2.5c-0.4,0.5-0.3,1.2-0.7,1.7c-0.5,0.6-0.6,1.4-0.9,2
			c-0.7,1.1-1,2.4-1.7,3.6c-0.2,0.7-0.6,1.3-1,1.9c-0.3,0.8-0.7,1.6-1.2,2.4c-0.4,0.9-0.8,1.8-1.3,2.7c-0.3,0.4-0.4,0.9-0.7,1.4
			c-0.7,1.1-1.2,2.4-1.9,3.6c-0.4,1-1,1.9-1.5,2.8c-0.5,0.7-0.9,1.6-1.4,2.2c-0.4,0.4-0.5,1.1-0.9,1.5c-0.7,0.7-0.9,1.7-1.5,2.5
			c-0.6,0.6-0.7,1.4-1.3,2c-0.4,0.4-0.7,0.9-1,1.4c-0.3,0.5-0.7,0.9-1,1.3c-0.8,1-1.3,2.2-2.2,3.1c-0.5,0.5-0.9,1.2-1.3,1.8
			c-0.3,0.5-0.8,0.8-1.1,1.2c-0.4,0.5-0.6,1.1-0.9,1.5c-0.3,0.4-0.7,0.7-1,1.1c-0.6,0.7-1.1,1.5-1.7,2.2c-0.6,0.6-0.9,1.3-1.6,1.9
			c-0.8,0.7-1.3,1.6-1.9,2.4c-0.6,0.9-1.4,1.6-2.2,2.4c-0.5,0.5-0.6,1.3-1.1,1.8c-0.8,0.8-1.6,1.5-2.4,2.3c-0.7,0.8-1.1,1.8-1.9,2.5
			c-0.4,0.4-0.7,0.9-1,1.4c-5.3,0-10.6,0-16,0c-1.3,0-2.7,0.1-4-0.1c0-6.8,0-13.5,0-20.3c0.6-0.2,1.1-0.4,1.7-0.5
			c1.2-0.3,2.3-0.8,3.4-1.4c0.7-0.5,1.4-0.9,2-1.5c0.7-0.8,1.5-1.7,2-2.8c0.2-0.7,0.5-1.3,0.6-2c0.1-1.4,0-2.9,0-4.3
			c0.1-0.8-0.3-1.4-0.3-2.2c0.5,0.1,1,0.3,1.3,0.7c0.6,0.6,1.4,0.9,2,1.4c0.5,0.7,0.9,1.5,1.5,2.1c1.2,1.8,1.8,4,1.8,6.2
			c-0.1,0.8,0.1,1.6-0.2,2.3c-0.4,0.8-0.3,1.8-0.9,2.5c-0.3,0.4-0.6,0.8-0.9,1.2c-0.7,0.9-1.6,1.6-2.4,2.5c-0.4,0.5-0.6,1-0.8,1.6
			c-0.1,0.6,0,1.2,0,1.8c0,0.4,0.3,0.6,0.6,0.9c0.5,0.5,1.2,0.5,1.9,0.7c1.1-0.2,2.1-0.8,3-1.4c0.8-0.5,1.3-1.3,2.1-1.9
			c0.8-0.5,1.4-1.2,2.1-1.9c0.5-0.4,0.9-0.9,1.2-1.4c0.6-0.9,1.6-1.5,2.1-2.4c0.4-0.6,0.9-1,1.2-1.5c0.5-0.6,1-1.2,1.5-1.9
			c0.6-0.6,1.1-1.3,1.6-2c0.4-0.7,1-1.1,1.5-1.7c0.6-0.5,0.7-1.4,1.3-1.9c1-1,1.6-2.3,2.4-3.4c0.6-0.6,0.8-1.5,1.5-2.1
			c0.5-0.5,0.6-1.2,1-1.7c0.7-0.9,1.3-2,2-2.8c0.3-0.4,0.5-0.9,0.8-1.3c1-1.5,1.8-3.1,2.8-4.5c0.4-0.7,0.9-1.5,1.2-2.3
			c0.7-1.2,1.4-2.4,2-3.6c0.4-0.6,0.8-1.3,1-2.1c0.2-0.7,0.7-1.3,1-2c0.2-0.6,0.5-1.2,0.9-1.7c0.3-0.5,0.3-1.1,0.6-1.6
			c0.5-0.7,0.6-1.6,1-2.4c0.7-1.3,1.1-2.6,1.7-3.9c0.5-0.8,0.7-1.8,1.1-2.6c0.3-0.7,0.5-1.6,0.9-2.3c0.3-0.4,0.3-1,0.5-1.4
			c0.5-1.3,1-2.6,1.5-3.8c0.4-1,0.6-2,1-3c0.8-1.9,1.4-3.8,2.1-5.7c0.5-1.2,0.7-2.5,1.3-3.8c0.2-0.5,0.4-1,0.6-1.5
			c0.3-1.2,0.7-2.3,1.1-3.5c0.5-1.1,0.9-2.3,1.2-3.5c0.1-0.6,0.5-1,0.6-1.6c0.3-1.3,0.9-2.4,1.2-3.7
			C727.6,136.7,727.8,136.1,728,135.5z"/>
		<path fill="#FFFEFD" d="M726.6,151.6c0.6-1.2,0.8-2.7,1.5-3.8c0.6,1.5,1.2,2.9,1.6,4.5c0.3,0.9,0.6,1.9,1,2.8
			c0.7,1.5,1,3.1,1.7,4.6c0.3,0.6,0.3,1.3,0.7,1.9c0.9,2.7,2.1,5.3,3.1,8c0.4,0.7,0.5,1.6,1,2.3c0.6,1.4,1.3,2.8,1.8,4.2
			c0.3,0.9,0.8,1.7,1.2,2.6c0.1,0.4,0.4,0.8,0.5,1.1c0.4,0.9,0.7,1.9,1.2,2.8c0.7,1.7,1.6,3.3,2.4,5c0.6,1.1,1.2,2.1,1.7,3.3
			c0.2,0.6,0.7,1,0.9,1.6c0.5,0.9,0.9,1.9,1.5,2.8c0.5,1,1.1,2,1.7,3c1.1,2.1,2.4,4.1,3.6,6.1c0.5,0.8,1.1,1.5,1.5,2.4
			c0.5,0.8,1.2,1.5,1.6,2.4c0.2,0.7,1,1,1.2,1.7c0.2,0.7,0.8,1.2,1.2,1.8c0.4,0.6,0.7,1.3,1.2,1.9c0.6,0.8,1.1,1.7,1.7,2.4
			c0.8,1.1,1.7,2.2,2.5,3.3c0.7,0.9,1.5,1.8,2.3,2.7c0.8,1.2,2,2.1,2.9,3.2c0.6,0.7,1.4,1,2,1.6c0.5,0.6,1.3,0.9,1.8,1.5
			c0.6,0.6,1.5,0.9,2.2,1.3c0.7,0.4,1.4,0.7,2.2,0.9c1,0.3,2,0.2,3,0.2c1.2-0.2,2.3-0.9,3.2-1.7c0.7-0.5,0.9-1.4,1.2-2.2
			c0.2-0.5,0.4-1,0.4-1.6c-0.1-1.2-0.5-2.3-0.9-3.4c-0.1-0.4-0.4-0.8-0.7-1.2c-0.4-0.6-1.1-1.1-1.5-1.7c-0.4-0.6-1-1.1-1.3-1.7
			c-0.7-1.2-1.2-2.6-1.2-4c0.2,0,0.3,0,0.5,0c0.2,0.7,0.7,1.3,1.2,1.9c0.5,0.8,1.2,1.5,1.9,2.1c0.8,0.8,1.8,1.3,2.8,1.7
			c0.5,0.3,1,0.6,1.7,0.5c0.1,0.2,0.2,0.5,0.2,0.7c-0.2,1.2-0.1,2.4-0.1,3.6c-0.1,3.2,0,6.5-0.1,9.7c-1.8,0-3.6,0.1-5.4,0
			c-1.5-0.3-3-0.2-4.6-0.2c-1.3,0-2.6,0-3.9,0c-0.6,0-1.2,0-1.7-0.3c-0.7-0.3-0.8-1.1-1.4-1.5c-0.7-0.4-1.3-1-1.8-1.7
			c-0.3-0.5-0.9-0.7-1.2-1.2c-0.8-1.3-2.1-2-2.9-3.3c-0.3-0.5-0.8-0.9-1.1-1.4c-0.7-1.1-1.9-1.8-2.5-2.9c-0.6-1-1.3-1.8-2-2.7
			c-0.8-0.8-1.3-1.9-2.1-2.8c-0.6-0.6-1.1-1.4-1.5-2.2c-0.4-0.7-1-1.1-1.4-1.8c-0.4-0.8-1-1.4-1.4-2.1c-0.6-1-1.3-1.9-1.9-2.9
			c-0.2-0.4-0.6-0.8-0.8-1.2c-0.5-1.1-1.3-2-1.8-3.1c-0.8-1.1-1.2-2.3-1.8-3.4c-1.1-1.6-1.7-3.4-2.7-5c-0.1-0.2-0.2-0.4-0.3-0.6
			c-0.4-1-1-2-1.3-3c-0.5-0.9-0.8-1.9-1.3-2.8c-0.5-0.9-0.9-1.8-1.3-2.7c-0.3-0.8-0.7-1.6-1.2-2.3c-0.2-0.5-0.3-1.1-0.6-1.6
			c-0.4-1-0.9-1.9-1.3-2.9c-0.2-0.6-0.7-1-0.8-1.6c-0.1-0.8-0.7-1.5-0.9-2.3c-0.3-1-0.9-1.9-1.3-2.9c-0.2-0.7-0.6-1.4-0.9-2
			c-0.4-0.8-0.5-1.6-0.9-2.4c-0.7-1.3-1.1-2.7-1.7-4c-0.4-1.1-0.7-2.2-1.2-3.3c-0.4-0.9-0.7-1.9-1-2.8c-0.8,1.1-0.8,2.5-1.5,3.5
			c-0.6,1.5-1.1,3-1.7,4.5c-0.5,0.8-0.6,1.8-1.2,2.5c-0.4,0.6-0.6,1.3-0.8,2c-0.3,1-0.9,1.8-1.2,2.8c-0.2,0.8-0.7,1.5-1,2.2
			c-0.2,0.5-0.6,0.9-0.8,1.4c-0.3,0.7-0.4,1.5-0.8,2.2c-0.2,0.4-0.5,0.7-0.6,1.1c-0.5,1.5-1.5,2.8-2,4.3c-0.2,0.6-0.6,1.2-0.9,1.8
			c-0.2,0.5-0.3,1-0.7,1.4c-0.5,0.6-0.7,1.4-1,2.1c-1.1,1.7-1.6,3.7-2.7,5.4c-0.4,0.8-0.6,1.6-1.1,2.3c-0.4,0.5-0.6,1.1-0.8,1.7
			c-0.4,0.7-0.9,1.4-1.3,2.2c-0.5,1.3-1.5,2.3-2.1,3.5c-0.4,0.8-1.1,1.5-1.4,2.4c-0.2,0.6-0.8,1.1-1.1,1.7c-0.3,0.7-0.9,1.2-1.2,1.8
			c-0.6,0.9-1.1,1.8-1.8,2.6c-0.6,0.5-0.8,1.3-1.3,1.9c-0.7,0.7-1,1.7-1.8,2.4c-0.5,0.4-0.9,1-1.3,1.5c-1,1.1-1.8,2.5-2.8,3.5
			c-0.5,0.5-0.8,1.1-1.3,1.6c-0.5,0.5-0.9,0.9-1.3,1.5c-0.6,0.8-1.4,1.5-2.2,2.2c-0.9,0.9-1.9,1.7-2.5,2.8c-0.8,0.9-1.6,1.8-2.6,2.4
			c-0.4,0.3-0.7,0.7-1.1,1c-0.3,0.1-0.7,0-1,0.1c-4.6,0-9.2,0-13.8,0c0-4.4,0-8.8,0-13.2c0-0.3,0.2-0.6,0.5-0.7
			c0.9-0.3,1.8-0.5,2.6-1.1c0.9-0.5,1.6-1.4,2.3-2.1c0.6-0.6,1.3-1.1,1.6-1.9c0.2-0.5,0.6-1,1.1-1.2c0,0.5,0,0.9-0.1,1.4
			c-0.2,0.6-0.2,1.1-0.5,1.7c-0.3,0.6-0.6,1.1-0.9,1.6c-0.5,0.8-1.3,1.4-2,2.1c-0.3,0.4-0.5,0.8-0.7,1.2c-0.2,0.3-0.5,0.6-0.7,0.9
			c-0.3,0.6-0.4,1.4-0.6,2c-0.3,0.8-0.2,1.7,0.1,2.5c0.2,1.3,1,2.6,2.1,3.3c0.9,0.3,1.7,0.9,2.7,0.8c0.8,0,1.7,0.1,2.5-0.1
			c1.6-0.5,3.3-1,4.6-2.2c0.8-0.6,1.7-1,2.3-1.7c0.6-0.6,1.3-1.1,1.8-1.8c1-1.1,2.2-2.2,3.2-3.3c0.4-0.5,0.7-1,1.1-1.6
			c0.3-0.5,0.8-0.9,1.1-1.3c0.7-0.7,1-1.7,1.8-2.4c0.8-0.7,1.3-1.6,1.8-2.6c0.2-0.4,0.6-0.8,0.9-1.1c0.4-0.5,0.6-1.1,1-1.5
			c0.7-0.8,1.1-1.7,1.8-2.5c0.6-0.7,0.8-1.7,1.4-2.3c0.5-0.6,0.8-1.3,1.3-1.9c0.5-0.5,0.7-1.2,1.1-1.8c0.5-0.8,0.8-1.7,1.5-2.4
			c0.6-0.8,1.1-1.8,1.5-2.7c0.2-0.6,0.8-1,1.1-1.6c0.3-0.6,0.7-1.2,1-1.8c0.8-1.4,1.6-2.8,2.3-4.3c0.3-0.7,0.8-1.3,1.1-2
			c1-2,2.1-4,2.9-6.1c1.1-1.8,1.9-3.7,2.7-5.7c0.5-1.2,1.2-2.3,1.7-3.5c0.3-0.9,0.5-1.8,1-2.6c0.5-0.8,0.7-1.6,1.1-2.4
			c0.4-0.8,0.7-1.6,1-2.4c0.5-1.4,1.2-2.8,1.6-4.3c0.5-1.1,1-2.3,1.4-3.4c0.2-0.6,0.2-1.2,0.6-1.7c0.1-0.2,0.2-0.4,0.3-0.6
			C725.7,154.1,726.1,152.8,726.6,151.6z"/>
		<path fill="#E5AD1A" d="M719.2,201.2c0.4,0,0.9-0.1,1.3-0.1c1.1,0,2.2-0.3,3.3-0.1c1,0.2,2,0,3,0.2c1.3,0.2,2.7-0.2,3.9,0.3
			c0.7,0.3,1.5,0,2.3,0.2c0.6,0.2,1.2,0.1,1.8,0.3c0.5,0.1,1,0.2,1.5,0.3c1.5,0.4,3.1,0.7,4.6,1.3c0.6,0.3,1.1,0.7,1.7,1
			c0.6,0.3,1.1,0.8,1.6,1.3c0.7,0.7,1.3,1.6,1.6,2.5c0.4,0.7,0.4,1.4,0.4,2.2c0,0.4,0.2,0.8,0.1,1.2c-0.1,0.6,0,1.2-0.3,1.8
			c-0.3,0.9-0.5,1.8-1.1,2.6c-0.4,0.6-0.6,1.3-1.1,1.8c-0.8,0.7-1.4,1.6-2,2.5c-0.4,0.7-1.2,1.2-1.8,1.8c-0.4,0.5-1,0.8-1.5,1.3
			c-0.8,0.7-1.7,1.2-2.3,2.1c-0.1,0.5-0.1,0.9,0.1,1.4c0.3,0.7,0,1.5,0.2,2.3c0.3,1,0.1,2,0.2,3c-2.2,0-4.3,0-6.5,0
			c-0.7,0-1.4-0.3-2.1-0.3c-2.6,0-5.2,0-7.8,0c0,0-0.1-0.1-0.1-0.2l0.2-0.1c1.3-0.7,2.6-1.3,3.8-1.9c0.8-0.4,1.7-0.8,2.4-1.3
			c0.5-0.3,1-0.6,1.5-0.9c0.9-0.6,1.9-1,2.7-1.7c0.1-0.6-0.1-1.1-0.2-1.6c-0.2-1.6-0.9-3.1-1.5-4.5c-0.6-1-1.1-1.9-1.7-2.8
			c-0.7-0.8-1.5-1.5-2.2-2.2c-0.5-0.6-1.2-0.9-1.8-1.4c-1-0.7-2-1.2-3-1.7c-1.9-0.6-3.9-1.2-6-1c-0.6,0.2-1.1,0.7-1.7,1
			c-0.4,0.3-0.9,0.5-1.2,1c-0.4,0.6-1,1.1-1.3,1.7c-0.6,1-1.4,1.9-1.7,3c-0.1,0.5-0.4,0.8-0.6,1.3c-0.1,0.3-0.1,0.6-0.1,0.9
			c-0.1,0-0.2-0.1-0.2-0.1c-0.2-0.6-0.5-1.3-0.4-2c0-1-0.1-2.1,0.1-3.1c0.3-0.8,0.3-1.7,0.6-2.6c0.3-0.8,0.6-1.6,1.1-2.4
			c0.5-1.1,1.3-2.1,1.9-3.1c0.5-0.9,1.4-1.6,2.1-2.3c0.5-0.5,1-1.1,1.6-1.4c0.9-0.4,1.7-0.9,2.7-1.1
			C717.9,201.2,718.6,201.3,719.2,201.2z"/>
		<path fill="#FFFEFD" d="M718.9,204.3c1-0.3,2-0.2,3-0.2c1.9,0,3.9,0,5.8,0c0.5,0,0.9,0.3,1.4,0.3c0.6,0.1,1.3,0,1.9,0.1
			c0.4,0.1,0.8,0.3,1.3,0.3c1.1-0.1,2.1,0.4,3.1,0.6c0.8,0.1,1.5,0.5,2.1,0.8c1.1,0.4,2.2,1,3.1,1.8c0.6,0.5,1,1.2,1.5,1.9
			c0.2,0.3,0.4,0.6,0.4,0.9c0,0.8,0.1,1.7-0.2,2.4c-0.4,0.9-0.7,1.8-1.2,2.6c-0.3,0.5-0.5,1-0.9,1.4c-0.9,0.8-1.3,2.1-2.2,2.9
			c-1,0.9-1.9,2-3,2.9c-0.4-0.7-0.7-1.3-1.1-2c-0.5-0.7-0.8-1.5-1.3-2.2c-0.4-0.5-0.6-1.1-1-1.6c-0.8-0.9-1.4-1.9-2.2-2.8
			c-1.1-1.1-2.2-2.2-3.3-3.3c-0.6-0.7-1.5-1.1-2.2-1.6c-1.7-1.2-3.7-1.7-5.7-2.2c-0.7-0.1-1.4,0-2.1-0.1c-0.4-0.1-0.9-0.1-1.3-0.1
			c0.1-0.9,1-1.3,1.6-1.7C717.1,204.7,718,204.4,718.9,204.3z"/>
	</g>
	<g>
		<path fill="#0033FF" d="M164.8,238.3c-0.7-0.7-1.2-1.5-1.6-2.4c-1-2.4-2-4.7-3-7.1c-0.1-0.2-0.2-0.3-0.3-0.6c0,0.4,0,0.6,0,0.8
			c0,2.5,0.1,4.9,0.1,7.4c0,0.7,0.1,1.2,0.7,1.7c-0.6,0.2-2.2,0.2-3,0c0.8-0.8,0.9-1.7,0.9-2.7c-0.1-2.3-0.1-4.6-0.1-6.9
			c0-0.2,0-0.5,0-0.7c0.1-0.6,0.1-1.3-0.4-1.8c0.9,0,1.8,0,2.7,0c0.3,0,0.4,0.2,0.5,0.5c0.5,1.2,1,2.3,1.5,3.5c0.7,1.5,1.3,3,2,4.6
			c0,0.1,0.1,0.2,0.2,0.4c0.1-0.2,0.2-0.3,0.2-0.5c1-2.6,1.9-5.2,2.9-7.7c0.2-0.6,0.2-0.6,0.9-0.6c0.8,0,1.6,0,2.5,0
			c-0.7,0.6-0.6,1.2-0.6,1.9c0,2.6,0.1,5.3,0.1,7.9c0,0.9,0.2,1.7,1,2.4c-1.2,0-2.3,0-3.5,0c0.7-0.6,0.6-1.4,0.6-2.2
			c0-2.5,0-5,0-7.6c-0.1,0.2-0.2,0.3-0.3,0.4c-1.2,3.1-2.4,6.2-3.7,9.3c0,0.1,0,0.1-0.1,0.2C165,238.3,164.9,238.3,164.8,238.3z"/>
		<path fill="#0033FF" d="M203.3,186.6c0.1,1.5-0.3,2.9-0.7,4.3c-1.3,4.1-3.7,7.3-6.9,10.1c-3.5,3-7.4,5.2-11.7,6.9
			c-4.1,1.6-8.4,2.8-12.7,3.7c-3.7,0.7-7.5,1.3-11.2,1.6c-3.2,0.3-6.4,0.5-9.6,0.6c-0.6,0-1.2,0.1-1.8,0.1c-0.3,0-0.6,0-1,0
			c0-5.5,0-10.9,0-16.3c0.6,0.1,1,0.6,1.5,0.8c0.5,0.3,1,0.6,1.6,1c0-0.4,0-0.6-0.1-0.8c-0.1-0.7-0.2-1.4-0.4-2.1
			c-0.1-0.4,0-0.7,0.3-1c0.5-0.5,1-1,1.6-1.5c0.2-0.2,0.4-0.4,0.7-0.7c-1.3,0-2.4,0-3.5,0c-0.4-0.9-0.7-1.8-1.2-2.7
			c-0.4-0.7-0.5-1.5-0.5-2.3c0-7.1,0-14.2,0-21.2c0-0.3,0-0.6,0-1c1.1,0.7,2.1,1.3,3.1,2c0-0.3-0.1-0.6-0.1-0.8
			c-0.1-0.7-0.3-1.4-0.4-2.1c-0.1-0.4,0-0.7,0.3-1c0.6-0.6,1.3-1.2,1.9-1.9c0.1-0.1,0.2-0.2,0.3-0.4c-1.3,0-2.4,0-3.5,0
			c-0.6-1.2-1.1-2.4-1.6-3.6c-0.1-0.2,0-0.3,0-0.5c0-7.2,0-14.4,0-21.5c0-0.2,0-0.3,0-0.5c0-0.1,0.1-0.1,0.1-0.1c0,0,0,0,0.1,0
			c0.2,0,0.3,0,0.5,0c29.1,0,58.3,0,87.5,0c-0.2,0.2-0.3,0.3-0.4,0.4c-1.4,1-3,1.6-4.6,2c-2.2,0.6-4.4,0.9-6.7,1
			c-3.9,0.3-7.5,1.2-10.8,3.4c-3.1,2.1-4.9,5-5.5,8.7c-0.5,3.3,0.2,6.4,1.7,9.4c0.7,1.3,1.6,2.5,2.5,3.8c1.7,2.4,3.2,5,4.1,7.8
			c1,3.3,1.3,6.6,0.9,10c-0.2,2.4-0.7,4.7-1.5,6.9c-1.4,4.1-3.7,7.7-6.7,10.7c-3.6,3.7-7.8,6.3-12.5,8.4c-4.5,2.1-9.3,3.5-14.2,4.5
			c-2.9,0.6-5.9,1-8.8,1.4c-0.9,0.1-1.8,0.1-2.7,0.1c1.3-0.2,2.6-0.4,4-0.7c6.8-1.3,13.4-3.2,19.6-6.1c3.3-1.6,6.4-3.4,9.2-5.8
			c3-2.6,5.5-5.6,6.9-9.3c1.3-3.5,1.5-7.1,0.6-10.8c-0.7-3-2.1-5.8-4-8.3c-0.6-0.9-1.2-1.8-1.6-2.8c-0.8-1.8-1-3.8-0.4-5.7
			c0,0,0-0.1,0-0.2c-0.2,0.1-0.4,0.2-0.6,0.4c-3.3,2.3-6.3,4.8-8.9,7.9c-1.6,1.9-2.9,3.9-3.5,6.2c-0.9,3.2,0.1,6.8,2.7,8.8
			c1.7,1.3,3.5,1.9,5.6,1.1c1-0.4,1.9-1.1,2.7-1.9c0.1-0.1,0.2-0.2,0.3-0.3C203.2,186.6,203.2,186.6,203.3,186.6z M176.4,158.5
			c-0.1,0.1-0.2,0.1-0.2,0.1c-0.3,0.7-0.6,1.3-0.9,2c-0.7,1.5-0.2,1.2-1.9,1.2c-0.7,0-1.3,0-2.1,0c0.3,0.3,0.4,0.4,0.5,0.6
			c0.6,0.6,1.2,1.2,1.9,1.7c0.3,0.3,0.5,0.6,0.3,1c-0.3,0.8-0.4,1.6-0.7,2.4c0,0.1,0,0.3,0,0.5c0.3-0.2,0.6-0.3,0.8-0.5
			c0.6-0.4,1.2-0.7,1.9-1.1c0.4-0.2,0.7-0.2,1,0c0.5,0.4,1,0.7,1.5,1c0.3,0.2,0.6,0.4,1.1,0.7c-0.3-1.3-0.5-2.4-0.7-3.5
			c0.5-0.5,0.9-0.9,1.3-1.3c0.4-0.4,0.9-0.8,1.3-1.4c-0.4,0-0.6,0-0.9,0c-0.7,0-1.4,0-2.1,0c-0.4,0-0.6-0.1-0.7-0.5
			c-0.3-0.7-0.6-1.5-0.9-2.2C176.6,158.9,176.5,158.7,176.4,158.5z M164.8,164.6c0.8-0.9,1.8-1.7,2.6-2.7c-0.3,0-0.4,0-0.6,0
			c-0.8,0-1.6,0-2.3,0c-0.5,0-0.7-0.2-0.9-0.6c-0.3-0.8-0.7-1.6-1-2.4c-0.1-0.1-0.2-0.3-0.3-0.5c-0.5,1.2-1,2.3-1.6,3.4
			c-1.1,0-2.2,0-3.5,0c0.3,0.3,0.5,0.5,0.7,0.7c0.6,0.6,1.2,1.1,1.8,1.7c0.3,0.2,0.3,0.5,0.2,0.9c-0.2,0.8-0.4,1.6-0.6,2.4
			c0,0.1,0,0.3-0.1,0.6c1-0.6,1.8-1.1,2.7-1.6c0.4-0.2,0.7-0.3,1,0c0.5,0.3,1,0.6,1.4,1c0.3,0.2,0.7,0.4,1.1,0.7
			C165.3,166.8,165,165.7,164.8,164.6z M164.6,176.5c0.1,0.2,0.2,0.3,0.3,0.4c0.7,0.6,1.3,1.3,2,1.9c0.4,0.3,0.4,0.6,0.3,1
			c-0.2,0.7-0.4,1.4-0.6,2.2c0,0.2-0.1,0.4-0.1,0.7c1-0.6,1.8-1.1,2.7-1.6c0.3-0.2,0.6-0.2,0.9,0c0.7,0.5,1.3,0.9,2,1.3
			c0.2,0.1,0.3,0.2,0.6,0.3c-0.2-1-0.4-2-0.6-2.9c-0.1-0.4,0-0.7,0.3-0.9c0.6-0.6,1.3-1.2,1.9-1.8c0.1-0.1,0.2-0.2,0.4-0.5
			c-1.3,0-2.4,0-3.5,0c-0.6-1.1-0.9-2.3-1.6-3.4c-0.6,1.2-1.1,2.3-1.6,3.4C166.9,176.5,165.8,176.5,164.6,176.5z M150.6,176.5
			c0,0.1,0,0.1-0.1,0.2c0.7,0.6,1.3,1.3,2.1,1.9c0.5,0.4,0.7,0.9,0.4,1.5c0,0.1-0.1,0.2-0.1,0.3c-0.2,0.7-0.4,1.5-0.6,2.4
			c1.2-0.7,2.2-1.3,3.3-2c1,0.6,2,1.3,3.1,2c-0.3-1.3-0.5-2.4-0.7-3.5c0.8-0.9,1.7-1.7,2.6-2.7c-1.3,0-2.4,0-3.5,0
			c-0.5-1.2-1-2.3-1.5-3.5c-0.6,1.3-1.1,2.4-1.6,3.5C152.7,176.5,151.6,176.5,150.6,176.5z M197.8,142.3c-0.5,1.1-0.9,2-1.3,3
			c-0.2,0.4-0.4,0.6-0.8,0.6c-0.7,0-1.5,0-2.3,0c-0.2,0-0.4,0-0.6,0.1c0.8,0.8,1.5,1.5,2.2,2.1c0.5,0.4,0.6,0.8,0.4,1.4
			c-0.3,0.8-0.5,1.7-0.7,2.7c1.2-0.7,2.2-1.3,3.2-2c1,0.6,2,1.3,3.1,2c-0.2-1.1-0.4-2.1-0.6-3c-0.1-0.4,0-0.6,0.3-0.9
			c0.7-0.6,1.3-1.2,1.9-1.9c0.1-0.1,0.1-0.2,0.3-0.4c-1.2,0-2.4,0-3.5,0C198.9,144.7,198.4,143.6,197.8,142.3z M182,179.3
			c-0.3,1.1-0.6,2.2-0.9,3.3c0,0,0.1,0.1,0.1,0.1c1-0.6,2-1.2,3.1-1.9c1,0.6,1.9,1.2,3,1.9c0-0.3,0-0.5,0-0.7
			c-0.1-0.4-0.2-0.8-0.3-1.2c-0.1-0.5-0.4-1-0.2-1.5c0.1-0.4,0.7-0.8,1-1.2c0.5-0.5,0.9-0.9,1.5-1.5c-0.3,0-0.5-0.1-0.6-0.1
			c-0.7,0-1.5,0-2.2,0c-0.5,0-0.8-0.2-1-0.7c-0.3-0.8-0.6-1.5-1-2.3c-0.1-0.2-0.2-0.3-0.3-0.6c-0.5,1-0.9,1.9-1.3,2.8
			c-0.2,0.5-0.5,0.6-0.9,0.6c-0.8,0-1.5,0-2.3,0c-0.2,0-0.3,0.1-0.6,0.1C180.2,177.6,181.1,178.4,182,179.3z M191,166
			c1,0.6,1.9,1.3,3,1.9c0-0.3,0-0.6-0.1-0.8c-0.2-0.8-0.3-1.5-0.5-2.3c-0.1-0.3,0-0.5,0.2-0.7c0.6-0.5,1.1-1.1,1.7-1.6
			c0.2-0.2,0.4-0.4,0.6-0.6c0,0,0-0.1-0.1-0.1c-1.1,0-2.3,0-3.4,0c-0.5-1.2-1-2.3-1.5-3.5c-0.6,1.3-1.1,2.4-1.6,3.5
			c-1.1,0-2.2,0-3.5,0c0.8,0.8,1.5,1.5,2.3,2.1c0.5,0.4,0.6,0.8,0.4,1.4c-0.3,0.8-0.5,1.7-0.7,2.7C188.9,167.3,189.9,166.7,191,166z
			 M155.3,142.3c-0.2,0.4-0.3,0.7-0.5,0.9c-0.3,0.7-0.6,1.4-0.9,2.1c-0.2,0.4-0.4,0.5-0.8,0.5c-0.6,0-1.2,0-1.7,0c-0.3,0-0.7,0-1,0
			c0,0.1,0,0.1,0,0.2c0.7,0.6,1.3,1.3,2,1.9c0.5,0.4,0.8,0.9,0.5,1.5c-0.1,0.2-0.2,0.5-0.2,0.8c-0.1,0.6-0.3,1.1-0.5,1.8
			c1.2-0.7,2.2-1.3,3.2-2c1,0.6,2,1.3,3.1,2c0-0.3-0.1-0.4-0.1-0.5c-0.2-0.8-0.3-1.5-0.5-2.3c-0.1-0.5-0.1-0.9,0.3-1.2
			c0.6-0.5,1.2-1.2,1.8-1.7c0.1-0.1,0.2-0.2,0.4-0.5c-1.2,0-2.4,0-3.5,0C156.3,144.7,155.9,143.6,155.3,142.3z M172.5,152
			c-0.2-1.2-0.4-2.1-0.6-3.1c-0.1-0.3,0-0.6,0.2-0.8c0.6-0.6,1.3-1.2,1.9-1.8c0.1-0.1,0.2-0.3,0.4-0.5c-1.3,0-2.4,0-3.5,0
			c-0.5-1.2-1-2.3-1.5-3.5c-0.1,0.2-0.2,0.3-0.3,0.5c-0.4,0.8-0.7,1.6-1.1,2.4c-0.2,0.5-0.4,0.7-1,0.6c-0.7,0-1.5,0-2.2,0
			c-0.2,0-0.3,0-0.5,0.1c0.2,0.2,0.2,0.3,0.3,0.3c0.7,0.6,1.4,1.3,2.1,1.9c0.3,0.2,0.3,0.5,0.2,0.8c-0.2,0.6-0.4,1.3-0.5,1.9
			c-0.1,0.3-0.2,0.6-0.2,1c0,0,0.1,0.1,0.1,0.1c1-0.6,2-1.2,3.1-1.8C170.4,150.7,171.4,151.3,172.5,152z M188.3,145.8
			c-1.3,0-2.5,0-3.6,0c-0.5-1.2-1-2.3-1.5-3.5c-0.2,0.3-0.3,0.5-0.3,0.6c-0.4,0.8-0.7,1.6-1.1,2.4c-0.1,0.3-0.3,0.5-0.7,0.4
			c-0.6,0-1.2,0-1.8,0c-0.3,0-0.7,0-1.2,0c0.3,0.3,0.4,0.4,0.5,0.5c0.7,0.6,1.3,1.2,2,1.8c0.3,0.3,0.3,0.5,0.2,0.9
			c-0.2,0.8-0.4,1.6-0.6,2.4c0,0.1,0,0.3,0,0.5c1.1-0.7,2.1-1.3,3.1-1.9c1,0.6,2,1.3,3.1,2c-0.2-0.8-0.3-1.4-0.4-1.9
			c-0.4-1.5-0.4-1.5,0.8-2.7C187.2,146.9,187.7,146.4,188.3,145.8z M175.2,189.5c-0.4,0.8-0.6,1.4-0.9,2c-0.2,0.5-0.3,1.1-0.7,1.4
			c-0.4,0.3-1.1,0.1-1.6,0.1c-0.6,0-1.1,0-1.9,0c0.9,0.8,1.6,1.6,2.4,2.2c0.4,0.3,0.5,0.6,0.3,1.1c0,0.1-0.1,0.2-0.1,0.4
			c-0.2,0.8-0.4,1.6-0.7,2.5c1.2-0.7,2.2-1.3,3.3-2c1,0.6,1.9,1.2,3,1.9c0-0.4,0-0.6-0.1-0.8c-0.1-0.7-0.3-1.4-0.5-2.1
			c-0.1-0.4,0-0.7,0.3-0.9c0.6-0.5,1.1-1.1,1.7-1.7c0.2-0.2,0.3-0.3,0.5-0.6c-0.7,0-1.2,0-1.8,0c-0.5,0-1.1,0-1.6,0
			c-0.3-0.5-0.5-1-0.8-1.5C175.8,190.9,175.6,190.3,175.2,189.5z M165.1,199.3c-0.3-1.3-0.5-2.4-0.7-3.5c0.9-0.9,1.7-1.7,2.7-2.7
			c-1.3,0-2.4,0-3.6,0c-0.5-1.2-1-2.3-1.6-3.6c-0.5,1.1-1,2.1-1.4,3c-0.2,0.4-0.4,0.5-0.8,0.5c-0.7,0-1.3,0-2,0c-0.3,0-0.5,0-0.8,0
			c0,0.1-0.1,0.1-0.1,0.2c0.2,0.1,0.4,0.3,0.6,0.5c0.6,0.6,1.2,1.1,1.8,1.7c0.3,0.2,0.3,0.4,0.2,0.8c-0.2,0.7-0.4,1.5-0.6,2.2
			c-0.1,0.2-0.1,0.5-0.2,0.8c1.1-0.7,2.2-1.3,3.2-2C163,197.9,164,198.6,165.1,199.3z M191.6,195.7c0.4-0.4,0.9-0.8,1.3-1.3
			c0.4-0.4,0.9-0.7,1.3-1.4c-1.2,0-2.3,0-3.4,0c-0.5-1.2-1-2.3-1.5-3.5c-0.1,0.2-0.2,0.3-0.2,0.4c-0.4,0.9-0.8,1.7-1.2,2.6
			c-0.1,0.3-0.3,0.4-0.7,0.4c-0.8,0-1.7,0-2.5,0c-0.1,0-0.3,0-0.5,0.1c0.8,0.8,1.6,1.5,2.4,2.2c0.4,0.3,0.5,0.6,0.3,1.1
			c-0.3,0.9-0.5,1.8-0.8,2.9c1.2-0.7,2.2-1.3,3.3-2c1,0.6,2,1.3,3.1,2C192.1,198,191.8,196.9,191.6,195.7z"/>
		<path fill="#FE0000" d="M200.9,214.1c1.1-0.2,2.2-0.4,3.2-0.6c3.1-0.6,6.2-1.4,9.1-2.6c3.9-1.6,7.4-3.9,10.4-6.8
			c0.3-0.3,0.7-0.5,1.2-0.5c19,0,38,0,57.1,0c0.3,0,0.5,0,0.9,0c0,3.6,0,7,0,10.6c-0.2,0-0.4,0.1-0.6,0.1c-0.7,0-1.3,0-2,0
			c-26.1,0-52.3,0-78.4,0c-0.3,0-0.6,0-0.9,0C200.9,214.1,200.9,214.1,200.9,214.1z"/>
		<path fill="#FE0000" d="M228.8,197.4c1.1-1.8,1.8-3.6,2.3-5.5c0.5-1.9,0.9-3.7,1.4-5.6c0.5-0.2,49.4-0.2,50.2,0c0,3.7,0,7.3,0,11
			c0,0,0,0-0.1,0.1c0,0,0,0-0.1,0c-17.7,0-35.3,0-53,0C229.4,197.4,229.2,197.4,228.8,197.4z"/>
		<path fill="#FE0000" d="M232.2,163.3c0-3.6-1-7-1.5-10.5c0.1-0.1,0.1-0.1,0.1-0.1c0,0,0,0,0.1,0c17,0,34,0,50.9,0
			c0.3,0,0.5,0,0.8,0c0.2,0.5,0.3,9.4,0.1,10.7c0,0,0,0-0.1,0.1c0,0,0,0-0.1,0c-0.2,0-0.3,0-0.5,0c-16.5,0-33.1,0-49.6,0
			C232.5,163.4,232.4,163.4,232.2,163.3z"/>
		<path fill="#FE0000" d="M282.8,135.6c0,3.7,0,7.2,0,10.8c-0.2,0-0.4,0.1-0.6,0.1c-0.8,0-1.5,0-2.3,0c-15.6,0-31.2,0-46.8,0
			c-0.8,0-1.6,0-2.4-0.1c-3.5-0.2-6.2,1.1-8.4,3.8c-0.2,0.3-0.4,0.6-0.7,1c-0.1-0.4,0-0.6,0-0.9c0.7-2.4,2.2-4.1,4.3-5.3
			c1.9-1,3.9-1.7,5.9-2.4c0.8-0.3,1.7-0.6,2.5-0.9c1.5-0.7,2.6-1.9,3.2-3.4c0.3-0.9,0.6-1.8,0.9-2.7
			C253.1,135.6,267.9,135.6,282.8,135.6z"/>
		<path fill="#FE0000" d="M282.8,169.5c0,3.6,0,7,0,10.5c-0.6,0.2-48.8,0.2-49.5,0c0-2.5,0.1-5,0-7.6c-2.2,3.8-5.6,3.8-7.9,3.2
			c0.4-0.2,0.7-0.4,1.1-0.6c2.2-1.1,3.7-2.7,4.7-5c0.2-0.5,0.4-0.6,0.9-0.6c1,0,1.9,0,2.9,0c15.6,0,31.2,0,46.8,0
			C282,169.5,282.4,169.5,282.8,169.5z"/>
		<path fill="#0033FF" d="M224.3,225.7c-0.6,0.4-0.6,1-0.6,1.6c0,2.7,0,5.4,0,8.1c0,0.9,0.3,1.7,1,2.3c0,0,0,0.1,0.1,0.2
			c-1.2,0-2.3,0-3.5,0c0.7-0.5,0.7-1.2,0.7-2c0-2.3,0-4.7,0-7c0-0.3,0-0.5-0.1-0.8c-1.3,3.3-2.6,6.6-3.9,9.9c-0.6-0.2-0.9-0.6-1.2-1
			c-0.3-0.6-0.6-1.2-0.9-1.8c-1-2.2-1.9-4.5-2.9-6.7c0-0.1-0.1-0.2-0.3-0.3c0,0.4,0,0.7,0,1.1c0,1.1,0,2.3,0,3.4
			c0,1.2,0,2.4,0.1,3.6c0,0.8,0,0.8,0.7,1.7c-0.5,0-1,0-1.5,0c-0.5,0-1,0-1.6,0c0.1-0.2,0.2-0.3,0.2-0.3c0.5-0.6,0.7-1.2,0.7-1.9
			c0-2.9,0-5.8,0-8.7c0-0.4-0.2-0.8-0.4-1.2c0.1,0,0.2,0,0.4,0c0.7,0,1.3,0,2,0c0.5,0,0.7,0.1,0.9,0.6c0.6,1.4,1.2,2.8,1.8,4.2
			c0.6,1.3,1.1,2.7,1.8,4.1c0.2-0.5,0.4-0.8,0.5-1.2c0.9-2.3,1.7-4.7,2.6-7c0.3-0.7,0.3-0.7,1-0.7c0.7,0,1.5,0,2.2,0
			C224.3,225.6,224.3,225.7,224.3,225.7z"/>
		<path fill="#0033FF" d="M187.3,237.8c-1.2,0-2.2,0-3.3,0c0.1-0.1,0.1-0.3,0.2-0.4c0.3-0.4,0.4-0.9,0.4-1.4c0-2.8,0-5.6,0-8.4
			c0-0.6-0.2-1.2-0.7-1.9c0.7,0,1.2,0,1.7,0c0.5,0,1,0,1.6,0c-0.8,0.9-0.8,1.8-0.8,2.8c0,0.6,0,1.2,0,1.9c0.6,0.2,5.8,0.2,6.7,0.1
			c0-0.3,0-0.6,0-0.9c0-0.6,0-1.2,0-1.8c0-0.8-0.2-1.4-0.9-2c1.2,0,2.3,0,3.5,0c-0.1,0.2-0.2,0.3-0.3,0.4c-0.4,0.4-0.5,1-0.5,1.6
			c0,2.7,0,5.4,0,8.1c0,0.7,0.2,1.3,0.7,1.9c-1.1,0-2.1,0-3.3,0c0.7-0.6,0.7-1.4,0.7-2.2c0-1.1,0-2.3,0-3.4c-0.6-0.2-5.9-0.2-6.7,0
			c0,0.2,0,0.5,0,0.7c0,0.8,0,1.5,0,2.3C186.5,236.1,186.5,237,187.3,237.8z"/>
		<path fill="#0033FF" d="M143.7,237.9c1.1-0.7,1.4-1.8,1.8-2.9c1-2.5,2-5,3-7.6c0.2-0.5,0.3-1-0.2-1.5c1,0,1.9,0,2.8,0
			c0.3,0.8,0.7,1.6,1,2.5c1,2.5,2.1,5,3.1,7.6c0.3,0.8,0.8,1.4,1.6,2.1c-0.7,0-1.3,0-1.9,0c-0.6,0-1.1,0-1.8,0
			c0.6-0.6,0.5-1.2,0.2-1.9c-0.4-0.9-0.7-1.8-1.1-2.7c-1.5,0-3,0-4.5,0c-0.3,0.8-0.6,1.6-0.9,2.4c-0.1,0.2-0.1,0.3-0.2,0.5
			c-0.3,0.6-0.3,1.2,0.3,1.7c-0.5,0-1.1,0-1.6,0c-0.5,0-1,0-1.6,0C143.8,238,143.7,238,143.7,237.9z M150,227.9c-0.1,0-0.1,0-0.2,0
			c-0.5,1.4-1,2.7-1.6,4.1c0.9,0.2,2.7,0.1,3.3-0.1C151,230.6,150.5,229.3,150,227.9z"/>
		<path fill="#0033FF" d="M201.1,225.6c0.9,0,1.7,0,2.4,0c0.4,0,0.5,0.3,0.7,0.6c0.7,1.7,1.4,3.4,2.1,5.1c0.6,1.5,1.2,3.1,1.9,4.6
			c0.2,0.5,0.6,0.9,0.9,1.4c0.1,0.2,0.4,0.3,0.5,0.4c0,0.1-0.1,0.1-0.1,0.2c-1.1,0-2.3,0-3.4,0c0.5-0.7,0.5-0.8,0.2-1.7
			c-0.3-0.8-0.7-1.6-1-2.4c-0.1-0.4-0.4-0.5-0.7-0.5c-1.2,0-2.3,0-3.5,0c-0.3,0-0.5,0.1-0.6,0.4c-0.3,0.9-0.7,1.9-1,2.8
			c-0.2,0.5,0,0.9,0.5,1.4c-1.2,0-2.2,0-3.3,0c0.2-0.2,0.3-0.3,0.4-0.4c0.3-0.5,0.7-0.9,0.9-1.4c1.1-2.8,2.2-5.6,3.3-8.5
			C201.5,226.9,201.8,226.3,201.1,225.6z M202.9,227.6c-0.6,1.4-1.2,2.7-1.7,4.2c0.9,0.2,2.7,0.1,3.3-0.1
			C203.9,230.4,203.4,229,202.9,227.6z"/>
		<path fill="#0033FF" d="M182.3,225.9c0,0.8,0,1.4,0,2.1c-0.5-0.3-0.9-0.5-1.3-0.7c-1.5-0.7-3-0.7-4.4,0.2
			c-0.9,0.6-1.4,1.5-1.7,2.5c-0.4,1.4-0.2,2.7,0.4,4c1.1,2,2.9,2.9,5.2,2.5c0.4-0.1,0.9-0.2,1.3-0.4c0.4-0.2,0.8-0.4,1.3-0.6
			c-0.1,0.7-0.3,1.3-0.6,2c0,0.1-0.2,0.2-0.3,0.2c-2.7,0.7-5.3,0.6-7.6-1.2c-1.1-0.9-1.8-2.1-2-3.5c-0.2-1.5,0-2.9,0.5-4.3
			c0.7-1.5,1.8-2.5,3.4-3C178.4,225.3,180.3,225.5,182.3,225.9z"/>
		<path fill="#FE0000" d="M277.7,237.7c0.1-0.6,0.2-1.1,0.2-1.6c0-1.4,0-2.8,0-4.2c0-0.5,0.1-1-0.4-1.4c0,0,0.1-0.1,0.1-0.1
			c0.6,0,1.1,0,1.7,0c0.7,0,1.5,0,2.2,0.2c1.3,0.3,2.3,1.2,2.6,2.5c0.4,1.3,0,2.6-0.9,3.6c-0.7,0.7-1.6,1-2.6,1c-0.9,0-1.8,0-2.7,0
			C277.8,237.8,277.7,237.7,277.7,237.7z M279.1,231.5c0,1.8-0.1,3.6,0,5.3c1.4,0.2,2.6,0,3.4-1.1c0.7-1,0.6-2.1,0-3.1
			C281.7,231.3,280.4,231.5,279.1,231.5z"/>
		<path fill="#FE0000" d="M237.5,234.4c0,1.1-0.2,2.2,0.3,3.3c-0.6,0-1.2,0-1.9,0c0.4-0.7,0.3-1.3,0.3-2c0-1.2,0-2.4,0-3.5
			c0-0.5-0.1-1-0.2-1.6c0.5,0,1,0,1.7,0c-0.5,0.9-0.2,1.7-0.3,2.7c1.3,0,2.6,0,3.9,0c0-0.9,0.3-1.8-0.4-2.7c0.7,0,1.3,0,2,0
			c-0.5,0.8-0.3,1.8-0.3,2.7c0,1.1,0,2.2,0,3.2c0,0.4,0.1,0.8,0.2,1.2c-0.5,0.1-1.1,0.1-1.6,0c0.5-1.1,0.2-2.2,0.2-3.2
			C240.8,234.3,238.7,234.2,237.5,234.4z"/>
		<path fill="#FE0000" d="M276.2,238.1c-0.7-0.2-1.1-0.6-1.4-1.1c-1.2-1.5-2.4-3-3.5-4.5c-0.1-0.1-0.2-0.2-0.4-0.4
			c0,0.4,0,0.6,0,0.9c0,0.9,0,1.8,0,2.6c0,0.7-0.1,1.4,0.5,2c-0.7,0.1-1.2,0.1-1.9,0c0.8-0.7,0.5-1.6,0.6-2.4c0-1,0-2,0-3
			c0-0.6,0.1-1.3-0.5-1.8c0.2,0,0.3,0,0.4-0.1c1.2-0.1,1.2,0,1.9,0.9c1.1,1.4,2.2,2.8,3.2,4.1c0.1,0.1,0.2,0.2,0.4,0.4
			c0-0.3,0.1-0.4,0.1-0.6c0-1.1,0-2.2,0-3.2c0-0.8,0-0.9-0.4-1.6c0.6,0,1.1,0,1.8,0c-0.6,0.4-0.6,1-0.6,1.5c0,1.8,0,3.5,0,5.3
			C276.2,237.5,276.2,237.7,276.2,238.1z"/>
		<path fill="#FE0000" d="M263.9,230.4C263.8,230.5,263.8,230.5,263.9,230.4c1.4-0.1,1.4-0.1,1.9,1.1c0.6,1.5,1.2,3,1.8,4.4
			c0.2,0.6,0.6,1.1,0.9,1.7c-0.6,0.1-1.2,0.1-1.9,0c0.3-0.9-0.3-1.6-0.6-2.4c-0.1-0.3-0.3-0.4-0.6-0.4c-0.6,0-1.2,0-1.8,0
			c-0.3,0-0.5,0.1-0.6,0.4c-0.2,0.5-0.4,1-0.5,1.5c-0.1,0.2,0,0.5,0,0.8c-0.5,0-1.1,0-1.7,0c1.1-1.4,1.4-3.2,2.1-4.7
			c0.2-0.4,0.3-0.7,0.4-1.1C263.6,231.4,263.7,231,263.9,230.4z M265.5,234.1c-0.3-0.8-0.6-1.6-0.9-2.3c-0.1,0-0.1,0-0.2,0
			c-0.2,0.7-0.7,1.4-0.8,2.3C264.3,234.1,264.9,234.1,265.5,234.1z"/>
		<path fill="#FE0000" d="M245.8,237.7c-0.8,0-1.4,0.2-2-0.1c0.8-0.8,1-1.9,1.5-2.9c0.4-1,0.8-2,1.2-3c0.1-0.4,0.2-0.8,0.3-1.3
			c0,0,0.1,0,0.1,0c1.3-0.1,1.3-0.1,1.8,1.1c0.6,1.5,1.2,3.1,1.9,4.6c0.2,0.5,0.6,1,0.8,1.5c-0.6,0.2-1.2,0.1-1.8,0.1
			c0.3-1-0.3-1.7-0.6-2.5c0-0.1-0.3-0.3-0.5-0.3c-0.6,0-1.3,0-1.9,0c-0.3,0-0.5,0.1-0.5,0.4c-0.1,0.4-0.3,0.9-0.4,1.3
			C245.4,237,245.4,237.3,245.8,237.7z M246.5,234.1c0.6,0,1.2,0,1.9,0c-0.2-0.8-0.5-1.6-0.9-2.4
			C247.1,232.6,246.8,233.3,246.5,234.1z"/>
		<path fill="#FE0000" d="M233.2,237.7c-0.6,0-1.2,0-1.7,0c0.1-0.5,0.1-0.9,0.2-1.3c0-1.4,0-2.9,0-4.3c0-0.2,0-0.5,0-0.8
			c-0.8-0.3-1.5,0-2.3,0.3c0.1-0.5,0.2-0.8,0.3-1.2c1.8,0,3.7,0,5.6,0c-0.1,0.4-0.2,0.8-0.4,1.2c-0.6-0.3-1.2-0.4-2-0.3
			c0,0.2,0,0.5,0,0.7c0,1.5,0,3,0,4.4c0,0.4,0,0.8,0.4,1.1C233.2,237.6,233.2,237.7,233.2,237.7z"/>
		<path fill="#FE0000" d="M255.4,230.5c0.5,0,1.1,0,1.8,0c-0.4,0.5-0.4,1.1-0.4,1.7c0,1.3,0,2.5,0,3.8c0,0.2,0,0.5,0,0.7
			c1.2,0.4,2.3,0.3,3.4-0.2c-0.1,0.4-0.3,0.7-0.4,1.1c-0.1,0.1-0.3,0.3-0.4,0.3c-1.3,0-2.7,0-4,0c0,0-0.1-0.1-0.1-0.1
			c0.3-0.6,0.3-0.6,0.3-1.5c0-1.5,0-3,0-4.4C255.5,231.3,255.4,230.9,255.4,230.5z"/>
		<path fill="#FE0000" d="M254.4,230.5c-0.5,0.6-0.4,1.3-0.4,1.9c0,1.3,0,2.6,0,3.8c0,0.5,0,1,0.6,1.4c-0.8,0.2-1.4,0.1-2.2,0.1
			c0.5-0.6,0.5-1.2,0.5-1.8c0-1.2,0-2.4,0-3.5c0-0.6,0.1-1.3-0.4-1.9C253.1,230.5,253.7,230.5,254.4,230.5z"/>
	</g>
	<g>
		<g>
			<path fill="#95A3AB" d="M940.7,237c-1.2,0-2-0.8-2-2c0-1.2,0.9-2,2-2c1.2,0,2,0.8,2,2C942.7,236.2,941.9,237,940.7,237z
				 M940.7,233.5c-0.8,0-1.2,0.7-1.2,1.5c0,0.8,0.4,1.5,1.2,1.5c0.8,0,1.2-0.7,1.2-1.5C941.9,234.2,941.5,233.5,940.7,233.5z"/>
			<path fill="#95A3AB" d="M945.4,231.7c-0.2-0.1-0.4-0.2-0.5-0.2c-0.2,0-0.3,0.1-0.4,0.1c-0.3,0.2-0.2,0.5-0.2,0.8v0.6h1.1v0.4
				h-1.1v2.6c0,0.3,0,0.5,0.1,0.8h-1c0.1-0.2,0.1-0.5,0.1-0.8v-2.6h-0.4v-0.4h0.4v-0.7c0-0.5,0-0.9,0.5-1.2c0.2-0.1,0.5-0.2,0.8-0.2
				c0.3,0,0.6,0,0.9,0.1L945.4,231.7z"/>
			<path fill="#95A3AB" d="M952.7,236.7c-0.6,0.2-1.1,0.4-1.7,0.4c-1.8,0-3.3-1.1-3.3-3c0-0.7,0.2-1.5,0.7-2c0.7-0.8,1.6-1,2.6-1
				c0.5,0,1,0.1,1.5,0.2l0.2,0.8c-0.5-0.2-1.2-0.3-1.7-0.3c-0.8,0-1.5,0.2-1.9,0.8c-0.4,0.4-0.5,1-0.5,1.6c0,1.5,1.1,2.3,2.5,2.3
				c0.7,0,1.2-0.2,1.7-0.5L952.7,236.7z"/>
			<path fill="#95A3AB" d="M955.3,237c-1.2,0-2-0.8-2-2c0-1.2,0.9-2,2-2c1.2,0,2,0.8,2,2C957.3,236.2,956.5,237,955.3,237z
				 M955.3,233.5c-0.8,0-1.2,0.7-1.2,1.5c0,0.8,0.4,1.5,1.2,1.5c0.8,0,1.2-0.7,1.2-1.5C956.5,234.2,956.1,233.5,955.3,233.5z"/>
			<path fill="#95A3AB" d="M962.6,236.9c0.1-0.2,0.1-0.5,0.1-0.8v-1.7c0-0.5,0-0.8-0.6-0.8c-0.4,0-0.7,0.1-1,0.3c0,0.1,0,0.3,0,0.3
				v1.8c0,0.3,0,0.6,0.2,0.8h-1c0.1-0.2,0.1-0.5,0.1-0.8v-1.6c0-0.5,0-0.9-0.6-0.9c-0.4,0-0.7,0.1-1,0.4v2.1c0,0.3,0,0.5,0.1,0.8h-1
				c0.1-0.2,0.1-0.5,0.1-0.8v-2c0-0.3,0-0.6-0.1-0.9l0.9-0.2c0,0.2,0,0.4,0,0.5c0.4-0.3,0.9-0.5,1.4-0.5c0.4,0,0.7,0.1,0.9,0.5
				c0.4-0.3,0.9-0.5,1.4-0.5c0.3,0,0.7,0.1,0.9,0.4c0.2,0.2,0.1,0.7,0.1,1v1.7c0,0.3,0,0.5,0.1,0.8H962.6z"/>
			<path fill="#95A3AB" d="M969.1,236.9c0.1-0.2,0.1-0.5,0.1-0.8v-1.7c0-0.5,0-0.8-0.6-0.8c-0.4,0-0.7,0.1-1,0.3c0,0.1,0,0.3,0,0.3
				v1.8c0,0.3,0,0.6,0.2,0.8h-1c0.1-0.2,0.1-0.5,0.1-0.8v-1.6c0-0.5,0-0.9-0.6-0.9c-0.4,0-0.7,0.1-1,0.4v2.1c0,0.3,0,0.5,0.1,0.8h-1
				c0.1-0.2,0.1-0.5,0.1-0.8v-2c0-0.3,0-0.6-0.1-0.9l0.9-0.2c0,0.2,0,0.4,0,0.5c0.4-0.3,0.9-0.5,1.4-0.5c0.4,0,0.7,0.1,0.9,0.5
				c0.4-0.3,0.9-0.5,1.4-0.5c0.3,0,0.7,0.1,0.9,0.4c0.2,0.2,0.1,0.7,0.1,1v1.7c0,0.3,0,0.5,0.1,0.8H969.1z"/>
			<path fill="#95A3AB" d="M974.1,236.5c-0.5,0.3-1,0.5-1.6,0.5c-1.1,0-1.8-0.9-1.8-2c0-1.1,0.8-2,1.9-2c1.1,0,1.6,0.7,1.7,1.7
				c0,0.1,0,0.2,0,0.2h-2.8c0,0,0,0.1,0,0.1c0,0.8,0.4,1.4,1.3,1.4c0.5,0,1-0.2,1.4-0.6V236.5z M972.6,233.5c-0.6,0-1,0.4-1.1,1h2
				C973.4,234.1,973.2,233.5,972.6,233.5z"/>
			<path fill="#95A3AB" d="M977.2,233.8c-0.2-0.1-0.4-0.2-0.6-0.2c-0.4,0-0.8,0.2-0.9,0.6v1.9c0,0.3,0,0.5,0.1,0.8h-1
				c0.1-0.2,0.1-0.5,0.1-0.8v-2c0-0.3,0-0.7-0.1-0.9l0.9-0.2c0,0.1,0,0.5,0,0.6c0.3-0.4,0.7-0.6,1.2-0.6c0.2,0,0.4,0,0.6,0.1
				L977.2,233.8z"/>
			<path fill="#95A3AB" d="M980.7,236.8c-0.4,0.2-0.8,0.3-1.2,0.3c-1.2,0-2.1-0.8-2.1-2c0-1.3,1-2,2.2-2c0.3,0,0.7,0.1,1,0.2l0,0.6
				c-0.2-0.2-0.7-0.2-1-0.2c-0.9,0-1.5,0.6-1.5,1.4c0,0.8,0.6,1.5,1.4,1.5c0.4,0,0.8-0.1,1.1-0.3L980.7,236.8z"/>
			<path fill="#95A3AB" d="M984.5,236.5c-0.5,0.3-1,0.5-1.6,0.5c-1.1,0-1.8-0.9-1.8-2c0-1.1,0.8-2,1.9-2c1.1,0,1.6,0.7,1.7,1.7
				c0,0.1,0,0.2,0,0.2h-2.8c0,0,0,0.1,0,0.1c0,0.8,0.4,1.4,1.3,1.4c0.5,0,1-0.2,1.4-0.6V236.5z M983,233.5c-0.6,0-1,0.4-1.1,1h2
				C983.9,234.1,983.6,233.5,983,233.5z"/>
			<path fill="#95A3AB" d="M994.7,236.9c0.1-0.2,0.1-0.5,0.1-0.8l0-1.5c0-0.5-0.1-0.9-0.7-0.9c-0.4,0-0.8,0.2-1.1,0.5v2
				c0,0.3,0,0.5,0.1,0.8h-1c0.1-0.2,0.1-0.5,0.1-0.8v-3.9c0-0.3,0-0.6-0.1-0.9l0.9-0.2c0,0.2,0,0.5,0,0.7v1.8
				c0.4-0.3,0.9-0.6,1.4-0.6c0.3,0,0.6,0.1,0.8,0.3c0.3,0.3,0.2,0.8,0.2,1.2v1.5c0,0.3,0,0.5,0.2,0.8H994.7z"/>
			<path fill="#95A3AB" d="M998.9,236.9l-0.1-0.3c-0.3,0.2-0.8,0.4-1.3,0.4c-0.7,0-1.2-0.4-1.2-1.1c0-1,1-1.4,1.9-1.5
				c0.2,0,0.4-0.1,0.6-0.1c0-0.1,0-0.2,0-0.2c0-0.5-0.2-0.6-0.7-0.6c-0.5,0-0.9,0.3-1.2,0.6l-0.4-0.4c0.5-0.5,1.2-0.7,1.8-0.7
				c0.5,0,0.8,0.1,1,0.3c0.2,0.2,0.3,0.5,0.3,0.9v1.8c0,0.3,0.1,0.7,0.2,0.9H998.9z M997.1,235.9c0,0.4,0.3,0.7,0.7,0.7
				c0.5,0,1-0.2,1-0.5c0-0.2,0-1.1,0-1.2C998.1,234.8,997.1,235,997.1,235.9z"/>
			<path fill="#95A3AB" d="M1000.5,236.9c0.1-0.2,0.1-0.5,0.1-0.8v-2c0-0.2,0-0.8-0.1-0.9l1-0.2c-0.1,0.4-0.1,0.8-0.1,1.2v1.9
				c0,0.3,0,0.6,0.1,0.8H1000.5z M1001,232.2c-0.2,0-0.4-0.2-0.4-0.4c0-0.2,0.2-0.4,0.4-0.4c0.2,0,0.4,0.2,0.4,0.4
				C1001.4,232,1001.2,232.2,1001,232.2z"/>
			<path fill="#95A3AB" d="M1002.4,236.9c0.1-0.2,0.1-0.5,0.1-0.8v-3.9c0-0.3,0-0.6-0.1-0.9l0.9-0.2c0,0.2,0,0.5,0,0.7v4.3
				c0,0.3,0,0.6,0.1,0.8H1002.4z"/>
			<path fill="#95A3AB" d="M1006.6,236.9l-0.1-0.3c-0.3,0.2-0.8,0.4-1.3,0.4c-0.7,0-1.2-0.4-1.2-1.1c0-1,1-1.4,1.9-1.5
				c0.2,0,0.4-0.1,0.6-0.1c0-0.1,0-0.2,0-0.2c0-0.5-0.2-0.6-0.7-0.6c-0.5,0-0.9,0.3-1.2,0.6l-0.4-0.4c0.5-0.5,1.2-0.7,1.8-0.7
				c0.5,0,0.8,0.1,1,0.3c0.2,0.2,0.3,0.5,0.3,0.9v1.8c0,0.3,0.1,0.7,0.2,0.9H1006.6z M1004.8,235.9c0,0.4,0.3,0.7,0.7,0.7
				c0.5,0,1-0.2,1-0.5c0-0.2,0-1.1,0-1.2C1005.8,234.8,1004.8,235,1004.8,235.9z"/>
			<path fill="#95A3AB" d="M1010.8,236.9c0.1-0.2,0.1-0.5,0.1-0.8l0-1.6c0-0.2,0-0.9-0.7-0.9c-0.4,0-0.8,0.1-1.1,0.4v2.1
				c0,0.3,0,0.6,0.1,0.8h-1c0.1-0.2,0.1-0.5,0.1-0.8v-2c0-0.3,0-0.6-0.1-0.9l0.9-0.2c0,0.1,0,0.3,0,0.5c0.4-0.3,0.9-0.5,1.4-0.5
				c0.3,0,0.6,0.1,0.9,0.3c0.2,0.3,0.2,0.7,0.2,1v1.8c0,0.3,0,0.6,0.2,0.8H1010.8z"/>
			<path fill="#95A3AB" d="M1015.3,236.9l-0.1-0.3c-0.3,0.3-0.8,0.4-1.2,0.4c-1.1,0-1.7-0.9-1.7-2c0-1.1,0.6-2,1.8-2
				c0.4,0,0.8,0.1,1.1,0.3v-1.2c0-0.2,0-0.7-0.1-0.9l0.9-0.2c0,0.2,0,0.4,0,0.7v4.3c0,0.3,0.1,0.6,0.2,0.9H1015.3z M1015.2,233.9
				c-0.3-0.2-0.6-0.3-0.9-0.3c-0.9,0-1.2,0.8-1.2,1.6c0,0.7,0.3,1.4,1.1,1.4c0.3,0,0.7-0.2,1-0.4V233.9z"/>
			<path fill="#95A3AB" d="M987.4,231.2c-0.2,0-0.4,0-0.6-0.1l-0.1,0l0.2,0.8h1.9v4.3c0,0.1,0,0.5-0.1,0.7l0,0.1h1l0-0.1
				c-0.1-0.2-0.1-0.6-0.1-0.7l0-4.3h1.9l0.2-0.8l-0.1,0c-0.2,0.1-0.4,0.1-0.6,0.1H987.4z"/>
			<path fill="#95A3AB" d="M952,226.5h-2.1c0.1-0.2,0.1-0.5,0.1-0.8v-4.3c0-0.2,0-0.5-0.1-0.7h1.9c0.7,0,1.1,0.1,1.3,0.4
				c0.3,0.2,0.4,0.6,0.4,0.9c0,0.5-0.2,1.1-0.7,1.3c0.9,0.2,1.1,1,1.1,1.5C953.9,226,953.1,226.5,952,226.5z M952.5,221.7
				c-0.2-0.2-0.6-0.3-1-0.3h-0.7v1.8h0.7c0.4,0,0.7-0.1,1-0.3c0.2-0.2,0.3-0.4,0.3-0.7C952.7,222,952.6,221.8,952.5,221.7z
				 M951.8,223.8h-1v2.1h1c1,0,1.3-0.6,1.3-1.1C953.1,224.1,952.6,223.8,951.8,223.8z"/>
			<path fill="#95A3AB" d="M956.9,223.4c-0.2-0.1-0.4-0.2-0.6-0.2c-0.4,0-0.8,0.2-0.9,0.6v1.9c0,0.3,0,0.5,0.1,0.8h-1
				c0.1-0.2,0.1-0.5,0.1-0.8v-2c0-0.3,0-0.7-0.1-0.9l0.9-0.2c0,0.1,0,0.5,0,0.6c0.3-0.4,0.7-0.6,1.2-0.6c0.2,0,0.4,0,0.6,0.1
				L956.9,223.4z"/>
			<path fill="#95A3AB" d="M957.6,226.5c0.1-0.2,0.1-0.5,0.1-0.8v-2c0-0.2,0-0.8-0.1-0.9l1-0.2c-0.1,0.4-0.1,0.8-0.1,1.2v1.9
				c0,0.3,0,0.6,0.1,0.8H957.6z M958,221.8c-0.2,0-0.4-0.2-0.4-0.4c0-0.2,0.2-0.4,0.4-0.4c0.2,0,0.4,0.2,0.4,0.4
				C958.5,221.6,958.3,221.8,958,221.8z"/>
			<path fill="#95A3AB" d="M960.7,226.6c-0.4,0-0.6-0.1-0.8-0.3c-0.2-0.2-0.3-0.4-0.3-0.9v-2.3h-0.4v-0.4c0.4-0.3,0.6-0.9,0.7-1.4
				h0.4v1.3h1v0.4h-1v2.1c0,0.6,0.2,0.9,0.8,0.9c0.1,0,0.3,0,0.4-0.1v0.5C961.3,226.6,960.9,226.6,960.7,226.6z"/>
			<path fill="#95A3AB" d="M962.1,226.5c0.1-0.2,0.1-0.5,0.1-0.8v-2c0-0.2,0-0.8-0.1-0.9l1-0.2c-0.1,0.4-0.1,0.8-0.1,1.2v1.9
				c0,0.3,0,0.6,0.1,0.8H962.1z M962.5,221.8c-0.3,0-0.4-0.2-0.4-0.4c0-0.2,0.2-0.4,0.4-0.4c0.2,0,0.4,0.2,0.4,0.4
				C963,221.6,962.8,221.8,962.5,221.8z"/>
			<path fill="#95A3AB" d="M965,226.6c-0.4,0-0.9-0.1-1.3-0.2l0-0.7c0.3,0.2,0.8,0.4,1.2,0.4c0.4,0,0.9-0.2,0.9-0.7
				c0-0.2-0.1-0.4-0.3-0.5c-0.6-0.3-1.8-0.3-1.8-1.3c0-0.8,0.8-1.1,1.5-1.1c0.4,0,0.8,0.1,1.2,0.2l0.1,0.6c-0.3-0.2-0.8-0.3-1.2-0.3
				c-0.4,0-0.8,0.1-0.8,0.5c0,0.8,2.1,0.3,2.1,1.7C966.6,226.4,965.8,226.6,965,226.6z"/>
			<path fill="#95A3AB" d="M969.7,226.5c0.1-0.2,0.1-0.5,0.1-0.8l0-1.5c0-0.5-0.1-0.9-0.7-0.9c-0.4,0-0.8,0.2-1.1,0.5v2
				c0,0.3,0,0.5,0.1,0.8h-1c0.1-0.2,0.1-0.5,0.1-0.8v-3.9c0-0.3,0-0.6-0.1-0.9l0.9-0.2c0,0.2,0,0.5,0,0.7v1.8
				c0.4-0.3,0.9-0.6,1.4-0.6c0.3,0,0.6,0.1,0.8,0.3c0.3,0.3,0.2,0.8,0.2,1.2v1.5c0,0.3,0,0.5,0.2,0.8H969.7z"/>
			<path fill="#95A3AB" d="M978.5,226.3c-0.6,0.3-1.1,0.4-1.7,0.4c-1.8,0-3.3-1.1-3.3-3c0-0.7,0.2-1.5,0.7-2c0.7-0.8,1.6-1,2.6-1
				c0.5,0,1,0.1,1.5,0.2l0.2,0.8c-0.5-0.2-1.2-0.3-1.7-0.3c-0.8,0-1.5,0.2-1.9,0.8c-0.4,0.4-0.5,1-0.5,1.6c0,1.5,1.1,2.3,2.5,2.3
				c0.7,0,1.2-0.2,1.7-0.5L978.5,226.3z"/>
			<path fill="#95A3AB" d="M981.8,226.5c0.1-0.2,0.1-0.5,0.1-0.8l0-1.5c0-0.5-0.1-0.9-0.7-0.9c-0.4,0-0.8,0.2-1.1,0.5v2
				c0,0.3,0,0.5,0.1,0.8h-1c0.1-0.2,0.1-0.5,0.1-0.8v-3.9c0-0.3,0-0.6-0.1-0.9l0.9-0.2c0,0.2,0,0.5,0,0.7v1.8
				c0.4-0.3,0.9-0.6,1.4-0.6c0.3,0,0.6,0.1,0.8,0.3c0.3,0.3,0.2,0.8,0.2,1.2v1.5c0,0.3,0,0.5,0.2,0.8H981.8z"/>
			<path fill="#95A3AB" d="M986,226.5l-0.1-0.3c-0.3,0.2-0.8,0.4-1.3,0.4c-0.7,0-1.2-0.4-1.2-1.1c0-1,1-1.4,1.9-1.5
				c0.2,0,0.4-0.1,0.6-0.1c0-0.1,0-0.2,0-0.2c0-0.5-0.2-0.6-0.7-0.6c-0.5,0-0.9,0.3-1.2,0.6l-0.4-0.4c0.5-0.5,1.2-0.7,1.8-0.7
				c0.5,0,0.8,0.1,1,0.3c0.2,0.2,0.3,0.5,0.3,0.9v1.8c0,0.3,0.1,0.7,0.2,0.9H986z M984.2,225.4c0,0.4,0.3,0.7,0.7,0.7
				c0.5,0,1-0.2,1-0.5c0-0.2,0-1.1,0-1.2C985.2,224.4,984.2,224.6,984.2,225.4z"/>
			<path fill="#95A3AB" d="M992.3,226.5c0.1-0.2,0.1-0.5,0.1-0.8v-1.7c0-0.5,0-0.8-0.6-0.8c-0.4,0-0.7,0.1-1,0.3c0,0.1,0,0.3,0,0.3
				v1.8c0,0.3,0,0.6,0.2,0.8h-1c0.1-0.2,0.1-0.5,0.1-0.8v-1.6c0-0.5,0-0.9-0.6-0.9c-0.4,0-0.7,0.1-1,0.4v2.1c0,0.3,0,0.5,0.1,0.8h-1
				c0.1-0.2,0.1-0.5,0.1-0.8v-2c0-0.3,0-0.6-0.1-0.9l0.9-0.2c0,0.2,0,0.4,0,0.5c0.4-0.3,0.9-0.5,1.4-0.5c0.4,0,0.7,0.1,0.9,0.5
				c0.4-0.3,0.9-0.5,1.4-0.5c0.3,0,0.7,0.1,0.9,0.4c0.2,0.2,0.1,0.7,0.1,1v1.7c0,0.3,0,0.5,0.1,0.8H992.3z"/>
			<path fill="#95A3AB" d="M995.7,226.6c-0.3,0-0.5,0-0.8-0.1c-0.3-0.1-0.5-0.2-0.8-0.2c0.1-0.2,0.1-0.5,0.1-0.8v-3.8
				c0-0.3,0-0.6-0.1-0.9l0.9-0.2c0,0.2,0,0.5,0,0.7v1.8c0.3-0.3,0.7-0.6,1.2-0.6c1.1,0,1.6,0.9,1.6,1.9
				C997.7,225.8,997,226.6,995.7,226.6z M995.9,223.2c-0.4,0-0.8,0.2-1,0.6v1.9c0,0.4,0.4,0.6,0.8,0.6c0.5,0,0.8-0.2,1-0.6
				c0.2-0.3,0.2-0.7,0.2-1.1C997,223.9,996.7,223.2,995.9,223.2z"/>
			<path fill="#95A3AB" d="M1001.5,226.1c-0.5,0.3-1,0.5-1.6,0.5c-1.1,0-1.8-0.9-1.8-2c0-1.1,0.8-2,1.9-2c1.1,0,1.6,0.7,1.7,1.7
				c0,0.1,0,0.2,0,0.2h-2.8c0,0,0,0.1,0,0.1c0,0.8,0.4,1.4,1.3,1.4c0.5,0,1-0.3,1.4-0.6V226.1z M1000.1,223.1c-0.6,0-1,0.4-1.1,1h2
				C1000.9,223.7,1000.7,223.1,1000.1,223.1z"/>
			<path fill="#95A3AB" d="M1004.7,223.4c-0.2-0.1-0.4-0.2-0.6-0.2c-0.4,0-0.8,0.2-0.9,0.6v1.9c0,0.3,0,0.5,0.1,0.8h-1
				c0.1-0.2,0.1-0.5,0.1-0.8v-2c0-0.3,0-0.7-0.1-0.9l0.9-0.2c0,0.1,0,0.5,0,0.6c0.3-0.4,0.7-0.6,1.2-0.6c0.2,0,0.4,0,0.6,0.1
				L1004.7,223.4z"/>
			<path fill="#95A3AB" d="M949.3,201.1c2-1.3,2.7-3.6,2.7-5.2c0-1.5-0.7-2.9-1.7-3.8c-1.2-1.1-3-1.6-5.5-1.6h-7.7l0.1,0.3
				c0.4,0.8,0.4,1.7,0.4,2.7v17.1c0,0.8,0,2.5-0.4,3.1l-0.2,0.3h8.8c4.9,0,7.7-2.4,7.7-6.7C953.6,205.4,952.7,202.2,949.3,201.1z
				 M941,193.3h3c1.5,0,2.9,0.2,3.8,1.1c0.5,0.5,0.8,1.2,0.8,2c0,1.2-0.4,2.1-1.1,2.8c-1,0.9-2.3,1.2-3.9,1.2H941V193.3z M944.7,211
				H941v-8.1h3.9c3.2,0,4.9,1.4,4.9,4C949.8,208.2,949.3,211,944.7,211z"/>
			<g>
				<path fill="#95A3AB" d="M969.7,214.6c-8,0-13.4-4.9-13.4-12.3c0-3.1,1.1-6.1,3.1-8.3c2.5-2.8,5.7-4,10.4-4
					c1.9,0,3.9,0.3,6.2,0.8l0.1,0l0.9,3.6l-0.3-0.2c-1.9-0.9-4.9-1.4-6.7-1.4c-3.4,0-5.9,1.1-7.7,3.2c-1.4,1.7-2.1,3.8-2.1,6.2
					c0,5.6,3.9,9.3,10,9.3c2.7,0,4.6-0.7,6.9-1.9l0.3-0.2l-0.5,3.5l-0.1,0C974.5,214.1,972.2,214.6,969.7,214.6z"/>
			</g>
			<g>
				<path fill="#95A3AB" d="M992.2,214.6c-8,0-13.4-4.9-13.4-12.3c0-3.1,1.1-6.1,3.1-8.3c2.5-2.8,5.7-4,10.4-4
					c1.9,0,3.9,0.3,6.2,0.8l0.1,0l0.9,3.6l-0.3-0.2c-1.9-0.9-4.9-1.4-6.7-1.4c-3.4,0-5.9,1.1-7.7,3.2c-1.4,1.7-2.1,3.8-2.1,6.2
					c0,5.6,3.9,9.3,10,9.3c2.7,0,4.6-0.7,6.9-1.9l0.3-0.2l-0.5,3.5l-0.1,0C997,214.1,994.8,214.6,992.2,214.6z"/>
			</g>
			<path fill="#95A3AB" d="M1003.8,190.6c-0.7,0-1.8,0-2.6-0.3l-0.3-0.1l0.8,3.4h7.7v17c0,0.5,0,2.3-0.4,3.1l-0.1,0.3h4.6l-0.1-0.3
				c-0.4-0.8-0.4-2.6-0.4-3.1l0-17h7.7l0.8-3.4l-0.3,0.1c-0.7,0.3-1.8,0.3-2.6,0.3H1003.8z"/>
		</g>
		<linearGradient id="SVGID_1_" gradientUnits="userSpaceOnUse" x1="986.3212" y1="186.1379" x2="986.3212" y2="169.4699">
			<stop  offset="0" style="stop-color:#94A2AA;stop-opacity:5.000000e-02"/>
			<stop  offset="1" style="stop-color:#94A2AA"/>
		</linearGradient>
		<path fill="url(#SVGID_1_)" d="M948.9,177.4h-2l15,5.2h3.2l1.4,0.6c-0.7,0.2-0.6,0.8,0.4,1.5c1.4,0.9,4.1,1.6,5.9,1.6
			c1.8,0,2.1-0.7,0.7-1.6c-1.1-0.6-2.8-1.2-4.3-1.5l-0.4-0.6h3.2l-1.4-4.4l12.8,4.4h2.2l1.4,0.6c-0.7,0.2-0.6,0.8,0.4,1.5
			c1.4,0.9,4.1,1.6,5.9,1.6c1.8,0,2.1-0.7,0.7-1.6c-1.1-0.6-2.8-1.2-4.3-1.5l-0.4-0.6h2.2l-1.4-4.4l12.8,4.4h2.2l1.4,0.6
			c-0.7,0.2-0.6,0.8,0.4,1.5c1.4,0.9,4.1,1.6,5.9,1.6c1.8,0,2.1-0.7,0.7-1.6c-1.1-0.6-2.8-1.2-4.3-1.5l-0.4-0.6h2.2l-1.4-4.4
			l12.8,4.4h3.2l1.4,0.6c-0.7,0.2-0.6,0.8,0.4,1.5c1.4,0.9,4.1,1.6,5.9,1.6c1.8,0,2.1-0.7,0.7-1.6c-1.1-0.6-2.8-1.2-4.3-1.5
			l-0.4-0.6h3.2l-1.6-5.2h-2l0.1,3.5l-5.2-2.5l-9.3-8.9h-2.6l4.6,6.3l-15.9-6.3h-2.6l19.6,8.9l2.8,2.5l-11.2-3.5l0,0h0h-2h0l0,0
			l0.4,3.5l-5.2-2.5l-3.2-4.6h-4.2l-8.5-4.3h-0.9h0H985l5.5,4.3h-4.2l11.8,4.6l2.8,2.5l-11-3.5v0h0h-2h0l0,0l0.4,3.5l-5.2-2.5
			l-3.2-4.6h-4.2l-8.5-4.3h-0.9h0h-0.9l5.5,4.3h-4.2l11.8,4.6l2.8,2.5l-11-3.5l0,0h0h-2h0l0,0l0.1,3.5l-5.2-2.5l-9.3-8.9h-2.6
			l4.6,6.3l-15.9-6.3h-2.6l19.6,8.9l2.8,2.5L948.9,177.4z"/>
		<g>
			<g>
				<defs>
					<path id="SVGID_2_" d="M1016.2,153.2h2l-6.6-10.6h-3.3l-0.5-1.1c1.1-0.5,1.9-1.7,1.9-3c0-1.8-1.5-3.3-3.3-3.3
						c-1.8,0-3.3,1.5-3.3,3.3c0,1.3,0.8,2.5,1.9,3l-0.5,1.1h-3.3l-5.6,9.1l-5.6-9.1h-2.2l-0.5-1.1c1.1-0.5,1.9-1.7,1.9-3
						c0-1.8-1.5-3.3-3.3-3.3c-1.8,0-3.3,1.5-3.3,3.3c0,1.3,0.8,2.5,1.9,3l-0.5,1.1h-2.2l-5.6,9.1l-5.6-9.1h-2.2l-0.5-1.1
						c1.1-0.5,1.9-1.7,1.9-3c0-1.8-1.5-3.3-3.3-3.3c-1.8,0-3.3,1.5-3.3,3.3c0,1.3,0.8,2.5,1.9,3l-0.5,1.1h-2.2l-5.6,9.1l-5.6-9.1
						h-3.3l-0.5-1.1c1.1-0.5,1.9-1.7,1.9-3c0-1.8-1.5-3.3-3.3-3.3c-1.8,0-3.3,1.5-3.3,3.3c0,1.3,0.8,2.5,1.9,3l-0.5,1.1h-3.3
						l-6.6,10.6h2l5.6-7.3l1.2,5.1l-5.2,18.4h2.6l5.6-13l5.6,13h2.6L949,151l1.2-5.1l5.6,7.3l0,0h0h2h0l0,0l5.3-7.3l1.2,5.1
						l-4.3,9.6h4.2l1.5,8.9h0.9h0h0.9l1.5-8.9h4.2l-4.3-9.6l1.2-5.1l5.3,7.3l0,0h0h2h0l0,0l5.3-7.3l1.2,5.1l-4.3,9.6h4.2l1.5,8.9
						h0.9h0h0.9l1.5-8.9h4.2l-4.3-9.6l1.2-5.1l5.3,7.3l0,0h0h2h0l0,0l5.6-7.3l1.2,5.1l-5.2,18.4h2.6l5.6-13l5.6,13h2.6l-5.2-18.4
						l1.2-5.1L1016.2,153.2z"/>
				</defs>
				<clipPath id="SVGID_3_">
					<use xlink:href="#SVGID_2_"  overflow="visible"/>
				</clipPath>
				<rect x="976.2" y="156" clip-path="url(#SVGID_3_)" fill="#F4F6F7" width="43.4" height="4.5"/>
				<rect x="976.2" y="134.8" clip-path="url(#SVGID_3_)" fill="#E1192C" width="43.4" height="7.7"/>
				<rect x="976.2" y="160.6" clip-path="url(#SVGID_3_)" fill="#E1192C" width="43.4" height="8.9"/>
				<rect x="976.2" y="147.1" clip-path="url(#SVGID_3_)" fill="#034EA2" width="43.4" height="8.9"/>
				<g clip-path="url(#SVGID_3_)">
					<g>
						<polygon fill="#034EA2" points="976.2,146.4 976.2,146.3 976,146.4 						"/>
						<polygon fill="#034EA2" points="962.4,134.8 962.4,145.6 976.2,138.7 976.2,134.8 						"/>
						<polygon fill="#034EA2" points="951.1,169.5 951.1,158.7 929.5,169.5 						"/>
						<polygon fill="#034EA2" points="922,157.9 922,165.6 937.5,157.9 						"/>
						<polygon fill="#034EA2" points="976.2,158 976.2,157.9 976,157.9 						"/>
						<polygon fill="#034EA2" points="962.4,169.5 976.2,169.5 976.2,165.6 962.4,158.7 						"/>
						<polygon fill="#034EA2" points="922,138.6 922,146.4 937.5,146.4 						"/>
						<polygon fill="#034EA2" points="951.1,145.6 951.1,134.8 929.5,134.8 						"/>
					</g>
					<g>
						<polygon fill="#E1192C" points="960.3,134.8 953.3,134.8 953.3,148.7 922,148.7 922,155.6 953.3,155.6 953.3,169.5 
							960.3,169.5 960.3,155.6 976.2,155.6 976.2,148.7 960.3,148.7 						"/>
						<polygon fill="#E1192C" points="945.1,146.4 922,134.8 922,137.3 940.1,146.4 						"/>
						<polygon fill="#E1192C" points="963.2,146.4 968.2,146.4 976.2,142.4 976.2,139.9 						"/>
						<polygon fill="#E1192C" points="922,169.5 927,169.5 950.4,157.9 945.3,157.9 						"/>
						<polygon fill="#E1192C" points="968.2,157.9 976.2,161.9 976.2,159.3 973.2,157.9 						"/>
					</g>
					<g>
						<polygon fill="#F4F6F7" points="922,157.9 937.5,157.9 922,165.6 922,169.5 945.3,157.9 950.4,157.9 927,169.5 929.5,169.5 
							951.1,158.7 951.1,169.5 951.1,169.5 953.3,169.5 953.3,155.6 922,155.6 						"/>
						<polygon fill="#F4F6F7" points="960.3,169.5 962.4,169.5 962.4,158.7 976.2,165.6 976.2,161.9 968.2,157.9 973.2,157.9 
							976.2,159.3 976.2,158 976,157.9 976.2,157.9 976.2,155.6 960.3,155.6 						"/>
						<polygon fill="#F4F6F7" points="976.2,138.7 962.4,145.6 962.4,134.8 960.3,134.8 960.3,148.7 976.2,148.7 976.2,146.4 
							976,146.4 976.2,146.3 976.2,142.4 968.2,146.4 963.2,146.4 976.2,139.9 						"/>
						<polygon fill="#F4F6F7" points="951.1,134.8 951.1,145.6 929.5,134.8 922,134.8 945.1,146.4 940.1,146.4 922,137.3 922,138.6 
							937.5,146.4 922,146.4 922,148.7 953.3,148.7 953.3,134.8 951.1,134.8 						"/>
					</g>
				</g>
				<rect x="976.2" y="142.5" clip-path="url(#SVGID_3_)" fill="#F4F6F7" width="43.4" height="4.6"/>
			</g>
		</g>
	</g>
</g>
</svg>
