<?xml version="1.0" encoding="utf-8"?>
<!-- Generator: Adobe Illustrator 18.1.1, SVG Export Plug-In . SVG Version: 6.00 Build 0)  -->
<svg version="1.1" id="Layer_1" xmlns="http://www.w3.org/2000/svg" xmlns:xlink="http://www.w3.org/1999/xlink" x="0px" y="0px"
	 viewBox="0 0 37.9 37.9" enable-background="new 0 0 37.9 37.9" xml:space="preserve">
<g>
	<g>
		<g>
			<polyline fill="none" stroke="#CC9900" stroke-width="2" stroke-miterlimit="10" points="36.9,35.9 36.9,36.9 35.9,36.9 			"/>
			
				<line fill="none" stroke="#CC9900" stroke-width="2" stroke-miterlimit="10" stroke-dasharray="1.9953,1.9953" x1="33.9" y1="36.9" x2="3" y2="36.9"/>
			<polyline fill="none" stroke="#CC9900" stroke-width="2" stroke-miterlimit="10" points="2,36.9 1,36.9 1,35.9 			"/>
			
				<line fill="none" stroke="#CC9900" stroke-width="2" stroke-miterlimit="10" stroke-dasharray="1.9956,1.9956" x1="1" y1="33.9" x2="1" y2="3"/>
			<polyline fill="none" stroke="#CC9900" stroke-width="2" stroke-miterlimit="10" points="1,2 1,1 2,1 			"/>
			
				<line fill="none" stroke="#CC9900" stroke-width="2" stroke-miterlimit="10" stroke-dasharray="1.9953,1.9953" x1="4" y1="1" x2="34.9" y2="1"/>
			<polyline fill="none" stroke="#CC9900" stroke-width="2" stroke-miterlimit="10" points="35.9,1 36.9,1 36.9,2 			"/>
			
				<line fill="none" stroke="#CC9900" stroke-width="2" stroke-miterlimit="10" stroke-dasharray="1.9956,1.9956" x1="36.9" y1="4" x2="36.9" y2="34.9"/>
		</g>
	</g>
	<path fill="#FFFFFF" d="M14.6,15.9h1.9v-1.8c0-0.8,0-2,0.6-2.8c0.6-0.8,1.4-1.4,2.9-1.4c2.3,0,3.3,0.3,3.3,0.3l-0.5,2.8
		c0,0-0.8-0.2-1.5-0.2c-0.7,0-1.4,0.3-1.4,1v2.1h3l-0.2,2.7H20v9.3h-3.5v-9.3h-1.9V15.9z"/>
</g>
</svg>
