<?xml version="1.0" encoding="utf-8"?>
<!-- Generator: Adobe Illustrator 18.1.1, SVG Export Plug-In . SVG Version: 6.00 Build 0)  -->
<svg version="1.1" id="Layer_1" xmlns="http://www.w3.org/2000/svg" xmlns:xlink="http://www.w3.org/1999/xlink" x="0px" y="0px"
	 viewBox="0 0 237.5 15.8" enable-background="new 0 0 237.5 15.8" xml:space="preserve">
<g>
	<g>
		<g>
			<polygon fill="#CC9900" points="96.9,7.4 7.1,7.4 7,8.6 96.9,8.7 			"/>
			<path fill="#CC9900" d="M6.6,5.7C5.3,5.7,0,8,0,8s5.3,2.3,6.6,2.3c1.3,0,2.3-1,2.3-2.3S7.8,5.7,6.6,5.7z"/>
		</g>
		<g>
			<polygon fill="#CC9900" points="136.3,8.8 231.1,8.9 231,7.3 136.3,7.5 			"/>
			<path fill="#CC9900" d="M231,5.6c-1.3,0-2.3,1-2.3,2.3c0,1.3,1,2.3,2.3,2.3c1.3,0,6.6-2.3,6.6-2.3S232.2,5.6,231,5.6z"/>
		</g>
		<g>
			<path fill="#CC9900" d="M132.1,3l-2.2,2.3l-3.5-3.5L124,4l-3.8-4l-8.4,8l8.4,7.9l4.3-4.2l2.1,2l3.5-3.2l2.4,2.2l4.3-4.3L132.1,3z
				 M126.6,2.4l3,3l-2,2.1l-3.1-3.1L126.6,2.4z M120.4,0.8l3.4,3.4l-3.3,3.2l-3.6-3.3L120.4,0.8z M112.6,8.2l4.1-3.9l3.6,3.3l-4.1,4
				L112.6,8.2z M120.1,15.1L120.1,15.1l-0.1,0.1l-3.3-3.1l4.1-4l3.3,3.1L120.1,15.1z M124.3,10.9L121,7.9l3.3-3.2l3.1,3.1
				L124.3,10.9z M126.5,13L126.5,13l-1.7-1.6l3.1-3.2l1.8,1.7L126.5,13z M129.9,9.7c-0.6-0.6-1.8-1.8-1.8-1.8l2-2.1l1.9,1.9
				C132,7.8,130.6,9.1,129.9,9.7z M132.2,12l-1.8-1.8l2.2-2.1l-2.3-2.3l2-2l0.1,0.2l3.8,4.1L132.2,12z"/>
			<path fill="#CC9900" d="M96.2,8.3l4.3,4.3l2.4-2.2l3.5,3.2l2.1-2l4.3,4.2l8.4-7.9l-8.4-8l-3.8,4l-2.3-2.2l-3.5,3.5L101.1,3
				L96.2,8.3z M108.6,4.5l-3.1,3.1l-2-2.1l3-3L108.6,4.5z M116.2,4.1l-3.6,3.3l-3.3-3.2l3.4-3.4L116.2,4.1z M116.9,11.6l-4.1-4
				l3.6-3.3l4.1,3.9L116.9,11.6z M109,11.1l3.3-3.1l4.1,4l-3.3,3.1l-0.1-0.1l0,0L109,11.1z M105.6,7.7l3.1-3.1l3.3,3.2l-3.3,3.1
				L105.6,7.7z M103.4,9.9l1.8-1.7l3.1,3.2l-1.6,1.5l0,0.1L103.4,9.9z M101.1,7.8l1.9-1.9l2,2.1c0,0-1.2,1.2-1.8,1.8
				C102.5,9.1,101.1,7.8,101.1,7.8z M96.9,8l3.8-4.1l0.1-0.2l2,2l-2.3,2.3l2.2,2.1l-1.8,1.8L96.9,8z"/>
		</g>
	</g>
	<circle fill="#CC9900" cx="94" cy="7.9" r="2.8"/>
	<circle fill="#CC9900" cx="11.2" cy="7.9" r="2.8"/>
	<circle fill="#CC9900" cx="139.1" cy="7.9" r="2.8"/>
	<circle fill="#CC9900" cx="226" cy="7.9" r="2.8"/>
</g>
</svg>
