<?xml version="1.0" encoding="utf-8"?>
<!-- Generator: Adobe Illustrator 18.1.1, SVG Export Plug-In . SVG Version: 6.00 Build 0)  -->
<svg version="1.1" id="Layer_1" xmlns="http://www.w3.org/2000/svg" xmlns:xlink="http://www.w3.org/1999/xlink" x="0px" y="0px"
	 viewBox="0 0 1001.9 9.6" enable-background="new 0 0 1001.9 9.6" xml:space="preserve">
<g>
	<polygon fill="#CC9900" points="998.3,1.3 3.6,1.4 3.5,0.1 998.3,0 	"/>
	<path fill="#CC9900" d="M10.3,4.7c1.3,0,6.6,2.3,6.6,2.3s-5.3,2.3-6.6,2.3C9,9.2,8,8.2,8,6.9S9,4.7,10.3,4.7z"/>
	<circle fill="#CC9900" cx="5.6" cy="6.8" r="2.8"/>
	<path fill="#CC9900" d="M3.6,1.4c-1.3,0-2.4,1.1-2.4,2.4s1.1,2.4,2.4,2.4v1.3C1.6,7.4,0,5.7,0,3.7s1.6-3.6,3.6-3.6V1.4z"/>
	<g>
		<path fill="#CC9900" d="M991.6,4.6c-1.3,0-6.6,2.3-6.6,2.3s5.3,2.3,6.6,2.3c1.3,0,2.3-1,2.3-2.3S992.9,4.6,991.6,4.6z"/>
		<circle fill="#CC9900" cx="996.2" cy="6.8" r="2.8"/>
		<path fill="#CC9900" d="M998.2,1.3c1.3,0,2.4,1.1,2.4,2.4S999.5,6,998.2,6v1.3c2,0,3.6-1.6,3.6-3.6s-1.6-3.6-3.6-3.6V1.3z"/>
	</g>
</g>
</svg>
