<?xml version="1.0" encoding="utf-8"?>
<!-- Generator: Adobe Illustrator 18.1.1, SVG Export Plug-In . SVG Version: 6.00 Build 0)  -->
<svg version="1.1" id="Layer_1" xmlns="http://www.w3.org/2000/svg" xmlns:xlink="http://www.w3.org/1999/xlink" x="0px" y="0px"
	 viewBox="0 0 1001.9 9.6" enable-background="new 0 0 1001.9 9.6" xml:space="preserve">
<polygon fill="#CC9900" points="998.3,8.3 3.6,8.3 3.5,9.5 998.3,9.6 "/>
<path fill="#CC9900" d="M10.3,5c1.3,0,6.6-2.3,6.6-2.3s-5.3-2.3-6.6-2.3C9,0.4,8,1.4,8,2.7S9,5,10.3,5z"/>
<circle fill="#CC9900" cx="5.6" cy="2.8" r="2.8"/>
<path fill="#CC9900" d="M3.6,8.3c-1.3,0-2.4-1.1-2.4-2.4s1.1-2.4,2.4-2.4V2.3C1.6,2.3,0,3.9,0,5.9s1.6,3.6,3.6,3.6V8.3z"/>
<path fill="#CC9900" d="M991.6,5.1c-1.3,0-6.6-2.3-6.6-2.3s5.3-2.3,6.6-2.3c1.3,0,2.3,1,2.3,2.3S992.9,5.1,991.6,5.1z"/>
<circle fill="#CC9900" cx="996.2" cy="2.9" r="2.8"/>
<path fill="#CC9900" d="M998.2,8.3c1.3,0,2.4-1.1,2.4-2.4s-1.1-2.4-2.4-2.4V2.3c2,0,3.6,1.6,3.6,3.6s-1.6,3.6-3.6,3.6V8.3z"/>
</svg>
