<?xml version="1.0" encoding="utf-8"?>
<!-- Generator: Adobe Illustrator 18.1.1, SVG Export Plug-In . SVG Version: 6.00 Build 0)  -->
<svg version="1.1" id="Layer_1" xmlns="http://www.w3.org/2000/svg" xmlns:xlink="http://www.w3.org/1999/xlink" x="0px" y="0px"
	 viewBox="0 0 37.9 37.9" enable-background="new 0 0 37.9 37.9" xml:space="preserve">
<g>
	<g>
		<g>
			<polyline fill="none" stroke="#CC9900" stroke-width="2" stroke-miterlimit="10" points="-147.5,21.3 -147.5,22.3 -148.5,22.3 
							"/>
			
				<line fill="none" stroke="#CC9900" stroke-width="2" stroke-miterlimit="10" stroke-dasharray="1.9953,1.9953" x1="-150.5" y1="22.3" x2="-181.4" y2="22.3"/>
			<polyline fill="none" stroke="#CC9900" stroke-width="2" stroke-miterlimit="10" points="-182.4,22.3 -183.4,22.3 -183.4,21.3 
							"/>
			
				<line fill="none" stroke="#CC9900" stroke-width="2" stroke-miterlimit="10" stroke-dasharray="1.9953,1.9953" x1="-183.4" y1="19.3" x2="-183.4" y2="-11.6"/>
			<polyline fill="none" stroke="#CC9900" stroke-width="2" stroke-miterlimit="10" points="-183.4,-12.6 -183.4,-13.6 
				-182.4,-13.6 			"/>
			
				<line fill="none" stroke="#CC9900" stroke-width="2" stroke-miterlimit="10" stroke-dasharray="1.9953,1.9953" x1="-180.4" y1="-13.6" x2="-149.5" y2="-13.6"/>
			<polyline fill="none" stroke="#CC9900" stroke-width="2" stroke-miterlimit="10" points="-148.5,-13.6 -147.5,-13.6 
				-147.5,-12.6 			"/>
			
				<line fill="none" stroke="#CC9900" stroke-width="2" stroke-miterlimit="10" stroke-dasharray="1.9953,1.9953" x1="-147.5" y1="-10.6" x2="-147.5" y2="20.3"/>
		</g>
	</g>
	<path fill="#FFFFFF" d="M-170.5,11.9h-3.5V0.7h3.5V11.9z M-172.3-0.7L-172.3-0.7c-1.3,0-2.1-0.9-2.1-1.9c0-1.1,0.8-1.9,2.1-1.9
		c1.3,0,2.1,0.8,2.1,1.9C-170.2-1.6-171-0.7-172.3-0.7z M-156.5,11.9h-4V6.1c0-1.5-0.6-2.6-2-2.6c-1,0-1.6,0.7-1.9,1.4
		c-0.1,0.2-0.1,0.6-0.1,0.9v6.1h-3.9c0,0,0.1-10.3,0-11.2h3.9v1.8c0.2-0.8,1.5-1.9,3.5-1.9c2.5,0,4.4,1.6,4.4,5.1V11.9z"/>
</g>
<g>
	<g>
		<g>
			<polyline fill="none" stroke="#CC9900" stroke-width="2" stroke-miterlimit="10" points="37.5,36.4 37.5,37.4 36.5,37.4 			"/>
			
				<line fill="none" stroke="#CC9900" stroke-width="2" stroke-miterlimit="10" stroke-dasharray="1.9953,1.9953" x1="34.5" y1="37.4" x2="3.5" y2="37.4"/>
			<polyline fill="none" stroke="#CC9900" stroke-width="2" stroke-miterlimit="10" points="2.5,37.4 1.5,37.4 1.5,36.4 			"/>
			
				<line fill="none" stroke="#CC9900" stroke-width="2" stroke-miterlimit="10" stroke-dasharray="1.9956,1.9956" x1="1.5" y1="34.4" x2="1.5" y2="3.5"/>
			<polyline fill="none" stroke="#CC9900" stroke-width="2" stroke-miterlimit="10" points="1.5,2.5 1.5,1.5 2.5,1.5 			"/>
			
				<line fill="none" stroke="#CC9900" stroke-width="2" stroke-miterlimit="10" stroke-dasharray="1.9953,1.9953" x1="4.5" y1="1.5" x2="35.5" y2="1.5"/>
			<polyline fill="none" stroke="#CC9900" stroke-width="2" stroke-miterlimit="10" points="36.5,1.5 37.5,1.5 37.5,2.5 			"/>
			
				<line fill="none" stroke="#CC9900" stroke-width="2" stroke-miterlimit="10" stroke-dasharray="1.9956,1.9956" x1="37.5" y1="4.5" x2="37.5" y2="35.4"/>
		</g>
	</g>
	<path fill="#FFFFFF" d="M16.5,27.5c-2.1,0-3.7-1.4-3.7-3c0-1.6,1.9-2.9,4-2.9c0.5,0,1,0.1,1.4,0.2c1.2,0.8,2,1.3,2.2,2.2
		c0,0.2,0.1,0.4,0.1,0.6C20.6,26.2,19.5,27.5,16.5,27.5 M17.1,18c-1.4,0-2.8-1.6-3-3.5c-0.2-1.9,0.7-3.3,2.1-3.3
		c1.4,0,2.8,1.6,3,3.4C19.5,16.5,18.5,18,17.1,18 M20.1,20.8c-0.5-0.4-1.5-1.2-1.5-1.7c0-0.6,0.2-0.9,1.1-1.6
		c0.9-0.7,1.6-1.7,1.6-2.9c0-1.4-0.6-2.8-1.8-3.2h1.8l1.2-0.9h-5.6c-2.5,0-4.8,1.9-4.8,4.1c0,2.2,1.7,4,4.2,4c0.2,0,0.3,0,0.5,0
		c-0.2,0.3-0.3,0.7-0.3,1c0,0.6,0.3,1.1,0.8,1.5c-0.3,0-0.6,0-1,0c-3.1,0-5.5,2-5.5,4c0,2,2.6,3.3,5.7,3.3c3.5,0,5.5-2,5.5-4
		C22,22.8,21.5,21.8,20.1,20.8 M28.1,18.2H26V16h-1.7v2.2h-2.2v1.7h2.2v2.2H26v-2.2h2.2V18.2z"/>
</g>
</svg>
