<?xml version="1.0" encoding="utf-8"?>
<!-- Generator: Adobe Illustrator 18.1.1, SVG Export Plug-In . SVG Version: 6.00 Build 0)  -->
<svg version="1.1" id="Layer_1" xmlns="http://www.w3.org/2000/svg" xmlns:xlink="http://www.w3.org/1999/xlink" x="0px" y="0px"
	 viewBox="0 0 589.5 34.5" enable-background="new 0 0 589.5 34.5" xml:space="preserve">
<g>
	<g>
		<g>
			<g>
				<polygon fill="#FFFFFF" points="271.7,16.1 22.5,16 22.3,17.5 271.7,17.6 				"/>
				<path fill="#FFFFFF" d="M21.8,14.1c-1.5,0-7.7,2.7-7.7,2.7s6.2,2.7,7.7,2.7c1.5,0,2.7-1.2,2.7-2.7
					C24.5,15.3,23.3,14.1,21.8,14.1z"/>
			</g>
			<g>
				<polygon fill="#FFFFFF" points="317.7,17.8 573.1,17.8 573,16 317.7,16.2 				"/>
				<path fill="#FFFFFF" d="M572.9,14c-1.5,0-2.7,1.2-2.7,2.7c0,1.5,1.2,2.7,2.7,2.7c1.5,0,7.7-2.7,7.7-2.7S574.4,14,572.9,14z"/>
			</g>
			<g>
				<path fill="#FFFFFF" d="M312.8,11l-2.6,2.7l-4.1-4.1l-2.7,2.6L299,7.4l-9.8,9.3l9.8,9.2l5-4.9l2.5,2.4l4-3.8l2.8,2.6l5-5
					L312.8,11z M306.4,10.3l3.6,3.6l-2.3,2.4l-3.7-3.6L306.4,10.3z M299.2,8.4l4,3.9l-3.9,3.8l-4.2-3.9L299.2,8.4z M290,17.1
					l4.8-4.6l4.2,3.9l-4.8,4.7L290,17.1z M298.9,25.1L298.9,25.1l-0.1,0.1l-3.9-3.6l4.8-4.7l3.9,3.6L298.9,25.1z M303.7,20.2
					l-3.9-3.6l3.9-3.8l3.7,3.6L303.7,20.2z M306.3,22.6L306.3,22.6l-2-1.8L308,17l2.1,2L306.3,22.6z M310.3,18.8
					c-0.7-0.7-2.1-2-2.1-2l2.3-2.4l2.2,2.2C312.7,16.6,311.1,18.1,310.3,18.8z M313,21.5l-2.1-2.1l2.6-2.5l-2.7-2.7l2.3-2.4l0.1,0.3
					l4.5,4.7L313,21.5z"/>
				<path fill="#FFFFFF" d="M270.9,17.1l5,5l2.8-2.6l4,3.8l2.5-2.4l5,4.9l9.8-9.2l-9.8-9.3l-4.4,4.7l-2.7-2.6l-4.1,4.1l-2.6-2.7
					L270.9,17.1z M285.4,12.6l-3.7,3.6l-2.3-2.4l3.6-3.6L285.4,12.6z M294.2,12.2l-4.2,3.9l-3.9-3.8l4-3.9L294.2,12.2z M295.1,21
					l-4.8-4.7l4.2-3.9l4.8,4.6L295.1,21z M285.8,20.4l3.9-3.6l4.8,4.7l-3.9,3.6l-0.1-0.1l0,0L285.8,20.4z M281.9,16.4l3.7-3.6
					l3.9,3.8l-3.9,3.6L281.9,16.4z M279.3,19l2.1-2l3.7,3.7l-1.9,1.8l-0.1,0.1L279.3,19z M276.6,16.6l2.2-2.2l2.3,2.4
					c0,0-1.4,1.4-2.1,2C278.3,18.1,276.6,16.6,276.6,16.6z M271.7,16.8l4.5-4.7l0.1-0.3l2.3,2.4l-2.7,2.7l2.6,2.5l-2.1,2.1
					L271.7,16.8z"/>
			</g>
		</g>
		<circle fill="#FFFFFF" cx="268.3" cy="16.7" r="3.2"/>
		<circle fill="#FFFFFF" cx="27.2" cy="16.7" r="3.2"/>
		<circle fill="#FFFFFF" cx="321" cy="16.7" r="3.2"/>
		<circle fill="#FFFFFF" cx="567.1" cy="16.7" r="3.2"/>
	</g>
</g>
</svg>
