<?xml version="1.0" encoding="utf-8"?>
<!-- Generator: Adobe Illustrator 18.1.1, SVG Export Plug-In . SVG Version: 6.00 Build 0)  -->
<svg version="1.1" id="Layer_1" xmlns="http://www.w3.org/2000/svg" xmlns:xlink="http://www.w3.org/1999/xlink" x="0px" y="0px"
	 viewBox="0 0 37.9 37.9" enable-background="new 0 0 37.9 37.9" xml:space="preserve">
<g>
	<g>
		<g>
			<polyline fill="none" stroke="#CC9900" stroke-width="2" stroke-miterlimit="10" points="37.6,36.2 37.6,37.2 36.6,37.2 			"/>
			
				<line fill="none" stroke="#CC9900" stroke-width="2" stroke-miterlimit="10" stroke-dasharray="1.9953,1.9953" x1="34.7" y1="37.2" x2="3.7" y2="37.2"/>
			<polyline fill="none" stroke="#CC9900" stroke-width="2" stroke-miterlimit="10" points="2.7,37.2 1.7,37.2 1.7,36.2 			"/>
			
				<line fill="none" stroke="#CC9900" stroke-width="2" stroke-miterlimit="10" stroke-dasharray="1.9953,1.9953" x1="1.7" y1="34.2" x2="1.7" y2="3.2"/>
			<polyline fill="none" stroke="#CC9900" stroke-width="2" stroke-miterlimit="10" points="1.7,2.2 1.7,1.2 2.7,1.2 			"/>
			
				<line fill="none" stroke="#CC9900" stroke-width="2" stroke-miterlimit="10" stroke-dasharray="1.9953,1.9953" x1="4.7" y1="1.2" x2="35.6" y2="1.2"/>
			<polyline fill="none" stroke="#CC9900" stroke-width="2" stroke-miterlimit="10" points="36.6,1.2 37.6,1.2 37.6,2.2 			"/>
			
				<line fill="none" stroke="#CC9900" stroke-width="2" stroke-miterlimit="10" stroke-dasharray="1.9953,1.9953" x1="37.6" y1="4.2" x2="37.6" y2="35.2"/>
		</g>
	</g>
	<path fill="#FFFFFF" d="M14.6,26.7h-3.5V15.5h3.5V26.7z M12.8,14.1L12.8,14.1c-1.3,0-2.1-0.9-2.1-1.9c0-1.1,0.8-1.9,2.1-1.9
		c1.3,0,2.1,0.8,2.1,1.9C14.9,13.2,14.1,14.1,12.8,14.1z M28.7,26.7h-4v-5.8c0-1.5-0.6-2.6-2-2.6c-1,0-1.6,0.7-1.9,1.4
		c-0.1,0.2-0.1,0.6-0.1,0.9v6.1h-3.9c0,0,0.1-10.3,0-11.2h3.9v1.8c0.2-0.8,1.5-1.9,3.5-1.9c2.5,0,4.4,1.6,4.4,5.1V26.7z"/>
</g>
</svg>
