<?xml version="1.0" encoding="utf-8"?>
<!-- Generator: Adobe Illustrator 18.1.1, SVG Export Plug-In . SVG Version: 6.00 Build 0)  -->
<svg version="1.1" id="Layer_1" xmlns="http://www.w3.org/2000/svg" xmlns:xlink="http://www.w3.org/1999/xlink" x="0px" y="0px"
	 viewBox="0 0 37.9 37.9" enable-background="new 0 0 37.9 37.9" xml:space="preserve">
<g>
	<g>
		<g>
			<polyline fill="none" stroke="#CC9900" stroke-width="2" stroke-miterlimit="10" points="-147.5,21.3 -147.5,22.3 -148.5,22.3 
							"/>
			
				<line fill="none" stroke="#CC9900" stroke-width="2" stroke-miterlimit="10" stroke-dasharray="1.9953,1.9953" x1="-150.5" y1="22.3" x2="-181.4" y2="22.3"/>
			<polyline fill="none" stroke="#CC9900" stroke-width="2" stroke-miterlimit="10" points="-182.4,22.3 -183.4,22.3 -183.4,21.3 
							"/>
			
				<line fill="none" stroke="#CC9900" stroke-width="2" stroke-miterlimit="10" stroke-dasharray="1.9953,1.9953" x1="-183.4" y1="19.3" x2="-183.4" y2="-11.6"/>
			<polyline fill="none" stroke="#CC9900" stroke-width="2" stroke-miterlimit="10" points="-183.4,-12.6 -183.4,-13.6 
				-182.4,-13.6 			"/>
			
				<line fill="none" stroke="#CC9900" stroke-width="2" stroke-miterlimit="10" stroke-dasharray="1.9953,1.9953" x1="-180.4" y1="-13.6" x2="-149.5" y2="-13.6"/>
			<polyline fill="none" stroke="#CC9900" stroke-width="2" stroke-miterlimit="10" points="-148.5,-13.6 -147.5,-13.6 
				-147.5,-12.6 			"/>
			
				<line fill="none" stroke="#CC9900" stroke-width="2" stroke-miterlimit="10" stroke-dasharray="1.9953,1.9953" x1="-147.5" y1="-10.6" x2="-147.5" y2="20.3"/>
		</g>
	</g>
	<path fill="#FFFFFF" d="M-170.5,11.9h-3.5V0.7h3.5V11.9z M-172.3-0.7L-172.3-0.7c-1.3,0-2.1-0.9-2.1-1.9c0-1.1,0.8-1.9,2.1-1.9
		c1.3,0,2.1,0.8,2.1,1.9C-170.2-1.6-171-0.7-172.3-0.7z M-156.5,11.9h-4V6.1c0-1.5-0.6-2.6-2-2.6c-1,0-1.6,0.7-1.9,1.4
		c-0.1,0.2-0.1,0.6-0.1,0.9v6.1h-3.9c0,0,0.1-10.3,0-11.2h3.9v1.8c0.2-0.8,1.5-1.9,3.5-1.9c2.5,0,4.4,1.6,4.4,5.1V11.9z"/>
</g>
<g>
	<g>
		<g>
			<polyline fill="none" stroke="#CC9900" stroke-width="2" stroke-miterlimit="10" points="-332,45.4 -332,46.4 -333,46.4 			"/>
			
				<line fill="none" stroke="#CC9900" stroke-width="2" stroke-miterlimit="10" stroke-dasharray="1.9953,1.9953" x1="-335" y1="46.4" x2="-366" y2="46.4"/>
			<polyline fill="none" stroke="#CC9900" stroke-width="2" stroke-miterlimit="10" points="-367,46.4 -368,46.4 -368,45.4 			"/>
			
				<line fill="none" stroke="#CC9900" stroke-width="2" stroke-miterlimit="10" stroke-dasharray="1.9956,1.9956" x1="-368" y1="43.4" x2="-368" y2="12.4"/>
			<polyline fill="none" stroke="#CC9900" stroke-width="2" stroke-miterlimit="10" points="-368,11.4 -368,10.4 -367,10.4 			"/>
			
				<line fill="none" stroke="#CC9900" stroke-width="2" stroke-miterlimit="10" stroke-dasharray="1.9953,1.9953" x1="-365" y1="10.4" x2="-334" y2="10.4"/>
			<polyline fill="none" stroke="#CC9900" stroke-width="2" stroke-miterlimit="10" points="-333,10.4 -332,10.4 -332,11.4 			"/>
			
				<line fill="none" stroke="#CC9900" stroke-width="2" stroke-miterlimit="10" stroke-dasharray="1.9956,1.9956" x1="-332" y1="13.4" x2="-332" y2="44.4"/>
		</g>
	</g>
	<path fill="#FFFFFF" d="M-353,36.4c-2.1,0-3.7-1.4-3.7-3c0-1.6,1.9-2.9,4-2.9c0.5,0,1,0.1,1.4,0.2c1.2,0.8,2,1.3,2.2,2.2
		c0,0.2,0.1,0.4,0.1,0.6C-348.9,35.2-350,36.4-353,36.4 M-352.4,26.9c-1.4,0-2.8-1.6-3-3.5c-0.2-1.9,0.7-3.3,2.1-3.3
		c1.4,0,2.8,1.6,3,3.4S-351,27-352.4,26.9 M-349.4,29.7c-0.5-0.4-1.5-1.2-1.5-1.7c0-0.6,0.2-0.9,1.1-1.6c0.9-0.7,1.6-1.7,1.6-2.9
		c0-1.4-0.6-2.8-1.8-3.2h1.8l1.2-0.9h-5.6c-2.5,0-4.8,1.9-4.8,4.1c0,2.2,1.7,4,4.2,4c0.2,0,0.3,0,0.5,0c-0.2,0.3-0.3,0.7-0.3,1
		c0,0.6,0.3,1.1,0.8,1.5c-0.3,0-0.6,0-1,0c-3.1,0-5.5,2-5.5,4c0,2,2.6,3.3,5.7,3.3c3.5,0,5.5-2,5.5-4
		C-347.5,31.7-348,30.7-349.4,29.7 M-341.3,27.1h-2.2v-2.2h-1.7v2.2h-2.2v1.7h2.2V31h1.7v-2.2h2.2V27.1z"/>
</g>
<g>
	<g>
		<g>
			<polyline fill="none" stroke="#CC9900" stroke-width="2" stroke-miterlimit="10" points="37.8,36.4 37.8,37.4 36.8,37.4 			"/>
			
				<line fill="none" stroke="#CC9900" stroke-width="2" stroke-miterlimit="10" stroke-dasharray="1.9953,1.9953" x1="34.8" y1="37.4" x2="3.9" y2="37.4"/>
			<polyline fill="none" stroke="#CC9900" stroke-width="2" stroke-miterlimit="10" points="2.9,37.4 1.9,37.4 1.9,36.4 			"/>
			
				<line fill="none" stroke="#CC9900" stroke-width="2" stroke-miterlimit="10" stroke-dasharray="1.9956,1.9956" x1="1.9" y1="34.4" x2="1.9" y2="3.5"/>
			<polyline fill="none" stroke="#CC9900" stroke-width="2" stroke-miterlimit="10" points="1.9,2.5 1.9,1.5 2.9,1.5 			"/>
			
				<line fill="none" stroke="#CC9900" stroke-width="2" stroke-miterlimit="10" stroke-dasharray="1.9953,1.9953" x1="4.9" y1="1.5" x2="35.8" y2="1.5"/>
			<polyline fill="none" stroke="#CC9900" stroke-width="2" stroke-miterlimit="10" points="36.8,1.5 37.8,1.5 37.8,2.5 			"/>
			
				<line fill="none" stroke="#CC9900" stroke-width="2" stroke-miterlimit="10" stroke-dasharray="1.9956,1.9956" x1="37.8" y1="4.5" x2="37.8" y2="35.4"/>
		</g>
	</g>
	<path fill="#FFFFFF" d="M25.4,10.2v5.2c-0.1,0.2-0.3,0.3-0.4,0.4c-0.2,0.1-0.3,0.2-0.4,0.2c-0.1,0-0.2,0-0.3-0.1
		c-0.1-0.1-0.1-0.2-0.1-0.4v-5.3h-1.4v5.7c0,0.4,0.1,0.7,0.2,0.9c0.2,0.2,0.4,0.3,0.7,0.3c0.3,0,0.5-0.1,0.8-0.2
		c0.3-0.2,0.5-0.4,0.8-0.6V17h1.4v-6.9H25.4z M21.1,10.5c-0.4-0.3-0.9-0.5-1.4-0.5c-0.6,0-1.1,0.2-1.5,0.5c-0.4,0.3-0.6,0.7-0.6,1.3
		v3.6c0,0.6,0.2,1,0.6,1.4c0.4,0.3,0.9,0.5,1.5,0.5c0.6,0,1.1-0.2,1.5-0.5c0.4-0.3,0.6-0.8,0.6-1.4v-3.5
		C21.7,11.3,21.5,10.8,21.1,10.5z M20.3,15.4c0,0.2-0.1,0.3-0.2,0.4C20,16,19.8,16,19.6,16c-0.2,0-0.3-0.1-0.4-0.2
		c-0.1-0.1-0.2-0.2-0.2-0.4v-3.8c0-0.2,0.1-0.3,0.2-0.4c0.1-0.1,0.2-0.1,0.4-0.1c0.2,0,0.3,0,0.5,0.1c0.1,0.1,0.2,0.2,0.2,0.4V15.4z
		 M15.9,7.7l-1,3.7h-0.1l-1-3.7h-1.6l1.9,5.6V17h1.6v-3.9l1.8-5.5H15.9z M26.9,24.1c0.1,0.1,0.1,0.3,0.1,0.6v0.6h-1.1v-0.6
		c0-0.2,0-0.4,0.1-0.6c0.1-0.1,0.2-0.2,0.4-0.2C26.6,24,26.8,24,26.9,24.1z M22.5,24.1c-0.1-0.1-0.2-0.2-0.4-0.2
		c-0.1,0-0.2,0-0.3,0.1c-0.1,0-0.2,0.1-0.3,0.2v3.9c0.1,0.1,0.2,0.2,0.3,0.2c0.1,0,0.2,0.1,0.3,0.1c0.2,0,0.3,0,0.3-0.1
		c0.1-0.1,0.1-0.2,0.1-0.4v-3.2C22.7,24.4,22.6,24.2,22.5,24.1z M22.5,24.1c-0.1-0.1-0.2-0.2-0.4-0.2c-0.1,0-0.2,0-0.3,0.1
		c-0.1,0-0.2,0.1-0.3,0.2v3.9c0.1,0.1,0.2,0.2,0.3,0.2c0.1,0,0.2,0.1,0.3,0.1c0.2,0,0.3,0,0.3-0.1c0.1-0.1,0.1-0.2,0.1-0.4v-3.2
		C22.7,24.4,22.6,24.2,22.5,24.1z M29.6,19.3H10c-2.1,0-3.9,1.8-3.9,3.9v4c0,2.2,1.8,3.9,3.9,3.9h19.6c2.1,0,3.9-1.8,3.9-3.9v-4
		C33.5,21.1,31.7,19.3,29.6,19.3z M15.3,22h-1.5v7.2h-1.4V22H11v-1.2h4.3V22z M19.4,29.3h-1.3v-0.7c-0.2,0.3-0.5,0.5-0.7,0.6
		c-0.2,0.1-0.5,0.2-0.7,0.2c-0.3,0-0.5-0.1-0.7-0.3c-0.1-0.2-0.2-0.5-0.2-0.8V23h1.2v4.8c0,0.1,0,0.2,0.1,0.3c0,0.1,0.1,0.1,0.2,0.1
		c0.1,0,0.2,0,0.3-0.1c0.2-0.1,0.3-0.2,0.4-0.3V23h1.3V29.3z M24,28c0,0.4-0.1,0.8-0.3,1c-0.2,0.2-0.5,0.4-0.9,0.4
		c-0.3,0-0.5,0-0.7-0.1c-0.2-0.1-0.4-0.2-0.5-0.4v0.5h-1.3v-8.5h1.3v2.7c0.2-0.2,0.3-0.3,0.5-0.4c0.2-0.1,0.4-0.2,0.6-0.2
		c0.4,0,0.7,0.1,0.9,0.4c0.2,0.3,0.3,0.6,0.3,1.2V28z M28.3,26.3h-2.4v1.2c0,0.3,0,0.6,0.1,0.7c0.1,0.1,0.2,0.2,0.4,0.2
		c0.2,0,0.3-0.1,0.4-0.2c0.1-0.1,0.1-0.3,0.1-0.7v-0.3h1.3v0.3c0,0.7-0.2,1.1-0.5,1.4c-0.3,0.3-0.8,0.5-1.4,0.5
		c-0.6,0-1-0.2-1.3-0.5c-0.3-0.3-0.5-0.8-0.5-1.4v-2.8c0-0.5,0.2-1,0.5-1.3c0.3-0.3,0.8-0.5,1.4-0.5c0.6,0,1,0.2,1.3,0.5
		c0.3,0.3,0.5,0.8,0.5,1.4V26.3z M22.1,23.9c-0.1,0-0.2,0-0.3,0.1c-0.1,0-0.2,0.1-0.3,0.2v3.9c0.1,0.1,0.2,0.2,0.3,0.2
		c0.1,0,0.2,0.1,0.3,0.1c0.2,0,0.3,0,0.3-0.1c0.1-0.1,0.1-0.2,0.1-0.4v-3.2c0-0.2,0-0.4-0.1-0.5C22.4,24,22.3,23.9,22.1,23.9z
		 M22.5,24.1c-0.1-0.1-0.2-0.2-0.4-0.2c-0.1,0-0.2,0-0.3,0.1c-0.1,0-0.2,0.1-0.3,0.2v3.9c0.1,0.1,0.2,0.2,0.3,0.2
		c0.1,0,0.2,0.1,0.3,0.1c0.2,0,0.3,0,0.3-0.1c0.1-0.1,0.1-0.2,0.1-0.4v-3.2C22.7,24.4,22.6,24.2,22.5,24.1z M22.5,24.1
		c-0.1-0.1-0.2-0.2-0.4-0.2c-0.1,0-0.2,0-0.3,0.1c-0.1,0-0.2,0.1-0.3,0.2v3.9c0.1,0.1,0.2,0.2,0.3,0.2c0.1,0,0.2,0.1,0.3,0.1
		c0.2,0,0.3,0,0.3-0.1c0.1-0.1,0.1-0.2,0.1-0.4v-3.2C22.7,24.4,22.6,24.2,22.5,24.1z"/>
</g>
</svg>
