<svg xmlns="http://www.w3.org/2000/svg" viewBox="0 0 153.43 210.75"><defs><style>.cls-1{fill:none;}.cls-1,.cls-2,.cls-4{stroke:#231f20;stroke-linejoin:round;}.cls-2{fill:#231f20;}.cls-3,.cls-4{fill:#fff;}.cls-4{stroke-linecap:round;}</style></defs><title>Asset 21</title><g id="Layer_2" data-name="Layer 2"><g id="Layer_1-2" data-name="Layer 1"><path class="cls-1" d="M85.48,16.91c1.85,5.66,2,14.76,2.8,20.67.3,2.3-.73,4.46-1.46,6.66a6.45,6.45,0,0,1-2.46,3.4,4.35,4.35,0,0,1-4.07.45l-3-4.25"/><path class="cls-2" d="M66.81,1A38.59,38.59,0,0,1,72,.5,16.19,16.19,0,0,1,82.11,3.66,11.93,11.93,0,0,1,86.84,13c0,2-.83,4.16-2.67,4.84-1.45.54-3.2,0-4.55.78a20.66,20.66,0,0,1-.86,6.15A1.1,1.1,0,0,1,78,24.6a1.62,1.62,0,0,0-2.16-1.33,8.74,8.74,0,0,0-1.26,5.27,5.11,5.11,0,0,0,3.11,4.21c-1.47,0-2.23,1.75-2.52,3.19a28.78,28.78,0,0,0-.53,7.22L57.84,42a2.76,2.76,0,0,0-1.75.26c-.5.33-.67,1.19-.16,1.51-.76.14-1.37-.6-1.77-1.27a44,44,0,0,1-6.19-26,12.14,12.14,0,0,1,1-4.39A14,14,0,0,1,51.41,8.8a26.36,26.36,0,0,1,5.43-4.87C59.82,2.12,63.37,1.55,66.81,1Z"/><path class="cls-1" d="M56.3,42.23a3,3,0,0,0,.57,2.15c.36.67.86,3.37.47,4"/><path class="cls-1" d="M64.44,53.57S42.19,59.65,31.69,66.28,17.94,112.9,17.94,121.65s3.5,41,14,69h6.54"/><path class="cls-1" d="M31.44,99.4s12.5,31,12.5,42.5c0,9.43-4.2,39.88-5.72,50.53a3.67,3.67,0,0,0,3.22,4.17,383.27,383.27,0,0,0,39.5,2.55,276.49,276.49,0,0,0,33.54-2.27,4.81,4.81,0,0,0,4.09-5.79c-2.46-11.34-8.13-38.61-8.13-49.18,0-13.5,6.5-43.75,6.5-43.75"/><line class="cls-1" x1="69.94" y1="53.57" x2="73.95" y2="199.15"/><line class="cls-1" x1="41.45" y1="196.6" x2="41.19" y2="210.74"/><line class="cls-1" x1="116.82" y1="195.87" x2="116.82" y2="210"/><line class="cls-1" x1="62.21" y1="198.47" x2="62.21" y2="207.4"/><line class="cls-1" x1="98.66" y1="198.47" x2="98.66" y2="205.15"/><path class="cls-1" d="M68.84,53s29.23,2,46.76,8.13c7.26,2.54,7.6,11.25,7.6,12s12.92,79.58,2.92,115.33H118"/><path class="cls-1" d="M28.44,101.34s-6.31,46.4,7,89.31"/><path class="cls-1" d="M120.44,91.55s8.33,53.19,0,96.94"/><rect class="cls-3" x="117.77" y="85.3" width="5.49" height="6.25"/><rect class="cls-3" x="111.84" y="85.3" width="5.93" height="6.25"/><rect class="cls-3" x="105.91" y="85.3" width="5.93" height="6.25"/><rect class="cls-3" x="99.99" y="85.3" width="5.92" height="6.25"/><rect class="cls-3" x="94.13" y="85.3" width="5.86" height="6.25"/><rect class="cls-3" x="87.32" y="85.3" width="6.81" height="6.25"/><rect class="cls-3" x="80.5" y="85.3" width="6.82" height="6.25"/><rect class="cls-3" x="73.69" y="85.3" width="6.81" height="6.25"/><rect class="cls-3" x="66.88" y="85.3" width="6.81" height="6.25"/><rect class="cls-3" x="60.07" y="85.3" width="6.81" height="6.25"/><rect class="cls-3" x="53.25" y="85.3" width="6.82" height="6.25"/><rect class="cls-3" x="46.44" y="85.3" width="6.81" height="6.25"/><rect class="cls-3" x="39.63" y="85.3" width="6.81" height="6.25"/><rect class="cls-3" x="32.82" y="85.3" width="6.81" height="6.25"/><rect class="cls-3" x="26" y="85.3" width="6.82" height="6.25"/><polyline class="cls-1" points="20.18 85.3 26 85.3 32.82 85.3 39.63 85.3 46.44 85.3 53.25 85.3 60.07 85.3 66.88 85.3 73.69 85.3 80.5 85.3 87.32 85.3 94.13 85.3 99.99 85.3 105.91 85.3 111.84 85.3 117.77 85.3 123.26 85.3 124.9 85.3"/><polyline class="cls-1" points="20.76 91.55 26 91.55 32.82 91.55 39.63 91.55 46.44 91.55 53.25 91.55 60.07 91.55 66.88 91.55 73.69 91.55 80.5 91.55 87.32 91.55 94.13 91.55 99.99 91.55 105.91 91.55 111.84 91.55 117.77 91.55 123.26 91.55 125.71 91.55"/><line class="cls-1" x1="94.13" y1="85.3" x2="94.13" y2="91.55"/><line class="cls-1" x1="99.99" y1="85.3" x2="99.99" y2="91.55"/><line class="cls-1" x1="105.91" y1="85.3" x2="105.91" y2="91.55"/><line class="cls-1" x1="111.84" y1="85.3" x2="111.84" y2="91.55"/><line class="cls-1" x1="117.77" y1="85.3" x2="117.77" y2="91.55"/><line class="cls-1" x1="123.26" y1="85.3" x2="123.26" y2="91.55"/><line class="cls-1" x1="87.32" y1="85.3" x2="87.32" y2="91.55"/><line class="cls-1" x1="80.5" y1="85.3" x2="80.5" y2="91.55"/><line class="cls-1" x1="73.69" y1="85.3" x2="73.69" y2="91.55"/><line class="cls-1" x1="66.88" y1="85.3" x2="66.88" y2="91.55"/><line class="cls-1" x1="60.07" y1="85.3" x2="60.07" y2="91.55"/><line class="cls-1" x1="53.25" y1="85.3" x2="53.25" y2="91.55"/><line class="cls-1" x1="46.44" y1="85.3" x2="46.44" y2="91.55"/><line class="cls-1" x1="39.63" y1="85.3" x2="39.63" y2="91.55"/><line class="cls-1" x1="32.82" y1="85.3" x2="32.82" y2="91.55"/><line class="cls-1" x1="26" y1="85.3" x2="26" y2="91.55"/><path class="cls-4" d="M.5,81.07a105.93,105.93,0,0,0,14-2.66c3.63-.95,7.55-2.08,11-.67a16.27,16.27,0,0,1,2.27,1.21c1.79,1.08,7.89,5.53,9.74,7.76a1.53,1.53,0,0,1-1.7,2.4L32,87.17c-2.19-.8-4.91-2.33-7.28-2.12a2.66,2.66,0,0,0-2.42,1.82,2.73,2.73,0,0,0,1.89,2.9,9.3,9.3,0,0,0,3.75.27,5,5,0,0,1,2.22.26A1.87,1.87,0,0,1,31.35,92c-.08,1-1.18,1.59-2.14,1.91a25.57,25.57,0,0,1-15.51.2c-4.07-1.25-8.1-3.55-12.31-2.85"/><path class="cls-4" d="M152.93,81.07a105.93,105.93,0,0,1-14-2.66c-3.63-.95-7.55-2.08-11-.67a16.27,16.27,0,0,0-2.27,1.21c-1.79,1.08-7.89,5.53-9.74,7.76a1.53,1.53,0,0,0,1.7,2.4l3.81-1.94c2.19-.8,4.91-2.33,7.28-2.12a2.66,2.66,0,0,1,2.42,1.82,2.73,2.73,0,0,1-1.89,2.9,9.3,9.3,0,0,1-3.75.27,5,5,0,0,0-2.22.26,1.87,1.87,0,0,0-1.2,1.74c.08,1,1.18,1.59,2.14,1.91a25.57,25.57,0,0,0,15.51.2c4.07-1.25,8.1-3.55,12.31-2.85"/><path class="cls-1" d="M32.69,190.77c1.17,4.9,4.66,6.89,8.76,9.82"/><path class="cls-1" d="M125.23,188.41c-1.08,6.69-4.24,7.31-8.41,10.37"/><path class="cls-1" d="M53.25,57s-.31-9,6.82-9.49,17.13,0,17.13,0,7.46-.16,7.23,6.73"/></g></g></svg>