<svg xmlns="http://www.w3.org/2000/svg" viewBox="0 0 43.12 31.78"><defs><style>.cls-1{fill:#fff;}.cls-2{fill:#231f20;}.cls-3,.cls-4{fill:none;stroke:#231f20;stroke-linejoin:round;stroke-width:1.33px;}.cls-4{stroke-linecap:round;}</style></defs><title>Asset 5</title><g id="Layer_2" data-name="Layer 2"><g id="Grid"><path class="cls-1" d="M41.15,15.57l1.31,6.84a26,26,0,0,1-19.88,8.71,35.07,35.07,0,0,1-5.12-.37V24c0-1.44,1.55-1.61,2.26-1.61h.35q1.11,0,2.31,0C38.29,22.41,41.15,15.57,41.15,15.57ZM24.11,27a1.28,1.28,0,1,0-1.28,1.28A1.28,1.28,0,0,0,24.11,27Z"/><path class="cls-1" d="M22.83,25.72A1.28,1.28,0,1,1,21.56,27,1.28,1.28,0,0,1,22.83,25.72ZM23.14,27a.31.31,0,0,0-.31-.31.31.31,0,0,0-.31.31.31.31,0,0,0,.31.31A.3.3,0,0,0,23.14,27Z"/><circle class="cls-2" cx="22.83" cy="27" r="0.31"/><path class="cls-1" d="M19.71,22.35c-.71,0-2.26.17-2.26,1.61v6.78C7.2,29.24.66,23.59.66,22a51.75,51.75,0,0,1,1.43-7.4S3.61,21.65,19.71,22.35Z"/><path class="cls-3" d="M19.86,22.36h.2q1.11,0,2.31,0c15.92,0,18.78-6.84,18.78-6.84l1.31,6.84a26,26,0,0,1-19.88,8.71,35.07,35.07,0,0,1-5.12-.37C7.2,29.24.66,23.59.66,22a51.75,51.75,0,0,1,1.43-7.4s1.51,7.07,17.62,7.78"/><circle class="cls-3" cx="22.83" cy="27" r="1.28"/><path class="cls-3" d="M20.07,22.36h-.35c-.71,0-2.26.17-2.26,1.61v6.78"/><line class="cls-4" x1="2.81" y1="0.66" x2="2.81" y2="15.89"/><line class="cls-4" x1="40.5" y1="0.66" x2="40.5" y2="16.38"/></g></g></svg>