<svg xmlns="http://www.w3.org/2000/svg" viewBox="0 0 47.2 46.15"><defs><style>.cls-1{fill:#fff;}.cls-2{fill:#231f20;}.cls-3,.cls-4,.cls-5{fill:none;stroke:#231f20;stroke-width:1.33px;}.cls-3{stroke-miterlimit:10;}.cls-4{stroke-linecap:round;}.cls-4,.cls-5{stroke-linejoin:round;}</style></defs><title>Asset 4</title><g id="Layer_2" data-name="Layer 2"><g id="Grid"><path class="cls-1" d="M42.91,6C44.26,5.4,47.2,22.57,46.41,27,46,29.21,42,35,38.82,39.45l-2.07-.22a1.28,1.28,0,1,0-2-1.06,1.4,1.4,0,0,0,0,.25L32.91,39l-3.06-9.1-3.27-9.72C39.69,11.19,42.91,6,42.91,6Z"/><path class="cls-1" d="M36.75,39.23l2.07.22c-2.18,3-4,5.32-4,5.32L32.91,39l1.87-.63a1.28,1.28,0,0,0,2,.81Z"/><path class="cls-1" d="M37.31,38.17a1.28,1.28,0,0,1-2.53.25,1.4,1.4,0,0,1,0-.25,1.28,1.28,0,0,1,2.55,0Zm-1,0a.3.3,0,0,0-.31-.31.31.31,0,0,0,0,.61A.3.3,0,0,0,36.34,38.17Z"/><circle class="cls-2" cx="36.03" cy="38.17" r="0.31"/><path class="cls-1" d="M26.59,20.23l3.27,9.72a115.93,115.93,0,0,1-12.51,0l3.27-9.72Zm-1.71,6.09a1.28,1.28,0,1,0-1.28,1.28A1.28,1.28,0,0,0,24.88,26.32Z"/><path class="cls-1" d="M23.6,25a1.28,1.28,0,1,1-1.28,1.28A1.28,1.28,0,0,1,23.6,25Zm.31,1.28a.31.31,0,1,0-.31.31A.3.3,0,0,0,23.91,26.32Z"/><circle class="cls-2" cx="23.6" cy="26.32" r="0.31"/><path class="cls-1" d="M20.62,20.23l-3.27,9.72-5,14.82S1.44,30.69.8,27C0,22.57,2.94,5.4,4.3,6,4.3,6,7.51,11.19,20.62,20.23ZM12.45,38.17a1.28,1.28,0,1,0-1.28,1.28A1.28,1.28,0,0,0,12.45,38.17Z"/><path class="cls-1" d="M11.17,36.89a1.28,1.28,0,1,1-1.28,1.28A1.28,1.28,0,0,1,11.17,36.89Zm.31,1.28a.31.31,0,1,0-.31.31A.3.3,0,0,0,11.48,38.17Z"/><circle class="cls-2" cx="11.17" cy="38.17" r="0.31"/><path class="cls-3" d="M20.62,20.23l-3.27,9.72-5,14.82S1.44,30.69.8,27C0,22.57,2.94,5.4,4.3,6,4.3,6,7.51,11.19,20.62,20.23Z"/><line class="cls-4" x1="5.18" y1="0.66" x2="5.18" y2="7.04"/><circle class="cls-5" cx="11.17" cy="38.17" r="1.28"/><path class="cls-3" d="M26.59,20.23l3.27,9.72L32.91,39l1.93,5.72s1.81-2.32,4-5.32C42,35,46,29.21,46.41,27,47.2,22.57,44.26,5.4,42.91,6,42.91,6,39.69,11.19,26.59,20.23Z"/><line class="cls-4" x1="42.03" y1="0.66" x2="42.03" y2="7.04"/><path class="cls-5" d="M36.75,39.23a1.28,1.28,0,1,0-2-1.06,1.4,1.4,0,0,0,0,.25,1.28,1.28,0,0,0,2,.81Z"/><line class="cls-5" x1="20.62" y1="20.23" x2="26.59" y2="20.23"/><path class="cls-5" d="M17.35,29.95a115.93,115.93,0,0,0,12.51,0"/><circle class="cls-5" cx="23.6" cy="26.32" r="1.28"/></g></g></svg>