<svg xmlns="http://www.w3.org/2000/svg" viewBox="0 0 128.54 181.85"><defs><style>.cls-1,.cls-5,.cls-9{fill:none;}.cls-1,.cls-2,.cls-3,.cls-5,.cls-7,.cls-8,.cls-9{stroke:#231f20;}.cls-1,.cls-2,.cls-3{stroke-linecap:round;}.cls-1,.cls-2,.cls-3,.cls-5,.cls-8{stroke-linejoin:round;}.cls-2,.cls-4,.cls-7,.cls-8{fill:#fff;}.cls-3,.cls-6{fill:#231f20;}.cls-7,.cls-9{stroke-miterlimit:10;}</style></defs><title>Asset 18</title><g id="Layer_2" data-name="Layer 2"><g id="Layer_1-2" data-name="Layer 1"><path class="cls-1" d="M66.78,46.55s-5,.16-7.44-3.61c-.78-1.22-1.2-2.3-2.74-6.8-1.35-3.94-1.3-10-1.3-24.86"/><path class="cls-1" d="M75.94,44.22l5.82-4.37a4.57,4.57,0,0,0,1.83-3.66V32.74"/><path class="cls-1" d="M61.91,31.25s4.46.85,6.8,0l-.38-1.66"/><path class="cls-1" d="M62.47,36.66a18.87,18.87,0,0,0,8.18,0"/><polyline class="cls-2" points="68.72 64.4 66.15 115.29 71.48 122.62 76.81 114.76 73.81 64.4"/><path class="cls-3" d="M63.72,37.33c1.22,1.28,4.73,1.12,5.68,0"/><path class="cls-3" d="M65.38,1.55A18.21,18.21,0,0,1,78.7,2a32.31,32.31,0,0,1,3.62,1.94,20.27,20.27,0,0,1,2.75,1.87,14.24,14.24,0,0,1,3.12,3.92A14.27,14.27,0,0,1,89.84,14a21.75,21.75,0,0,1,.26,3.9l.07,9.75a4.47,4.47,0,0,1-.18,1.6,4.5,4.5,0,0,1-2.06,2c-1.39.86-3,1.76-4.58,1.24a4.62,4.62,0,0,0,1.88-2.62A3.13,3.13,0,0,0,85,27.43a1.93,1.93,0,0,0-2.21-.85,31.62,31.62,0,0,1-2-8.65c-.21-2.48.06-5.36,2.06-6.83a36.16,36.16,0,0,1-6.06.61q-6.3.26-12.6.37A40.52,40.52,0,0,1,53,11.17c-.48-.13-1-.35-1.16-.84A1.47,1.47,0,0,1,52,9.46a7.62,7.62,0,0,1,2.27-3.55c.56-.4,1.22-.65,1.75-1.08s1-1.18,1.58-1.71c1.5-1.39,3.79-1.37,5.83-1.26a4.63,4.63,0,0,0,.89,0A5.3,5.3,0,0,0,65.38,1.55Z"/><rect class="cls-4" x="31.42" y="91.4" width="5.79" height="5.31"/><rect class="cls-4" x="37.21" y="91.4" width="5.79" height="5.31"/><rect class="cls-4" x="43" y="91.4" width="5.79" height="5.31"/><rect class="cls-4" x="48.79" y="91.4" width="5.8" height="5.31"/><rect class="cls-4" x="54.59" y="91.4" width="5.79" height="5.31"/><rect class="cls-4" x="60.38" y="91.4" width="5.79" height="5.31"/><rect class="cls-4" x="95.12" y="91.4" width="5.79" height="5.31"/><rect class="cls-4" x="89.33" y="91.4" width="5.79" height="5.31"/><rect class="cls-4" x="83.54" y="91.4" width="5.79" height="5.31"/><rect class="cls-4" x="77.75" y="91.4" width="5.79" height="5.31"/><rect class="cls-4" x="71.96" y="91.4" width="5.79" height="5.31"/><rect class="cls-4" x="66.17" y="91.4" width="5.79" height="5.31"/><polyline class="cls-5" points="27.28 91.4 31.42 91.4 37.21 91.4 43 91.4 48.79 91.4 54.59 91.4 60.38 91.4 66.17 91.4 71.96 91.4 77.75 91.4 83.54 91.4 89.33 91.4 95.12 91.4 100.91 91.4 106.29 91.4"/><polyline class="cls-5" points="26.1 96.71 31.42 96.71 37.21 96.71 43 96.71 48.79 96.71 54.59 96.71 60.38 96.71 66.17 96.71 71.96 96.71 77.75 96.71 83.54 96.71 89.33 96.71 95.12 96.71 100.91 96.71 105.79 96.71"/><line class="cls-5" x1="100.91" y1="91.4" x2="100.91" y2="96.71"/><line class="cls-5" x1="95.12" y1="91.4" x2="95.12" y2="96.71"/><line class="cls-5" x1="89.33" y1="91.4" x2="89.33" y2="96.71"/><line class="cls-5" x1="83.54" y1="91.4" x2="83.54" y2="96.71"/><line class="cls-5" x1="77.75" y1="91.4" x2="77.75" y2="96.71"/><line class="cls-5" x1="71.96" y1="91.4" x2="71.96" y2="96.71"/><line class="cls-5" x1="66.17" y1="91.4" x2="66.17" y2="96.71"/><line class="cls-5" x1="60.38" y1="91.4" x2="60.38" y2="96.71"/><line class="cls-5" x1="54.59" y1="91.4" x2="54.59" y2="96.71"/><line class="cls-5" x1="48.79" y1="91.4" x2="48.79" y2="96.71"/><line class="cls-5" x1="43" y1="91.4" x2="43" y2="96.71"/><line class="cls-5" x1="37.21" y1="91.4" x2="37.21" y2="96.71"/><line class="cls-5" x1="31.42" y1="91.4" x2="31.42" y2="96.71"/><path class="cls-1" d="M63.4,46.13v3.26"/><path class="cls-1" d="M71.48,56.12s-6.38,7.51-6.8,11.62c0,0-4-9.17-4.68-11.19-.31-.94-.87-5.1,2.47-7.15C62.47,49.39,70.68,55.55,71.48,56.12Z"/><path class="cls-1" d="M82.24,39.4l0,4.47A5.3,5.3,0,0,0,83,47"/><path class="cls-1" d="M83.59,46.55s-9.7,8-12.11,9.56c0,0,5.68,7.19,5.68,10.59,0,0,6.65-7.83,7.93-11S85.42,50,83.59,46.55Z"/><polyline class="cls-1" points="67.12 62.09 68.72 64.4 73.81 64.4 75.48 62.09"/><path class="cls-1" d="M59.76,54,37.48,56.63s-4.82,2.18-6.8,13.51-6.52,37.12-7.08,45.9-.85,15.58-1.7,21a18.1,18.1,0,0,0,1.42,9.92l.28,7.93H35.21a167.58,167.58,0,0,1,2-17c1.1-6.35,3.54-11.86,3.54-41"/><path class="cls-1" d="M85.67,52.57s12.73,1.32,21.51,4.06c0,0,7.08,1.89,9.92,13.23s13.88,37,10.2,71.85l-.89,9.61H114.74s-1.89-32.58-8.69-47.74"/><line class="cls-1" x1="23.39" y1="149.2" x2="35.68" y2="149.2"/><line class="cls-5" x1="114.31" y1="145.74" x2="127.12" y2="145.37"/><path class="cls-1" d="M36.27,65.23a93.31,93.31,0,0,1,4.15,21.49"/><path class="cls-1" d="M38.75,130.39c-.76,3.77.59,5.52,2.84,7s5.07,1.87,7.78,2.13c17.37,1.63,49.09.07,49.09.07,5.1-.43,4.68-7,4.68-7l5.1-68.21"/><path class="cls-1" d="M41.77,137.87c.46,12.27.23,28.53.7,40.8"/><path class="cls-1" d="M85.47,150.75c.84,9.91,1,19.47,1.73,28.76"/><path class="cls-1" d="M100.47,139s2.18,38.78,1.89,42.32"/><path class="cls-1" d="M54.19,149.9s1.28,11.62,1.28,25.08"/><line class="cls-1" x1="91.59" y1="150.75" x2="91.59" y2="153.73"/><line class="cls-1" x1="49.09" y1="148.34" x2="49.09" y2="152.24"/><line class="cls-1" x1="71.48" y1="122.62" x2="71.3" y2="140.31"/><path class="cls-6" d="M41.83,142.77c-.28.62,26.72,6.4,58.29-.05v-3.5s-37.85,4-58.35-1.34Z"/><rect class="cls-7" x="65.56" y="140.31" width="10.55" height="6.64" rx="0.96" ry="0.96"/><line class="cls-7" x1="69.14" y1="146.95" x2="69.14" y2="176.5"/><line class="cls-7" x1="72.96" y1="146.95" x2="72.96" y2="161.73"/><path class="cls-1" d="M8.15,154.86"/><path class="cls-8" d="M.5,128.16l3.08,4.36C31,112.76,30.89,96.71,30.89,96.71H29.32S26.64,112.11.5,128.16Z"/><path class="cls-2" d="M4.13,86.27a90,90,0,0,0,12-1.32c3.14-.56,6.54-1.26,9.39.17a13.83,13.83,0,0,1,1.84,1.17c1.45,1,6.32,5.21,7.73,7.23a1.3,1.3,0,0,1-1.6,1.92l-3.1-1.89c-1.8-.82-4-2.31-6-2.28a2.26,2.26,0,0,0-2.17,1.38,2.32,2.32,0,0,0,1.41,2.59,7.91,7.91,0,0,0,3.16.48,4.23,4.23,0,0,1,1.86.37,1.59,1.59,0,0,1,.91,1.55c-.14.85-1.1,1.27-1.94,1.47a21.73,21.73,0,0,1-13.16-.86C11.07,96.91,7.81,94.69,4.2,95"/><line class="cls-5" x1="4.13" y1="125.83" x2="7.05" y2="130.06"/><line class="cls-5" x1="7.53" y1="123.47" x2="10.3" y2="127.3"/><line class="cls-5" x1="10.44" y1="121.28" x2="13.17" y2="124.82"/><line class="cls-5" x1="13.17" y1="119.04" x2="15.87" y2="122.28"/><line class="cls-5" x1="15.69" y1="116.79" x2="18.29" y2="119.81"/><line class="cls-5" x1="17.64" y1="114.91" x2="20.28" y2="117.61"/><line class="cls-5" x1="19.9" y1="112.53" x2="22.36" y2="115.08"/><line class="cls-5" x1="21.57" y1="110.6" x2="24.13" y2="112.71"/><line class="cls-5" x1="23.29" y1="108.42" x2="25.71" y2="110.33"/><line class="cls-5" x1="24.75" y1="106.36" x2="27.28" y2="107.86"/><line class="cls-5" x1="26.19" y1="104.07" x2="28.55" y2="105.08"/><line class="cls-5" x1="27.52" y1="101.59" x2="29.68" y2="102.26"/><line class="cls-5" x1="28.42" y1="99.55" x2="30.39" y2="99.9"/><path class="cls-6" d="M60,23.57a1.7,1.7,0,1,1,1.7-1.7A1.7,1.7,0,0,1,60,23.57ZM60,21a.85.85,0,1,0,.85.85A.85.85,0,0,0,60,21Z"/><polygon class="cls-6" points="63.07 22.58 61.79 21.02 55.79 21.02 55.79 20.17 62.2 20.17 63.73 22.04 63.07 22.58"/><path class="cls-6" d="M70.79,21.87a1.7,1.7,0,1,1,1.7,1.7A1.7,1.7,0,0,1,70.79,21.87Zm.85,0a.85.85,0,1,0,.85-.85A.85.85,0,0,0,71.64,21.87Z"/><polygon class="cls-6" points="69.37 22.58 70.65 21.02 76.65 21.02 76.65 20.17 70.25 20.17 68.72 22.04 69.37 22.58"/><path class="cls-9" d="M35.57,166.55c.07,1.19-.38,1.31-1,1.33A1.52,1.52,0,0,1,33,166.62l-.06-2.47a.4.4,0,0,0-.25-.34l-2.6-1.2a.6.6,0,0,0-.49,0,.4.4,0,0,0-.25.35,11,11,0,0,0-.57,3.11,19.19,19.19,0,0,0,.57,3.72.37.37,0,0,0,.16.3l4.92,3.69c1.79.92,2.29,2.31,2.19,2.75h0c-1.47,0-7.28-2.77-11-4.7,0,0-1.73-6-1.73-9.36a31.4,31.4,0,0,1,1.29-7.58h7.51s3.17,4.13,3.17,6.46S35.57,166.55,35.57,166.55Z"/><path class="cls-9" d="M113.75,158.08c0-2.33,3.17-6.46,3.17-6.46h7.51a31.4,31.4,0,0,1,1.29,7.58c0,3.36-1.73,9.36-1.73,9.36-3.7,1.94-9.51,4.7-11,4.7h0c-.11-.44.4-1.83,2.19-2.75l4.92-3.69a.37.37,0,0,0,.16-.3,19.19,19.19,0,0,0,.57-3.72,11,11,0,0,0-.57-3.11.4.4,0,0,0-.25-.35.6.6,0,0,0-.49,0l-2.6,1.2a.4.4,0,0,0-.25.34l-.06,2.47a1.52,1.52,0,0,1-1.63,1.26c-.58,0-1-.14-1-1.33C114,163.3,113.75,160.4,113.75,158.08Z"/></g></g></svg>