<svg xmlns="http://www.w3.org/2000/svg" viewBox="0 0 48.5 44.52"><defs><style>.cls-1{fill:#fff;}.cls-2{fill:#231f20;}.cls-3,.cls-4{fill:none;stroke:#231f20;stroke-linejoin:round;stroke-width:1.33px;}.cls-4{stroke-linecap:round;}</style></defs><title>Asset 1</title><g id="Layer_2" data-name="Layer 2"><g id="Grid"><path class="cls-1" d="M29.25,30.62l-2.44-4.48-2.56-4.71c19.78-9.5,19.9-15.85,19.9-16,0,0,5.22,12.56,3.23,20.77S36.44,43.86,36.44,43.86Z"/><path class="cls-1" d="M26.81,26.14l2.44,4.48c-2,.13-3.72.18-5.21.18V29.06a1.27,1.27,0,0,0,1.06-2Z"/><path class="cls-1" d="M25.09,27.07a1.28,1.28,0,1,1-2.34.71,1.35,1.35,0,0,1,.1-.49A1.29,1.29,0,0,1,24,26.51,1.28,1.28,0,0,1,25.09,27.07Zm-.75.71a.3.3,0,0,0-.31-.31.31.31,0,1,0,0,.61A.3.3,0,0,0,24.34,27.78Z"/><path class="cls-1" d="M19.25,30.63,12.06,43.86s-9-9.45-10.95-17.66S4.35,5.42,4.35,5.42c0,.16.13,6.51,19.89,16l-2.78,5.1Z"/><circle class="cls-2" cx="24.03" cy="27.78" r="0.31"/><path class="cls-1" d="M24,29.06V30.8c-2.48,0-4.19-.12-4.79-.17l2.22-4.1,1.38.75a1.35,1.35,0,0,0-.1.49A1.28,1.28,0,0,0,24,29.06Z"/><path class="cls-3" d="M24.25,21.43l-2.78,5.1-2.22,4.1L12.06,43.86s-9-9.45-10.95-17.66S4.35,5.42,4.35,5.42C4.35,5.58,4.48,11.93,24.25,21.43Z"/><path class="cls-3" d="M24.25,21.43l2.56,4.71,2.44,4.48,7.19,13.23s9-9.45,10.94-17.66S44.15,5.42,44.15,5.42C44.15,5.58,44,11.93,24.25,21.43Z"/><path class="cls-3" d="M19,30.61l.24,0c.6.05,2.31.17,4.79.17,1.49,0,3.25,0,5.21-.18h.25"/><path class="cls-3" d="M25.09,27.07a1.28,1.28,0,1,1-2.34.71,1.35,1.35,0,0,1,.1-.49A1.29,1.29,0,0,1,24,26.51,1.28,1.28,0,0,1,25.09,27.07Z"/><line class="cls-4" x1="5.11" y1="0.66" x2="5.11" y2="7.38"/><line class="cls-4" x1="43.41" y1="0.66" x2="43.41" y2="7.38"/></g></g></svg>