<svg xmlns="http://www.w3.org/2000/svg" viewBox="0 0 86.49 215.92"><defs><style>.cls-1,.cls-2{fill:none;}.cls-1,.cls-2,.cls-3,.cls-4,.cls-5{stroke:#231f20;stroke-linejoin:round;}.cls-2,.cls-3{stroke-linecap:round;}.cls-3,.cls-4{fill:#fff;}</style></defs><title>Asset 8</title><g id="Layer_2" data-name="Layer 2"><g id="Layer_1-2" data-name="Layer 1"><path class="cls-1" d="M15.75.14s3.49,12.33,8.5,18.1"/><path class="cls-2" d="M24.09,23s-10.33,18.65-8,38.32c2,16.69,13.14,96.43,13.14,119.85,0,4.32.52,4.85.52,4.85l28,.28,3-160.69"/><line class="cls-2" x1="29.24" y1="181.15" x2="57.87" y2="181.15"/><path class="cls-3" d="M66.93,18.24l-1,49.44s0,10.15-6.26,16.29L61,18.24Z"/><line class="cls-4" x1="66.93" y1="22.22" x2="60.93" y2="22.22"/><line class="cls-4" x1="66.93" y1="25.89" x2="60.93" y2="25.89"/><line class="cls-4" x1="66.93" y1="29.55" x2="60.93" y2="29.55"/><line class="cls-4" x1="66.93" y1="33.21" x2="60.93" y2="33.21"/><line class="cls-4" x1="66.93" y1="36.87" x2="60.93" y2="36.87"/><line class="cls-4" x1="66.93" y1="40.54" x2="60.93" y2="40.54"/><line class="cls-4" x1="66.93" y1="44.2" x2="60.93" y2="44.2"/><line class="cls-4" x1="66.3" y1="47.86" x2="60.3" y2="47.86"/><line class="cls-4" x1="66.3" y1="51.53" x2="60.3" y2="51.53"/><line class="cls-4" x1="66.09" y1="55.19" x2="60.09" y2="55.19"/><line class="cls-4" x1="66.09" y1="58.85" x2="60.09" y2="58.85"/><line class="cls-4" x1="66.09" y1="62.51" x2="60.09" y2="62.51"/><line class="cls-4" x1="66.09" y1="66.18" x2="60.09" y2="66.18"/><line class="cls-4" x1="66.09" y1="69.84" x2="60.09" y2="69.84"/><line class="cls-4" x1="65.15" y1="73.5" x2="60.09" y2="73.5"/><line class="cls-4" x1="64.01" y1="77.17" x2="60.09" y2="77.17"/><path class="cls-1" d="M45.94,186.11c-.54,3.42-1.26,7.13.34,10.2,1.49,2.86,4.66,4.43,7.76,5.32s6.38,1.27,9.28,2.66,5.49,4.16,5.39,7.38a3.3,3.3,0,0,1-1.35,2.77,4.48,4.48,0,0,1-1.94.48c-7.19.67-14.88,1.23-21.18-2.28-1.46-.81-2.82-2.18-4.49-2.18-4.33,0-3.83,3.83-5.75,3.86-2.11,0-2,0-3.36-.06-5.2-4.48.45-20.16.06-28.59"/><path class="cls-1" d="M53.79,186.48c-.44,3.71.8,7.91,4,9.8a14.21,14.21,0,0,0,3,1.19L65.7,199c2.19.68,4.49,1.42,6.07,3.08s2.12,4.56.52,6.21a6.8,6.8,0,0,1-3.86,1.55"/><path class="cls-5" d="M36.91,186.3a60.12,60.12,0,0,0,.68,8.48c.16,1,.59,2.33,1.64,2.44a1.68,1.68,0,0,0,1.57-1,4.81,4.81,0,0,0,.37-1.94q.17-3.9.09-7.8"/><path class="cls-4" d="M29.26,23s-16,28.9-9.5,50.9l-1.55,3.93S5.69,58.09,24.09,23Z"/><line class="cls-1" x1="22.36" y1="26.55" x2="27.28" y2="26.55"/><line class="cls-1" x1="20.6" y1="30.51" x2="25.59" y2="30.51"/><line class="cls-1" x1="19.28" y1="33.88" x2="24.25" y2="33.88"/><line class="cls-1" x1="17.78" y1="37.26" x2="22.75" y2="37.26"/><line class="cls-1" x1="17.28" y1="40.64" x2="22.25" y2="40.64"/><line class="cls-1" x1="16.36" y1="44.02" x2="20.75" y2="44.02"/><line class="cls-1" x1="15.2" y1="47.4" x2="20.25" y2="47.4"/><line class="cls-1" x1="14.75" y1="50.78" x2="19.25" y2="50.78"/><line class="cls-1" x1="14.26" y1="54.16" x2="18.75" y2="54.16"/><line class="cls-1" x1="14.26" y1="57.54" x2="18.25" y2="57.54"/><line class="cls-1" x1="14.09" y1="60.91" x2="18.25" y2="60.91"/><line class="cls-1" x1="14.26" y1="64.29" x2="18.25" y2="64.29"/><line class="cls-1" x1="14.75" y1="67.67" x2="18.75" y2="67.67"/><line class="cls-1" x1="15.75" y1="71.05" x2="18.75" y2="71.05"/><line class="cls-1" x1="16.25" y1="74.43" x2="19.75" y2="74.43"/><path class="cls-4" d="M23.09,17.36S43.63,19.89,62,19.26v5.62s-29.27,0-39.26-1.9Z"/><line class="cls-1" x1="25.95" y1="17.68" x2="25.95" y2="23.45"/><line class="cls-1" x1="29.26" y1="18.24" x2="29.26" y2="24.01"/><line class="cls-1" x1="32.57" y1="18.42" x2="32.57" y2="24.19"/><line class="cls-1" x1="35.93" y1="18.79" x2="35.93" y2="24.57"/><line class="cls-1" x1="39.28" y1="18.79" x2="39.28" y2="24.57"/><line class="cls-1" x1="42.64" y1="18.79" x2="42.64" y2="24.57"/><line class="cls-1" x1="45.99" y1="18.79" x2="45.99" y2="24.57"/><line class="cls-1" x1="49.35" y1="18.79" x2="49.35" y2="24.57"/><line class="cls-1" x1="52.7" y1="19.34" x2="52.7" y2="25.11"/><line class="cls-1" x1="56.06" y1="19.34" x2="56.06" y2="25.11"/><line class="cls-1" x1="59.41" y1="19.34" x2="59.41" y2="25.11"/><path class="cls-4" d="M63.09,5.64s-1,7.85-2.33,13.66"/><path class="cls-3" d="M.5,25.16A80.1,80.1,0,0,0,9,18.54c2.11-1.9,4.36-4,7.18-4.27a12.3,12.3,0,0,1,1.94,0,45,45,0,0,1,9.23,1.85,1.15,1.15,0,0,1-.31,2.2l-3.23,0c-1.75.22-4.11.13-5.63,1.1a2,2,0,0,0-1,2.06,2.06,2.06,0,0,0,2.28,1.3A7,7,0,0,0,22,21.7a3.76,3.76,0,0,1,1.58-.59,1.41,1.41,0,0,1,1.41.75c.29.71-.24,1.47-.78,2A19.33,19.33,0,0,1,13.9,29.39c-3.17.57-6.68.42-9.26,2.35"/><path class="cls-3" d="M86,28.06a80.1,80.1,0,0,1-8.47-6.62c-2.11-1.9-4.36-4-7.18-4.27a12.3,12.3,0,0,0-1.94,0A45,45,0,0,0,59.17,19a1.15,1.15,0,0,0,.31,2.2l3.23,0c1.75.22,4.11.13,5.63,1.1a2,2,0,0,1,1,2.06,2.06,2.06,0,0,1-2.28,1.3,7,7,0,0,1-2.61-1.11A3.76,3.76,0,0,0,62.87,24a1.41,1.41,0,0,0-1.41.75c-.29.71.24,1.47.78,2a19.33,19.33,0,0,0,10.36,5.51c3.17.57,6.68.42,9.26,2.35"/></g></g></svg>