<svg xmlns="http://www.w3.org/2000/svg" viewBox="0 0 104.42 197.87"><defs><style>.cls-1{fill:none;}.cls-1,.cls-2,.cls-3{stroke:#231f20;stroke-linejoin:round;}.cls-2,.cls-3{fill:#fff;}.cls-3{stroke-linecap:round;}</style></defs><title>Asset 8</title><g id="Layer_2" data-name="Layer 2"><g id="Layer_1-2" data-name="Layer 1"><path class="cls-1" d="M26.76,20.1s1,129.43,2.33,152.39c0,0,10.33,3.37,18.67-1l6.67-117s10.67,85.91,15.67,112c0,0,13,4.46,17.67-2.08L81.09,20.1S58.76,28.07,26.76,20.1Z"/><path class="cls-1" d="M28.8,165.79s11.6,2.67,19.28,0"/><path class="cls-1" d="M69,160.11s13.16,2.8,18.48-2.6"/><path class="cls-1" d="M38.44,22.41s-.35,117-3,144.67"/><path class="cls-1" d="M69,29.09s3.35,95,9.24,131.69"/><polyline class="cls-1" points="53.42 27.2 53.42 53.03 59.67 53.03"/><path class="cls-1" d="M83.42,2.71s.33,11.78-2.33,17.39"/><path class="cls-1" d="M18.55,1.68a8.11,8.11,0,0,0,1.23,6.51A19.89,19.89,0,0,0,24.6,13"/><path class="cls-1" d="M2.17.2S-2.58,10.95,3.92,15.95A148.38,148.38,0,0,1,18.3,29.4l8.46-9.31c-3.17-6.61-1.83-17.39-1.83-17.39"/><path class="cls-1" d="M103.92,2.71S99.1,27.17,82.26,34.43"/><path class="cls-1" d="M20.3,27.2s3.29,3,6.46,3"/><line class="cls-1" x1="55.17" y1="4.59" x2="55.17" y2="23.64"/><path class="cls-1" d="M84.52,167c.9,3.95,4,7,5.33,10.88a12.78,12.78,0,0,1,.7,4.19c0,5.45-3.43,10.23-6.7,14.59a1.85,1.85,0,0,1-.72.66c-.65.26-1.33-.26-1.81-.77a31.3,31.3,0,0,1-4.62-7.42c-.64-1.28-1.28-2.56-1.78-3.89a25.76,25.76,0,0,1,.49-18"/><path class="cls-1" d="M30,172.85a4,4,0,0,1-1.56,1.64c-.44.25-.92.42-1.34.7a4.75,4.75,0,0,0-1.14,1.23c-3,4.32-3.82,9.88-6.82,14.21l-.7.24"/><path class="cls-1" d="M45.91,172.7l0,9.24a4.36,4.36,0,0,1-.31,2,3.76,3.76,0,0,1-1.7,1.49c-1.76.93-3.71,1.47-5.39,2.54-2.8,1.78-4.73,5-7.91,5.89"/><path class="cls-2" d="M28.58,168.06l2.35,2.33-2.35-2.33q-1.07.93-2.19,2l2.78,2.19-2.78-2.19q-1.13,1.08-2.3,2.32L27,174.73l-2.94-2.35q-1,1-2,2.2l3.26,2.28-3.26-2.28q-1.09,1.25-2.21,2.65l3.49,2.36-3.49-2.36q-1.12,1.4-2.25,2.94l3.79,2.36-3.79-2.36c-.73,1-1.46,2-2.19,3.1l4.09,2.37-4.09-2.37c-.77,1.13-1.54,2.33-2.32,3.57l4.39,2.42-4.39-2.42c-.73,1.17-1.46,2.37-2.2,3.64l4.64,2.63c8.27-15.59,15.36-22.73,15.36-22.73"/><path class="cls-3" d="M28.84,166.75s7.46,2.84,19.17.33l-.18,3.16c0-.13-7.57,4-18.81,1Z"/><line class="cls-2" x1="30.94" y1="167.33" x2="30.94" y2="171.81"/><line class="cls-2" x1="33.61" y1="167.8" x2="33.61" y2="172.09"/><line class="cls-2" x1="36.41" y1="168.06" x2="36.41" y2="172.3"/><line class="cls-2" x1="39.03" y1="168.11" x2="39.03" y2="172.01"/><line class="cls-2" x1="41.91" y1="167.98" x2="41.91" y2="172.01"/><line class="cls-2" x1="44.67" y1="167.67" x2="44.67" y2="171.39"/><line class="cls-2" x1="46.75" y1="167.33" x2="46.75" y2="170.66"/><path class="cls-3" d="M8.08,162.47a72.69,72.69,0,0,0,9.7-1.07c2.54-.45,5.28-1,7.58.13a11.16,11.16,0,0,1,1.49.95,40.8,40.8,0,0,1,6.24,5.84,1,1,0,0,1-1.29,1.55l-2.5-1.53c-1.46-.66-3.23-1.86-4.87-1.84a1.83,1.83,0,0,0-1.76,1.11,1.87,1.87,0,0,0,1.14,2.09,6.38,6.38,0,0,0,2.55.39,3.42,3.42,0,0,1,1.51.3,1.28,1.28,0,0,1,.73,1.25c-.11.69-.89,1-1.57,1.19a17.54,17.54,0,0,1-10.62-.7c-2.72-1.07-5.35-2.87-8.26-2.61"/></g></g></svg>