<svg xmlns="http://www.w3.org/2000/svg" viewBox="0 0 148.55 213.76"><defs><style>.cls-1,.cls-5{fill:none;}.cls-1,.cls-2,.cls-3,.cls-4,.cls-5{stroke:#231f20;}.cls-1,.cls-3,.cls-4{stroke-linecap:round;}.cls-1,.cls-3,.cls-4,.cls-5{stroke-linejoin:round;}.cls-2,.cls-4,.cls-7{fill:#fff;}.cls-2{stroke-miterlimit:10;}.cls-3,.cls-6{fill:#231f20;}</style></defs><title>Asset 20</title><g id="Layer_2" data-name="Layer 2"><g id="Layer_1-2" data-name="Layer 1"><path class="cls-1" d="M69,54.68s-5.9.19-8.75-4.25c-.92-1.43-1.41-2.71-3.22-8-1.59-4.64-1.53-11.73-1.53-29.25" transform="translate(-3.15)"/><path class="cls-1" d="M79.75,51.93l6.85-5.14a5.38,5.38,0,0,0,2.15-4.3V38.43" transform="translate(-3.15)"/><path class="cls-1" d="M63.25,36.68s5.25,1,8,0l-.44-2" transform="translate(-3.15)"/><path class="cls-2" d="M33.07,195.84c.08,1.4-.45,1.54-1.13,1.57A1.79,1.79,0,0,1,30,195.92L29.94,193a.47.47,0,0,0-.3-.4l-3.06-1.41a.7.7,0,0,0-.58,0,.47.47,0,0,0-.29.41,12.88,12.88,0,0,0-.67,3.65,22.58,22.58,0,0,0,.67,4.37.44.44,0,0,0,.19.35l5.79,4.34c2.1,1.08,2.7,2.72,2.57,3.23h0c-1.73,0-8.57-3.26-12.92-5.53,0,0-2-7-2-11a36.94,36.94,0,0,1,1.52-8.92h8.83s3.73,4.86,3.73,7.6S33.07,195.84,33.07,195.84Z" transform="translate(-3.15)"/><path class="cls-2" d="M125,185.65c0-2.74,3.73-7.6,3.73-7.6h8.83a36.94,36.94,0,0,1,1.52,8.92c0,4-2,11-2,11-4.35,2.28-11.19,5.53-12.92,5.53h0c-.13-.51.47-2.15,2.57-3.23l5.79-4.34a.44.44,0,0,0,.19-.35,22.58,22.58,0,0,0,.67-4.37,12.88,12.88,0,0,0-.67-3.65.47.47,0,0,0-.29-.41.7.7,0,0,0-.58,0l-3.06,1.41a.47.47,0,0,0-.3.4l-.07,2.91a1.79,1.79,0,0,1-1.92,1.49c-.68,0-1.21-.17-1.13-1.57C125.35,191.8,125,188.39,125,185.65Z" transform="translate(-3.15)"/><path class="cls-1" d="M63.91,43a22.2,22.2,0,0,0,9.63,0" transform="translate(-3.15)"/><path class="cls-3" d="M65.38,43.83c1.44,1.5,5.56,1.31,6.69,0" transform="translate(-3.15)"/><path class="cls-3" d="M67.32,1.74A21.42,21.42,0,0,1,83,2.25a38,38,0,0,1,4.26,2.29,23.85,23.85,0,0,1,3.23,2.2,16.75,16.75,0,0,1,3.67,4.61,16.78,16.78,0,0,1,1.94,5.06A25.59,25.59,0,0,1,96.41,21l.09,11.47a5.25,5.25,0,0,1-.21,1.88,5.3,5.3,0,0,1-2.42,2.37c-1.64,1-3.56,2.07-5.38,1.45a5.44,5.44,0,0,0,2.21-3.08,3.68,3.68,0,0,0-.31-2.91,2.27,2.27,0,0,0-2.6-1A37.2,37.2,0,0,1,85.46,21c-.24-2.92.07-6.3,2.43-8a42.54,42.54,0,0,1-7.13.71q-7.41.31-14.83.43c-4.42.07-8.9.09-13.17-1-.57-.15-1.22-.41-1.36-1a1.73,1.73,0,0,1,.18-1,9,9,0,0,1,2.68-4.17c.66-.47,1.44-.76,2.06-1.27s1.19-1.39,1.86-2C59.95,2,62.63,2,65,2.12a5.45,5.45,0,0,0,1,0A6.23,6.23,0,0,0,67.32,1.74Z" transform="translate(-3.15)"/><path class="cls-1" d="M65,54.18V58" transform="translate(-3.15)"/><path class="cls-1" d="M74.5,65.93s-7.5,8.83-8,13.67c0,0-4.71-10.79-5.5-13.17-.37-1.11-1-6,2.91-8.42C63.91,58,73.56,65.26,74.5,65.93Z" transform="translate(-3.15)"/><path class="cls-1" d="M87.16,46.26l0,5.26A6.24,6.24,0,0,0,88,55.26" transform="translate(-3.15)"/><path class="cls-1" d="M88.75,54.68S77.33,64.1,74.5,65.93c0,0,6.68,8.46,6.68,12.46,0,0,7.82-9.21,9.32-13S90.91,58.68,88.75,54.68Z" transform="translate(-3.15)"/><polyline class="cls-4" points="68.1 75.68 65.08 135.54 71.35 144.17 77.61 134.92 74.1 75.68"/><polyline class="cls-1" points="66.22 72.95 68.1 75.68 74.1 75.68 76.05 72.95"/><path class="cls-1" d="M60.72,63.43,34.5,66.54s-5.66,2.56-8,15.89-7.66,43.67-8.33,54-1,18.33-2,24.67a21.26,21.26,0,0,0,1.67,11.66l.33,9.34H31.84a197.82,197.82,0,0,1,2.33-20c1.29-7.47,4.16-14,4.16-48.29" transform="translate(-3.15)"/><path class="cls-1" d="M91.19,61.76s15,1.55,25.31,4.77c0,0,8.33,2.23,11.67,15.56s16.33,43.5,12,84.53l-1,11.3H125.39s-2.23-38.33-10.23-56.17" transform="translate(-3.15)"/><line class="cls-1" x1="14.78" y1="175.43" x2="29.23" y2="175.43"/><line class="cls-5" x1="121.74" y1="171.37" x2="136.81" y2="170.93"/><path class="cls-1" d="M33.08,76.65A109.77,109.77,0,0,1,38,101.93" transform="translate(-3.15)"/><path class="cls-1" d="M36,153.31c-.89,4.43.69,6.49,3.34,8.29s6,2.2,9.15,2.5c20.43,1.92,57.75.08,57.75.08,6-.5,5.5-8.25,5.5-8.25l6-80.25" transform="translate(-3.15)"/><path class="cls-1" d="M39.55,162.11c.55,14.44.27,33.56.82,48" transform="translate(-3.15)"/><path class="cls-1" d="M91,177.26c1,11.66,1.18,22.91,2,33.83" transform="translate(-3.15)"/><path class="cls-1" d="M108.6,163.48s2.56,45.62,2.23,49.79" transform="translate(-3.15)"/><path class="cls-1" d="M54.17,176.26s1.5,13.67,1.5,29.5" transform="translate(-3.15)"/><line class="cls-1" x1="95.01" y1="177.26" x2="95.01" y2="180.76"/><line class="cls-1" x1="45.01" y1="174.43" x2="45.01" y2="179.01"/><line class="cls-1" x1="71.35" y1="144.17" x2="71.14" y2="164.97"/><path class="cls-6" d="M39.62,167.87c-.33.73,31.43,7.53,68.57-.06v-4.12s-44.53,4.66-68.65-1.58Z" transform="translate(-3.15)"/><rect class="cls-2" x="64.38" y="164.97" width="12.41" height="7.82" rx="1.13" ry="1.13"/><line class="cls-2" x1="68.6" y1="172.79" x2="68.6" y2="207.55"/><line class="cls-2" x1="73.1" y1="172.79" x2="73.1" y2="190.17"/><path class="cls-1" d="M0,182.1" transform="translate(-3.15)"/><polygon class="cls-7" points="126.59 87.82 128.58 94.07 123.59 94.07 123.59 87.82 126.59 87.82"/><rect class="cls-7" x="118.1" y="87.82" width="5.49" height="6.25"/><rect class="cls-7" x="112.17" y="87.82" width="5.93" height="6.25"/><rect class="cls-7" x="106.24" y="87.82" width="5.93" height="6.25"/><rect class="cls-7" x="100.32" y="87.82" width="5.92" height="6.25"/><rect class="cls-7" x="94.46" y="87.82" width="5.86" height="6.25"/><rect class="cls-7" x="87.65" y="87.82" width="6.81" height="6.25"/><rect class="cls-7" x="80.83" y="87.82" width="6.82" height="6.25"/><rect class="cls-7" x="74.02" y="87.82" width="6.81" height="6.25"/><rect class="cls-7" x="67.21" y="87.82" width="6.81" height="6.25"/><rect class="cls-7" x="60.4" y="87.82" width="6.81" height="6.25"/><rect class="cls-7" x="53.58" y="87.82" width="6.82" height="6.25"/><rect class="cls-7" x="46.77" y="87.82" width="6.81" height="6.25"/><rect class="cls-7" x="39.96" y="87.82" width="6.81" height="6.25"/><rect class="cls-7" x="33.15" y="87.82" width="6.81" height="6.25"/><rect class="cls-7" x="26.33" y="87.82" width="6.82" height="6.25"/><polyline class="cls-5" points="20.51 87.82 26.33 87.82 33.15 87.82 39.96 87.82 46.77 87.82 53.58 87.82 60.4 87.82 67.21 87.82 74.02 87.82 80.83 87.82 87.65 87.82 94.46 87.82 100.32 87.82 106.24 87.82 112.17 87.82 118.1 87.82 123.59 87.82 126.59 87.82 127 87.82"/><polyline class="cls-5" points="21.09 94.07 26.33 94.07 33.15 94.07 39.96 94.07 46.77 94.07 53.58 94.07 60.4 94.07 67.21 94.07 74.02 94.07 80.83 94.07 87.65 94.07 94.46 94.07 100.32 94.07 106.24 94.07 112.17 94.07 118.1 94.07 123.59 94.07 128.58 94.07"/><line class="cls-5" x1="94.46" y1="87.82" x2="94.46" y2="94.07"/><line class="cls-5" x1="100.32" y1="87.82" x2="100.32" y2="94.07"/><line class="cls-5" x1="106.24" y1="87.82" x2="106.24" y2="94.07"/><line class="cls-5" x1="112.17" y1="87.82" x2="112.17" y2="94.07"/><line class="cls-5" x1="118.1" y1="87.82" x2="118.1" y2="94.07"/><line class="cls-5" x1="123.59" y1="87.82" x2="123.59" y2="94.07"/><line class="cls-5" x1="126.59" y1="87.82" x2="128.58" y2="94.07"/><line class="cls-5" x1="87.65" y1="87.82" x2="87.65" y2="94.07"/><line class="cls-5" x1="80.83" y1="87.82" x2="80.83" y2="94.07"/><line class="cls-5" x1="74.02" y1="87.82" x2="74.02" y2="94.07"/><line class="cls-5" x1="67.21" y1="87.82" x2="67.21" y2="94.07"/><line class="cls-5" x1="60.4" y1="87.82" x2="60.4" y2="94.07"/><line class="cls-5" x1="53.58" y1="87.82" x2="53.58" y2="94.07"/><line class="cls-5" x1="46.77" y1="87.82" x2="46.77" y2="94.07"/><line class="cls-5" x1="39.96" y1="87.82" x2="39.96" y2="94.07"/><line class="cls-5" x1="33.15" y1="87.82" x2="33.15" y2="94.07"/><line class="cls-5" x1="26.33" y1="87.82" x2="26.33" y2="94.07"/><path class="cls-4" d="M3.65,118A105.93,105.93,0,0,0,6.9,104.14c.61-3.7,1.17-7.74,3.87-10.35a16.27,16.27,0,0,1,2-1.58c1.72-1.2,8.26-5,11.05-5.74A1.53,1.53,0,0,1,25.36,89L22,91.69c-1.62,1.68-4.13,3.54-4.9,5.79a2.66,2.66,0,0,0,.68,3,2.73,2.73,0,0,0,3.42-.55A9.3,9.3,0,0,0,23,96.58a5,5,0,0,1,1.14-1.92,1.87,1.87,0,0,1,2.08-.39c.89.49,1,1.72.87,2.73A25.57,25.57,0,0,1,21,111.25c-2.8,3.21-6.54,6-7.61,10.08" transform="translate(-3.15)"/><path class="cls-4" d="M151.2,118A105.93,105.93,0,0,1,148,104.14c-.61-3.7-1.17-7.74-3.87-10.35a16.27,16.27,0,0,0-2-1.58c-1.72-1.2-8.26-5-11.05-5.74A1.53,1.53,0,0,0,129.5,89l3.32,2.69c1.62,1.68,4.13,3.54,4.9,5.79a2.66,2.66,0,0,1-.68,3,2.73,2.73,0,0,1-3.42-.55,9.3,9.3,0,0,1-1.77-3.31,5,5,0,0,0-1.14-1.92,1.87,1.87,0,0,0-2.08-.39c-.89.49-1,1.72-.87,2.73a25.57,25.57,0,0,0,6.12,14.25c2.8,3.21,6.54,6,7.61,10.08" transform="translate(-3.15)"/><path class="cls-6" d="M60.24,29.11a2,2,0,1,1,2-2A2,2,0,0,1,60.24,29.11Zm0-3a1,1,0,1,0,1,1A1,1,0,0,0,60.24,26.11Z" transform="translate(-3.15)"/><polygon class="cls-6" points="60.75 27.95 59.24 26.11 52.19 26.11 52.19 25.11 59.72 25.11 61.52 27.32 60.75 27.95"/><path class="cls-6" d="M73,27.11a2,2,0,1,1,2,2A2,2,0,0,1,73,27.11Zm1,0a1,1,0,1,0,1-1A1,1,0,0,0,74,27.11Z" transform="translate(-3.15)"/><polygon class="cls-6" points="68.16 27.95 69.67 26.11 76.72 26.11 76.72 25.11 69.19 25.11 67.39 27.32 68.16 27.95"/></g></g></svg>