<svg xmlns="http://www.w3.org/2000/svg" viewBox="0 0 114.1 194.14"><defs><style>.cls-1,.cls-4,.cls-7,.cls-9{fill:none;}.cls-1,.cls-10,.cls-2,.cls-3,.cls-4,.cls-6,.cls-7,.cls-9{stroke:#231f20;}.cls-1,.cls-2,.cls-3{stroke-linecap:round;}.cls-1,.cls-10,.cls-2,.cls-3,.cls-4,.cls-9{stroke-linejoin:round;}.cls-2,.cls-5{fill:#231f20;}.cls-10,.cls-3,.cls-6,.cls-8{fill:#fff;}.cls-6,.cls-7{stroke-miterlimit:10;}.cls-9{stroke-linecap:square;}</style></defs><title>Asset 11</title><g id="Layer_2" data-name="Layer 2"><g id="Layer_1-2" data-name="Layer 1"><path class="cls-1" d="M58.63,46.55s-5,.16-7.44-3.61c-.78-1.22-1.2-2.3-2.74-6.8-1.35-3.94-1.3-10-1.3-24.86" transform="translate(-6.29)"/><path class="cls-1" d="M67.79,44.22l5.82-4.37a4.57,4.57,0,0,0,1.83-3.66V32.74" transform="translate(-6.29)"/><path class="cls-1" d="M53.76,31.25s4.46.85,6.8,0l-.38-1.66" transform="translate(-6.29)"/><path class="cls-1" d="M54.32,36.66a18.87,18.87,0,0,0,8.18,0" transform="translate(-6.29)"/><path class="cls-2" d="M55.57,37.33c1.22,1.28,4.73,1.12,5.68,0" transform="translate(-6.29)"/><path class="cls-2" d="M57.23,1.55A18.21,18.21,0,0,1,70.55,2a32.31,32.31,0,0,1,3.62,1.94,20.27,20.27,0,0,1,2.75,1.87A14.24,14.24,0,0,1,80,9.73,14.27,14.27,0,0,1,81.69,14a21.75,21.75,0,0,1,.26,3.9L82,27.67a4.47,4.47,0,0,1-.18,1.6,4.5,4.5,0,0,1-2.06,2c-1.39.86-3,1.76-4.58,1.24a4.62,4.62,0,0,0,1.88-2.62,3.13,3.13,0,0,0-.26-2.47,1.93,1.93,0,0,0-2.21-.85,31.62,31.62,0,0,1-2-8.65c-.21-2.48.06-5.36,2.06-6.83a36.16,36.16,0,0,1-6.06.61q-6.3.26-12.6.37a40.52,40.52,0,0,1-11.19-.89c-.48-.13-1-.35-1.16-.84a1.47,1.47,0,0,1,.16-.88,7.62,7.62,0,0,1,2.27-3.55c.56-.4,1.22-.65,1.75-1.08s1-1.18,1.58-1.71c1.5-1.39,3.79-1.37,5.83-1.26a4.63,4.63,0,0,0,.89,0A5.3,5.3,0,0,0,57.23,1.55Z" transform="translate(-6.29)"/><path class="cls-1" d="M55.25,46.13v3.26" transform="translate(-6.29)"/><path class="cls-1" d="M63.33,56.12S57,63.62,56.53,67.73c0,0-4-9.17-4.68-11.19-.31-.94-.87-5.1,2.47-7.15C54.32,49.39,62.53,55.55,63.33,56.12Z" transform="translate(-6.29)"/><path class="cls-1" d="M74.09,39.4l0,4.47a5.3,5.3,0,0,0,.7,3.18" transform="translate(-6.29)"/><path class="cls-1" d="M75.44,46.55s-9.7,8-12.11,9.56c0,0,5.68,7.19,5.68,10.59,0,0,6.65-7.83,7.93-11S77.27,50,75.44,46.55Z" transform="translate(-6.29)"/><polyline class="cls-3" points="54.28 64.4 51.71 115.29 57.04 122.62 62.37 114.76 59.38 64.4"/><polyline class="cls-1" points="52.68 62.09 54.28 64.4 59.38 64.4 61.04 62.09"/><path class="cls-1" d="M51.61,54,29.33,56.63s-4.82,2.18-6.8,13.51S16,107.26,15.44,116s-.85,15.58-1.7,21a18.1,18.1,0,0,0,1.42,9.92l.28,7.93H27.06a167.58,167.58,0,0,1,2-17c1.1-6.35,3.54-11.86,3.54-41" transform="translate(-6.29)"/><path class="cls-1" d="M77.52,52.57S90.24,53.89,99,56.63c0,0,7.08,1.89,9.92,13.23s13.88,37,10.2,71.85l-.89,9.61H106.59s-1.89-32.58-8.69-47.74" transform="translate(-6.29)"/><line class="cls-1" x1="8.95" y1="149.2" x2="21.24" y2="149.2"/><line class="cls-4" x1="99.88" y1="145.74" x2="112.68" y2="145.37"/><path class="cls-1" d="M28.12,65.23a93.31,93.31,0,0,1,4.15,21.49" transform="translate(-6.29)"/><path class="cls-1" d="M30.6,130.39c-.76,3.77.59,5.52,2.84,7s5.07,1.87,7.78,2.13c17.37,1.63,49.09.07,49.09.07,5.1-.43,4.68-7,4.68-7l5.1-68.21" transform="translate(-6.29)"/><path class="cls-1" d="M33.62,137.87c.46,12.27.23,28.53.7,40.8" transform="translate(-6.29)"/><path class="cls-1" d="M77.32,150.75c.84,9.91,1,19.47,1.73,28.76" transform="translate(-6.29)"/><path class="cls-1" d="M92.32,139s2.18,38.78,1.89,42.32" transform="translate(-6.29)"/><path class="cls-1" d="M46,149.9s1.28,11.62,1.28,25.08" transform="translate(-6.29)"/><line class="cls-1" x1="77.16" y1="150.75" x2="77.16" y2="153.73"/><line class="cls-1" x1="34.66" y1="148.34" x2="34.66" y2="152.24"/><line class="cls-1" x1="57.04" y1="122.62" x2="56.86" y2="140.31"/><path class="cls-5" d="M33.68,142.77c-.28.62,26.72,6.4,58.29-.05v-3.5s-37.85,4-58.35-1.34Z" transform="translate(-6.29)"/><rect class="cls-6" x="51.12" y="140.31" width="10.55" height="6.64" rx="0.96" ry="0.96"/><line class="cls-6" x1="54.7" y1="146.95" x2="54.7" y2="176.5"/><path class="cls-7" d="M27.74,166.23c.07,1.19-.38,1.31-1,1.33a1.52,1.52,0,0,1-1.63-1.26l-.06-2.47a.4.4,0,0,0-.25-.34l-2.6-1.2a.6.6,0,0,0-.49,0,.4.4,0,0,0-.25.35,11,11,0,0,0-.57,3.11,19.19,19.19,0,0,0,.57,3.72.37.37,0,0,0,.16.3l4.92,3.69c1.79.92,2.29,2.31,2.19,2.75h0c-1.47,0-7.28-2.77-11-4.7,0,0-1.73-6-1.73-9.36a31.4,31.4,0,0,1,1.29-7.58h7.51S28,158.68,28,161,27.74,166.23,27.74,166.23Z" transform="translate(-6.29)"/><path class="cls-7" d="M105.92,157.76c0-2.33,3.17-6.46,3.17-6.46h7.51a31.4,31.4,0,0,1,1.29,7.58c0,3.36-1.73,9.36-1.73,9.36-3.7,1.94-9.51,4.7-11,4.7h0c-.11-.44.4-1.83,2.19-2.75l4.92-3.69a.37.37,0,0,0,.16-.3,19.19,19.19,0,0,0,.57-3.72,11,11,0,0,0-.57-3.11.4.4,0,0,0-.25-.35.6.6,0,0,0-.49,0l-2.6,1.2a.4.4,0,0,0-.25.34l-.06,2.47a1.52,1.52,0,0,1-1.63,1.26c-.58,0-1-.14-1-1.33C106.19,163,105.92,160.08,105.92,157.76Z" transform="translate(-6.29)"/><line class="cls-6" x1="58.53" y1="146.95" x2="58.53" y2="161.73"/><path class="cls-1" d="M0,154.86" transform="translate(-6.29)"/><polygon class="cls-8" points="86.47 152.52 86.99 157.83 80.68 157.83 80.68 152.52 86.47 152.52"/><rect class="cls-8" x="74.89" y="152.52" width="5.8" height="5.31"/><rect class="cls-8" x="69.1" y="152.52" width="5.79" height="5.31"/><rect class="cls-8" x="63.31" y="152.52" width="5.79" height="5.31"/><rect class="cls-8" x="57.52" y="152.52" width="5.79" height="5.31"/><rect class="cls-8" x="51.72" y="152.52" width="5.8" height="5.31"/><rect class="cls-8" x="45.93" y="152.52" width="5.79" height="5.31"/><rect class="cls-8" x="40.15" y="152.52" width="5.79" height="5.31"/><rect class="cls-8" x="34.36" y="152.52" width="5.79" height="5.31"/><rect class="cls-8" x="28.56" y="152.52" width="5.8" height="5.31"/><polyline class="cls-4" points="24.11 152.52 28.56 152.52 34.36 152.52 40.15 152.52 45.94 152.52 51.72 152.52 57.52 152.52 63.31 152.52 69.1 152.52 74.89 152.52 80.68 152.52 86.47 152.52 86.77 152.52"/><polyline class="cls-4" points="24.11 157.83 28.56 157.83 34.36 157.83 40.15 157.83 45.94 157.83 51.72 157.83 57.52 157.83 63.31 157.83 69.1 157.83 74.89 157.83 80.68 157.83 86.99 157.83"/><line class="cls-9" x1="86.47" y1="152.52" x2="86.99" y2="157.83"/><line class="cls-4" x1="80.68" y1="152.52" x2="80.68" y2="157.83"/><line class="cls-4" x1="74.89" y1="152.52" x2="74.89" y2="157.83"/><line class="cls-4" x1="69.1" y1="152.52" x2="69.1" y2="157.83"/><line class="cls-4" x1="63.31" y1="152.52" x2="63.31" y2="157.83"/><line class="cls-4" x1="57.52" y1="152.52" x2="57.52" y2="157.83"/><line class="cls-4" x1="51.72" y1="152.52" x2="51.72" y2="157.83"/><line class="cls-4" x1="45.93" y1="152.52" x2="45.93" y2="157.83"/><line class="cls-4" x1="40.15" y1="152.52" x2="40.15" y2="157.83"/><line class="cls-4" x1="34.36" y1="152.52" x2="34.36" y2="157.83"/><line class="cls-4" x1="28.56" y1="152.52" x2="28.56" y2="157.83"/><path class="cls-3" d="M10.42,147.39a90,90,0,0,0,12-1.32c3.14-.56,6.54-1.26,9.39.17a13.83,13.83,0,0,1,1.84,1.17c1.45,1,6.32,5.21,7.73,7.23a1.3,1.3,0,0,1-1.6,1.92l-3.1-1.89c-1.8-.82-4-2.31-6-2.28a2.26,2.26,0,0,0-2.17,1.38,2.32,2.32,0,0,0,1.41,2.59,7.91,7.91,0,0,0,3.16.48,4.23,4.23,0,0,1,1.86.37,1.59,1.59,0,0,1,.91,1.55c-.14.85-1.1,1.27-1.94,1.47a21.73,21.73,0,0,1-13.16-.86c-3.37-1.33-6.63-3.55-10.24-3.24" transform="translate(-6.29)"/><path class="cls-10" d="M6.79,189.28l3.08,4.36c27.41-19.75,27.31-35.81,27.31-35.81H35.61S32.93,173.24,6.79,189.28Z" transform="translate(-6.29)"/><line class="cls-4" x1="4.13" y1="186.96" x2="7.05" y2="191.19"/><line class="cls-4" x1="7.53" y1="184.6" x2="10.3" y2="188.43"/><line class="cls-4" x1="10.44" y1="182.4" x2="13.17" y2="185.94"/><line class="cls-4" x1="13.17" y1="180.16" x2="15.87" y2="183.4"/><line class="cls-4" x1="15.69" y1="177.91" x2="18.29" y2="180.94"/><line class="cls-4" x1="17.64" y1="176.03" x2="20.28" y2="178.73"/><line class="cls-4" x1="19.9" y1="173.66" x2="22.36" y2="176.21"/><line class="cls-4" x1="21.57" y1="171.72" x2="24.13" y2="173.83"/><line class="cls-4" x1="23.29" y1="169.55" x2="25.71" y2="171.45"/><line class="cls-4" x1="24.75" y1="167.49" x2="27.28" y2="168.99"/><line class="cls-4" x1="26.19" y1="165.2" x2="28.55" y2="166.21"/><line class="cls-4" x1="27.52" y1="162.72" x2="29.68" y2="163.39"/><line class="cls-4" x1="28.42" y1="160.68" x2="30.39" y2="161.03"/><path class="cls-5" d="M50.91,25.27a1.7,1.7,0,1,1,1.7-1.7A1.7,1.7,0,0,1,50.91,25.27Zm0-2.55a.85.85,0,1,0,.85.85A.85.85,0,0,0,50.91,22.72Z" transform="translate(-6.29)"/><polygon class="cls-5" points="47.74 24.28 46.46 22.72 40.46 22.72 40.46 21.87 46.86 21.87 48.4 23.74 47.74 24.28"/><path class="cls-5" d="M61.74,23.57a1.7,1.7,0,1,1,1.7,1.7A1.7,1.7,0,0,1,61.74,23.57Zm.85,0a.85.85,0,1,0,.85-.85A.85.85,0,0,0,62.59,23.57Z" transform="translate(-6.29)"/><polygon class="cls-5" points="54.04 24.28 55.32 22.72 61.32 22.72 61.32 21.87 54.92 21.87 53.38 23.74 54.04 24.28"/></g></g></svg>