<svg xmlns="http://www.w3.org/2000/svg" viewBox="0 0 104.42 202.39"><defs><style>.cls-1{fill:none;}.cls-1,.cls-3,.cls-4{stroke:#231f20;stroke-linejoin:round;}.cls-2,.cls-3,.cls-4{fill:#fff;}.cls-4{stroke-linecap:round;}</style></defs><title>Asset 9</title><g id="Layer_2" data-name="Layer 2"><g id="Layer_1-2" data-name="Layer 1"><path class="cls-1" d="M26.76,20.1s1,129.43,2.33,152.39c0,0,10.33,3.37,18.67-1l6.67-117s10.67,85.91,15.67,112c0,0,13,4.46,17.67-2.08L81.09,20.1S58.76,28.07,26.76,20.1Z"/><path class="cls-1" d="M28.8,165.79s11.6,2.67,19.28,0"/><path class="cls-1" d="M69,160.11s13.16,2.8,18.48-2.6"/><path class="cls-1" d="M38.44,22.41s-.35,117-3,144.67"/><path class="cls-1" d="M69,29.09s3.35,95,9.24,131.69"/><polyline class="cls-1" points="53.42 27.2 53.42 53.03 59.67 53.03"/><path class="cls-1" d="M83.42,2.71s.33,11.78-2.33,17.39"/><path class="cls-1" d="M18.55,1.68a8.11,8.11,0,0,0,1.23,6.51A19.89,19.89,0,0,0,24.6,13"/><path class="cls-1" d="M2.17.2S-2.58,10.95,3.92,15.95A148.38,148.38,0,0,1,18.3,29.4l8.46-9.31c-3.17-6.61-1.83-17.39-1.83-17.39"/><path class="cls-1" d="M103.92,2.71S99.1,27.17,82.26,34.43"/><path class="cls-1" d="M20.3,27.2s3.29,3,6.46,3"/><line class="cls-1" x1="55.17" y1="4.59" x2="55.17" y2="23.64"/><path class="cls-1" d="M84.52,167c.9,3.95,4,7,5.33,10.88a12.78,12.78,0,0,1,.7,4.19c0,5.45-3.43,10.23-6.7,14.59a1.85,1.85,0,0,1-.72.66c-.65.26-1.33-.26-1.81-.77a31.3,31.3,0,0,1-4.62-7.42c-.64-1.28-1.28-2.56-1.78-3.89a25.76,25.76,0,0,1,.49-18"/><path class="cls-1" d="M30,172.85a4,4,0,0,1-1.56,1.64c-.44.25-.92.42-1.34.7a4.75,4.75,0,0,0-1.14,1.23c-3,4.32-3.82,9.88-6.82,14.21l-.7.24"/><path class="cls-1" d="M45.91,172.7l0,9.24a4.36,4.36,0,0,1-.31,2,3.76,3.76,0,0,1-1.7,1.49c-1.76.93-3.71,1.47-5.39,2.54-2.8,1.78-4.73,5-7.91,5.89"/><polygon class="cls-2" points="54.62 54.54 54.49 54.56 55.27 60.16 60.53 59.43 59.75 53.83 54.62 54.54"/><rect class="cls-2" x="55.59" y="59.77" width="5.31" height="5.04" transform="translate(-8 8.59) rotate(-7.89)"/><rect class="cls-2" x="56.28" y="64.76" width="5.31" height="5.04" transform="translate(-8.68 8.73) rotate(-7.89)"/><polygon class="cls-2" points="61.91 69.41 56.65 70.14 57.33 75.13 57.34 75.13 62.6 74.4 61.91 69.41"/><polygon class="cls-2" points="57.34 75.13 57.33 75.13 58.02 80.06 58.03 80.06 63.28 79.33 62.6 74.4 57.34 75.13"/><polygon class="cls-2" points="58.03 80.06 58.02 80.06 58.81 85.8 58.82 85.8 64.08 85.07 63.28 79.33 58.03 80.06"/><polygon class="cls-2" points="58.82 85.8 58.81 85.8 59.61 91.54 59.62 91.54 64.87 90.81 64.08 85.07 58.82 85.8"/><polygon class="cls-2" points="59.62 91.54 59.61 91.54 60.4 97.27 60.41 97.27 65.67 96.54 64.87 90.81 59.62 91.54"/><polygon class="cls-2" points="60.41 97.27 60.4 97.27 61.2 103.01 61.21 103.01 66.46 102.28 65.67 96.54 60.41 97.27"/><polygon class="cls-2" points="61.21 103.01 61.2 103.01 61.99 108.74 62 108.74 67.26 108.01 66.46 102.28 61.21 103.01"/><polygon class="cls-2" points="62 108.74 61.99 108.74 62.78 114.48 62.8 114.48 68.04 113.75 67.26 108.01 62 108.74"/><polygon class="cls-2" points="62.8 114.48 62.78 114.48 63.58 120.22 63.59 120.22 68.84 119.49 68.04 113.75 62.8 114.48"/><polygon class="cls-2" points="63.59 120.22 63.58 120.22 64.37 125.95 64.39 125.95 69.64 125.22 68.84 119.49 63.59 120.22"/><polygon class="cls-2" points="64.39 125.95 64.37 125.95 65.17 131.69 65.18 131.68 70.43 130.96 69.64 125.22 64.39 125.95"/><polygon class="cls-2" points="65.18 131.68 65.17 131.69 65.96 137.43 65.98 137.43 71.23 136.7 70.43 130.96 65.18 131.68"/><polygon class="cls-2" points="65.98 137.43 65.96 137.43 66.62 142.19 66.64 142.19 71.89 141.46 71.23 136.7 65.98 137.43"/><polygon class="cls-2" points="66.64 142.19 66.62 142.19 67.28 146.96 67.3 146.96 72.55 146.23 71.89 141.46 66.64 142.19"/><polygon class="cls-2" points="67.3 146.96 67.28 146.96 67.95 151.72 67.96 151.72 73.21 151 72.55 146.23 67.3 146.96"/><polygon class="cls-2" points="67.96 151.72 67.95 151.72 68.52 155.93 68.55 155.92 73.78 155.2 73.21 151 67.96 151.72"/><polygon class="cls-2" points="68.55 155.92 68.52 155.93 69.19 160.79 69.22 160.78 74.46 160.06 73.78 155.2 68.55 155.92"/><polygon class="cls-2" points="69.22 160.78 69.19 160.79 69.87 165.64 69.89 165.63 75.13 164.91 74.46 160.06 69.22 160.78"/><polygon class="cls-2" points="69.89 165.63 69.87 165.64 70.54 170.49 70.56 170.49 75.8 169.76 75.13 164.91 69.89 165.63"/><polyline class="cls-1" points="76.18 172.48 75.8 169.76 75.13 164.91 74.46 160.06 73.78 155.2 73.21 151 72.55 146.23 71.89 141.46 71.23 136.7 70.43 130.96 69.64 125.22 68.84 119.49 68.04 113.75 67.26 108.01 66.46 102.28 65.67 96.54 64.87 90.81 64.08 85.07 63.28 79.33 62.6 74.4 61.91 69.41 61.22 64.42 60.53 59.43 59.75 53.83 59.7 53.42"/><polyline class="cls-1" points="70.92 173.21 70.54 170.49 69.87 165.64 69.19 160.79 68.52 155.93 67.95 151.72 67.28 146.96 66.62 142.19 65.96 137.43 65.17 131.69 64.37 125.95 63.58 120.22 62.78 114.48 61.99 108.74 61.2 103.01 60.4 97.27 59.61 91.54 58.81 85.8 58.02 80.06 57.33 75.13 56.65 70.14 55.96 65.15 55.27 60.16 54.49 54.56 54.43 54.16"/><polyline class="cls-1" points="63.29 79.33 63.28 79.33 58.03 80.06"/><polyline class="cls-1" points="62.6 74.4 62.6 74.4 57.34 75.13"/><line class="cls-1" x1="61.91" y1="69.41" x2="56.65" y2="70.14"/><line class="cls-1" x1="61.22" y1="64.42" x2="55.96" y2="65.15"/><line class="cls-1" x1="60.53" y1="59.43" x2="55.27" y2="60.16"/><polyline class="cls-1" points="59.89 53.81 59.75 53.83 54.62 54.54"/><polyline class="cls-1" points="64.08 85.07 64.08 85.07 58.82 85.8"/><polyline class="cls-1" points="64.88 90.81 64.87 90.81 59.62 91.54"/><polyline class="cls-1" points="65.67 96.54 65.67 96.54 60.41 97.27"/><polyline class="cls-1" points="66.47 102.28 66.46 102.28 61.21 103.01"/><polyline class="cls-1" points="67.27 108.01 67.26 108.01 62 108.74"/><polyline class="cls-1" points="68.06 113.75 68.04 113.75 62.8 114.48"/><polyline class="cls-1" points="68.86 119.49 68.84 119.49 63.59 120.22"/><polyline class="cls-1" points="69.65 125.22 69.64 125.22 64.39 125.95"/><polyline class="cls-1" points="70.45 130.95 70.43 130.96 65.18 131.68"/><polyline class="cls-1" points="71.24 136.7 71.23 136.7 65.98 137.43"/><polyline class="cls-1" points="71.9 141.46 71.89 141.46 66.64 142.19"/><polyline class="cls-1" points="72.56 146.23 72.55 146.23 67.3 146.96"/><polyline class="cls-1" points="73.22 150.99 73.21 151 67.96 151.72"/><polyline class="cls-1" points="73.81 155.19 73.78 155.2 68.55 155.92"/><polyline class="cls-1" points="74.48 160.05 74.46 160.06 69.22 160.78"/><polyline class="cls-1" points="75.15 164.9 75.13 164.91 69.89 165.63"/><polyline class="cls-1" points="75.83 169.76 75.8 169.76 70.56 170.49"/><path class="cls-3" d="M72,173.73l3.09,1.19L72,173.73q-.61,1.28-1.2,2.71l3.42.89-3.42-.89q-.6,1.45-1.18,3.05l3.64,1-3.64-1c-.32.9-.64,1.83-.95,2.81l3.9.78-3.9-.78q-.5,1.59-1,3.32l4.14.76-4.14-.76q-.46,1.73-.89,3.6l4.42.64-4.42-.64c-.27,1.19-.53,2.43-.77,3.72l4.7.54-4.7-.54c-.25,1.34-.48,2.75-.69,4.2l5,.46-5-.46c-.2,1.36-.39,2.76-.55,4.22l5.31.55c1.33-17.6,5-27,5-27"/><path class="cls-4" d="M46.54,178.25a90,90,0,0,1,12,1.55c3.13.62,6.51,1.38,9.4,0a13.83,13.83,0,0,0,1.86-1.14c1.47-1,6.42-5.09,7.87-7.08a1.3,1.3,0,0,0-1.56-2L73,171.47c-1.82.79-4,2.23-6.07,2.17a2.26,2.26,0,0,1-2.15-1.42,2.32,2.32,0,0,1,1.46-2.56,7.91,7.91,0,0,1,3.16-.42,4.23,4.23,0,0,0,1.87-.33,1.59,1.59,0,0,0,.93-1.53c-.12-.85-1.08-1.29-1.91-1.51a21.73,21.73,0,0,0-13.17.61c-3.39,1.27-6.7,3.43-10.3,3"/></g></g></svg>