<svg xmlns="http://www.w3.org/2000/svg" viewBox="0 0 97.36 195.19"><defs><style>.cls-1,.cls-3{fill:none;}.cls-1,.cls-3,.cls-4{stroke:#231f20;}.cls-1{stroke-miterlimit:10;}.cls-2,.cls-4{fill:#fff;}.cls-3,.cls-4{stroke-linejoin:round;}.cls-4{stroke-linecap:round;}</style></defs><title>Asset 10</title><g id="Layer_2" data-name="Layer 2"><g id="Layer_1-2" data-name="Layer 1"><path class="cls-1" d="M23.11,12.8s-2.75,71.43-2.75,159c0,0,8,3,21-.51,0,0,5-90.5,12-121,0,0,13,110.81,13,120.92,0,0,18,3,21-4.94,0,0-5-144.46-8-152C79.36,14.3,51.61,18.3,23.11,12.8Z"/><path class="cls-1" d="M20.37,166.26s10.58,4.29,21.29,0"/><path class="cls-1" d="M66.07,166.26s14.27,3.92,21.11-5"/><line class="cls-1" x1="67.7" y1="24.97" x2="76.63" y2="166.93"/><path class="cls-1" d="M68.85,171.33a44.33,44.33,0,0,0-1.09,14.28,16.92,16.92,0,0,0,.58,3.44,10.55,10.55,0,0,0,4.27,5.72"/><path class="cls-1" d="M81.38,171.25a13.78,13.78,0,0,1,4.41,7.4,23.67,23.67,0,0,1,.44,3.7,88,88,0,0,1,.06,9.27"/><path class="cls-1" d="M38.69,172a10.73,10.73,0,0,1,1.08,5.44c0,4-.62,8.4-3.73,10.86-1.91,1.52-4.43,2-6.83,2.43l-4.54.82"/><path class="cls-1" d="M20.72,172.34a24.62,24.62,0,0,1-6.71,11c-1.12,1.06-2.33,2-3.54,3l-4.17,3.26"/><path class="cls-1" d="M49.45,15.8a137.4,137.4,0,0,0,3.3,37.08"/><path class="cls-1" d="M55.82,15.28c.65,5.07-.17,13.78.07,20.54"/><path class="cls-1" d="M81.36,0s-.25,8.75-2,14.25"/><path class="cls-1" d="M22.11,0s-.75,7.5,2,12.75"/><path class="cls-1" d="M43.32,2.56a12.53,12.53,0,0,0,1.24,3.77"/><path class="cls-1" d="M50.88,1.3l-.3,5.5"/><path class="cls-1" d="M81.62,31.14c1.89,0,3.61-1,5.21-2,1.76-1.1,3.59-2.28,4.57-4.1a12,12,0,0,0,.77-2l4.72-14.5"/><rect class="cls-2" x="24.36" y="15.28" width="5.31" height="4.67"/><rect class="cls-2" x="24.36" y="19.94" width="5.31" height="5.04"/><rect class="cls-2" x="24.36" y="24.99" width="5.31" height="5.04"/><rect class="cls-2" x="24.36" y="30.03" width="5.31" height="5.03"/><rect class="cls-2" x="24.36" y="35.06" width="5.31" height="4.98"/><rect class="cls-2" x="24.36" y="40.04" width="5.31" height="5.79"/><rect class="cls-2" x="24.36" y="45.83" width="5.31" height="5.8"/><rect class="cls-2" x="24.36" y="51.62" width="5.31" height="5.79"/><rect class="cls-2" x="24.36" y="57.41" width="5.31" height="5.79"/><rect class="cls-2" x="24.36" y="63.2" width="5.31" height="5.79"/><rect class="cls-2" x="24.36" y="68.99" width="5.31" height="5.8"/><rect class="cls-2" x="24.36" y="74.79" width="5.31" height="5.79"/><rect class="cls-2" x="24.36" y="80.58" width="5.31" height="5.79"/><rect class="cls-2" x="24.36" y="86.37" width="5.31" height="5.79"/><rect class="cls-2" x="24.36" y="92.15" width="5.31" height="5.8"/><rect class="cls-2" x="24.36" y="97.95" width="5.31" height="4.81"/><rect class="cls-2" x="24.36" y="102.76" width="5.31" height="4.81"/><rect class="cls-2" x="24.36" y="107.57" width="5.31" height="4.81"/><rect class="cls-2" x="24.36" y="112.38" width="5.31" height="4.24"/><polyline class="cls-3" points="29.68 171.5 29.68 165.64 29.68 160.74 29.68 155.84 29.68 150.93 29.68 146.03 29.68 141.13 29.68 136.23 29.68 131.33 29.68 126.43 29.68 121.53 29.68 116.63 29.68 112.39 29.68 107.57 29.68 102.76 29.68 97.95 29.68 92.15 29.68 86.37 29.68 80.58 29.68 74.79 29.68 68.99 29.68 63.2 29.68 57.41 29.68 51.63 29.68 45.83 29.68 40.04 29.68 35.06 29.68 30.03 29.68 24.98 29.68 19.94 29.68 15.28 29.68 13.88"/><polyline class="cls-3" points="24.36 171.5 24.36 165.64 24.36 160.74 24.36 155.84 24.36 150.93 24.36 146.03 24.36 141.13 24.36 136.23 24.36 131.33 24.36 126.43 24.36 121.53 24.36 116.63 24.36 112.39 24.36 107.57 24.36 102.76 24.36 97.95 24.36 92.15 24.36 86.37 24.36 80.58 24.36 74.79 24.36 68.99 24.36 63.2 24.36 57.41 24.36 51.63 24.36 45.83 24.36 40.04 24.36 35.06 24.36 30.03 24.36 24.98 24.36 19.94 24.36 15.28 24.36 13.88"/><line class="cls-3" x1="29.68" y1="40.04" x2="24.36" y2="40.04"/><line class="cls-3" x1="29.68" y1="35.06" x2="24.36" y2="35.06"/><line class="cls-3" x1="29.68" y1="30.03" x2="24.36" y2="30.03"/><line class="cls-3" x1="29.68" y1="24.99" x2="24.36" y2="24.99"/><line class="cls-3" x1="29.68" y1="19.94" x2="24.36" y2="19.94"/><line class="cls-3" x1="29.68" y1="15.28" x2="24.36" y2="15.28"/><line class="cls-3" x1="29.68" y1="45.83" x2="24.36" y2="45.83"/><line class="cls-3" x1="29.68" y1="51.62" x2="24.36" y2="51.62"/><line class="cls-3" x1="29.68" y1="57.41" x2="24.36" y2="57.41"/><line class="cls-3" x1="29.68" y1="63.2" x2="24.36" y2="63.2"/><line class="cls-3" x1="29.68" y1="68.99" x2="24.36" y2="68.99"/><line class="cls-3" x1="29.68" y1="74.79" x2="24.36" y2="74.79"/><line class="cls-3" x1="29.68" y1="80.58" x2="24.36" y2="80.58"/><line class="cls-3" x1="29.68" y1="86.37" x2="24.36" y2="86.37"/><line class="cls-3" x1="29.68" y1="92.15" x2="24.36" y2="92.15"/><line class="cls-3" x1="29.68" y1="97.95" x2="24.36" y2="97.95"/><line class="cls-3" x1="29.68" y1="102.76" x2="24.36" y2="102.76"/><line class="cls-3" x1="29.68" y1="107.57" x2="24.36" y2="107.57"/><line class="cls-3" x1="29.68" y1="112.38" x2="24.36" y2="112.38"/><line class="cls-3" x1="29.68" y1="116.63" x2="24.36" y2="116.63"/><line class="cls-3" x1="29.68" y1="121.53" x2="24.36" y2="121.53"/><line class="cls-3" x1="29.68" y1="126.43" x2="24.36" y2="126.43"/><line class="cls-3" x1="29.68" y1="131.33" x2="24.36" y2="131.33"/><line class="cls-3" x1="29.68" y1="136.23" x2="24.36" y2="136.23"/><line class="cls-3" x1="29.68" y1="141.13" x2="24.36" y2="141.13"/><line class="cls-3" x1="29.68" y1="146.03" x2="24.36" y2="146.03"/><line class="cls-3" x1="29.68" y1="150.93" x2="24.36" y2="150.93"/><line class="cls-3" x1="29.68" y1="155.84" x2="24.36" y2="155.84"/><line class="cls-3" x1="29.68" y1="160.73" x2="24.36" y2="160.73"/><line class="cls-3" x1="29.68" y1="165.64" x2="24.36" y2="165.64"/><path class="cls-4" d="M6,174.83a90,90,0,0,1,12,1.55c3.13.62,6.51,1.38,9.4,0a13.83,13.83,0,0,0,1.86-1.14c1.47-1,6.42-5.09,7.87-7.08a1.3,1.3,0,0,0-1.56-2l-3.14,1.84c-1.82.79-4,2.23-6.07,2.17a2.26,2.26,0,0,1-2.15-1.42,2.32,2.32,0,0,1,1.46-2.56,7.91,7.91,0,0,1,3.16-.42,4.23,4.23,0,0,0,1.87-.33,1.59,1.59,0,0,0,.93-1.53c-.12-.85-1.08-1.29-1.91-1.51a21.73,21.73,0,0,0-13.17.61c-3.39,1.27-6.7,3.43-10.3,3"/><path class="cls-4" d="M.5,15a90,90,0,0,0,11.37-4.08c2.92-1.28,6.07-2.74,9.18-2a13.83,13.83,0,0,1,2.06.71c1.65.67,7.36,3.6,9.2,5.23a1.3,1.3,0,0,1-1.11,2.24L27.75,16c-1.95-.38-4.43-1.31-6.39-.82A2.26,2.26,0,0,0,19.56,17a2.32,2.32,0,0,0,2,2.19,7.91,7.91,0,0,0,3.18-.27,4.23,4.23,0,0,1,1.9-.08,1.59,1.59,0,0,1,1.24,1.3c.06.86-.78,1.49-1.55,1.89a21.73,21.73,0,0,1-13,2.22C9.72,23.72,6,22.32,2.6,23.46"/><path class="cls-4" d="M41.09,15.16s-1.47,15.49-2.72,27.56"/></g></g></svg>