<svg xmlns="http://www.w3.org/2000/svg" viewBox="0 0 107.34 181.85"><defs><style>.cls-1,.cls-4,.cls-8{fill:none;}.cls-1,.cls-2,.cls-4,.cls-6,.cls-7,.cls-8,.cls-9{stroke:#231f20;}.cls-1,.cls-2,.cls-9{stroke-linecap:round;}.cls-1,.cls-2,.cls-4,.cls-7,.cls-9{stroke-linejoin:round;}.cls-2,.cls-5{fill:#231f20;}.cls-3,.cls-6,.cls-7,.cls-9{fill:#fff;}.cls-6,.cls-8{stroke-miterlimit:10;}</style></defs><title>Asset 19</title><g id="Layer_2" data-name="Layer 2"><g id="Layer_1-2" data-name="Layer 1"><path class="cls-1" d="M58.63,46.55s-5,.16-7.44-3.61c-.78-1.22-1.2-2.3-2.74-6.8-1.35-3.94-1.3-10-1.3-24.86" transform="translate(-13.05)"/><path class="cls-1" d="M67.79,44.22l5.82-4.37a4.57,4.57,0,0,0,1.83-3.66V32.74" transform="translate(-13.05)"/><path class="cls-1" d="M53.76,31.25s4.46.85,6.8,0l-.38-1.66" transform="translate(-13.05)"/><path class="cls-1" d="M54.32,36.66a18.87,18.87,0,0,0,8.18,0" transform="translate(-13.05)"/><path class="cls-2" d="M55.57,37.33c1.22,1.28,4.73,1.12,5.68,0" transform="translate(-13.05)"/><path class="cls-2" d="M57.23,1.55A18.21,18.21,0,0,1,70.55,2a32.31,32.31,0,0,1,3.62,1.94,20.27,20.27,0,0,1,2.75,1.87A14.24,14.24,0,0,1,80,9.73,14.27,14.27,0,0,1,81.69,14a21.75,21.75,0,0,1,.26,3.9L82,27.67a4.47,4.47,0,0,1-.18,1.6,4.5,4.5,0,0,1-2.06,2c-1.39.86-3,1.76-4.58,1.24a4.62,4.62,0,0,0,1.88-2.62,3.13,3.13,0,0,0-.26-2.47,1.93,1.93,0,0,0-2.21-.85,31.62,31.62,0,0,1-2-8.65c-.21-2.48.06-5.36,2.06-6.83a36.16,36.16,0,0,1-6.06.61q-6.3.26-12.6.37a40.52,40.52,0,0,1-11.19-.89c-.48-.13-1-.35-1.16-.84a1.47,1.47,0,0,1,.16-.88,7.62,7.62,0,0,1,2.27-3.55c.56-.4,1.22-.65,1.75-1.08s1-1.18,1.58-1.71c1.5-1.39,3.79-1.37,5.83-1.26a4.63,4.63,0,0,0,.89,0A5.3,5.3,0,0,0,57.23,1.55Z" transform="translate(-13.05)"/><polygon class="cls-3" points="52.22 46.95 52.22 50.57 48.78 50.57 48.78 50.38 48.78 46.78 52.22 46.78 52.22 46.95"/><polygon class="cls-3" points="48.78 50.38 48.78 50.57 45.6 50.57 45.6 46.88 45.6 46.78 48.78 46.78 48.78 50.38"/><polygon class="cls-3" points="45.6 46.88 45.6 50.57 42.38 50.57 42.38 46.78 45.6 46.78 45.6 46.88"/><polyline class="cls-4" points="42.38 46.78 45.6 46.78 48.78 46.78 52.22 46.78 55.35 46.78 58.53 46.78 61.04 46.78"/><polyline class="cls-4" points="42.38 50.57 45.6 50.57 48.78 50.57 52.22 50.57 55.35 50.57 58.53 50.57 61.76 50.57"/><polyline class="cls-4" points="55.35 46.7 55.35 46.78 55.35 50.48"/><polyline class="cls-4" points="58.53 46.7 58.53 46.78 58.53 50.48"/><polyline class="cls-4" points="52.22 46.95 52.22 50.57 52.22 50.73"/><polyline class="cls-4" points="48.78 46.6 48.78 46.78 48.78 50.38"/><polyline class="cls-4" points="45.6 46.88 45.6 50.57 45.6 50.67"/><line class="cls-4" x1="42.38" y1="46.78" x2="42.38" y2="50.57"/><path class="cls-1" d="M55.25,46.13c0,1.09-.25,6.43-.25,7.51" transform="translate(-13.05)"/><path class="cls-1" d="M58.41,59.63s-4.21,4.74-4.59,8.85c0,0-1.39-9.92-2-11.94-.28-.94-.85-2.86,2.15-4.92C54,51.63,57.7,59.07,58.41,59.63Z" transform="translate(-13.05)"/><path class="cls-1" d="M74.09,39.4l0,4.47c0,1.1,0,6,.7,6.88" transform="translate(-13.05)"/><path class="cls-1" d="M75.44,49.61s-4.6,8.46-7,10c0,0,4,4.94,4,8.34,0,0,3.2-9.09,4.47-12.28S77.27,53,75.44,49.61Z" transform="translate(-13.05)"/><path class="cls-1" d="M51.61,54,29.33,56.63s-4.82,2.18-6.8,13.51S16,107.26,15.44,116s-.85,15.58-1.7,21a18.1,18.1,0,0,0,1.42,9.92l.28,7.93H27.06a167.58,167.58,0,0,1,2-17c1.1-6.35,3.54-11.86,3.54-41" transform="translate(-13.05)"/><path class="cls-1" d="M77.52,52.57S90.24,53.89,99,56.63c0,0,7.08,1.89,9.92,13.23s13.88,37,10.2,71.85l-.89,9.61H106.59s-1.89-32.58-8.69-47.74" transform="translate(-13.05)"/><line class="cls-1" x1="2.19" y1="149.2" x2="14.47" y2="149.2"/><line class="cls-4" x1="93.11" y1="145.74" x2="105.92" y2="145.37"/><path class="cls-1" d="M28.12,65.23a93.31,93.31,0,0,1,4.15,21.49" transform="translate(-13.05)"/><path class="cls-1" d="M30.6,130.39c-.76,3.77.59,5.52,2.84,7s5.07,1.87,7.78,2.13c17.37,1.63,49.09.07,49.09.07,5.1-.43,4.68-7,4.68-7l5.1-68.21" transform="translate(-13.05)"/><path class="cls-1" d="M33.62,137.87c.46,12.27.23,28.53.7,40.8" transform="translate(-13.05)"/><path class="cls-1" d="M77.32,150.75c.84,9.91,1,19.47,1.73,28.76" transform="translate(-13.05)"/><path class="cls-1" d="M92.32,139s2.18,38.78,1.89,42.32" transform="translate(-13.05)"/><path class="cls-1" d="M46,149.9s1.28,11.62,1.28,25.08" transform="translate(-13.05)"/><line class="cls-1" x1="70.39" y1="150.75" x2="70.39" y2="153.73"/><line class="cls-1" x1="27.89" y1="148.34" x2="27.89" y2="152.24"/><polyline class="cls-1" points="55.38 59.63 50.1 71.82 50.28 122.62 50.1 140.31"/><path class="cls-5" d="M33.68,142.77c-.28.62,26.72,6.4,58.29-.05v-3.5s-37.85,4-58.35-1.34Z" transform="translate(-13.05)"/><rect class="cls-6" x="44.36" y="140.31" width="10.55" height="6.64" rx="0.96" ry="0.96"/><line class="cls-6" x1="47.94" y1="146.95" x2="47.94" y2="176.5"/><line class="cls-6" x1="51.76" y1="146.95" x2="51.76" y2="161.73"/><path class="cls-1" d="M0,154.86" transform="translate(-13.05)"/><path class="cls-7" d="M25.23,82l3.08,4.36C55.73,66.64,55.62,50.58,55.62,50.58H54.05S51.37,66,25.23,82Z" transform="translate(-13.05)"/><line class="cls-4" x1="15.81" y1="79.71" x2="18.73" y2="83.94"/><line class="cls-4" x1="19.21" y1="77.35" x2="21.98" y2="81.18"/><line class="cls-4" x1="22.12" y1="75.15" x2="24.85" y2="78.69"/><line class="cls-4" x1="24.85" y1="72.91" x2="27.55" y2="76.15"/><line class="cls-4" x1="27.37" y1="70.66" x2="29.97" y2="73.69"/><line class="cls-4" x1="29.32" y1="68.78" x2="31.96" y2="71.48"/><line class="cls-4" x1="31.58" y1="66.41" x2="34.04" y2="68.96"/><line class="cls-4" x1="33.25" y1="64.47" x2="35.81" y2="66.58"/><line class="cls-4" x1="34.97" y1="62.3" x2="37.39" y2="64.2"/><line class="cls-4" x1="36.43" y1="60.24" x2="38.96" y2="61.74"/><line class="cls-4" x1="37.87" y1="57.95" x2="40.23" y2="58.96"/><line class="cls-4" x1="39.2" y1="55.47" x2="41.36" y2="56.14"/><line class="cls-4" x1="40.1" y1="53.43" x2="42.07" y2="53.78"/><path class="cls-5" d="M51.81,23.57a1.7,1.7,0,1,1,1.7-1.7A1.7,1.7,0,0,1,51.81,23.57Zm0-2.55a.85.85,0,1,0,.85.85A.85.85,0,0,0,51.81,21Z" transform="translate(-13.05)"/><polygon class="cls-5" points="41.87 22.58 40.59 21.02 34.59 21.02 34.59 20.17 40.99 20.17 42.53 22.04 41.87 22.58"/><path class="cls-5" d="M62.64,21.87a1.7,1.7,0,1,1,1.7,1.7A1.7,1.7,0,0,1,62.64,21.87Zm.85,0a.85.85,0,1,0,.85-.85A.85.85,0,0,0,63.49,21.87Z" transform="translate(-13.05)"/><polygon class="cls-5" points="48.17 22.58 49.45 21.02 55.45 21.02 55.45 20.17 49.05 20.17 47.51 22.04 48.17 22.58"/><path class="cls-8" d="M27.42,166.55c.07,1.19-.38,1.31-1,1.33a1.52,1.52,0,0,1-1.63-1.26l-.06-2.47a.4.4,0,0,0-.25-.34l-2.6-1.2a.6.6,0,0,0-.49,0,.4.4,0,0,0-.25.35,11,11,0,0,0-.57,3.11,19.19,19.19,0,0,0,.57,3.72.37.37,0,0,0,.16.3l4.92,3.69c1.79.92,2.29,2.31,2.19,2.75h0c-1.47,0-7.28-2.77-11-4.7,0,0-1.73-6-1.73-9.36A31.4,31.4,0,0,1,17,154.87h7.51s3.17,4.13,3.17,6.46S27.42,166.55,27.42,166.55Z" transform="translate(-13.05)"/><path class="cls-8" d="M105.6,158.08c0-2.33,3.17-6.46,3.17-6.46h7.51a31.4,31.4,0,0,1,1.29,7.58c0,3.36-1.73,9.36-1.73,9.36-3.7,1.94-9.51,4.7-11,4.7h0c-.11-.44.4-1.83,2.19-2.75l4.92-3.69a.37.37,0,0,0,.16-.3,19.19,19.19,0,0,0,.57-3.72,11,11,0,0,0-.57-3.11.4.4,0,0,0-.25-.35.6.6,0,0,0-.49,0l-2.6,1.2a.4.4,0,0,0-.25.34l-.06,2.47a1.52,1.52,0,0,1-1.63,1.26c-.58,0-1-.14-1-1.33C105.86,163.3,105.6,160.4,105.6,158.08Z" transform="translate(-13.05)"/><line class="cls-1" x1="45.36" y1="59.63" x2="50.1" y2="71.82"/><path class="cls-9" d="M34,41a72.69,72.69,0,0,0,9.7-1.07c2.54-.45,5.28-1,7.58.13a11.16,11.16,0,0,1,1.49.95A40.8,40.8,0,0,1,59,46.86a1,1,0,0,1-1.29,1.55l-2.5-1.53C53.71,46.22,51.93,45,50.3,45a1.83,1.83,0,0,0-1.76,1.11,1.87,1.87,0,0,0,1.14,2.09,6.38,6.38,0,0,0,2.55.39,3.42,3.42,0,0,1,1.51.3,1.28,1.28,0,0,1,.73,1.25c-.11.69-.89,1-1.57,1.19a17.54,17.54,0,0,1-10.62-.7c-2.72-1.07-5.35-2.87-8.26-2.61" transform="translate(-13.05)"/></g></g></svg>