<svg xmlns="http://www.w3.org/2000/svg" viewBox="0 0 46.44 38.76"><defs><style>.cls-1{fill:#fff;}.cls-2{fill:#231f20;}.cls-3,.cls-4{fill:none;stroke:#231f20;stroke-linejoin:round;stroke-width:1.33px;}.cls-3{stroke-linecap:round;}</style></defs><title>Asset 2</title><g id="Layer_2" data-name="Layer 2"><g id="Grid"><path class="cls-1" d="M45.21,16.83c.56,3.73.93,4.29,0,10.07s-6.16,11.19-6.16,11.19c-3-4-5.48-7.08-7.53-9.38-6-6.72-8.2-7-8.2-7C38,14.54,42.45,5.17,42.45,5.17,43.67,6.33,44.65,13.1,45.21,16.83Z"/><path class="cls-1" d="M23.32,21.68s2.21.31,8.2,7c-7,1.3-16.29,0-16.6,0,6-6.72,8.2-7,8.2-7ZM24.6,26a1.28,1.28,0,1,0-1.28,1.28A1.28,1.28,0,0,0,24.6,26Z"/><path class="cls-1" d="M23.32,24.69A1.28,1.28,0,1,1,22,26,1.28,1.28,0,0,1,23.32,24.69ZM23.63,26a.31.31,0,0,0-.31-.31.31.31,0,1,0,0,.61A.31.31,0,0,0,23.63,26Z"/><circle class="cls-2" cx="23.32" cy="25.97" r="0.31"/><path class="cls-1" d="M14.92,28.71c-2,2.3-4.54,5.34-7.53,9.38,0,0-5.22-5.41-6.16-11.19s-.56-6.34,0-10.07S2.77,6.33,4,5.17c0,0,4.46,9.37,19.14,16.51C23.12,21.68,20.91,22,14.92,28.71Z"/><path class="cls-3" d="M23.12,21.68s-2.21.31-8.2,7c-2,2.3-4.54,5.34-7.53,9.38,0,0-5.22-5.41-6.16-11.19s-.56-6.34,0-10.07S2.77,6.33,4,5.17C4,5.17,8.44,14.54,23.12,21.68Z"/><line class="cls-3" x1="5.21" y1="0.66" x2="5.21" y2="7.04"/><path class="cls-3" d="M23.32,21.68s2.21.31,8.2,7c2,2.3,4.54,5.34,7.53,9.38,0,0,5.22-5.41,6.16-11.19s.56-6.34,0-10.07S43.67,6.33,42.45,5.17C42.45,5.17,38,14.54,23.32,21.68Z"/><line class="cls-3" x1="41.23" y1="0.66" x2="41.23" y2="7.04"/><path class="cls-3" d="M14.91,28.71h0c.31,0,9.58,1.3,16.6,0"/><circle class="cls-4" cx="23.32" cy="25.97" r="1.28"/></g></g></svg>