<svg xmlns="http://www.w3.org/2000/svg" viewBox="0 0 64.88 189.66"><defs><style>.cls-1,.cls-3,.cls-4{fill:none;}.cls-1,.cls-2,.cls-3,.cls-4,.cls-6,.cls-8{stroke:#231f20;}.cls-1,.cls-2,.cls-8{stroke-linecap:round;}.cls-1,.cls-2,.cls-3,.cls-8{stroke-linejoin:round;}.cls-2,.cls-5{fill:#231f20;}.cls-4,.cls-6{stroke-miterlimit:10;}.cls-6,.cls-7,.cls-8{fill:#fff;}</style></defs><title>Asset 15</title><g id="Layer_2" data-name="Layer 2"><g id="Layer_1-2" data-name="Layer 1"><path class="cls-1" d="M5.62,7.7a25.1,25.1,0,0,1-5,17.59,8.78,8.78,0,0,0,6.29-.36L6,29.78l2.71-.12a2.71,2.71,0,0,0-2.24,1.63,8,8,0,0,0-.6,2.84c-.13,1.53-.21,3.24.77,4.42S9.59,40,11.2,39.7a35.4,35.4,0,0,1,4.79-1l.06,2.94"/><path class="cls-2" d="M34.61,17.06a12.67,12.67,0,0,1-1.07,2c-1.2,2.25-.68,5.15-2,7.34a17,17,0,0,0-.24-3.8C31,21,30.1,19.08,28.48,19.11c-2.21,0-2.81,3.41-4.89,4.16-1-2.66-2.61-5-3.77-7.58S18,10.08,19.18,7.51Q11,7.63,2.89,7.45a3.67,3.67,0,0,1-1.64-.29A1.26,1.26,0,0,1,.54,5.78,19,19,0,0,1,7.31,2.65c4.2-1.22,9-1.37,13.3-1.92,4-.51,8.64-.36,11.3,2.67,1.94,2.21,2.28,5.37,2.53,8.3l.26,3.1A5.79,5.79,0,0,1,34.61,17.06Z"/><path class="cls-1" d="M40.43,150.34s-2.92,30.46-5,38.82"/><path class="cls-3" d="M37.09,111.38H15.7a203.43,203.43,0,0,1-1,21.22,16.43,16.43,0,0,0,0,4.22,5.25,5.25,0,0,0,2.12,3.53,7.77,7.77,0,0,0,3.59.91l11.43,1a7.06,7.06,0,0,0,3.54-.29,2.43,2.43,0,0,0,1.45-2.91"/><path class="cls-4" d="M44.74,38,33.27,31.13,3.94,80.07,2.31,140.57s-.38,9.78,5.53,9.78h39.1v-8.78"/><path class="cls-5" d="M5.54,17.93a1.7,1.7,0,1,1,1.7,1.7A1.7,1.7,0,0,1,5.54,17.93Zm.85,0a.85.85,0,1,0,.85-.85A.85.85,0,0,0,6.39,17.93Z"/><polygon class="cls-5" points="4.78 18.65 6.05 17.09 12.05 17.09 12.05 16.23 5.65 16.23 4.12 18.11 4.78 18.65"/><path class="cls-6" d="M50.1,141.74a.27.27,0,0,1-.11.18.27.27,0,0,1-.18,0h0l-1-.19-.11.62-.12.63a.27.27,0,0,1-.28.22h0l-.43-.08-.26,0-.26,0a17.7,17.7,0,0,1-.38,3.62c-.08.26-.15.48-.23.72l-.08.26-.08.26-.12.37-2.19,9a.86.86,0,0,1-1.06.64.88.88,0,0,1-.65-1.06l1.26-5.19a.27.27,0,0,0,0-.22.31.31,0,0,0-.19-.11l-.34,0a.26.26,0,0,0-.28.2l-1.79,7.35a.88.88,0,0,1-1.6.25.87.87,0,0,1-.11-.66l1.69-7a.26.26,0,0,0-.24-.33h0l-.59,0a.26.26,0,0,0-.29.29.87.87,0,0,1,0,.28l-1.95,8a.89.89,0,0,1-1.06.64.87.87,0,0,1-.65-1.05l1.94-8a.26.26,0,0,0,0-.07.27.27,0,0,0-.06-.19.26.26,0,0,0-.18-.09h0l-.39,0a.27.27,0,0,0-.28.2l-1.77,7.29a.86.86,0,0,1-1.05.64A.88.88,0,0,1,33.9,158l1.95-8a25.64,25.64,0,0,0,.51-2.91c0-.09,0-.18,0-.26s0-.18,0-.27a5.82,5.82,0,0,0,0-1c0-.32-.26-.36-.32-.37s-.38,0-1.06,1.25l-.13.25-.06.11a.28.28,0,0,0,0,.09v.06c-.06.39-.44,1.64-.59,2.11a.94.94,0,0,1-1.12.93l-.14,0a.65.65,0,0,1-.45-.22.71.71,0,0,1,0-.55l.46-1.44a3.46,3.46,0,0,0,.15-1c0-.07,0-.13,0-.2v-.06c0-.08,0-.18,0-.27,0-.26,0-.55.09-.93a4,4,0,0,1,.85-2.15c.11-.14.21-.28.29-.43.27-.44.61-1,1-1.47l.24-.32-.29-.05-.29-.05-.24,0a.26.26,0,0,1-.17-.11.27.27,0,0,1,0-.2l.22-1.21-.25,0a.27.27,0,0,1-.22-.3"/><path class="cls-4" d="M44.74,38S61.88,49.29,57.49,87c-3.42,29.37-6.14,53.44-6.14,53.44v1.15L34,138.91s6-40.13,3.68-53.17S21.62,52.36,44.74,38Z"/><path class="cls-4" d="M35.29,32.66l-3.77,12.5-6.05,3.18,1.69,6.4S4.77,81.6,3.75,87"/><polyline class="cls-4" points="33.27 31.13 13.29 43.09 12.71 49.92 4.85 78.35"/><line class="cls-4" x1="16.05" y1="41.62" x2="18.82" y2="55.25"/><line class="cls-4" x1="7.83" y1="150.34" x2="6.77" y2="186.47"/><line class="cls-4" x1="12.71" y1="49.92" x2="16.7" y2="46.34"/><line class="cls-4" x1="23.35" y1="150.34" x2="23.35" y2="183.63"/><path class="cls-4" d="M45.59,150.34s-.43,20.4-4.53,38.82"/><path class="cls-4" d="M16.94,67.58a44.88,44.88,0,0,0-.43,10.94,8.6,8.6,0,0,0,.41,2.29c.87,2.39,3.28,2.1,8.41,2.1"/><path class="cls-4" d="M19.82,63.78H31.56"/><circle class="cls-4" cx="7.76" cy="91.63" r="1.84"/><circle class="cls-4" cx="7.76" cy="110.64" r="1.84"/><rect class="cls-7" x="42.74" y="40.21" width="5.31" height="4.67"/><rect class="cls-7" x="42.74" y="44.88" width="5.31" height="5.04"/><rect class="cls-7" x="42.74" y="49.92" width="5.31" height="5.04"/><rect class="cls-7" x="42.74" y="54.96" width="5.31" height="5.03"/><rect class="cls-7" x="42.74" y="59.99" width="5.31" height="4.98"/><rect class="cls-7" x="42.74" y="64.97" width="5.31" height="5.79"/><rect class="cls-7" x="42.74" y="70.76" width="5.31" height="5.8"/><rect class="cls-7" x="42.74" y="76.56" width="5.31" height="5.79"/><rect class="cls-7" x="42.74" y="82.34" width="5.31" height="5.79"/><rect class="cls-7" x="42.74" y="88.13" width="5.31" height="5.79"/><rect class="cls-7" x="42.74" y="93.92" width="5.31" height="5.8"/><rect class="cls-7" x="42.74" y="99.72" width="5.31" height="5.79"/><rect class="cls-7" x="42.74" y="105.51" width="5.31" height="5.79"/><rect class="cls-7" x="42.74" y="111.3" width="5.31" height="5.79"/><rect class="cls-7" x="42.74" y="117.09" width="5.31" height="5.8"/><rect class="cls-7" x="42.74" y="122.88" width="5.31" height="4.81"/><rect class="cls-7" x="42.74" y="127.69" width="5.31" height="4.81"/><rect class="cls-7" x="42.74" y="132.51" width="5.31" height="4.81"/><rect class="cls-7" x="42.74" y="137.32" width="5.31" height="4.24"/><polyline class="cls-3" points="42.74 145.66 42.74 141.56 42.74 137.32 42.74 132.5 42.74 127.69 42.74 122.88 42.74 117.09 42.74 111.3 42.74 105.51 42.74 99.72 42.74 93.92 42.74 88.13 42.74 82.34 42.74 76.56 42.74 70.76 42.74 64.97 42.74 59.99 42.74 54.96 42.74 49.92 42.74 44.88 42.74 40.21 42.74 38.81"/><polyline class="cls-3" points="48.05 145.66 48.05 141.56 48.05 137.32 48.05 132.5 48.05 127.69 48.05 122.88 48.05 117.09 48.05 111.3 48.05 105.51 48.05 99.72 48.05 93.92 48.05 88.13 48.05 82.34 48.05 76.56 48.05 70.76 48.05 64.97 48.05 59.99 48.05 54.96 48.05 49.92 48.05 44.88 48.05 40.21"/><line class="cls-3" x1="42.74" y1="64.97" x2="48.05" y2="64.97"/><line class="cls-3" x1="42.74" y1="59.99" x2="48.05" y2="59.99"/><line class="cls-3" x1="42.74" y1="54.96" x2="48.05" y2="54.96"/><line class="cls-3" x1="42.74" y1="49.92" x2="48.05" y2="49.92"/><line class="cls-3" x1="42.74" y1="44.88" x2="48.05" y2="44.88"/><line class="cls-3" x1="42.74" y1="40.21" x2="48.05" y2="40.21"/><line class="cls-3" x1="42.74" y1="70.76" x2="48.05" y2="70.76"/><line class="cls-3" x1="42.74" y1="76.56" x2="48.05" y2="76.56"/><line class="cls-3" x1="42.74" y1="82.34" x2="48.05" y2="82.34"/><line class="cls-3" x1="42.74" y1="88.13" x2="48.05" y2="88.13"/><line class="cls-3" x1="42.74" y1="93.92" x2="48.05" y2="93.92"/><line class="cls-3" x1="42.74" y1="99.72" x2="48.05" y2="99.72"/><line class="cls-3" x1="42.74" y1="105.51" x2="48.05" y2="105.51"/><line class="cls-3" x1="42.74" y1="111.3" x2="48.05" y2="111.3"/><line class="cls-3" x1="42.74" y1="117.09" x2="48.05" y2="117.09"/><line class="cls-3" x1="42.74" y1="122.88" x2="48.05" y2="122.88"/><line class="cls-3" x1="42.74" y1="127.69" x2="48.05" y2="127.69"/><line class="cls-3" x1="42.74" y1="132.51" x2="48.05" y2="132.51"/><line class="cls-3" x1="42.74" y1="137.32" x2="48.05" y2="137.32"/><line class="cls-3" x1="42.74" y1="141.56" x2="48.05" y2="141.56"/><path class="cls-8" d="M58.55,160.28a90,90,0,0,0-9.78-7.1c-2.7-1.7-5.68-3.47-6.84-6.44a13.83,13.83,0,0,1-.57-2.11c-.38-1.74-1.17-8.11-.86-10.55a1.3,1.3,0,0,1,2.48-.35l1,3.49c.78,1.82,1.41,4.4,2.93,5.74a2.26,2.26,0,0,0,2.54.44,2.32,2.32,0,0,0,.69-2.86,7.91,7.91,0,0,0-2-2.48A4.23,4.23,0,0,1,47,136.55a1.59,1.59,0,0,1,.37-1.76c.68-.54,1.67-.19,2.43.21A21.73,21.73,0,0,1,59,144.49c1.6,3.25,2.52,7.09,5.4,9.28"/><path class="cls-8" d="M51.56,17.28a90,90,0,0,1-7.62,9.37c-2.17,2.33-4.6,4.81-5,8a13.83,13.83,0,0,0,0,2.18c.08,1.78,1,8.14,1.88,10.42a1.3,1.3,0,0,0,2.48-.3l.09-3.63c.29-2,.23-4.61,1.35-6.3a2.26,2.26,0,0,1,2.34-1.08,2.32,2.32,0,0,1,1.41,2.59,7.91,7.91,0,0,1-1.31,2.91,4.23,4.23,0,0,0-.7,1.77,1.59,1.59,0,0,0,.81,1.6c.79.35,1.66-.24,2.29-.83A21.73,21.73,0,0,0,56,32.43c.71-3.55.61-7.5,2.83-10.36"/><path class="cls-1" d="M15.7,120H36.24"/><path class="cls-1" d="M33.9,18.46q-.32,2.36-.62,4.73a21.26,21.26,0,0,0,0,7.93"/></g></g></svg>