<svg xmlns="http://www.w3.org/2000/svg" viewBox="0 0 47.9 32.27"><defs><style>.cls-1{fill:#fff;}.cls-2{fill:#231f20;}.cls-3,.cls-4{fill:none;stroke:#231f20;stroke-linejoin:round;stroke-width:1.33px;}.cls-3{stroke-linecap:round;}</style></defs><title>Asset 3</title><g id="Layer_2" data-name="Layer 2"><g id="Grid"><path class="cls-1" d="M43.26,4.93s7.37,13.9,2.05,26.68c0,0-4-2.4-8.65-4.77-5.16-2.64-11-5.22-12.71-4.28.06-.12,1.22-2.06,7.27-5.4C37.48,13.7,41.86,9.51,43.26,4.93Z"/><path class="cls-1" d="M24,22.56c1.67-.94,7.54,1.64,12.71,4.28A30.53,30.53,0,0,1,23.93,29.3l0-2a1.27,1.27,0,1,0,0-2.54V22.57Z"/><path class="cls-1" d="M23.95,24.71A1.27,1.27,0,1,1,22.67,26,1.27,1.27,0,0,1,23.95,24.71ZM24.26,26a.31.31,0,1,0-.31.31A.31.31,0,0,0,24.26,26Z"/><circle class="cls-2" cx="23.95" cy="25.98" r="0.31"/><path class="cls-1" d="M23.95,22.57v2.15a1.27,1.27,0,1,0,0,2.54l0,2a36,36,0,0,1-12.69-2.46c5.16-2.64,11-5.22,12.71-4.28Z"/><path class="cls-1" d="M23.94,22.56c-1.67-.94-7.54,1.64-12.71,4.28-4.6,2.37-8.64,4.77-8.64,4.77C-2.73,18.83,4.64,4.93,4.64,4.93c1.4,4.57,5.78,8.77,12,12.22C22.73,20.5,23.88,22.44,23.94,22.56Z"/><path class="cls-3" d="M23.94,22.56c-.06-.12-1.21-2.06-7.27-5.4C10.43,13.7,6,9.51,4.64,4.93c0,0-7.37,13.9-2.05,26.68,0,0,4-2.4,8.64-4.77,5.16-2.64,11-5.22,12.71-4.28h0"/><line class="cls-3" x1="5.58" y1="0.66" x2="5.58" y2="7.04"/><path class="cls-3" d="M24,22.56c.06-.12,1.22-2.06,7.27-5.4,6.25-3.46,10.63-7.65,12-12.22,0,0,7.37,13.9,2.05,26.68,0,0-4-2.4-8.65-4.77-5.16-2.64-11-5.22-12.71-4.28h0"/><line class="cls-3" x1="42.33" y1="0.66" x2="42.33" y2="7.04"/><path class="cls-3" d="M11.23,26.84A36,36,0,0,0,23.93,29.3a30.53,30.53,0,0,0,12.74-2.46"/><circle class="cls-4" cx="23.95" cy="25.98" r="1.28"/></g></g></svg>