<svg xmlns="http://www.w3.org/2000/svg" viewBox="0 0 118.08 181.85"><defs><style>.cls-1,.cls-4,.cls-5{fill:none;}.cls-1,.cls-2,.cls-3,.cls-4,.cls-5,.cls-6,.cls-7{stroke:#231f20;}.cls-1,.cls-2,.cls-3{stroke-linecap:round;}.cls-1,.cls-2,.cls-3,.cls-4,.cls-7{stroke-linejoin:round;}.cls-2,.cls-8{fill:#231f20;}.cls-3,.cls-6,.cls-7{fill:#fff;}.cls-5,.cls-6{stroke-miterlimit:10;}</style></defs><title>Asset 17</title><g id="Layer_2" data-name="Layer 2"><g id="Layer_1-2" data-name="Layer 1"><path class="cls-1" d="M58.63,46.55s-5,.16-7.44-3.61c-.78-1.22-1.2-2.3-2.74-6.8-1.35-3.94-1.3-10-1.3-24.86" transform="translate(-2.31)"/><path class="cls-1" d="M67.79,44.22l5.82-4.37a4.57,4.57,0,0,0,1.83-3.66V32.74" transform="translate(-2.31)"/><path class="cls-1" d="M53.76,31.25s4.46.85,6.8,0l-.38-1.66" transform="translate(-2.31)"/><path class="cls-1" d="M54.32,36.66a18.87,18.87,0,0,0,8.18,0" transform="translate(-2.31)"/><path class="cls-2" d="M55.57,37.33c1.22,1.28,4.73,1.12,5.68,0" transform="translate(-2.31)"/><path class="cls-2" d="M57.23,1.55A18.21,18.21,0,0,1,70.55,2a32.31,32.31,0,0,1,3.62,1.94,20.27,20.27,0,0,1,2.75,1.87A14.24,14.24,0,0,1,80,9.73,14.27,14.27,0,0,1,81.69,14a21.75,21.75,0,0,1,.26,3.9L82,27.67a4.47,4.47,0,0,1-.18,1.6,4.5,4.5,0,0,1-2.06,2c-1.39.86-3,1.76-4.58,1.24a4.62,4.62,0,0,0,1.88-2.62,3.13,3.13,0,0,0-.26-2.47,1.93,1.93,0,0,0-2.21-.85,31.62,31.62,0,0,1-2-8.65c-.21-2.48.06-5.36,2.06-6.83a36.16,36.16,0,0,1-6.06.61q-6.3.26-12.6.37a40.52,40.52,0,0,1-11.19-.89c-.48-.13-1-.35-1.16-.84a1.47,1.47,0,0,1,.16-.88,7.62,7.62,0,0,1,2.27-3.55c.56-.4,1.22-.65,1.75-1.08s1-1.18,1.58-1.71c1.5-1.39,3.79-1.37,5.83-1.26a4.63,4.63,0,0,0,.89,0A5.3,5.3,0,0,0,57.23,1.55Z" transform="translate(-2.31)"/><path class="cls-1" d="M55.25,46.13v3.26" transform="translate(-2.31)"/><path class="cls-1" d="M63.33,56.12S57,63.62,56.53,67.73c0,0-4-9.17-4.68-11.19-.31-.94-.87-5.1,2.47-7.15C54.32,49.39,62.53,55.55,63.33,56.12Z" transform="translate(-2.31)"/><path class="cls-1" d="M74.09,39.4l0,4.47a5.3,5.3,0,0,0,.7,3.18" transform="translate(-2.31)"/><path class="cls-1" d="M75.44,46.55s-9.7,8-12.11,9.56c0,0,5.68,7.19,5.68,10.59,0,0,6.65-7.83,7.93-11S77.27,50,75.44,46.55Z" transform="translate(-2.31)"/><polyline class="cls-3" points="58.26 64.4 55.69 115.29 61.02 122.62 66.35 114.76 63.36 64.4"/><path class="cls-1" d="M51.61,54,29.33,56.63s-4.82,2.18-6.8,13.51S16,107.26,15.44,116s-.85,15.58-1.7,21a18.1,18.1,0,0,0,1.42,9.92l.28,7.93H27.06a167.58,167.58,0,0,1,2-17c1.1-6.35,3.54-11.86,3.54-41" transform="translate(-2.31)"/><path class="cls-1" d="M77.52,52.57S90.24,53.89,99,56.63c0,0,7.08,1.89,9.92,13.23s13.88,37,10.2,71.85l-.89,9.61H106.59s-1.89-32.58-8.69-47.74" transform="translate(-2.31)"/><polyline class="cls-1" points="56.66 62.09 58.26 64.4 63.36 64.4 65.02 62.09"/><line class="cls-1" x1="12.93" y1="149.2" x2="25.22" y2="149.2"/><line class="cls-4" x1="103.86" y1="145.74" x2="116.67" y2="145.37"/><path class="cls-1" d="M28.12,65.23a93.31,93.31,0,0,1,4.15,21.49" transform="translate(-2.31)"/><path class="cls-1" d="M30.6,130.39c-.76,3.77.59,5.52,2.84,7s5.07,1.87,7.78,2.13c17.37,1.63,49.09.07,49.09.07,5.1-.43,4.68-7,4.68-7l5.1-68.21" transform="translate(-2.31)"/><path class="cls-1" d="M33.62,137.87c.46,12.27.23,28.53.7,40.8" transform="translate(-2.31)"/><path class="cls-1" d="M77.32,150.75c.84,9.91,1,19.47,1.73,28.76" transform="translate(-2.31)"/><path class="cls-1" d="M92.32,139s2.18,38.78,1.89,42.32" transform="translate(-2.31)"/><path class="cls-1" d="M46,149.9s1.28,11.62,1.28,25.08" transform="translate(-2.31)"/><line class="cls-1" x1="81.14" y1="150.75" x2="81.14" y2="153.73"/><line class="cls-1" x1="38.64" y1="148.34" x2="38.64" y2="152.24"/><line class="cls-1" x1="61.02" y1="122.62" x2="60.84" y2="140.31"/><path class="cls-5" d="M28.11,166.54c.07,1.19-.38,1.31-1,1.33a1.52,1.52,0,0,1-1.63-1.26l-.06-2.47a.4.4,0,0,0-.25-.34l-2.6-1.2a.6.6,0,0,0-.49,0,.4.4,0,0,0-.25.35,11,11,0,0,0-.57,3.11,19.19,19.19,0,0,0,.57,3.72.37.37,0,0,0,.16.3l4.92,3.69c1.79.92,2.29,2.31,2.19,2.75h0c-1.47,0-7.28-2.77-11-4.7,0,0-1.73-6-1.73-9.36a31.4,31.4,0,0,1,1.29-7.58H25.2s3.17,4.13,3.17,6.46S28.11,166.54,28.11,166.54Z" transform="translate(-2.31)"/><path class="cls-5" d="M106.28,158.07c0-2.33,3.17-6.46,3.17-6.46H117a31.4,31.4,0,0,1,1.29,7.58c0,3.36-1.73,9.36-1.73,9.36-3.7,1.94-9.51,4.7-11,4.7h0c-.11-.44.4-1.83,2.19-2.75l4.92-3.69a.37.37,0,0,0,.16-.3,19.19,19.19,0,0,0,.57-3.72,11,11,0,0,0-.57-3.11.4.4,0,0,0-.25-.35.6.6,0,0,0-.49,0l-2.6,1.2a.4.4,0,0,0-.25.34l-.06,2.47a1.52,1.52,0,0,1-1.63,1.26c-.58,0-1-.14-1-1.33C106.55,163.3,106.28,160.4,106.28,158.07Z" transform="translate(-2.31)"/><line class="cls-6" x1="58.68" y1="146.95" x2="58.68" y2="176.5"/><line class="cls-6" x1="62.51" y1="146.95" x2="62.51" y2="161.73"/><path class="cls-1" d="M0,154.86" transform="translate(-2.31)"/><line class="cls-7" x1="21.91" y1="139.63" x2="89.76" y2="139.63"/><line class="cls-7" x1="20.73" y1="144.95" x2="90.36" y2="144.95"/><line class="cls-7" x1="89.76" y1="139.63" x2="89.76" y2="144.95"/><line class="cls-7" x1="83.96" y1="139.63" x2="83.96" y2="144.95"/><line class="cls-7" x1="78.17" y1="139.63" x2="78.17" y2="144.95"/><line class="cls-7" x1="72.38" y1="139.63" x2="72.38" y2="144.95"/><line class="cls-7" x1="66.59" y1="139.63" x2="66.59" y2="144.95"/><line class="cls-7" x1="60.8" y1="139.63" x2="60.8" y2="144.95"/><line class="cls-7" x1="55.01" y1="139.63" x2="55.01" y2="144.95"/><line class="cls-7" x1="49.22" y1="139.63" x2="49.22" y2="144.95"/><line class="cls-7" x1="43.43" y1="139.63" x2="43.43" y2="144.95"/><line class="cls-7" x1="37.64" y1="139.63" x2="37.64" y2="144.95"/><line class="cls-7" x1="31.85" y1="139.63" x2="31.85" y2="144.95"/><line class="cls-7" x1="26.06" y1="139.63" x2="26.06" y2="144.95"/><path class="cls-7" d="M2.81,176.4l3.08,4.36C33.3,161,33.19,144.95,33.19,144.95H31.63S28.94,160.35,2.81,176.4Z" transform="translate(-2.31)"/><line class="cls-4" x1="4.13" y1="174.07" x2="7.05" y2="178.3"/><line class="cls-4" x1="7.53" y1="171.71" x2="10.3" y2="175.55"/><line class="cls-4" x1="10.44" y1="169.52" x2="13.17" y2="173.06"/><line class="cls-4" x1="13.17" y1="167.28" x2="15.87" y2="170.52"/><line class="cls-4" x1="15.69" y1="165.03" x2="18.29" y2="168.05"/><line class="cls-4" x1="17.64" y1="163.15" x2="20.28" y2="165.85"/><line class="cls-4" x1="19.9" y1="160.77" x2="22.36" y2="163.32"/><line class="cls-4" x1="21.57" y1="158.84" x2="24.13" y2="160.95"/><line class="cls-4" x1="23.29" y1="156.66" x2="25.71" y2="158.57"/><line class="cls-4" x1="24.75" y1="154.61" x2="27.28" y2="156.1"/><line class="cls-4" x1="26.19" y1="152.31" x2="28.55" y2="153.32"/><line class="cls-4" x1="27.52" y1="149.83" x2="29.68" y2="150.51"/><line class="cls-4" x1="28.42" y1="147.79" x2="30.39" y2="148.14"/><path class="cls-3" d="M6.44,134.51a90,90,0,0,0,12-1.32c3.14-.56,6.54-1.26,9.39.17a13.83,13.83,0,0,1,1.84,1.17c1.45,1,6.32,5.21,7.73,7.23a1.3,1.3,0,0,1-1.6,1.92l-3.1-1.89c-1.8-.82-4-2.31-6-2.28a2.26,2.26,0,0,0-2.17,1.38,2.32,2.32,0,0,0,1.41,2.59,7.91,7.91,0,0,0,3.16.48,4.23,4.23,0,0,1,1.86.37,1.59,1.59,0,0,1,.91,1.55c-.14.85-1.1,1.27-1.94,1.47a21.73,21.73,0,0,1-13.16-.86c-3.37-1.33-6.63-3.55-10.24-3.24" transform="translate(-2.31)"/><path class="cls-8" d="M50.9,24.42a1.7,1.7,0,1,1,1.7-1.7A1.7,1.7,0,0,1,50.9,24.42Zm0-2.55a.85.85,0,1,0,.85.85A.85.85,0,0,0,50.9,21.87Z" transform="translate(-2.31)"/><polygon class="cls-8" points="51.71 23.44 50.43 21.87 44.43 21.87 44.43 21.02 50.83 21.02 52.37 22.9 51.71 23.44"/><path class="cls-8" d="M61.73,22.72a1.7,1.7,0,1,1,1.7,1.7A1.7,1.7,0,0,1,61.73,22.72Zm.85,0a.85.85,0,1,0,.85-.85A.85.85,0,0,0,62.58,22.72Z" transform="translate(-2.31)"/><polygon class="cls-8" points="58.01 23.44 59.29 21.87 65.29 21.87 65.29 21.02 58.89 21.02 57.35 22.9 58.01 23.44"/></g></g></svg>