<?xml version="1.0" encoding="utf-8"?>
<!-- Generator: Adobe Illustrator 19.0.0, SVG Export Plug-In . SVG Version: 6.00 Build 0)  -->
<svg version="1.1" id="Layer_1" xmlns="http://www.w3.org/2000/svg" xmlns:xlink="http://www.w3.org/1999/xlink" x="0px" y="0px"
	 viewBox="181.5 387.4 67 67" style="enable-background:new 181.5 387.4 67 67;" xml:space="preserve">
<style type="text/css">
	.st0{fill:url(#SVGID_1_);}
	.st1{fill:url(#SVGID_2_);}
</style>
<g>
	
		<linearGradient id="SVGID_1_" gradientUnits="userSpaceOnUse" x1="181.7527" y1="465.8667" x2="258.328" y2="380.1754" gradientTransform="matrix(1 0 0 -1 0 841.67)">
		<stop  offset="0" style="stop-color:#517FA6"/>
		<stop  offset="1" style="stop-color:#426699"/>
	</linearGradient>
	<path class="st0" d="M217,415.3L217,415.3C217,415.2,217,415.3,217,415.3L217,415.3z"/>
	
		<linearGradient id="SVGID_2_" gradientUnits="userSpaceOnUse" x1="177.8368" y1="462.3674" x2="254.4121" y2="376.676" gradientTransform="matrix(1 0 0 -1 0 841.67)">
		<stop  offset="0" style="stop-color:#517FA6"/>
		<stop  offset="1" style="stop-color:#426699"/>
	</linearGradient>
	<path class="st1" d="M215,387.4c-18.5,0-33.5,15-33.5,33.5s15,33.5,33.5,33.5s33.5-15,33.5-33.5S233.5,387.4,215,387.4z
		 M205.8,433.9h-7.2v-21.8h7.2L205.8,433.9L205.8,433.9z M202.2,409.2L202.2,409.2c-2.5,0-4.1-1.7-4.1-3.8c0-2.1,1.6-3.8,4.1-3.8
		c2.5,0,4,1.6,4.1,3.8C206.3,407.5,204.7,409.2,202.2,409.2z M231.9,433.9h-7.2v-11.7c0-2.9-1-4.9-3.7-4.9c-2,0-3.2,1.3-3.7,2.6
		c-0.2,0.5-0.2,1.1-0.2,1.8v12.2h-7.2c0,0,0.1-19.7,0-21.8h7.2v3.1c1-1.5,2.7-3.6,6.5-3.6c4.8,0,8.3,3.1,8.3,9.8L231.9,433.9
		L231.9,433.9z"/>
</g>
</svg>
