<svg xmlns="http://www.w3.org/2000/svg" viewBox="0 0 51.23 70.65"><defs><style>.cls-1{fill:#231f20;}.cls-2{fill:#fff;}.cls-3{fill:none;stroke:#231f20;stroke-linecap:round;stroke-linejoin:round;}</style></defs><title>Asset 8</title><g id="Layer_2" data-name="Layer 2"><g id="Layer_1-2" data-name="Layer 1"><path class="cls-1" d="M22.73,18.28a3.67,3.67,0,0,1-3-1.49,12,12,0,0,1-1.08-2.68c-.52-1.51-.52-3.74-.52-9.14V4.38a.19.19,0,1,1,.39,0V5c0,5.35,0,7.56.49,9a11.54,11.54,0,0,0,1,2.6,3.36,3.36,0,0,0,2.72,1.31.2.2,0,0,1,.2.19.19.19,0,0,1-.19.2Z" transform="translate(-5.07)"/><path class="cls-1" d="M26.34,17.37a.19.19,0,0,1-.12-.35l2.26-1.7a1.59,1.59,0,0,0,.63-1.27V12.71a.19.19,0,0,1,.39,0v1.34a2,2,0,0,1-.79,1.58l-2.26,1.7A.19.19,0,0,1,26.34,17.37Z" transform="translate(-5.07)"/><path class="cls-1" d="M22.44,12.48a9.52,9.52,0,0,1-1.58-.15.19.19,0,0,1-.15-.23.19.19,0,0,1,.23-.15A7.18,7.18,0,0,0,23.3,12l-.11-.47a.19.19,0,1,1,.38-.09l.15.65a.19.19,0,0,1-.12.23A3.55,3.55,0,0,1,22.44,12.48Z" transform="translate(-5.07)"/><path class="cls-1" d="M22.69,14.6a7.59,7.59,0,0,1-1.63-.18.19.19,0,0,1,.08-.38,7.16,7.16,0,0,0,3.09,0,.19.19,0,0,1,.08.38A7.59,7.59,0,0,1,22.69,14.6Z" transform="translate(-5.07)"/><polyline class="cls-2" points="18.46 25.02 17.46 44.79 19.53 47.63 21.6 44.58 20.44 25.02"/><path class="cls-1" d="M24.6,47.83a.19.19,0,0,1-.16-.08L22.38,44.9a.19.19,0,0,1,0-.12l1-19.77a.19.19,0,0,1,.2-.18.19.19,0,0,1,.18.2l-1,19.7L24.6,47.3l1.88-2.77L25.32,25a.19.19,0,0,1,.39,0l1.16,19.56a.19.19,0,0,1,0,.12l-2.07,3.05a.19.19,0,0,1-.16.09Z" transform="translate(-5.07)"/><path class="cls-1" d="M21.59,14.5a1.92,1.92,0,0,0,2.21,0" transform="translate(-5.07)"/><path class="cls-1" d="M22.69,15a1.74,1.74,0,0,1-1.24-.41.19.19,0,0,1,.28-.27,1.45,1.45,0,0,0,1,.29,1.35,1.35,0,0,0,.9-.28.19.19,0,0,1,.3.25,1.65,1.65,0,0,1-1.18.42Z" transform="translate(-5.07)"/><path class="cls-1" d="M22.23.6a7.07,7.07,0,0,1,5.18.17,12.55,12.55,0,0,1,1.41.76,7.87,7.87,0,0,1,1.07.73A5.53,5.53,0,0,1,31.1,3.77a5.54,5.54,0,0,1,.64,1.67A8.45,8.45,0,0,1,31.84,7l0,3.79a1.74,1.74,0,0,1-.07.62,1.75,1.75,0,0,1-.8.78,2.21,2.21,0,0,1-1.78.48,1.8,1.8,0,0,0,.73-1,1.22,1.22,0,0,0-.1-1,.75.75,0,0,0-.86-.33A12.29,12.29,0,0,1,28.22,7,2.91,2.91,0,0,1,29,4.3a14,14,0,0,1-2.36.24q-2.45.1-4.9.14a15.74,15.74,0,0,1-4.35-.35C17.24,4.28,17,4.2,17,4A.57.57,0,0,1,17,3.67a3,3,0,0,1,.88-1.38c.22-.16.47-.25.68-.42s.39-.46.61-.66A3,3,0,0,1,21.48.72a1.8,1.8,0,0,0,.35,0A2.06,2.06,0,0,0,22.23.6Z" transform="translate(-5.07)"/><path class="cls-1" d="M29.59,12.88a1.36,1.36,0,0,1-.44-.07.19.19,0,0,1,0-.35,1.6,1.6,0,0,0,.65-.91,1,1,0,0,0-.08-.81.57.57,0,0,0-.62-.25.19.19,0,0,1-.25-.11A12.47,12.47,0,0,1,28,7a3.61,3.61,0,0,1,.44-2.38c-.56.08-1.14.11-1.8.14-1.63.07-3.28.12-4.9.14h-.94a13.38,13.38,0,0,1-3.46-.36c-.13,0-.51-.14-.59-.47a.75.75,0,0,1,.07-.46,3.14,3.14,0,0,1,1-1.46,3.17,3.17,0,0,1,.33-.2,2.28,2.28,0,0,0,.34-.21,2.28,2.28,0,0,0,.31-.33,3.17,3.17,0,0,1,.29-.32A2.67,2.67,0,0,1,20.92.51l.57,0a1.6,1.6,0,0,0,.31,0,1.65,1.65,0,0,0,.33-.1l0,0a7.35,7.35,0,0,1,5.32.17,12.78,12.78,0,0,1,1.43.77A8.1,8.1,0,0,1,30,2.1a5.66,5.66,0,0,1,1.25,1.58,5.68,5.68,0,0,1,.66,1.73A8.57,8.57,0,0,1,32,7l0,3.79a1.9,1.9,0,0,1-.08.69,1.93,1.93,0,0,1-.88.88A3,3,0,0,1,29.59,12.88Zm-.39-2.79a1,1,0,0,1,.81.46,1.41,1.41,0,0,1,.13,1.12,2,2,0,0,1-.46.83A2.91,2.91,0,0,0,30.9,12a1.57,1.57,0,0,0,.72-.69,1.59,1.59,0,0,0,.06-.55l0-3.79a8.31,8.31,0,0,0-.1-1.48,5.29,5.29,0,0,0-.62-1.61A5.29,5.29,0,0,0,29.76,2.4a7.73,7.73,0,0,0-1-.71A12.46,12.46,0,0,0,27.33.95a7,7,0,0,0-5-.16l0,0a2,2,0,0,1-.4.11,2,2,0,0,1-.38,0l-.55,0a2.19,2.19,0,0,0-1.57.45,2.82,2.82,0,0,0-.25.28,2.61,2.61,0,0,1-.37.39,2.61,2.61,0,0,1-.4.25,2.72,2.72,0,0,0-.29.17,2.84,2.84,0,0,0-.82,1.29.46.46,0,0,0-.05.22s.08.12.31.18a13,13,0,0,0,3.36.35h.94c1.62,0,3.26-.08,4.89-.14A13.68,13.68,0,0,0,29,4.11a.19.19,0,0,1,.16.35,2.64,2.64,0,0,0-.72,2.48,12.08,12.08,0,0,0,.7,3.15Z" transform="translate(-5.07)"/><path class="cls-1" d="M21.47,19.38a.19.19,0,0,1-.19-.19V17.92a.19.19,0,1,1,.39,0v1.27A.19.19,0,0,1,21.47,19.38Z" transform="translate(-5.07)"/><path class="cls-1" d="M22,26.5a.19.19,0,0,1-.18-.12c-.06-.15-1.56-3.58-1.82-4.36a2.71,2.71,0,0,1,1-3,.19.19,0,0,1,.22,0s3.19,2.4,3.49,2.61a.19.19,0,0,1,0,.28s-2.44,2.89-2.6,4.41a.19.19,0,0,1-.16.17Zm-.86-7.08a2.37,2.37,0,0,0-.77,2.48c.19.58,1.13,2.77,1.58,3.79a15.36,15.36,0,0,1,2.42-3.86Z" transform="translate(-5.07)"/><path class="cls-1" d="M29.06,18.47a.19.19,0,0,1-.16-.08A2.25,2.25,0,0,1,28.6,17V15.3a.19.19,0,0,1,.19-.2h0a.19.19,0,0,1,.19.19V17a1.88,1.88,0,0,0,.23,1.12.19.19,0,0,1-.16.31Z" transform="translate(-5.07)"/><path class="cls-1" d="M26.81,26.11h-.07a.19.19,0,0,1-.13-.18c0-1.24-2.14-4-2.16-4a.19.19,0,0,1,0-.28c.92-.59,4.65-3.67,4.69-3.7a.19.19,0,0,1,.29.06c.77,1.43,1.09,2.45.59,3.71A27.47,27.47,0,0,1,27,26,.19.19,0,0,1,26.81,26.11Zm-1.92-4.27a13,13,0,0,1,2.06,3.61,23.89,23.89,0,0,0,2.77-3.89,3.48,3.48,0,0,0-.46-3.18C28.52,19,25.89,21.14,24.88,21.84Z" transform="translate(-5.07)"/><path class="cls-1" d="M25.51,25.21h-2a.19.19,0,0,1-.16-.08l-.62-.9a.19.19,0,0,1,.32-.22l.56.82h1.78L26,24a.19.19,0,1,1,.32.23l-.65.9A.19.19,0,0,1,25.51,25.21Z" transform="translate(-5.07)"/><path class="cls-1" d="M10.51,60.35H6a.19.19,0,0,1-.19-.19l-.11-3a7.19,7.19,0,0,1-.55-3.93c.26-1.66.38-3.65.54-6.17q.06-.94.12-2c.22-3.35,1.9-13,2.71-17.58l0-.28c.78-4.45,2.67-5.36,2.75-5.39l.06,0,8.66-1a.19.19,0,0,1,0,.39l-8.62,1c-.21.12-1.81,1.13-2.51,5.09l0,.28c-.81,4.61-2.49,14.2-2.7,17.54q-.07,1-.12,2c-.15,2.53-.28,4.52-.54,6.2A6.87,6.87,0,0,0,6.06,57a.2.2,0,0,1,0,.08l.1,2.9h4.14c0-.73.25-3.51.76-6.44.07-.42.16-.83.25-1.27C11.82,50,12.46,47,12.46,37.61a.19.19,0,0,1,.39,0c0,9.45-.65,12.5-1.13,14.72-.09.44-.18.84-.25,1.26a65.6,65.6,0,0,0-.77,6.58A.19.19,0,0,1,10.51,60.35Z" transform="translate(-5.07)"/><path class="cls-1" d="M45.95,59H41.41a.19.19,0,0,1-.19-.18c0-.17-1.31-16.6-3.91-22.39a.19.19,0,1,1,.35-.16c2.48,5.52,3.78,20.53,3.92,22.34h4.18L46.1,55c1.17-11.11-1.51-19.8-3.12-25-.35-1.12-.64-2.08-.84-2.87-1.06-4.24-3.69-5-3.71-5a52.76,52.76,0,0,0-8.33-1.57.19.19,0,0,1-.17-.21.2.2,0,0,1,.21-.17,53.19,53.19,0,0,1,8.4,1.58c.11,0,2.87.81,4,5.28.19.78.49,1.73.83,2.85,1.61,5.22,4.31,14,3.13,25.14l-.34,3.73A.19.19,0,0,1,45.95,59Z" transform="translate(-5.07)"/><path class="cls-1" d="M10.69,58.15H5.92a.19.19,0,0,1,0-.39h4.77a.19.19,0,1,1,0,.39Z" transform="translate(-5.07)"/><rect class="cls-1" x="41.25" y="56.35" width="4.98" height="0.39" transform="translate(-6.71 1.3) rotate(-1.68)"/><path class="cls-1" d="M12.54,33.88a.19.19,0,0,1-.19-.18,36.07,36.07,0,0,0-1.6-8.3.19.19,0,0,1,.37-.12,36.47,36.47,0,0,1,1.62,8.39.19.19,0,0,1-.18.21Z" transform="translate(-5.07)"/><path class="cls-1" d="M24.18,54.7c-2.91,0-5.87-.07-8.18-.29a6.47,6.47,0,0,1-3.11-.86,2.49,2.49,0,0,1-1.18-2.94.19.19,0,0,1,.38.08,2.13,2.13,0,0,0,1,2.54A6.16,6.16,0,0,0,16,54c6.66.63,18.92,0,19,0,1.76-.15,1.64-2.42,1.63-2.52l.58-25.46a.19.19,0,1,1,.39,0L37.1,51.52c.06.93-.28,2.77-2,2.91C35,54.44,29.71,54.7,24.18,54.7Z" transform="translate(-5.07)"/><path class="cls-1" d="M13.33,69.6a.19.19,0,0,1-.19-.19C13,67,13,64.21,13,61.49s0-5.54-.14-7.92a.19.19,0,0,1,.19-.2.2.2,0,0,1,.2.19c.09,2.39.11,5.21.14,7.93s0,5.54.14,7.92a.19.19,0,0,1-.19.2Z" transform="translate(-5.07)"/><path class="cls-1" d="M30.71,69.93a.19.19,0,0,1-.19-.18c-.13-1.69-.22-3.37-.3-5.15-.1-2-.2-4-.37-6a.19.19,0,0,1,.39,0c.17,2.05.27,4.08.37,6,.09,1.77.17,3.45.3,5.14a.19.19,0,0,1-.18.21Z" transform="translate(-5.07)"/><path class="cls-1" d="M36.6,70.65h0a.19.19,0,0,1-.18-.21c.11-1.35-.73-16.26-.74-16.42a.19.19,0,0,1,.18-.2.19.19,0,0,1,.2.18c0,.62.85,15.09.74,16.47A.19.19,0,0,1,36.6,70.65Z" transform="translate(-5.07)"/><path class="cls-1" d="M18.38,68.17a.19.19,0,0,1-.19-.19c0-5.16-.49-9.68-.49-9.72a.19.19,0,1,1,.39,0s.5,4.58.5,9.76A.19.19,0,0,1,18.38,68.17Z" transform="translate(-5.07)"/><path class="cls-1" d="M32.42,59.91a.19.19,0,0,1-.19-.19V58.56a.19.19,0,0,1,.39,0v1.16A.19.19,0,0,1,32.42,59.91Z" transform="translate(-5.07)"/><path class="cls-1" d="M15.91,59.34a.19.19,0,0,1-.19-.19V57.63a.19.19,0,0,1,.39,0v1.51A.19.19,0,0,1,15.91,59.34Z" transform="translate(-5.07)"/><path class="cls-1" d="M24.53,54.7h0a.19.19,0,0,1-.19-.2l.07-6.87a.19.19,0,0,1,.19-.19h0a.19.19,0,0,1,.19.2l-.07,6.87A.19.19,0,0,1,24.53,54.7Z" transform="translate(-5.07)"/><path class="cls-1" d="M13.09,55.46c-.11.24,10.38,2.49,22.65,0V54.08S21,55.62,13.06,53.56Z" transform="translate(-5.07)"/><rect class="cls-2" x="17.23" y="54.51" width="4.1" height="2.58" rx="0.37" ry="0.37"/><path class="cls-1" d="M26,57.28H22.68a.57.57,0,0,1-.57-.57V54.88a.57.57,0,0,1,.57-.57H26a.57.57,0,0,1,.57.57v1.84A.57.57,0,0,1,26,57.28ZM22.68,54.7a.18.18,0,0,0-.18.18v1.84a.18.18,0,0,0,.18.18H26a.18.18,0,0,0,.18-.18V54.88A.18.18,0,0,0,26,54.7Z" transform="translate(-5.07)"/><line class="cls-2" x1="18.63" y1="57.09" x2="18.63" y2="68.57"/><rect class="cls-1" x="18.43" y="57.09" width="0.39" height="11.48"/><line class="cls-2" x1="20.11" y1="57.09" x2="20.11" y2="62.83"/><rect class="cls-1" x="19.92" y="57.09" width="0.39" height="5.74"/><path class="cls-3" d="M0,60.16" transform="translate(-5.07)"/><path class="cls-1" d="M20.13,9.15a.66.66,0,1,1,.66-.66A.66.66,0,0,1,20.13,9.15Zm0-1a.33.33,0,1,0,.33.33A.33.33,0,0,0,20.13,8.16Z" transform="translate(-5.07)"/><polygon class="cls-1" points="16.27 8.77 15.77 8.16 13.44 8.16 13.44 7.83 15.93 7.83 16.52 8.56 16.27 8.77"/><path class="cls-1" d="M24.34,8.49a.66.66,0,1,1,.66.66A.66.66,0,0,1,24.34,8.49Zm.33,0A.33.33,0,1,0,25,8.16.33.33,0,0,0,24.67,8.49Z" transform="translate(-5.07)"/><polygon class="cls-1" points="18.72 8.77 19.21 8.16 21.54 8.16 21.54 7.83 19.06 7.83 18.46 8.56 18.72 8.77"/><path class="cls-1" d="M11.2,68.76H11c-.81,0-4.21-1.77-4.36-1.85l-.07,0,0-.08a17.78,17.78,0,0,1-.68-3.69,12.26,12.26,0,0,1,.51-3l0-.14H9.62l.06.08A6.35,6.35,0,0,1,11,62.67c0,.9-.1,2-.1,2a.7.7,0,0,1-.14.53.56.56,0,0,1-.42.16h0a.78.78,0,0,1-.84-.67l0-.93-1-.46h0v0a4.1,4.1,0,0,0-.21,1.14,7.3,7.3,0,0,0,.22,1.4v0l1.9,1.42a1.42,1.42,0,0,1,.92,1.27ZM6.95,66.61a26.3,26.3,0,0,0,3.86,1.73,1.51,1.51,0,0,0-.7-.66L8.17,66.23A.34.34,0,0,1,8,66a7.44,7.44,0,0,1-.22-1.47A4.38,4.38,0,0,1,8,63.26a.35.35,0,0,1,.2-.27.43.43,0,0,1,.36,0l1,.46a.35.35,0,0,1,.21.3l0,1c0,.16.21.3.44.3a.27.27,0,0,0,.14,0s0-.07,0-.28c0,0,.1-1.16.1-2a5.66,5.66,0,0,0-1.13-2.31H6.75a11.62,11.62,0,0,0-.45,2.75A17,17,0,0,0,6.95,66.61Z" transform="translate(-5.07)"/><path class="cls-1" d="M40.74,67.5h-.16l0-.15c-.07-.3.21-.91.95-1.29l1.87-1.42a7.3,7.3,0,0,0,.22-1.4,4.1,4.1,0,0,0-.21-1.14v0l-1,.45,0,.93a.78.78,0,0,1-.83.68.57.57,0,0,1-.43-.16.74.74,0,0,1-.14-.56h0s-.1-1.12-.1-2a6.35,6.35,0,0,1,1.27-2.63l.06-.08h3.16l0,.14a12.26,12.26,0,0,1,.51,3,17.78,17.78,0,0,1-.68,3.69l0,.08-.07,0C44.95,65.73,41.55,67.5,40.74,67.5Zm3-2.78a.34.34,0,0,1-.14.24L41.7,66.4a1.58,1.58,0,0,0-.72.68,26.32,26.32,0,0,0,3.86-1.73,17.05,17.05,0,0,0,.64-3.5A11.61,11.61,0,0,0,45,59.09H42.35a5.66,5.66,0,0,0-1.13,2.31c0,.88.1,2,.1,2,0,.24,0,.3,0,.31a.28.28,0,0,0,.15,0c.22,0,.42-.14.43-.31l0-1a.35.35,0,0,1,.21-.3l1-.47a.44.44,0,0,1,.35,0,.35.35,0,0,1,.21.27A4.38,4.38,0,0,1,44,63.25,7.43,7.43,0,0,1,43.75,64.72Z" transform="translate(-5.07)"/><g id="_Group_" data-name="&lt;Group&gt;"><polygon class="cls-2" points="36.44 35.86 36.88 37.2 35.62 37.62 35.59 37.55 35.15 36.23 36.42 35.8 36.44 35.86"/><polygon class="cls-2" points="35.59 37.55 35.62 37.62 34.45 38.02 33.99 36.66 33.98 36.62 35.15 36.23 35.59 37.55"/><polygon class="cls-2" points="33.99 36.66 34.45 38.02 33.26 38.41 32.79 37.02 33.98 36.62 33.99 36.66"/><rect class="cls-1" x="37.67" y="35.67" width="7.25" height="0.39" transform="translate(-14.34 15.01) rotate(-18.56)"/><rect class="cls-1" x="38.15" y="37.09" width="7.09" height="0.39" transform="translate(-14.77 15.21) rotate(-18.56)"/><polygon class="cls-1" points="37.84 36.84 37.39 35.48 37.74 35.32 38.21 36.72 37.84 36.84"/><polygon class="cls-1" points="39.01 36.45 38.56 35.09 38.91 34.93 39.38 36.33 39.01 36.45"/><rect class="cls-1" x="41.55" y="35.82" width="0.39" height="1.47" transform="translate(-14.52 15.16) rotate(-18.53)"/><rect class="cls-1" x="40.24" y="36.12" width="0.39" height="1.47" transform="translate(-14.69 14.77) rotate(-18.54)"/><polygon class="cls-1" points="34.27 38.11 33.81 36.72 34.17 36.59 34.63 37.95 34.64 37.99 34.27 38.11"/><rect class="cls-1" x="37.9" y="36.98" width="0.39" height="1.47" transform="matrix(0.95, -0.32, 0.32, 0.95, -15.08, 14.06)"/></g><path class="cls-2" d="M52.81,32.63A28.24,28.24,0,0,1,49,32.22a4.75,4.75,0,0,0-2.95.05,4.34,4.34,0,0,0-.58.37A15.85,15.85,0,0,0,43.1,34.9a.41.41,0,0,0,.5.6l1-.59a5.07,5.07,0,0,1,1.89-.72.71.71,0,0,1,.68.43.73.73,0,0,1-.44.81,2.48,2.48,0,0,1-1,.15,1.33,1.33,0,0,0-.58.12.5.5,0,0,0-.28.49c0,.27.35.4.61.46a6.82,6.82,0,0,0,4.13-.27c1.06-.42,2.08-1.11,3.21-1" transform="translate(-5.07)"/><path class="cls-1" d="M47.09,37.05a6.93,6.93,0,0,1-1.68-.21c-.45-.11-.71-.32-.75-.62a.69.69,0,0,1,.38-.69,1.49,1.49,0,0,1,.67-.14h.1a2.05,2.05,0,0,0,.82-.13.55.55,0,0,0,.34-.58.52.52,0,0,0-.5-.3h0a3.3,3.3,0,0,0-1.35.48l-.44.22h0l-.47.29-.53.32a.59.59,0,0,1-.69-.17.59.59,0,0,1,0-.73,16.07,16.07,0,0,1,2.47-2.31,4.51,4.51,0,0,1,.6-.38A4.72,4.72,0,0,1,49,32l.13,0a28.1,28.1,0,0,0,3.74.41.19.19,0,0,1,.19.2.19.19,0,0,1-.2.19A28.5,28.5,0,0,1,49,32.41l-.13,0a4.37,4.37,0,0,0-2.7.06,4.1,4.1,0,0,0-.55.35A15.67,15.67,0,0,0,43.25,35a.2.2,0,0,0,0,.26.21.21,0,0,0,.25.06h0L44,35l.53-.32.41-.2A3.57,3.57,0,0,1,46.45,34h0a.91.91,0,0,1,.87.57.92.92,0,0,1-.54,1,2.37,2.37,0,0,1-1,.17h-.09a1.17,1.17,0,0,0-.5.09.31.31,0,0,0-.18.28c0,.17.3.26.46.31a6.62,6.62,0,0,0,4-.26c.27-.11.54-.23.8-.36a4.94,4.94,0,0,1,2.5-.67.19.19,0,0,1,.18.21.19.19,0,0,1-.21.18,4.6,4.6,0,0,0-2.3.64c-.27.13-.55.26-.83.37A7,7,0,0,1,47.09,37.05Z" transform="translate(-5.07)"/><path class="cls-2" d="M56.1,48.75l-1.2,1.69C44.26,42.77,44.3,36.53,44.3,36.53h.61S45.95,42.51,56.1,48.75Z" transform="translate(-5.07)"/><path class="cls-1" d="M54.91,50.63a.19.19,0,0,1-.11,0C44.18,43,44.1,36.78,44.1,36.53a.19.19,0,0,1,.19-.19h.61a.19.19,0,0,1,.19.16c0,.06,1.16,6,11.11,12.09a.19.19,0,0,1,.06.28l-1.2,1.69a.19.19,0,0,1-.13.08ZM44.5,36.72c.11,1.1,1.11,6.73,10.36,13.44l1-1.36C46.66,43.12,45,37.73,44.75,36.72Z" transform="translate(-5.07)"/><rect class="cls-1" x="53.13" y="48.47" width="2" height="0.39" transform="translate(-21.75 65.52) rotate(-55.35)"/><rect class="cls-1" x="51.91" y="47.48" width="1.84" height="0.39" transform="translate(-21.82 62.56) rotate(-54.14)"/><rect class="cls-1" x="50.84" y="46.57" width="1.74" height="0.39" transform="matrix(0.61, -0.79, 0.79, 0.61, -21.98, 59.08)"/><rect class="cls-1" x="49.84" y="45.64" width="1.64" height="0.39" transform="translate(-22.06 55.36) rotate(-50.15)"/><rect class="cls-1" x="48.92" y="44.72" width="1.55" height="0.39" transform="matrix(0.65, -0.76, 0.76, 0.65, -21.83, 53.33)"/><rect class="cls-1" x="48.2" y="43.93" width="1.47" height="0.39" transform="translate(-21.89 48.3) rotate(-45.67)"/><rect class="cls-1" x="47.4" y="42.98" width="1.38" height="0.39" transform="translate(-21.43 47.9) rotate(-46.11)"/><rect class="cls-1" x="46.78" y="42.14" width="1.29" height="0.39" transform="translate(-21.17 39.91) rotate(-39.57)"/><rect class="cls-1" x="46.18" y="41.26" width="1.2" height="0.39" transform="translate(-20.69 37.83) rotate(-38.22)"/><rect class="cls-1" x="45.62" y="40.38" width="1.14" height="0.39" transform="matrix(0.86, -0.51, 0.51, 0.86, -19.3, 29.21)"/><rect class="cls-1" x="45.17" y="39.39" width="1" height="0.39" transform="translate(-16.95 21.12) rotate(-23.13)"/><rect class="cls-1" x="44.75" y="38.36" width="0.88" height="0.39" transform="translate(-14.53 15.27) rotate(-17.39)"/><rect class="cls-1" x="44.49" y="37.51" width="0.78" height="0.39" transform="translate(-11 8.48) rotate(-10.12)"/></g></g></svg>