<svg xmlns="http://www.w3.org/2000/svg" viewBox="0 0 58.68 83.05"><defs><style>.cls-1{fill:#231f20;}.cls-2{fill:#fff;}.cls-3{fill:none;stroke:#231f20;stroke-linecap:round;stroke-linejoin:round;}</style></defs><title>Asset 1</title><g id="Layer_2" data-name="Layer 2"><g id="Layer_1-2" data-name="Layer 1"><path class="cls-1" d="M30.43,21.44a4.28,4.28,0,0,1-3.51-1.74,14.16,14.16,0,0,1-1.27-3.15C25,14.78,25,12.15,25,5.8V5.12a.19.19,0,1,1,.39,0V5.8c0,6.3,0,8.91.58,10.62a13.61,13.61,0,0,0,1.23,3.07A4,4,0,0,0,30.48,21a.18.18,0,0,1,.2.19.19.19,0,0,1-.19.2Z"/><path class="cls-1" d="M34.67,20.37a.19.19,0,0,1-.12-.35l2.66-2A1.91,1.91,0,0,0,38,16.51V14.93a.19.19,0,0,1,.39,0v1.58a2.3,2.3,0,0,1-.91,1.83l-2.66,2A.19.19,0,0,1,34.67,20.37Z"/><path class="cls-1" d="M30.09,14.62a11.16,11.16,0,0,1-1.86-.18.19.19,0,0,1,.07-.38,8.33,8.33,0,0,0,2.84.06L31,13.53a.19.19,0,0,1,.38-.09l.17.76a.19.19,0,0,1-.12.23A4.14,4.14,0,0,1,30.09,14.62Z"/><polyline class="cls-2" points="31.37 29.4 30.2 52.66 32.63 56.01 35.07 52.42 33.7 29.4"/><path class="cls-1" d="M32.64,56.21a.19.19,0,0,1-.16-.08L30,52.77a.19.19,0,0,1,0-.12l1.17-23.26a.19.19,0,0,1,.39,0L30.4,52.6l2.23,3.07,2.24-3.31L33.51,29.41a.19.19,0,1,1,.39,0l1.37,23a.19.19,0,0,1,0,.12L32.8,56.12a.19.19,0,0,1-.16.09Z"/><path class="cls-1" d="M30.39,17.12a8.9,8.9,0,0,1-1.91-.21.19.19,0,1,1,.08-.38,8.48,8.48,0,0,0,3.66,0,.19.19,0,0,1,.08.38A8.9,8.9,0,0,1,30.39,17.12Z"/><path class="cls-1" d="M29.09,17a2.26,2.26,0,0,0,2.6,0"/><path class="cls-1" d="M30.38,17.63a2,2,0,0,1-1.43-.47.19.19,0,0,1,.28-.27,1.72,1.72,0,0,0,1.23.35,1.62,1.62,0,0,0,1.08-.34.19.19,0,1,1,.29.25,1.91,1.91,0,0,1-1.36.48Z"/><path class="cls-1" d="M29.85.68a8.32,8.32,0,0,1,6.09.2,14.77,14.77,0,0,1,1.66.89,9.26,9.26,0,0,1,1.26.85,6.51,6.51,0,0,1,1.42,1.79,6.52,6.52,0,0,1,.76,2,9.94,9.94,0,0,1,.12,1.78l0,4.45a2,2,0,0,1-.08.73,2.06,2.06,0,0,1-.94.92,2.6,2.6,0,0,1-2.09.57,2.11,2.11,0,0,0,.86-1.2,1.43,1.43,0,0,0-.12-1.13.88.88,0,0,0-1-.39,14.45,14.45,0,0,1-.9-4A3.42,3.42,0,0,1,37.84,5a16.53,16.53,0,0,1-2.77.28q-2.88.12-5.76.17a18.52,18.52,0,0,1-5.12-.41c-.22-.06-.47-.16-.53-.38a.67.67,0,0,1,.07-.4,3.48,3.48,0,0,1,1-1.62c.26-.18.56-.29.8-.49s.46-.54.72-.78A3.56,3.56,0,0,1,29,.82a2.12,2.12,0,0,0,.41,0A2.42,2.42,0,0,0,29.85.68Z"/><path class="cls-1" d="M38.51,15.09A1.57,1.57,0,0,1,38,15a.19.19,0,0,1,0-.35,1.92,1.92,0,0,0,.78-1.08,1.24,1.24,0,0,0-.1-1,.7.7,0,0,0-.78-.31.19.19,0,0,1-.25-.11,14.61,14.61,0,0,1-.92-4,4.12,4.12,0,0,1,.56-2.84,20.94,20.94,0,0,1-2.19.17c-1.91.08-3.85.14-5.77.17H28.2a15.71,15.71,0,0,1-4.06-.43c-.14,0-.58-.15-.67-.52a.85.85,0,0,1,.08-.52,3.67,3.67,0,0,1,1.11-1.71A3.65,3.65,0,0,1,25,2.28,2.7,2.7,0,0,0,25.45,2a2.69,2.69,0,0,0,.37-.4,3.7,3.7,0,0,1,.34-.37A3.05,3.05,0,0,1,28.3.61l.67,0a2,2,0,0,0,.37,0,2,2,0,0,0,.39-.11l.05,0A8.37,8.37,0,0,1,32.63,0,8.5,8.5,0,0,1,36,.7a15,15,0,0,1,1.68.9A9.47,9.47,0,0,1,39,2.47a6.62,6.62,0,0,1,1.47,1.85,6.64,6.64,0,0,1,.78,2,10.13,10.13,0,0,1,.12,1.82l0,4.45a2.21,2.21,0,0,1-.1.8,2.24,2.24,0,0,1-1,1A3.51,3.51,0,0,1,38.51,15.09ZM38,11.87a1.13,1.13,0,0,1,.92.52,1.62,1.62,0,0,1,.14,1.28,2.32,2.32,0,0,1-.59,1,3.23,3.23,0,0,0,1.54-.61,1.87,1.87,0,0,0,.86-.82,1.89,1.89,0,0,0,.07-.66l0-4.45a9.82,9.82,0,0,0-.12-1.75,6.27,6.27,0,0,0-.73-1.91,6.24,6.24,0,0,0-1.38-1.74,9.12,9.12,0,0,0-1.23-.84,14.67,14.67,0,0,0-1.63-.88A8.12,8.12,0,0,0,32.63.39a8,8,0,0,0-2.72.47l-.05,0a2.27,2.27,0,0,1-.47.13,2.31,2.31,0,0,1-.45,0L28.3,1a2.61,2.61,0,0,0-1.87.54,3.36,3.36,0,0,0-.3.34,3,3,0,0,1-.43.45,3,3,0,0,1-.46.29,3.31,3.31,0,0,0-.35.21,3.37,3.37,0,0,0-1,1.54.53.53,0,0,0-.06.28c0,.1.15.18.39.24a15.36,15.36,0,0,0,4,.41h1.1c1.91,0,3.84-.09,5.76-.17a16.15,16.15,0,0,0,2.74-.27.19.19,0,0,1,.16.35c-.7.51-1,1.5-.87,2.95a14.22,14.22,0,0,0,.83,3.74Z"/><g id="_Group_" data-name="&lt;Group&gt;"><rect class="cls-2" x="43.44" y="41.74" width="2.65" height="2.43"/><rect class="cls-2" x="40.79" y="41.74" width="2.65" height="2.43"/><rect class="cls-2" x="38.15" y="41.74" width="2.65" height="2.43"/><rect class="cls-2" x="35.5" y="41.74" width="2.65" height="2.43"/><rect class="cls-2" x="32.85" y="41.74" width="2.65" height="2.43"/><rect class="cls-2" x="30.21" y="41.74" width="2.65" height="2.43"/><rect class="cls-2" x="27.56" y="41.74" width="2.65" height="2.43"/><rect class="cls-2" x="24.91" y="41.74" width="2.65" height="2.43"/><rect class="cls-2" x="22.27" y="41.74" width="2.65" height="2.43"/><rect class="cls-2" x="19.62" y="41.74" width="2.65" height="2.43"/><rect class="cls-2" x="16.97" y="41.74" width="2.65" height="2.43"/><rect class="cls-2" x="14.33" y="41.74" width="2.65" height="2.43"/><rect class="cls-1" x="12.43" y="41.54" width="36.11" height="0.39"/><rect class="cls-1" x="11.89" y="43.97" width="36.43" height="0.39"/><rect class="cls-1" x="45.89" y="41.74" width="0.39" height="2.43"/><rect class="cls-1" x="43.25" y="41.74" width="0.39" height="2.43"/><rect class="cls-1" x="40.6" y="41.74" width="0.39" height="2.43"/><rect class="cls-1" x="37.95" y="41.74" width="0.39" height="2.43"/><rect class="cls-1" x="35.31" y="41.74" width="0.39" height="2.43"/><rect class="cls-1" x="32.66" y="41.74" width="0.39" height="2.43"/><rect class="cls-1" x="30.01" y="41.74" width="0.39" height="2.43"/><rect class="cls-1" x="27.37" y="41.74" width="0.39" height="2.43"/><rect class="cls-1" x="24.72" y="41.74" width="0.39" height="2.43"/><rect class="cls-1" x="22.07" y="41.74" width="0.39" height="2.43"/><rect class="cls-1" x="19.43" y="41.74" width="0.39" height="2.43"/><rect class="cls-1" x="16.78" y="41.74" width="0.39" height="2.43"/><rect class="cls-1" x="14.13" y="41.74" width="0.39" height="2.43"/></g><path class="cls-1" d="M28.94,22.73a.19.19,0,0,1-.19-.19V21a.19.19,0,0,1,.39,0v1.49A.19.19,0,0,1,28.94,22.73Z"/><path class="cls-1" d="M29.53,31.12a.19.19,0,0,1-.18-.12c-.07-.17-1.84-4.21-2.14-5.13a3.16,3.16,0,0,1,1.21-3.5.19.19,0,0,1,.22,0s3.75,2.82,4.11,3.07a.19.19,0,0,1,0,.28s-2.88,3.41-3.06,5.2a.19.19,0,0,1-.16.17Zm-1-8.34a2.83,2.83,0,0,0-.94,3c.23.7,1.39,3.38,1.89,4.55a17.7,17.7,0,0,1,2.89-4.65Z"/><path class="cls-1" d="M37.88,21.66a.19.19,0,0,1-.16-.08A2.62,2.62,0,0,1,37.37,20V18a.19.19,0,0,1,.19-.2h0a.19.19,0,0,1,.19.19v2A2.24,2.24,0,0,0,38,21.35a.19.19,0,0,1-.16.31Z"/><path class="cls-1" d="M35.23,30.65h-.07a.19.19,0,0,1-.13-.18c0-1.47-2.53-4.69-2.55-4.72a.19.19,0,0,1,0-.28c1.08-.7,5.47-4.32,5.52-4.36a.19.19,0,0,1,.29.06c.9,1.68,1.28,2.86.69,4.34s-3.53,4.94-3.65,5.09A.19.19,0,0,1,35.23,30.65Zm-2.31-5A15,15,0,0,1,35.37,30a28.54,28.54,0,0,0,3.31-4.64c.51-1.28.22-2.31-.56-3.8C37.3,22.21,34.09,24.84,32.92,25.66Z"/><path class="cls-1" d="M33.7,29.6H31.37a.19.19,0,0,1-.16-.08l-.73-1.06a.19.19,0,0,1,.32-.22l.67,1H33.6l.7-1a.19.19,0,1,1,.32.23l-.76,1.06A.19.19,0,0,1,33.7,29.6Z"/><path class="cls-1" d="M16.06,70.94H10.75a.19.19,0,0,1-.19-.19l-.13-3.59a8.41,8.41,0,0,1-.65-4.61c.31-2,.45-4.3.63-7.26q.07-1.1.14-2.3c.25-3.94,2.23-15.24,3.18-20.66L13.8,32c.91-5.22,3.13-6.28,3.22-6.32l.06,0,10.19-1.21a.19.19,0,1,1,0,.39L17.15,26c-.23.13-2.15,1.31-3,6l-.06.34C13.17,37.82,11.2,49.1,10.94,53q-.08,1.2-.14,2.3c-.18,3-.32,5.32-.64,7.3A8.12,8.12,0,0,0,10.79,67a.2.2,0,0,1,0,.08l.12,3.44h4.94c.05-.8.29-4.12.9-7.61.09-.49.19-1,.3-1.5.55-2.6,1.31-6.16,1.31-17.23a.19.19,0,1,1,.39,0c0,11.11-.76,14.7-1.32,17.31-.11.51-.21,1-.3,1.48a77,77,0,0,0-.9,7.75A.19.19,0,0,1,16.06,70.94Z"/><path class="cls-1" d="M57.74,69.32H52.41a.19.19,0,0,1-.19-.18c0-.15-.9-14.94-4-21.75a.19.19,0,0,1,.35-.16c2.9,6.47,3.87,20,4,21.71h5L58,64.72c1.38-13.08-1.78-23.3-3.67-29.41-.41-1.31-.76-2.45-1-3.37C52,26.93,48.93,26,48.9,26a62.09,62.09,0,0,0-9.8-1.85.19.19,0,1,1,0-.39A62.51,62.51,0,0,1,49,25.66c.13,0,3.36,1,4.66,6.18.23.91.58,2,1,3.35,1.9,6.14,5.07,16.41,3.68,29.56l-.4,4.39A.19.19,0,0,1,57.74,69.32Z"/><path class="cls-1" d="M16.27,68.35H10.66a.19.19,0,0,1,0-.39h5.62a.19.19,0,1,1,0,.39Z"/><rect class="cls-1" x="52.21" y="66.3" width="5.86" height="0.39" transform="translate(-1.92 1.64) rotate(-1.68)"/><path class="cls-1" d="M18.44,39.8a.19.19,0,0,1-.19-.18,42.45,42.45,0,0,0-1.89-9.78.19.19,0,1,1,.37-.12,42.85,42.85,0,0,1,1.91,9.87.19.19,0,0,1-.18.21Z"/><path class="cls-1" d="M32.13,64.29c-3.42,0-6.91-.08-9.62-.34a7.59,7.59,0,0,1-3.65-1,2.9,2.9,0,0,1-1.38-3.42.19.19,0,0,1,.38.08,2.53,2.53,0,0,0,1.22,3,7.27,7.27,0,0,0,3.46.94c7.83.74,22.27,0,22.41,0,2.11-.18,2-2.88,2-3l2.33-31.21a.19.19,0,0,1,.39,0L47.3,60.59S47.48,63.77,45,64C44.89,64,38.64,64.29,32.13,64.29Z"/><path class="cls-1" d="M19.37,81.82a.19.19,0,0,1-.19-.19c-.11-2.81-.13-6.12-.16-9.33S19,65.79,18.86,63a.19.19,0,0,1,.19-.2.19.19,0,0,1,.2.19c.11,2.81.13,6.12.16,9.33s.05,6.52.16,9.32a.19.19,0,0,1-.19.2Z"/><path class="cls-1" d="M39.82,82.21a.19.19,0,0,1-.19-.18c-.16-2-.25-4-.36-6.05-.11-2.3-.23-4.68-.44-7.09a.19.19,0,1,1,.39,0c.2,2.41.32,4.8.44,7.1.1,2.09.2,4.06.36,6a.19.19,0,0,1-.18.21Z"/><path class="cls-1" d="M46.75,83h0a.19.19,0,0,1-.18-.21c.13-1.59-.86-19.14-.87-19.32a.19.19,0,0,1,.39,0c0,.72,1,17.76.87,19.37A.19.19,0,0,1,46.75,83Z"/><path class="cls-1" d="M25.32,80.14a.19.19,0,0,1-.19-.19c0-6.07-.58-11.39-.58-11.44a.19.19,0,0,1,.39,0c0,.05.58,5.39.58,11.48A.19.19,0,0,1,25.32,80.14Z"/><path class="cls-1" d="M41.83,70.42a.19.19,0,0,1-.19-.19V68.87a.19.19,0,0,1,.39,0v1.36A.19.19,0,0,1,41.83,70.42Z"/><path class="cls-1" d="M22.4,69.74a.19.19,0,0,1-.19-.19V67.77a.19.19,0,1,1,.39,0v1.78A.19.19,0,0,1,22.4,69.74Z"/><path class="cls-1" d="M32.55,64.29h0a.19.19,0,0,1-.19-.2L32.44,56a.19.19,0,0,1,.19-.19h0a.19.19,0,0,1,.19.2l-.08,8.08A.19.19,0,0,1,32.55,64.29Z"/><path class="cls-1" d="M19.09,65.22c-.13.28,12.21,2.93,26.64,0V63.6S28.43,65.4,19.06,63Z"/><rect class="cls-2" x="29.93" y="64.09" width="4.82" height="3.04" rx="0.44" ry="0.44"/><path class="cls-1" d="M34.31,67.33H30.37a.63.63,0,0,1-.63-.63V64.53a.63.63,0,0,1,.63-.63h3.95a.63.63,0,0,1,.63.63v2.16A.63.63,0,0,1,34.31,67.33Zm-3.95-3a.24.24,0,0,0-.24.24v2.16a.24.24,0,0,0,.24.24h3.95a.24.24,0,0,0,.24-.24V64.53a.24.24,0,0,0-.24-.24Z"/><line class="cls-2" x1="31.57" y1="67.13" x2="31.57" y2="80.64"/><rect class="cls-1" x="31.37" y="67.13" width="0.39" height="13.51"/><line class="cls-2" x1="33.32" y1="67.13" x2="33.32" y2="73.88"/><rect class="cls-1" x="33.12" y="67.13" width="0.39" height="6.75"/><path class="cls-3" d="M3.69,70.75"/><path class="cls-2" d="M.19,58.54l1.41,2c12.53-9,12.48-16.37,12.48-16.37h-.72S12.14,51.21.19,58.54Z"/><path class="cls-1" d="M1.6,60.73h0a.19.19,0,0,1-.13-.08L0,58.65a.19.19,0,0,1,.06-.28c11.74-7.2,13.07-14.17,13.08-14.24a.19.19,0,0,1,.19-.16h.72a.19.19,0,0,1,.19.19c0,.3-.09,7.54-12.56,16.53A.2.2,0,0,1,1.6,60.73ZM.47,58.6l1.18,1.66c11-8,12.12-14.69,12.23-15.9h-.35C13.27,45.47,11.36,51.86.47,58.6Z"/><path class="cls-2" d="M1.85,39.39a41.15,41.15,0,0,0,5.49-.6c1.44-.26,3-.57,4.29.08a6.32,6.32,0,0,1,.84.54A23.1,23.1,0,0,1,16,42.71a.59.59,0,0,1-.73.88l-1.42-.87a7.38,7.38,0,0,0-2.76-1,1,1,0,0,0-1,.63,1.06,1.06,0,0,0,.64,1.18,3.61,3.61,0,0,0,1.44.22,1.93,1.93,0,0,1,.85.17.73.73,0,0,1,.41.71c-.06.39-.51.58-.89.67a9.93,9.93,0,0,1-6-.39c-1.54-.61-3-1.62-4.68-1.48"/><path class="cls-1" d="M10.2,45.75a10.1,10.1,0,0,1-3.7-.7c-.4-.16-.81-.35-1.2-.53a6.76,6.76,0,0,0-3.39-.94.19.19,0,0,1-.21-.18.19.19,0,0,1,.18-.21,7.15,7.15,0,0,1,3.59,1c.39.18.78.37,1.18.52a9.74,9.74,0,0,0,5.9.39c.31-.08.7-.23.74-.52A.54.54,0,0,0,13,44a1.78,1.78,0,0,0-.77-.15h-.13a3.39,3.39,0,0,1-1.38-.23,1.25,1.25,0,0,1-.75-1.42,1.23,1.23,0,0,1,1.18-.77,5.24,5.24,0,0,1,2.21.75l.63.31.65.4.78.48a.4.4,0,0,0,.47-.6,23,23,0,0,0-3.49-3.26,6.19,6.19,0,0,0-.81-.52,6.43,6.43,0,0,0-4-.09l-.18,0a41.46,41.46,0,0,1-5.52.61.2.2,0,0,1-.2-.19.19.19,0,0,1,.19-.2,41.07,41.07,0,0,0,5.46-.6l.18,0a6.8,6.8,0,0,1,4.23.13,6.48,6.48,0,0,1,.87.55,23.29,23.29,0,0,1,3.58,3.35.77.77,0,0,1,0,1,.78.78,0,0,1-.93.22l-.81-.49-.63-.39-.62-.31a4.91,4.91,0,0,0-2-.71.85.85,0,0,0-.81.5.87.87,0,0,0,.54.95,3.1,3.1,0,0,0,1.23.2h.14a2.09,2.09,0,0,1,.94.19.92.92,0,0,1,.51.91c-.06.4-.41.68-1,.83A10,10,0,0,1,10.2,45.75Z"/><rect class="cls-1" x="2.33" y="57.27" width="0.39" height="2.35" transform="translate(-32.76 11.79) rotate(-34.63)"/><rect class="cls-1" x="3.85" y="56.19" width="0.39" height="2.16" transform="translate(-32.8 13.23) rotate(-35.88)"/><rect class="cls-1" x="5.17" y="55.18" width="0.39" height="2.04" transform="translate(-33.23 14.99) rotate(-37.66)"/><rect class="cls-1" x="6.41" y="54.15" width="0.39" height="1.93" transform="translate(-33.76 17.01) rotate(-39.82)"/><rect class="cls-1" x="7.54" y="53.13" width="0.39" height="1.82" transform="translate(-33.33 18.07) rotate(-40.65)"/><rect class="cls-1" x="8.44" y="52.24" width="0.39" height="1.72" transform="translate(-34.64 21.14) rotate(-44.31)"/><rect class="cls-1" x="9.43" y="51.17" width="0.39" height="1.62" transform="translate(-33.37 21.22) rotate(-43.93)"/><rect class="cls-1" x="10.22" y="50.24" width="0.39" height="1.51" transform="translate(-35.53 26.52) rotate(-50.42)"/><rect class="cls-1" x="10.97" y="49.25" width="0.39" height="1.41" transform="translate(-35 27.84) rotate(-51.81)"/><rect class="cls-1" x="11.66" y="48.25" width="0.39" height="1.34" transform="translate(-36.28 34.2) rotate(-59.37)"/><rect class="cls-1" x="12.28" y="47.18" width="0.39" height="1.18" transform="translate(-36.34 40.43) rotate(-66.82)"/><rect class="cls-1" x="12.84" y="46.04" width="0.39" height="1.04" transform="translate(-35.29 45.12) rotate(-72.66)"/><rect class="cls-1" x="13.21" y="45.09" width="0.39" height="0.91" transform="translate(-33.78 50.77) rotate(-79.91)"/><path class="cls-1" d="M27.37,10.74a.78.78,0,1,1,.78-.78A.78.78,0,0,1,27.37,10.74Zm0-1.16a.39.39,0,1,0,.39.39A.39.39,0,0,0,27.37,9.57Z"/><polygon class="cls-1" points="28.79 10.29 28.21 9.57 25.47 9.57 25.47 9.18 28.39 9.18 29.09 10.04 28.79 10.29"/><path class="cls-1" d="M32.32,10a.78.78,0,1,1,.78.78A.78.78,0,0,1,32.32,10Zm.39,0a.39.39,0,1,0,.39-.39A.39.39,0,0,0,32.71,10Z"/><polygon class="cls-1" points="31.67 10.29 32.26 9.57 35 9.57 35 9.18 32.07 9.18 31.37 10.04 31.67 10.29"/><path class="cls-1" d="M16.84,80.83h-.16c-1,0-4.94-2.08-5.11-2.17l-.07,0,0-.08a20.87,20.87,0,0,1-.8-4.33,14.36,14.36,0,0,1,.6-3.52l0-.14H15l.06.08c.06.08,1.49,2,1.49,3.07s-.12,2.39-.12,2.41a.81.81,0,0,1-.15.61.63.63,0,0,1-.47.18h0a.89.89,0,0,1-.95-.76l0-1.14-1.19-.53-.14-.18.08.21v0a4.84,4.84,0,0,0-.25,1.35,8.63,8.63,0,0,0,.25,1.65v0l2.24,1.67c.89.45,1.14,1.18,1.07,1.46Zm-5-2.48a29.51,29.51,0,0,0,4.63,2.06,1.75,1.75,0,0,0-.86-.86l-2.28-1.7a.36.36,0,0,1-.15-.26,8.72,8.72,0,0,1-.26-1.73,5.12,5.12,0,0,1,.26-1.46.38.38,0,0,1,.22-.3.47.47,0,0,1,.39,0l1.19.55a.38.38,0,0,1,.23.33l0,1.13c0,.21.26.39.55.39.11,0,.17,0,.19,0s.07-.1.05-.36c0,0,.12-1.36.12-2.4a6.72,6.72,0,0,0-1.35-2.76H11.61a13.77,13.77,0,0,0-.54,3.27A20.16,20.16,0,0,0,11.83,78.36Z"/><path class="cls-1" d="M51.61,79.35h-.16l0-.15c-.07-.28.18-1,1.1-1.47l2.22-1.67A9.36,9.36,0,0,0,55,74.38,4.84,4.84,0,0,0,54.75,73V73l-.06,0-1.19.55,0,1.12a.89.89,0,0,1-.94.77.64.64,0,0,1-.48-.18.84.84,0,0,1-.15-.64h0s-.12-1.32-.12-2.38,1.43-3,1.49-3.07l.06-.08H57l0,.14a14.36,14.36,0,0,1,.6,3.52,20.87,20.87,0,0,1-.8,4.33l0,.08-.07,0C56.55,77.27,52.56,79.35,51.61,79.35Zm3.51-3.24a.37.37,0,0,1-.15.26l-2.25,1.68a1.81,1.81,0,0,0-.89.87,29.53,29.53,0,0,0,4.63-2.06,20.17,20.17,0,0,0,.76-4.14,13.75,13.75,0,0,0-.54-3.27H53.5a6.84,6.84,0,0,0-1.35,2.76c0,1,.12,2.36.12,2.37,0,.28,0,.36.05.38s.09,0,.2,0a.51.51,0,0,0,.54-.39l0-1.12a.38.38,0,0,1,.23-.33l1.19-.55a.48.48,0,0,1,.39,0,.38.38,0,0,1,.22.3,5.12,5.12,0,0,1,.26,1.46A8.71,8.71,0,0,1,55.12,76.11Z"/></g></g></svg>