<svg xmlns="http://www.w3.org/2000/svg" viewBox="0 0 33.6 83.89"><defs><style>.cls-1{fill:#231f20;}.cls-2{fill:#fff;}</style></defs><title>Asset 5</title><g id="Layer_2" data-name="Layer 2"><g id="Layer_1-2" data-name="Layer 1"><path class="cls-1" d="M9.27,7.21C7.32,5,6,.3,5.93.11L6.31,0S7.67,4.77,9.57,7Z"/><path class="cls-1" d="M22.44,72.57h0l-10.88-.11a.19.19,0,0,1-.14-.06c-.1-.1-.26-.49-.26-2,0-7.25-2.78-28.56-4.27-40-.38-2.92-.68-5.22-.84-6.53-.9-7.61,3.09-14.93,3.13-15A.19.19,0,1,1,9.53,9c0,.07-4,7.28-3.09,14.77.16,1.31.46,3.61.84,6.53,1.49,11.46,4.27,32.78,4.27,40.06a6.53,6.53,0,0,0,.14,1.69l10.56.11L23.41,9.94a.19.19,0,0,1,.19-.19h0a.19.19,0,0,1,.19.2L22.63,72.37A.19.19,0,0,1,22.44,72.57Z"/><path class="cls-1" d="M22.48,70.57H11.36a.19.19,0,0,1,0-.39H22.48a.19.19,0,0,1,0,.39Z"/><path class="cls-2" d="M26,7.08l-.39,19.21s0,3.94-2.43,6.33L23.7,7.08Z"/><path class="cls-1" d="M23.18,32.81l-.08,0a.19.19,0,0,1-.12-.18L23.5,7.08a.19.19,0,0,1,.19-.19H26a.19.19,0,0,1,.19.2L25.81,26.3c0,.16,0,4-2.49,6.46A.19.19,0,0,1,23.18,32.81Zm.71-25.54-.5,24.84a10.09,10.09,0,0,0,2-5.83l.38-19Z"/><line class="cls-2" x1="26" y1="8.63" x2="23.67" y2="8.63"/><rect class="cls-1" x="23.67" y="8.44" width="2.33" height="0.39"/><line class="cls-2" x1="26" y1="10.06" x2="23.67" y2="10.06"/><rect class="cls-1" x="23.67" y="9.86" width="2.33" height="0.39"/><line class="cls-2" x1="26" y1="11.48" x2="23.67" y2="11.48"/><rect class="cls-1" x="23.67" y="11.29" width="2.33" height="0.39"/><line class="cls-2" x1="26" y1="12.9" x2="23.67" y2="12.9"/><rect class="cls-1" x="23.67" y="12.71" width="2.33" height="0.39"/><line class="cls-2" x1="26" y1="14.33" x2="23.67" y2="14.33"/><rect class="cls-1" x="23.67" y="14.13" width="2.33" height="0.39"/><line class="cls-2" x1="26" y1="15.75" x2="23.67" y2="15.75"/><rect class="cls-1" x="23.67" y="15.55" width="2.33" height="0.39"/><line class="cls-2" x1="26" y1="17.17" x2="23.67" y2="17.17"/><rect class="cls-1" x="23.67" y="16.98" width="2.33" height="0.39"/><line class="cls-2" x1="25.76" y1="18.6" x2="23.43" y2="18.6"/><rect class="cls-1" x="23.43" y="18.4" width="2.33" height="0.39"/><line class="cls-2" x1="25.76" y1="20.02" x2="23.43" y2="20.02"/><rect class="cls-1" x="23.43" y="19.82" width="2.33" height="0.39"/><line class="cls-2" x1="25.68" y1="21.44" x2="23.35" y2="21.44"/><rect class="cls-1" x="23.35" y="21.25" width="2.33" height="0.39"/><line class="cls-2" x1="25.68" y1="22.86" x2="23.35" y2="22.86"/><rect class="cls-1" x="23.35" y="22.67" width="2.33" height="0.39"/><line class="cls-2" x1="25.68" y1="24.29" x2="23.35" y2="24.29"/><rect class="cls-1" x="23.35" y="24.09" width="2.33" height="0.39"/><line class="cls-2" x1="25.68" y1="25.71" x2="23.35" y2="25.71"/><rect class="cls-1" x="23.35" y="25.52" width="2.33" height="0.39"/><line class="cls-2" x1="25.68" y1="27.13" x2="23.35" y2="27.13"/><rect class="cls-1" x="23.35" y="26.94" width="2.33" height="0.39"/><line class="cls-2" x1="25.31" y1="28.56" x2="23.35" y2="28.56"/><rect class="cls-1" x="23.35" y="28.36" width="1.96" height="0.39"/><line class="cls-2" x1="24.87" y1="29.98" x2="23.35" y2="29.98"/><rect class="cls-1" x="23.35" y="29.79" width="1.52" height="0.39"/><path class="cls-1" d="M22.16,83.89a10.29,10.29,0,0,1-5.07-1.11c-.17-.09-.33-.2-.49-.31A2.21,2.21,0,0,0,15.45,82a1.49,1.49,0,0,0-1.45.88c-.19.3-.38.62-.78.62s-.7,0-.9,0H11.9a.19.19,0,0,1-.12,0c-1.4-1.2-.92-4.21-.47-7.12a22.76,22.76,0,0,0,.42-4.13l.39,0a23,23,0,0,1-.42,4.21c-.43,2.76-.88,5.62.28,6.72h.35c.19,0,.35,0,.87,0,.18,0,.28-.15.46-.44a1.86,1.86,0,0,1,1.78-1.06,2.52,2.52,0,0,1,1.38.58c.15.1.3.21.46.29,2.48,1.38,5.61,1.09,8.12.86a1.6,1.6,0,0,0,.67-.16,1.08,1.08,0,0,0,.43-.92,3.17,3.17,0,0,0-2-2.69,11.27,11.27,0,0,0-2.37-.73c-.4-.09-.81-.18-1.21-.3a4.77,4.77,0,0,1-3.13-2.16,6.11,6.11,0,0,1-.19-3.84l0-.24.38.06,0,.24a5.84,5.84,0,0,0,.15,3.6,4.41,4.41,0,0,0,2.9,2c.39.11.79.2,1.19.29a11.56,11.56,0,0,1,2.45.75,3.55,3.55,0,0,1,2.21,3,1.46,1.46,0,0,1-.62,1.24,1.92,1.92,0,0,1-.84.21C24.42,83.79,23.3,83.89,22.16,83.89Z"/><path class="cls-1" d="M26.62,81.71l-.07-.38a2.45,2.45,0,0,0,1.39-.54,1.64,1.64,0,0,0-.2-2.14,5.14,5.14,0,0,0-2.27-1.15l-1.89-.59a5.67,5.67,0,0,1-1.21-.48,4.08,4.08,0,0,1-1.66-4l.39,0a3.69,3.69,0,0,0,1.47,3.62,5.39,5.39,0,0,0,1.13.44l1.89.59A5.51,5.51,0,0,1,28,78.37a2,2,0,0,1,.2,2.68A2.84,2.84,0,0,1,26.62,81.71Z"/><path d="M14.34,72.38a23.36,23.36,0,0,0,.26,3.29c.06.41.23.9.64.95a.65.65,0,0,0,.61-.39,1.87,1.87,0,0,0,.14-.75q.07-1.51,0-3"/><path class="cls-1" d="M15.29,76.82h-.07c-.42,0-.71-.44-.81-1.11a23.63,23.63,0,0,1-.27-3.32h.39a23.25,23.25,0,0,0,.26,3.27c0,.22.15.75.46.78a.46.46,0,0,0,.42-.29,1.71,1.71,0,0,0,.12-.68c0-1,.06-2,0-3h.39c0,1,0,2,0,3a2,2,0,0,1-.16.83A.86.86,0,0,1,15.29,76.82Z"/><path class="cls-2" d="M11.37,8.93S5.15,20.16,7.68,28.71l-.6,1.53S2.21,22.57,9.36,8.93Z"/><path class="cls-1" d="M7.07,30.43a.19.19,0,0,1-.16-.09,13.35,13.35,0,0,1-1.57-5.62c-.3-3.33.13-8.79,3.85-15.87a.19.19,0,0,1,.17-.1h2a.19.19,0,0,1,.17.29,41.26,41.26,0,0,0-2.78,6.65c-1.12,3.51-2.19,8.61-.9,13a.19.19,0,0,1,0,.13l-.6,1.53a.19.19,0,0,1-.16.12Zm2.4-21.3c-3.61,6.94-4,12.27-3.75,15.53A14.49,14.49,0,0,0,7,29.78l.43-1.08C5.22,20.94,10.11,10.94,11,9.12Z"/><rect class="cls-1" x="8.69" y="10.12" width="1.91" height="0.39"/><rect class="cls-1" x="8" y="11.66" width="1.94" height="0.39"/><rect class="cls-1" x="7.49" y="12.97" width="1.93" height="0.39"/><rect class="cls-1" x="6.91" y="14.28" width="1.93" height="0.39"/><rect class="cls-1" x="6.71" y="15.59" width="1.93" height="0.39"/><rect class="cls-1" x="6.36" y="16.91" width="1.7" height="0.39"/><rect class="cls-1" x="5.91" y="18.22" width="1.96" height="0.39"/><rect class="cls-1" x="5.73" y="19.53" width="1.75" height="0.39"/><rect class="cls-1" x="5.54" y="20.85" width="1.74" height="0.39"/><rect class="cls-1" x="5.54" y="22.16" width="1.55" height="0.39"/><rect class="cls-1" x="5.47" y="23.47" width="1.62" height="0.39"/><rect class="cls-1" x="5.54" y="24.78" width="1.55" height="0.39"/><rect class="cls-1" x="5.73" y="26.1" width="1.55" height="0.39"/><rect class="cls-1" x="6.12" y="27.41" width="1.17" height="0.39"/><rect class="cls-1" x="6.31" y="28.72" width="1.36" height="0.39"/><path class="cls-2" d="M9,6.74a113.34,113.34,0,0,0,15.12.74V9.67s-11.37,0-15.25-.74Z"/><path class="cls-1" d="M24.09,9.86h0c-.11,0-11.43,0-15.29-.74a.19.19,0,0,1-.16-.2l.13-2.19a.19.19,0,0,1,.07-.14.19.19,0,0,1,.15,0,120.21,120.21,0,0,0,12.72.78c.82,0,1.62,0,2.37,0a.2.2,0,0,1,.14.05.19.19,0,0,1,.06.14V9.67a.19.19,0,0,1-.19.19ZM9,8.77c3.68.63,13.36.7,14.85.7V7.68c-.7,0-1.43,0-2.18,0A120.54,120.54,0,0,1,9.15,7Z"/><rect class="cls-1" x="9.89" y="6.87" width="0.39" height="2.24"/><rect class="cls-1" x="11.17" y="7.08" width="0.39" height="2.24"/><rect class="cls-1" x="12.46" y="7.16" width="0.39" height="2.24"/><rect class="cls-1" x="13.76" y="7.3" width="0.39" height="2.24"/><rect class="cls-1" x="15.07" y="7.3" width="0.39" height="2.24"/><rect class="cls-1" x="16.37" y="7.3" width="0.39" height="2.24"/><rect class="cls-1" x="17.67" y="7.3" width="0.39" height="2.24"/><rect class="cls-1" x="18.98" y="7.3" width="0.39" height="2.24"/><rect class="cls-1" x="20.28" y="7.51" width="0.39" height="2.24"/><rect class="cls-1" x="21.58" y="7.51" width="0.39" height="2.24"/><rect class="cls-1" x="22.89" y="7.51" width="0.39" height="2.24"/><path class="cls-2" d="M24.51,2.19s-.38,3.05-.91,5.31"/><path class="cls-1" d="M23.8,7.54l-.38-.09c.52-2.22.9-5.26.9-5.29l.39,0S24.32,5.3,23.8,7.54Z"/><path class="cls-2" d="M.19,9.78A31.12,31.12,0,0,0,3.48,7.2,5.24,5.24,0,0,1,6.27,5.54a4.78,4.78,0,0,1,.75,0,17.47,17.47,0,0,1,3.59.72.45.45,0,0,1-.12.86H9.24a5.58,5.58,0,0,0-2.19.43.78.78,0,0,0-.39.8.8.8,0,0,0,.89.5,2.73,2.73,0,0,0,1-.43,1.46,1.46,0,0,1,.61-.23.55.55,0,0,1,.55.29c.11.28-.09.57-.3.79a7.51,7.51,0,0,1-4,2.14c-1.23.22-2.59.16-3.6.91"/><path class="cls-1" d="M1.8,12.52a.19.19,0,0,1-.12-.35,5.44,5.44,0,0,1,2.72-.81c.32,0,.65-.08,1-.13A7.32,7.32,0,0,0,9.29,9.14c.16-.17.34-.4.26-.58a.36.36,0,0,0-.36-.17,1.31,1.31,0,0,0-.53.21l-.09.05a2.6,2.6,0,0,1-1,.41,1,1,0,0,1-1.1-.65,1,1,0,0,1,.47-1A3.86,3.86,0,0,1,8.69,7l.52,0h1.28a.26.26,0,0,0,0-.48A17.28,17.28,0,0,0,7,5.75a4.76,4.76,0,0,0-.72,0A4.83,4.83,0,0,0,3.72,7.25l-.1.09A31.39,31.39,0,0,1,.3,9.94a.19.19,0,1,1-.22-.32A31,31,0,0,0,3.35,7.06L3.46,7a5.19,5.19,0,0,1,2.8-1.62,5,5,0,0,1,.78,0,17.69,17.69,0,0,1,3.65.73.64.64,0,0,1-.17,1.23H9.24l-.52.05a3.6,3.6,0,0,0-1.56.35.59.59,0,0,0-.3.59.61.61,0,0,0,.67.36,2.28,2.28,0,0,0,.85-.36l.09-.05A1.63,1.63,0,0,1,9.17,8a.75.75,0,0,1,.74.41c.12.3,0,.63-.34,1a7.71,7.71,0,0,1-4.13,2.2c-.32.06-.66.1-1,.14a5.07,5.07,0,0,0-2.53.74A.19.19,0,0,1,1.8,12.52Z"/><path class="cls-2" d="M33.41,10.9a31.12,31.12,0,0,1-3.29-2.57,5.24,5.24,0,0,0-2.79-1.66,4.78,4.78,0,0,0-.75,0A17.47,17.47,0,0,0,23,7.4a.45.45,0,0,0,.12.86h1.26a5.58,5.58,0,0,1,2.19.43.78.78,0,0,1,.39.8.8.8,0,0,1-.89.5,2.73,2.73,0,0,1-1-.43,1.46,1.46,0,0,0-.61-.23.55.55,0,0,0-.55.29c-.11.28.09.57.3.79a7.51,7.51,0,0,0,4,2.14c1.23.22,2.59.16,3.6.91"/><path class="cls-1" d="M31.8,13.65a.19.19,0,0,1-.12,0,5.07,5.07,0,0,0-2.53-.74c-.32,0-.66-.08-1-.14A7.71,7.71,0,0,1,24,10.54c-.35-.36-.47-.7-.34-1a.74.74,0,0,1,.74-.41,1.62,1.62,0,0,1,.7.26l.09.05a2.27,2.27,0,0,0,.85.36.61.61,0,0,0,.68-.36.6.6,0,0,0-.3-.59,3.6,3.6,0,0,0-1.56-.35l-.54-.05c-1.24,0-1.27,0-1.29,0a.62.62,0,0,1-.52-.54.63.63,0,0,1,.38-.68,17.7,17.7,0,0,1,3.65-.73,5,5,0,0,1,.78,0,5.18,5.18,0,0,1,2.8,1.61l.11.09a30.88,30.88,0,0,0,3.27,2.56.19.19,0,1,1-.22.32A31.4,31.4,0,0,1,30,8.47l-.11-.09a4.83,4.83,0,0,0-2.57-1.52,4.62,4.62,0,0,0-.72,0,17.31,17.31,0,0,0-3.52.7.24.24,0,0,0-.15.27.25.25,0,0,0,.22.22h1.23l.55.05a3.86,3.86,0,0,1,1.74.41,1,1,0,0,1,.47,1,1,1,0,0,1-1.1.65,2.59,2.59,0,0,1-1-.41l-.09-.05a1.31,1.31,0,0,0-.53-.21.36.36,0,0,0-.36.17c-.07.18.1.41.26.58a7.32,7.32,0,0,0,3.92,2.08c.31.06.64.1,1,.13a5.43,5.43,0,0,1,2.72.81.19.19,0,0,1-.12.35Z"/></g></g></svg>