<svg xmlns="http://www.w3.org/2000/svg" viewBox="0 0 40.57 76.87"><defs><style>.cls-1{fill:#231f20;}.cls-2{fill:#fff;}</style></defs><title>Asset 4</title><g id="Layer_2" data-name="Layer 2"><g id="Layer_1-2" data-name="Layer 1"><path class="cls-1" d="M14.67,67.69a12.1,12.1,0,0,1-3.42-.49.19.19,0,0,1-.13-.17c-.51-8.82-.9-58.71-.91-59.22a.19.19,0,0,1,.24-.19A45.34,45.34,0,0,0,21.4,9a33,33,0,0,0,10-1.37.19.19,0,0,1,.26.17l2.59,56a.19.19,0,0,1,0,.12,4.1,4.1,0,0,1-3.57,1.47,12.17,12.17,0,0,1-3.51-.59.19.19,0,0,1-.13-.15c-1.64-8.53-4.88-33.88-5.82-41.39L18.76,66.64a.19.19,0,0,1-.1.16A8.49,8.49,0,0,1,14.67,67.69Zm-3.18-.82a12.18,12.18,0,0,0,3.18.43,8.17,8.17,0,0,0,3.7-.8L21,21.14a.19.19,0,0,1,.19-.18h0a.19.19,0,0,1,.19.17c0,.33,4.14,33.24,6.06,43.37a12,12,0,0,0,3.28.53,3.79,3.79,0,0,0,3.22-1.25L31.33,8.07A34.81,34.81,0,0,1,21.4,9.38,45.69,45.69,0,0,1,10.6,8.06C10.63,11.89,11,58,11.5,66.87Z"/><path class="cls-1" d="M15.41,65.07a21.08,21.08,0,0,1-4.25-.47l.09-.38s4.49,1,7.38,0l.13.37A10.4,10.4,0,0,1,15.41,65.07Z"/><path class="cls-1" d="M29.7,62.69a15.55,15.55,0,0,1-2.94-.29l.08-.38c.05,0,5,1,7-1l.28.27C33.06,62.41,31.26,62.69,29.7,62.69Z"/><path class="cls-1" d="M14,64.93l-.39,0c1-10.63,1.17-55.73,1.17-56.19h.39C15.14,9.16,15,54.28,14,64.93Z"/><path class="cls-1" d="M30.2,62.5c-2.26-14.09-3.58-50.82-3.59-51.19H27c0,.37,1.33,37.07,3.59,51.14Z"/><path class="cls-1" d="M23.19,20.8H20.76a.19.19,0,0,1-.19-.19v-10H21v9.84h2.23Z"/><path class="cls-1" d="M31.69,7.89l-.35-.17c1-2.11.89-6.62.89-6.67h.39C32.62,1.24,32.73,5.7,31.69,7.89Z"/><path class="cls-1" d="M9.45,5.2A8,8,0,0,1,7.53,3.29,3.32,3.32,0,0,1,7,.6L7.4.71a2.93,2.93,0,0,0,.46,2.37A7.61,7.61,0,0,0,9.68,4.89Z"/><path class="cls-1" d="M7.12,11.62A.19.19,0,0,1,7,11.56,57.93,57.93,0,0,0,1.41,6.35C-1.2,4.34.6.18.68,0L1,.16S-.72,4.21,1.65,6a56.59,56.59,0,0,1,5.46,5.09l3.06-3.36C9,5.18,9.48,1.2,9.5,1l.39,0s-.5,4.16.69,6.65a.19.19,0,0,1,0,.21L7.26,11.55a.19.19,0,0,1-.14.06Z"/><path class="cls-1" d="M32,13.56l-.15-.36C38.27,10.45,40.18,1.11,40.19,1l.38.08C40.56,1.19,38.61,10.73,32,13.56Z"/><path class="cls-1" d="M10.4,11.92a4.81,4.81,0,0,1-2.64-1.21L8,10.42a4.5,4.5,0,0,0,2.38,1.11Z"/><rect class="cls-1" x="21.25" y="1.78" width="0.39" height="7.4"/><path class="cls-1" d="M32.17,76.87a1,1,0,0,1-.7-.39,12.3,12.3,0,0,1-1.82-2.93c-.25-.49-.5-1-.7-1.53a10.2,10.2,0,0,1,.2-7.12l.35.16a9.77,9.77,0,0,0-.19,6.83c.2.51.44,1,.69,1.49a12,12,0,0,0,1.76,2.84c.09.1.32.32.49.25a.59.59,0,0,0,.2-.2C33.83,74.41,35,72.7,35,70.72a4.76,4.76,0,0,0-.26-1.57,10,10,0,0,0-1-1.85,8.24,8.24,0,0,1-1.12-2.39l.38-.09a7.84,7.84,0,0,0,1.07,2.28,10.24,10.24,0,0,1,1,1.93,5.14,5.14,0,0,1,.28,1.69c0,2.27-1.53,4.3-2.64,5.79a.9.9,0,0,1-.36.32A.58.58,0,0,1,32.17,76.87Z"/><path class="cls-1" d="M7.22,74.34,7.09,74l.21-.07a13.11,13.11,0,0,0,1.26-2.65,12.92,12.92,0,0,1,1.36-2.82,2,2,0,0,1,.49-.53,2.33,2.33,0,0,1,.33-.18l.2-.1a1.36,1.36,0,0,0,.53-.56l.35.18a1.76,1.76,0,0,1-.68.72l-.23.12a2,2,0,0,0-.28.15,1.67,1.67,0,0,0-.4.43,12.65,12.65,0,0,0-1.31,2.73,13.08,13.08,0,0,1-1.34,2.79.19.19,0,0,1-.1.07Z"/><path class="cls-1" d="M12,75.5l-.11-.37a4.72,4.72,0,0,0,1.82-1.26,8.24,8.24,0,0,1,1.2-1,7.93,7.93,0,0,1,1.23-.6c.29-.12.6-.25.88-.4a1.31,1.31,0,0,0,.58-.5,1.55,1.55,0,0,0,.1-.69l0-3.59H18l0,3.59a1.87,1.87,0,0,1-.14.87,1.65,1.65,0,0,1-.74.66c-.3.16-.61.29-.91.41a7.54,7.54,0,0,0-1.17.56,7.92,7.92,0,0,0-1.15,1A5.08,5.08,0,0,1,12,75.5Z"/><path class="cls-2" d="M11.11,65.29l.91.9-.91-.9q-.42.36-.85.78l1.08.85-1.08-.85q-.44.42-.89.9l1.14.91L9.37,67q-.38.4-.77.85l1.27.88-1.27-.88q-.42.49-.86,1l1.36.92-1.36-.92Q7.3,69.4,6.86,70l1.47.92L6.86,70c-.28.38-.57.78-.85,1.2l1.59.92L6,71.2c-.3.44-.6.9-.9,1.39l1.71.94-1.71-.94c-.28.45-.57.92-.85,1.41l1.8,1a40.11,40.11,0,0,1,6-8.83"/><path class="cls-1" d="M6.06,75.22l-.1,0-1.8-1a.19.19,0,0,1-.07-.27c.25-.44.53-.89.86-1.42h0c.32-.51.62-1,.9-1.39h0c.27-.4.55-.8.86-1.21h0c.29-.4.59-.79.88-1.15s.58-.71.87-1h0q.4-.45.78-.86h0c.31-.33.61-.63.9-.91h0c.29-.28.58-.54.86-.78a.2.2,0,0,1,.26,0l.91.9a.19.19,0,0,1,0,.27h0a40.47,40.47,0,0,0-5.93,8.78.19.19,0,0,1-.12.1ZM4.52,73.93,6,74.76l.62-1.12-1.42-.78C4.93,73.24,4.72,73.59,4.52,73.93Zm.86-1.41,1.41.78.62-1.05-1.34-.78C5.85,71.79,5.62,72.14,5.38,72.52Zm.9-1.38,1.32.77L8.15,71l-1.24-.77Zm.85-1.19,1.22.76.55-.82-1.13-.77ZM8,68.81l1.11.75.53-.76-1-.72Zm.87-1,1,.7.4-.54-.91-.72ZM9.66,67l.88.7.56-.69-.81-.64Zm.9-.9.78.61.42-.47-.65-.64Z"/><path class="cls-2" d="M11.21,64.78a14.23,14.23,0,0,0,7.45.13l-.07,1.23a11.08,11.08,0,0,1-7.31.37Z"/><path class="cls-1" d="M14.47,67.14a12.55,12.55,0,0,1-3.24-.44.19.19,0,0,1-.14-.18L11,64.79a.19.19,0,0,1,.26-.19,11.53,11.53,0,0,0,3.7.52,17.46,17.46,0,0,0,3.64-.4.19.19,0,0,1,.23.2l-.07,1.23a.19.19,0,0,1-.13.17h0l-.07,0A10.65,10.65,0,0,1,14.47,67.14Zm-3-.78A11.09,11.09,0,0,0,18.4,66l0-.85a17.75,17.75,0,0,1-3.47.35,12.8,12.8,0,0,1-3.56-.45Z"/><line class="cls-2" x1="12.03" y1="65.01" x2="12.03" y2="66.75"/><rect class="cls-1" x="11.83" y="65.01" width="0.39" height="1.74"/><line class="cls-2" x1="13.07" y1="65.19" x2="13.07" y2="66.86"/><rect class="cls-1" x="12.87" y="65.19" width="0.39" height="1.67"/><line class="cls-2" x1="14.16" y1="65.29" x2="14.16" y2="66.94"/><rect class="cls-1" x="13.96" y="65.29" width="0.39" height="1.65"/><line class="cls-2" x1="15.17" y1="65.31" x2="15.17" y2="66.83"/><rect class="cls-1" x="14.98" y="65.31" width="0.39" height="1.52"/><line class="cls-2" x1="16.29" y1="65.26" x2="16.29" y2="66.83"/><rect class="cls-1" x="16.1" y="65.26" width="0.39" height="1.57"/><line class="cls-2" x1="17.36" y1="65.14" x2="17.36" y2="66.59"/><rect class="cls-1" x="17.17" y="65.14" width="0.39" height="1.44"/><line class="cls-2" x1="18.17" y1="65.01" x2="18.17" y2="66.3"/><rect class="cls-1" x="17.98" y="65.01" width="0.39" height="1.29"/><path class="cls-2" d="M3.15,63.12a28.24,28.24,0,0,0,3.77-.41,4.75,4.75,0,0,1,2.95.05,4.34,4.34,0,0,1,.58.37,15.85,15.85,0,0,1,2.43,2.27.41.41,0,0,1-.5.6l-1-.59a5.06,5.06,0,0,0-1.89-.72.71.71,0,0,0-.68.43.73.73,0,0,0,.44.81,2.48,2.48,0,0,0,1,.15,1.33,1.33,0,0,1,.58.12.5.5,0,0,1,.28.49c0,.27-.35.4-.61.46a6.82,6.82,0,0,1-4.13-.27c-1.06-.42-2.08-1.11-3.21-1"/><path class="cls-1" d="M8.87,67.54a7,7,0,0,1-2.56-.48c-.28-.11-.56-.24-.82-.37a4.59,4.59,0,0,0-2.3-.64A.2.2,0,0,1,3,65.88a.19.19,0,0,1,.18-.21,5,5,0,0,1,2.5.67c.26.12.54.25.8.36a6.62,6.62,0,0,0,4,.26c.16,0,.44-.13.46-.31a.31.31,0,0,0-.18-.28,1.17,1.17,0,0,0-.5-.09h-.09a2.37,2.37,0,0,1-1-.17.92.92,0,0,1-.54-1,.9.9,0,0,1,.87-.57h0A3.56,3.56,0,0,1,11,65l.43.21.28.17.71.43a.21.21,0,0,0,.24-.32,15.67,15.67,0,0,0-2.38-2.22,4.13,4.13,0,0,0-.55-.35,4.37,4.37,0,0,0-2.7-.06l-.13,0a28.56,28.56,0,0,1-3.79.42.19.19,0,1,1,0-.39,28.1,28.1,0,0,0,3.74-.41l.12,0a4.71,4.71,0,0,1,2.94.09,4.42,4.42,0,0,1,.6.38A16.07,16.07,0,0,1,13,65.28a.6.6,0,0,1-.74.89h0l-.73-.45-.26-.16-.42-.21a3.3,3.3,0,0,0-1.35-.48h0a.52.52,0,0,0-.5.3.54.54,0,0,0,.34.58,2.06,2.06,0,0,0,.82.13h.09a1.51,1.51,0,0,1,.67.14.69.69,0,0,1,.38.69c0,.3-.3.51-.75.62A6.94,6.94,0,0,1,8.87,67.54Z"/></g></g></svg>