<svg xmlns="http://www.w3.org/2000/svg" viewBox="0 0 49.34 83.05"><defs><style>.cls-1{fill:#231f20;}.cls-2{fill:#fff;}.cls-3{fill:none;stroke:#231f20;stroke-linecap:round;stroke-linejoin:round;}</style></defs><title>Asset 7</title><g id="Layer_2" data-name="Layer 2"><g id="Layer_1-2" data-name="Layer 1"><path class="cls-1" d="M26.74,21.44a4.28,4.28,0,0,1-3.51-1.74A14.11,14.11,0,0,1,22,16.55c-.61-1.77-.61-4.39-.6-10.74V5.12a.19.19,0,1,1,.39,0v.69c0,6.3,0,8.9.58,10.61a13.6,13.6,0,0,0,1.23,3.07A4,4,0,0,0,26.79,21a.19.19,0,0,1,.2.19.19.19,0,0,1-.19.2Z" transform="translate(-5.65)"/><path class="cls-1" d="M31,20.37a.19.19,0,0,1-.12-.35l2.66-2a1.9,1.9,0,0,0,.76-1.52V14.93a.19.19,0,0,1,.39,0v1.58a2.29,2.29,0,0,1-.91,1.83l-2.66,2A.19.19,0,0,1,31,20.37Z" transform="translate(-5.65)"/><path class="cls-1" d="M26.39,14.62a11.17,11.17,0,0,1-1.86-.18.19.19,0,0,1,.07-.38,8.35,8.35,0,0,0,2.84.06l-.13-.59a.19.19,0,1,1,.38-.09l.17.76a.19.19,0,0,1-.12.23A4.13,4.13,0,0,1,26.39,14.62Z" transform="translate(-5.65)"/><path class="cls-2" d="M12.85,76.09c0,.54-.18.6-.44.61a.7.7,0,0,1-.75-.58l0-1.13a.18.18,0,0,0-.11-.16l-1.19-.55a.27.27,0,0,0-.23,0,.18.18,0,0,0-.11.16,5,5,0,0,0-.26,1.42,8.77,8.77,0,0,0,.26,1.7.17.17,0,0,0,.07.14l2.25,1.68c.82.42,1,1.06,1,1.26h0c-.67,0-3.33-1.27-5-2.15a21,21,0,0,1-.79-4.28,14.35,14.35,0,0,1,.59-3.46h3.43S13,72.64,13,73.7,12.85,76.09,12.85,76.09Z" transform="translate(-5.65)"/><path class="cls-1" d="M13.47,80.83h-.16c-.95,0-4.94-2.08-5.11-2.17l-.07,0,0-.08a20.88,20.88,0,0,1-.8-4.33,14.37,14.37,0,0,1,.6-3.52l0-.14h3.67l.06.08c.06.08,1.49,2,1.49,3.07S13,76.09,13,76.1a.8.8,0,0,1-.15.61.63.63,0,0,1-.47.18h0a.89.89,0,0,1-.95-.76l0-1.14-1.19-.53-.14-.18.08.21v0a4.83,4.83,0,0,0-.25,1.35,8.62,8.62,0,0,0,.25,1.65v0l2.24,1.66c.89.45,1.14,1.18,1.07,1.46Zm-5-2.48a29.56,29.56,0,0,0,4.63,2.06,1.75,1.75,0,0,0-.86-.86l-2.28-1.7a.36.36,0,0,1-.15-.26,8.71,8.71,0,0,1-.26-1.73,5.11,5.11,0,0,1,.26-1.46.38.38,0,0,1,.22-.3.47.47,0,0,1,.39,0l1.19.55a.38.38,0,0,1,.23.33l0,1.13c0,.21.26.39.55.39.11,0,.17,0,.19,0s.07-.1.05-.36c0,0,.12-1.36.12-2.4a6.72,6.72,0,0,0-1.35-2.76H8.23a13.77,13.77,0,0,0-.54,3.27A20.15,20.15,0,0,0,8.46,78.35Z" transform="translate(-5.65)"/><path class="cls-2" d="M48.58,72.13c0-1.06,1.45-3,1.45-3h3.43A14.35,14.35,0,0,1,54,72.64a21,21,0,0,1-.79,4.28c-1.69.89-4.35,2.15-5,2.15h0c0-.2.18-.84,1-1.26l2.25-1.68a.17.17,0,0,0,.07-.14,8.77,8.77,0,0,0,.26-1.7,5,5,0,0,0-.26-1.42.18.18,0,0,0-.11-.16.27.27,0,0,0-.23,0L50,73.26a.18.18,0,0,0-.11.16l0,1.13a.7.7,0,0,1-.75.58c-.26,0-.47-.07-.44-.61C48.7,74.52,48.58,73.19,48.58,72.13Z" transform="translate(-5.65)"/><path class="cls-1" d="M48.24,79.26h-.16l0-.15c-.07-.28.18-1,1.1-1.47L51.36,76a9.36,9.36,0,0,0,.26-1.68,4.83,4.83,0,0,0-.25-1.35v-.06l-.06,0-1.19.55,0,1.12a.89.89,0,0,1-.94.77.64.64,0,0,1-.48-.18.84.84,0,0,1-.15-.64h0s-.12-1.32-.12-2.38,1.43-3,1.49-3.07l.06-.08H53.6l0,.14a14.37,14.37,0,0,1,.6,3.52,20.87,20.87,0,0,1-.8,4.33l0,.08-.07,0C53.18,77.18,49.19,79.26,48.24,79.26ZM51.75,76a.36.36,0,0,1-.15.26L49.35,78a1.81,1.81,0,0,0-.89.87,29.53,29.53,0,0,0,4.63-2.06,20.16,20.16,0,0,0,.76-4.14,13.77,13.77,0,0,0-.54-3.27H50.12a6.84,6.84,0,0,0-1.35,2.76c0,1,.12,2.36.12,2.37,0,.28,0,.36.05.38s.09,0,.2,0a.51.51,0,0,0,.54-.39l0-1.12a.37.37,0,0,1,.23-.33l1.19-.55a.48.48,0,0,1,.39,0,.38.38,0,0,1,.22.3A5.11,5.11,0,0,1,52,74.29,8.71,8.71,0,0,1,51.75,76Z" transform="translate(-5.65)"/><path class="cls-1" d="M26.7,17.12a8.9,8.9,0,0,1-1.91-.21.19.19,0,1,1,.08-.38,8.48,8.48,0,0,0,3.66,0,.19.19,0,0,1,.08.38A8.9,8.9,0,0,1,26.7,17.12Z" transform="translate(-5.65)"/><path class="cls-1" d="M25.4,17A2.26,2.26,0,0,0,28,17" transform="translate(-5.65)"/><path class="cls-1" d="M26.69,17.63a2,2,0,0,1-1.43-.47.19.19,0,0,1,.28-.27,1.7,1.7,0,0,0,1.23.35,1.62,1.62,0,0,0,1.08-.34.19.19,0,0,1,.3.25,1.91,1.91,0,0,1-1.36.48Z" transform="translate(-5.65)"/><path class="cls-1" d="M26.16.68a8.32,8.32,0,0,1,6.09.2,14.77,14.77,0,0,1,1.66.89,9.26,9.26,0,0,1,1.26.85,6.51,6.51,0,0,1,1.42,1.79,6.52,6.52,0,0,1,.76,2,9.94,9.94,0,0,1,.12,1.78l0,4.45a2,2,0,0,1-.08.73,2.06,2.06,0,0,1-.94.92,2.6,2.6,0,0,1-2.09.57,2.11,2.11,0,0,0,.86-1.2,1.43,1.43,0,0,0-.12-1.13.88.88,0,0,0-1-.39,14.45,14.45,0,0,1-.9-4A3.42,3.42,0,0,1,34.14,5a16.53,16.53,0,0,1-2.77.28q-2.88.12-5.76.17a18.52,18.52,0,0,1-5.12-.41C20.28,5,20,4.91,20,4.69a.67.67,0,0,1,.07-.4,3.48,3.48,0,0,1,1-1.62c.26-.18.56-.29.8-.49s.46-.54.72-.78A3.56,3.56,0,0,1,25.27.82a2.12,2.12,0,0,0,.41,0A2.42,2.42,0,0,0,26.16.68Z" transform="translate(-5.65)"/><path class="cls-1" d="M34.82,15.09a1.57,1.57,0,0,1-.5-.08.19.19,0,0,1,0-.35A1.92,1.92,0,0,0,35,13.58a1.24,1.24,0,0,0-.1-1,.7.7,0,0,0-.78-.31.19.19,0,0,1-.25-.11,14.6,14.6,0,0,1-.92-4,4.12,4.12,0,0,1,.56-2.84,20.9,20.9,0,0,1-2.19.17c-1.91.08-3.85.14-5.76.17H24.51a15.71,15.71,0,0,1-4.06-.43c-.14,0-.58-.15-.67-.52a.85.85,0,0,1,.08-.52A3.66,3.66,0,0,1,21,2.51a3.64,3.64,0,0,1,.39-.23A2.73,2.73,0,0,0,21.76,2a2.69,2.69,0,0,0,.37-.4,3.72,3.72,0,0,1,.34-.37A3.05,3.05,0,0,1,24.61.61l.67,0a1.9,1.9,0,0,0,.37,0A2,2,0,0,0,26,.51l.05,0A8.38,8.38,0,0,1,28.94,0a8.5,8.5,0,0,1,3.38.7A15,15,0,0,1,34,1.6a9.45,9.45,0,0,1,1.28.87,6.62,6.62,0,0,1,1.47,1.85,6.64,6.64,0,0,1,.78,2,10.11,10.11,0,0,1,.12,1.82l0,4.45a2.21,2.21,0,0,1-.1.8,2.24,2.24,0,0,1-1,1A3.51,3.51,0,0,1,34.82,15.09Zm-.46-3.22a1.13,1.13,0,0,1,.92.52,1.62,1.62,0,0,1,.14,1.28,2.31,2.31,0,0,1-.59,1,3.23,3.23,0,0,0,1.54-.61,1.87,1.87,0,0,0,.86-.82,1.89,1.89,0,0,0,.07-.66l0-4.45a9.86,9.86,0,0,0-.12-1.75,6.27,6.27,0,0,0-.73-1.91A6.25,6.25,0,0,0,35,2.77a9.12,9.12,0,0,0-1.23-.84,14.65,14.65,0,0,0-1.63-.88A8.22,8.22,0,0,0,26.22.86l-.05,0A2.29,2.29,0,0,1,25.7,1a2.31,2.31,0,0,1-.45,0l-.65,0a2.61,2.61,0,0,0-1.87.54,3.32,3.32,0,0,0-.3.34,3,3,0,0,1-.43.45,3,3,0,0,1-.46.29,3.25,3.25,0,0,0-.35.21,3.37,3.37,0,0,0-1,1.54.53.53,0,0,0-.06.28c0,.1.15.18.39.24a15.36,15.36,0,0,0,4,.41h1.1c1.91,0,3.84-.09,5.76-.17a16.16,16.16,0,0,0,2.74-.27.19.19,0,0,1,.22.11.19.19,0,0,1-.06.24c-.7.51-1,1.5-.87,2.95a14.21,14.21,0,0,0,.83,3.74Z" transform="translate(-5.65)"/><path class="cls-1" d="M25.25,22.73a.19.19,0,0,1-.19-.19V21a.19.19,0,0,1,.39,0v1.49A.19.19,0,0,1,25.25,22.73Z" transform="translate(-5.65)"/><path class="cls-1" d="M25.84,31.12a.19.19,0,0,1-.18-.12c-.08-.17-1.84-4.21-2.14-5.13a3.16,3.16,0,0,1,1.21-3.5.19.19,0,0,1,.22,0s3.75,2.82,4.11,3.07a.19.19,0,0,1,0,.28s-2.88,3.41-3.06,5.2a.19.19,0,0,1-.16.17Zm-1-8.34a2.83,2.83,0,0,0-.94,3c.23.7,1.38,3.38,1.89,4.55a17.71,17.71,0,0,1,2.89-4.65Z" transform="translate(-5.65)"/><path class="cls-1" d="M34.19,21.66a.19.19,0,0,1-.16-.08A2.61,2.61,0,0,1,33.68,20V18a.19.19,0,0,1,.19-.2h0a.19.19,0,0,1,.19.19v2a2.24,2.24,0,0,0,.28,1.34.19.19,0,0,1-.16.31Z" transform="translate(-5.65)"/><path class="cls-1" d="M31.54,30.65h-.07a.19.19,0,0,1-.13-.18c0-1.47-2.53-4.69-2.55-4.72a.19.19,0,0,1,0-.28c1.08-.7,5.47-4.32,5.52-4.36a.19.19,0,0,1,.29.06c.9,1.68,1.28,2.86.69,4.34s-3.53,4.94-3.65,5.09A.19.19,0,0,1,31.54,30.65Zm-2.31-5A15,15,0,0,1,31.68,30,28.57,28.57,0,0,0,35,25.35c.51-1.28.22-2.31-.56-3.8C33.61,22.21,30.4,24.84,29.22,25.66Z" transform="translate(-5.65)"/><polyline class="cls-2" points="22.03 29.4 20.86 52.66 23.29 56.01 25.73 52.42 24.36 29.4"/><path class="cls-1" d="M28.94,56.21a.19.19,0,0,1-.16-.08l-2.44-3.35a.19.19,0,0,1,0-.12l1.17-23.26a.19.19,0,0,1,.2-.18.19.19,0,0,1,.18.2L26.71,52.6l2.23,3.07,2.24-3.31L29.82,29.41a.19.19,0,0,1,.39,0l1.37,23a.19.19,0,0,1,0,.12l-2.44,3.59a.19.19,0,0,1-.16.09Z" transform="translate(-5.65)"/><path class="cls-1" d="M30,29.6H27.68a.19.19,0,0,1-.16-.08l-.73-1.06a.19.19,0,0,1,.32-.22l.67,1h2.13l.7-1a.19.19,0,1,1,.32.23l-.76,1.06A.19.19,0,0,1,30,29.6Z" transform="translate(-5.65)"/><g id="_Group_" data-name="&lt;Group&gt;"><path class="cls-1" d="M12.37,70.94H7.06a.19.19,0,0,1-.19-.19l-.13-3.59a8.4,8.4,0,0,1-.65-4.61c.31-2,.45-4.28.63-7.22q.07-1.12.15-2.35C7.12,49.06,9.09,37.77,10,32.34L10.1,32c.92-5.22,3.13-6.27,3.22-6.32l.06,0,10.19-1.21a.19.19,0,0,1,0,.39L13.46,26c-.23.13-2.15,1.31-3,6l-.06.35C9.48,37.83,7.51,49.1,7.25,53q-.08,1.23-.15,2.35c-.18,3-.32,5.29-.63,7.26A8.11,8.11,0,0,0,7.1,67a.2.2,0,0,1,0,.08l.12,3.44h4.94c.05-.8.29-4.12.9-7.61.09-.49.19-1,.3-1.5.55-2.6,1.31-6.16,1.31-17.23a.19.19,0,0,1,.39,0c0,11.11-.76,14.69-1.32,17.31-.11.51-.21,1-.3,1.48a77.39,77.39,0,0,0-.9,7.75A.19.19,0,0,1,12.37,70.94Z" transform="translate(-5.65)"/></g><path class="cls-1" d="M54.05,69.32H48.72a.19.19,0,0,1-.19-.18c0-.15-.9-14.94-4-21.75a.19.19,0,1,1,.35-.16c2.9,6.47,3.87,20,4,21.71h5l.39-4.21c1.38-13.08-1.78-23.3-3.67-29.41-.41-1.31-.76-2.45-1-3.37-1.25-5-4.36-5.9-4.39-5.9a62.08,62.08,0,0,0-9.8-1.85.19.19,0,0,1-.17-.21.2.2,0,0,1,.21-.17,62.53,62.53,0,0,1,9.87,1.86c.13,0,3.36,1,4.66,6.18.23.91.58,2,1,3.35,1.9,6.14,5.07,16.41,3.69,29.56l-.4,4.39A.19.19,0,0,1,54.05,69.32Z" transform="translate(-5.65)"/><path class="cls-1" d="M12.58,68.35H7A.19.19,0,1,1,7,68h5.61a.19.19,0,1,1,0,.39Z" transform="translate(-5.65)"/><rect class="cls-1" x="48.52" y="66.3" width="5.86" height="0.39" transform="translate(-7.58 1.54) rotate(-1.68)"/><path class="cls-1" d="M14.75,39.8a.19.19,0,0,1-.19-.18,42.46,42.46,0,0,0-1.89-9.78.19.19,0,0,1,.37-.12,42.86,42.86,0,0,1,1.91,9.87.19.19,0,0,1-.18.21Z" transform="translate(-5.65)"/><path class="cls-1" d="M28.44,64.29c-3.42,0-6.91-.08-9.62-.34a7.58,7.58,0,0,1-3.65-1,2.9,2.9,0,0,1-1.38-3.42.19.19,0,0,1,.38.08,2.53,2.53,0,0,0,1.22,3,7.28,7.28,0,0,0,3.46.94c7.83.74,22.27,0,22.41,0,2.11-.18,2-2.88,2-3l2.33-31.21a.19.19,0,0,1,.39,0L43.61,60.59s.18,3.18-2.31,3.38C41.2,64,34.95,64.29,28.44,64.29Z" transform="translate(-5.65)"/><path class="cls-1" d="M15.68,81.82a.19.19,0,0,1-.19-.19c-.11-2.81-.13-6.12-.16-9.33s-.05-6.52-.16-9.32a.19.19,0,0,1,.19-.2.19.19,0,0,1,.2.19c.11,2.81.13,6.12.16,9.33s.05,6.52.16,9.32a.19.19,0,0,1-.19.2Z" transform="translate(-5.65)"/><path class="cls-1" d="M36.13,82.21a.19.19,0,0,1-.19-.18c-.16-2-.25-4-.36-6.05-.11-2.3-.23-4.68-.44-7.09a.19.19,0,1,1,.39,0c.2,2.41.32,4.8.44,7.1.1,2.09.2,4.06.36,6a.19.19,0,0,1-.18.21Z" transform="translate(-5.65)"/><path class="cls-1" d="M43.06,83h0a.19.19,0,0,1-.18-.21C43,81.25,42,63.7,42,63.52a.19.19,0,0,1,.18-.2.19.19,0,0,1,.2.18c0,.72,1,17.76.87,19.37A.19.19,0,0,1,43.06,83Z" transform="translate(-5.65)"/><path class="cls-1" d="M21.63,80.14a.19.19,0,0,1-.19-.19c0-6.07-.58-11.39-.58-11.44a.19.19,0,1,1,.39,0c0,.05.58,5.39.58,11.48A.19.19,0,0,1,21.63,80.14Z" transform="translate(-5.65)"/><path class="cls-1" d="M38.14,70.42a.19.19,0,0,1-.19-.19V68.87a.19.19,0,0,1,.39,0v1.36A.19.19,0,0,1,38.14,70.42Z" transform="translate(-5.65)"/><path class="cls-1" d="M18.71,69.74a.19.19,0,0,1-.19-.19V67.77a.19.19,0,1,1,.39,0v1.78A.19.19,0,0,1,18.71,69.74Z" transform="translate(-5.65)"/><path class="cls-1" d="M28.86,64.29h0a.19.19,0,0,1-.19-.2L28.75,56a.2.2,0,0,1,.2-.19.19.19,0,0,1,.19.2l-.08,8.08A.19.19,0,0,1,28.86,64.29Z" transform="translate(-5.65)"/><path class="cls-1" d="M15.39,65.22c-.13.28,12.21,2.93,26.64,0V63.6S24.74,65.4,15.36,63Z" transform="translate(-5.65)"/><rect class="cls-2" x="20.59" y="64.09" width="4.82" height="3.04" rx="0.44" ry="0.44"/><path class="cls-1" d="M30.62,67.33H26.68a.63.63,0,0,1-.63-.63V64.53a.63.63,0,0,1,.63-.63h3.95a.63.63,0,0,1,.63.63v2.16A.63.63,0,0,1,30.62,67.33Zm-3.95-3a.24.24,0,0,0-.24.24v2.16a.24.24,0,0,0,.24.24h3.95a.24.24,0,0,0,.24-.24V64.53a.24.24,0,0,0-.24-.24Z" transform="translate(-5.65)"/><line class="cls-2" x1="22.22" y1="67.13" x2="22.22" y2="80.64"/><rect class="cls-1" x="22.03" y="67.13" width="0.39" height="13.51"/><line class="cls-2" x1="23.97" y1="67.13" x2="23.97" y2="73.88"/><rect class="cls-1" x="23.78" y="67.13" width="0.39" height="6.75"/><path class="cls-3" d="M0,70.75" transform="translate(-5.65)"/><g id="_Group_2" data-name="&lt;Group&gt;"><rect class="cls-2" x="36.85" y="34.12" width="2.3" height="2.43"/><rect class="cls-2" x="34.55" y="34.12" width="2.3" height="2.43"/><rect class="cls-2" x="32.27" y="34.12" width="2.28" height="2.43"/><rect class="cls-2" x="29.62" y="34.12" width="2.65" height="2.43"/><rect class="cls-2" x="26.97" y="34.12" width="2.65" height="2.43"/><rect class="cls-2" x="24.33" y="34.12" width="2.65" height="2.43"/><rect class="cls-2" x="21.68" y="34.12" width="2.65" height="2.43"/><rect class="cls-2" x="19.04" y="34.12" width="2.65" height="2.43"/><rect class="cls-2" x="16.39" y="34.12" width="2.65" height="2.43"/><rect class="cls-2" x="13.74" y="34.12" width="2.65" height="2.43"/><rect class="cls-2" x="11.1" y="34.12" width="2.65" height="2.43"/><rect class="cls-2" x="8.45" y="34.12" width="2.65" height="2.43"/><rect class="cls-2" x="5.8" y="34.12" width="2.65" height="2.43"/><rect class="cls-1" x="8.26" y="33.97" width="31.25" height="0.29"/><rect class="cls-1" x="8.45" y="36.4" width="30.89" height="0.29"/><rect class="cls-1" x="32.08" y="34.12" width="0.39" height="2.43"/><rect class="cls-1" x="34.35" y="34.12" width="0.39" height="2.43"/><rect class="cls-1" x="36.65" y="34.12" width="0.39" height="2.43"/><rect class="cls-1" x="38.96" y="34.12" width="0.39" height="2.43"/><rect class="cls-1" x="29.43" y="34.12" width="0.39" height="2.43"/><rect class="cls-1" x="26.78" y="34.12" width="0.39" height="2.43"/><rect class="cls-1" x="24.13" y="34.12" width="0.39" height="2.43"/><rect class="cls-1" x="21.49" y="34.12" width="0.39" height="2.43"/><rect class="cls-1" x="18.84" y="34.12" width="0.39" height="2.43"/><rect class="cls-1" x="16.19" y="34.12" width="0.39" height="2.43"/><rect class="cls-1" x="13.55" y="34.12" width="0.39" height="2.43"/><rect class="cls-1" x="10.9" y="34.12" width="0.39" height="2.43"/><rect class="cls-1" x="8.26" y="34.12" width="0.39" height="2.43"/></g><path class="cls-2" d="M5.85,45.84a41.15,41.15,0,0,0,1.26-5.38c.24-1.44.46-3,1.5-4a6.32,6.32,0,0,1,.79-.61,23.1,23.1,0,0,1,4.29-2.23.59.59,0,0,1,.58,1l-1.29,1a7.38,7.38,0,0,0-1.9,2.25A1,1,0,0,0,11.35,39a1.06,1.06,0,0,0,1.33-.21,3.61,3.61,0,0,0,.69-1.29,1.93,1.93,0,0,1,.44-.75.73.73,0,0,1,.81-.15c.35.19.38.67.34,1.06a9.93,9.93,0,0,1-2.38,5.54c-1.09,1.25-2.54,2.31-3,3.92" transform="translate(-5.65)"/><path class="cls-1" d="M9.62,47.33h0a.19.19,0,0,1-.14-.24A7.14,7.14,0,0,1,11.55,44c.3-.3.61-.62.88-.93a9.74,9.74,0,0,0,2.33-5.43c0-.32,0-.73-.24-.87a.54.54,0,0,0-.58.13,1.77,1.77,0,0,0-.39.67l0,.13a3.39,3.39,0,0,1-.68,1.23,1.25,1.25,0,0,1-1.58.23,1.23,1.23,0,0,1-.33-1.37A5.07,5.07,0,0,1,12.35,36c.18-.17.35-.33.5-.49l.22-.18,1.08-.88a.4.4,0,0,0-.41-.65A23,23,0,0,0,9.51,36a6.2,6.2,0,0,0-.76.59,6.43,6.43,0,0,0-1.42,3.73l0,.18A41.52,41.52,0,0,1,6,45.89a.19.19,0,1,1-.37-.11,41.18,41.18,0,0,0,1.26-5.35l0-.18a6.81,6.81,0,0,1,1.53-4,6.53,6.53,0,0,1,.81-.63,23.29,23.29,0,0,1,4.35-2.26.77.77,0,0,1,.88.35.78.78,0,0,1-.11,1l-1.1.89-.21.17c-.14.15-.32.31-.5.48a4.8,4.8,0,0,0-1.34,1.68.85.85,0,0,0,.2.93.87.87,0,0,0,1.07-.2,3.1,3.1,0,0,0,.6-1.09l0-.13a2.09,2.09,0,0,1,.49-.82.92.92,0,0,1,1-.18c.35.19.5.61.44,1.25a10.13,10.13,0,0,1-2.43,5.65c-.28.33-.6.64-.9,1a6.75,6.75,0,0,0-2,2.89A.19.19,0,0,1,9.62,47.33Z" transform="translate(-5.65)"/><path class="cls-2" d="M53.08,45.84a41.15,41.15,0,0,1-1.26-5.38c-.24-1.44-.46-3-1.5-4a6.32,6.32,0,0,0-.79-.61,23.1,23.1,0,0,0-4.29-2.23.59.59,0,0,0-.58,1l1.29,1a7.38,7.38,0,0,1,1.9,2.25A1,1,0,0,1,47.58,39a1.06,1.06,0,0,1-1.33-.21,3.61,3.61,0,0,1-.69-1.29,1.93,1.93,0,0,0-.44-.75.73.73,0,0,0-.81-.15c-.35.19-.38.67-.34,1.06a9.93,9.93,0,0,0,2.38,5.54c1.09,1.25,2.54,2.31,3,3.92" transform="translate(-5.65)"/><path class="cls-1" d="M49.3,47.33a.19.19,0,0,1-.19-.15,6.75,6.75,0,0,0-2-2.89c-.3-.31-.62-.63-.9-1a10.13,10.13,0,0,1-2.43-5.65c-.06-.64.09-1.06.44-1.25a.92.92,0,0,1,1,.18,2.1,2.1,0,0,1,.49.82l.05.13a3.1,3.1,0,0,0,.6,1.09.87.87,0,0,0,1.07.2.85.85,0,0,0,.2-.93,4.81,4.81,0,0,0-1.34-1.68c-.18-.17-.36-.34-.52-.5h0l-.73-.59-.55-.45a.78.78,0,0,1-.11-1,.77.77,0,0,1,.88-.35,23.32,23.32,0,0,1,4.35,2.26,6.51,6.51,0,0,1,.81.63,6.81,6.81,0,0,1,1.53,4l0,.18a41.19,41.19,0,0,0,1.26,5.35.19.19,0,1,1-.37.11,41.47,41.47,0,0,1-1.27-5.4l0-.18a6.43,6.43,0,0,0-1.42-3.73,6.14,6.14,0,0,0-.76-.59,23,23,0,0,0-4.24-2.2.38.38,0,0,0-.45.18.39.39,0,0,0,.05.48l.52.42.78.64.49.47A5.07,5.07,0,0,1,48,37.81a1.23,1.23,0,0,1-.33,1.37,1.25,1.25,0,0,1-1.58-.23,3.39,3.39,0,0,1-.68-1.22l0-.13a1.78,1.78,0,0,0-.39-.67.54.54,0,0,0-.58-.13c-.25.14-.27.55-.24.87a9.74,9.74,0,0,0,2.33,5.43c.28.32.59.63.88.94a7.14,7.14,0,0,1,2.11,3.06.19.19,0,0,1-.14.24Z" transform="translate(-5.65)"/><path class="cls-1" d="M23.4,11.31a.78.78,0,1,1,.78-.78A.78.78,0,0,1,23.4,11.31Zm0-1.16a.39.39,0,1,0,.39.39A.39.39,0,0,0,23.4,10.14Z" transform="translate(-5.65)"/><polygon class="cls-1" points="19.17 10.86 18.59 10.14 15.85 10.14 15.85 9.76 18.77 9.76 19.48 10.61 19.17 10.86"/><path class="cls-1" d="M28.35,10.53a.78.78,0,1,1,.78.78A.78.78,0,0,1,28.35,10.53Zm.39,0a.39.39,0,1,0,.39-.39A.39.39,0,0,0,28.74,10.53Z" transform="translate(-5.65)"/><polygon class="cls-1" points="22.05 10.86 22.64 10.14 25.38 10.14 25.38 9.76 22.45 9.76 21.75 10.61 22.05 10.86"/></g></g></svg>