<svg xmlns="http://www.w3.org/2000/svg" viewBox="0 0 40.57 78.63"><defs><style>.cls-1{fill:#231f20;}.cls-2{fill:#fff;}</style></defs><title>Asset 3</title><g id="Layer_2" data-name="Layer 2"><g id="Layer_1-2" data-name="Layer 1"><path class="cls-1" d="M14.67,67.69a12.11,12.11,0,0,1-3.42-.49.19.19,0,0,1-.13-.17c-.51-8.82-.9-58.71-.91-59.22a.19.19,0,0,1,.24-.19A45.34,45.34,0,0,0,21.4,9a33,33,0,0,0,10-1.37.19.19,0,0,1,.26.17l2.59,56a.19.19,0,0,1,0,.12,4.1,4.1,0,0,1-3.57,1.47,12.17,12.17,0,0,1-3.51-.59.19.19,0,0,1-.13-.15c-1.64-8.53-4.88-33.88-5.82-41.39L18.76,66.64a.19.19,0,0,1-.1.16A8.5,8.5,0,0,1,14.67,67.69Zm-3.18-.82a12.18,12.18,0,0,0,3.18.43,8.17,8.17,0,0,0,3.7-.8L21,21.14a.19.19,0,0,1,.19-.18.19.19,0,0,1,.2.17c0,.33,4.13,33.24,6.06,43.37a12,12,0,0,0,3.28.53,3.79,3.79,0,0,0,3.22-1.25L31.33,8.07A34.8,34.8,0,0,1,21.4,9.38,45.69,45.69,0,0,1,10.6,8.06C10.63,11.89,11,58,11.5,66.87Z"/><path class="cls-1" d="M15.41,65.07a21.08,21.08,0,0,1-4.25-.47l.09-.38s4.49,1,7.38,0l.13.37A10.4,10.4,0,0,1,15.41,65.07Z"/><path class="cls-1" d="M29.7,62.69a15.55,15.55,0,0,1-2.94-.29l.08-.38c.05,0,5,1,7-1l.28.27C33.06,62.41,31.26,62.69,29.7,62.69Z"/><path class="cls-1" d="M14,64.93l-.39,0c1-10.63,1.17-55.73,1.17-56.19h.39C15.14,9.16,15,54.28,14,64.93Z"/><path class="cls-1" d="M30.2,62.5c-2.26-14.09-3.58-50.82-3.59-51.19H27c0,.37,1.33,37.07,3.59,51.14Z"/><path class="cls-1" d="M23.19,20.8H20.76a.19.19,0,0,1-.19-.19v-10H21v9.84h2.23Z"/><path class="cls-1" d="M31.69,7.89l-.35-.17c1-2.11.89-6.62.89-6.67h.39C32.62,1.24,32.73,5.7,31.69,7.89Z"/><path class="cls-1" d="M9.45,5.2A8,8,0,0,1,7.53,3.29,3.32,3.32,0,0,1,7,.6L7.4.71a2.93,2.93,0,0,0,.46,2.37A7.61,7.61,0,0,0,9.68,4.89Z"/><path class="cls-1" d="M7.12,11.62A.19.19,0,0,1,7,11.56,57.93,57.93,0,0,0,1.41,6.35C-1.2,4.34.6.18.68,0L1,.16S-.72,4.21,1.65,6a56.59,56.59,0,0,1,5.46,5.09l3.06-3.36C9,5.18,9.48,1.2,9.5,1l.39,0s-.5,4.16.69,6.65a.19.19,0,0,1,0,.21L7.26,11.55a.19.19,0,0,1-.14.06Z"/><path class="cls-1" d="M32,13.56l-.15-.36C38.27,10.45,40.18,1.11,40.19,1l.38.08C40.56,1.19,38.61,10.73,32,13.56Z"/><path class="cls-1" d="M10.4,11.92a4.81,4.81,0,0,1-2.64-1.21L8,10.42a4.5,4.5,0,0,0,2.38,1.11Z"/><rect class="cls-1" x="21.25" y="1.78" width="0.39" height="7.4"/><path class="cls-1" d="M32.17,76.87a1,1,0,0,1-.7-.39,12.3,12.3,0,0,1-1.82-2.93c-.25-.49-.5-1-.7-1.53a10.2,10.2,0,0,1,.2-7.12l.35.16a9.77,9.77,0,0,0-.19,6.83c.2.51.44,1,.69,1.49a12,12,0,0,0,1.76,2.84c.09.1.32.32.49.25a.59.59,0,0,0,.2-.2C33.83,74.41,35,72.7,35,70.72a4.76,4.76,0,0,0-.26-1.57,10,10,0,0,0-1-1.85,8.24,8.24,0,0,1-1.12-2.39l.38-.09a7.84,7.84,0,0,0,1.07,2.28,10.24,10.24,0,0,1,1,1.93,5.14,5.14,0,0,1,.28,1.69c0,2.27-1.53,4.3-2.64,5.79a.9.9,0,0,1-.36.32A.58.58,0,0,1,32.17,76.87Z"/><path class="cls-1" d="M7.22,74.34,7.09,74l.21-.07a13.11,13.11,0,0,0,1.26-2.65,12.92,12.92,0,0,1,1.36-2.82,2,2,0,0,1,.49-.53,2.33,2.33,0,0,1,.33-.18l.2-.1a1.36,1.36,0,0,0,.53-.56l.35.18a1.76,1.76,0,0,1-.68.72l-.23.12a2,2,0,0,0-.28.15,1.67,1.67,0,0,0-.4.43,12.65,12.65,0,0,0-1.31,2.73,13.08,13.08,0,0,1-1.34,2.79.19.19,0,0,1-.1.07Z"/><path class="cls-1" d="M12,75.5l-.11-.37a4.72,4.72,0,0,0,1.82-1.26,8.24,8.24,0,0,1,1.2-1,7.93,7.93,0,0,1,1.23-.6c.29-.12.6-.25.88-.4a1.31,1.31,0,0,0,.58-.5,1.55,1.55,0,0,0,.1-.69l0-3.59H18l0,3.59a1.87,1.87,0,0,1-.14.87,1.65,1.65,0,0,1-.74.66c-.3.16-.61.29-.91.41a7.54,7.54,0,0,0-1.17.56,7.92,7.92,0,0,0-1.15,1A5.08,5.08,0,0,1,12,75.5Z"/><g id="_Group_" data-name="&lt;Group&gt;"><polygon class="cls-2" points="21.23 21.19 21.18 21.2 21.48 23.37 23.52 23.09 23.22 20.92 21.23 21.19"/><rect class="cls-2" x="21.6" y="23.22" width="2.06" height="1.96" transform="translate(-3.11 3.34) rotate(-7.89)"/><rect class="cls-2" x="21.87" y="25.16" width="2.06" height="1.96" transform="translate(-3.37 3.39) rotate(-7.89)"/><rect class="cls-2" x="22.14" y="27.1" width="2.06" height="1.96" transform="translate(-3.64 3.45) rotate(-7.89)"/><rect class="cls-2" x="22.41" y="29.04" width="2.06" height="1.94" transform="translate(-3.9 3.5) rotate(-7.89)"/><polygon class="cls-2" points="24.6 30.82 22.55 31.11 22.86 33.33 22.86 33.33 24.9 33.05 24.6 30.82"/><polygon class="cls-2" points="22.86 33.33 22.86 33.33 23.17 35.56 23.17 35.56 25.21 35.28 24.9 33.05 22.86 33.33"/><polygon class="cls-2" points="23.17 35.56 23.17 35.56 23.48 37.79 23.48 37.79 25.52 37.51 25.21 35.28 23.17 35.56"/><polygon class="cls-2" points="23.48 37.79 23.48 37.79 23.78 40.02 23.79 40.02 25.83 39.74 25.52 37.51 23.48 37.79"/><polygon class="cls-2" points="23.79 40.02 23.78 40.02 24.09 42.25 24.1 42.25 26.14 41.96 25.83 39.74 23.79 40.02"/><polygon class="cls-2" points="24.1 42.25 24.09 42.25 24.4 44.48 24.41 44.48 26.45 44.2 26.14 41.96 24.1 42.25"/><polygon class="cls-2" points="24.41 44.48 24.4 44.48 24.71 46.71 24.71 46.7 26.76 46.42 26.45 44.2 24.41 44.48"/><polygon class="cls-2" points="24.71 46.7 24.71 46.71 25.02 48.93 25.02 48.93 27.07 48.65 26.76 46.42 24.71 46.7"/><polygon class="cls-2" points="25.02 48.93 25.02 48.93 25.33 51.16 25.33 51.16 27.37 50.88 27.07 48.65 25.02 48.93"/><polygon class="cls-2" points="25.33 51.16 25.33 51.16 25.64 53.39 25.64 53.39 27.68 53.11 27.37 50.88 25.33 51.16"/><polygon class="cls-2" points="25.64 53.39 25.64 53.39 25.89 55.24 25.9 55.24 27.94 54.96 27.68 53.11 25.64 53.39"/><polygon class="cls-2" points="25.9 55.24 25.89 55.24 26.15 57.09 26.16 57.09 28.19 56.81 27.94 54.96 25.9 55.24"/><polygon class="cls-2" points="26.16 57.09 26.15 57.09 26.41 58.95 26.41 58.95 28.45 58.66 28.19 56.81 26.16 57.09"/><polygon class="cls-2" points="26.41 58.95 26.41 58.95 26.63 60.58 26.64 60.58 28.68 60.3 28.45 58.66 26.41 58.95"/><polygon class="cls-2" points="26.64 60.58 26.63 60.58 26.89 62.47 26.9 62.47 28.94 62.18 28.68 60.3 26.64 60.58"/><polygon class="cls-2" points="26.9 62.47 26.89 62.47 27.16 64.35 27.16 64.35 29.2 64.07 28.94 62.18 26.9 62.47"/><polygon class="cls-2" points="27.16 64.35 27.16 64.35 27.42 66.24 27.42 66.24 29.46 65.95 29.2 64.07 27.16 64.35"/><rect class="cls-1" x="26.21" y="20.54" width="0.39" height="46.7" transform="translate(-5.77 4.04) rotate(-7.89)"/><rect class="cls-1" x="24.17" y="20.82" width="0.39" height="46.7" transform="translate(-5.83 3.76) rotate(-7.89)"/><rect class="cls-1" x="22.54" y="30.77" width="2.06" height="0.39" transform="translate(-4.01 3.52) rotate(-7.86)"/><rect class="cls-1" x="22.28" y="28.85" width="2.06" height="0.39" transform="translate(-3.75 3.46) rotate(-7.86)"/><rect class="cls-1" x="22.01" y="26.92" width="2.06" height="0.39" transform="translate(-3.49 3.41) rotate(-7.86)"/><rect class="cls-1" x="21.74" y="24.98" width="2.06" height="0.39" transform="translate(-3.23 3.35) rotate(-7.86)"/><rect class="cls-1" x="21.47" y="23.04" width="2.06" height="0.39" transform="translate(-2.97 3.3) rotate(-7.86)"/><rect class="cls-1" x="21.22" y="20.86" width="2.06" height="0.39" transform="translate(-2.67 3.24) rotate(-7.86)"/><polygon class="cls-1" points="22.89 33.52 22.83 33.14 24.88 32.86 24.93 33.24 24.93 33.24 22.89 33.52"/><polygon class="cls-1" points="23.2 35.76 23.14 35.37 25.18 35.09 25.24 35.47 25.23 35.47 23.2 35.76"/><polygon class="cls-1" points="23.5 37.98 23.45 37.6 25.49 37.32 25.55 37.7 25.54 37.7 23.5 37.98"/><polygon class="cls-1" points="23.81 40.21 23.76 39.83 25.8 39.54 25.85 39.93 25.85 39.93 23.81 40.21"/><polygon class="cls-1" points="24.12 42.44 24.07 42.05 26.11 41.77 26.16 42.16 26.16 42.16 24.12 42.44"/><polygon class="cls-1" points="24.43 44.67 24.38 44.28 26.42 44 26.47 44.39 26.47 44.39 24.43 44.67"/><polygon class="cls-1" points="24.74 46.9 24.69 46.51 26.73 46.23 26.8 46.61 26.8 46.61 24.74 46.9"/><polygon class="cls-1" points="25.05 49.13 25 48.74 27.04 48.46 27.09 48.84 27.09 48.84 25.05 49.13"/><polygon class="cls-1" points="25.36 51.35 25.31 50.97 27.35 50.69 27.42 51.07 27.42 51.07 25.36 51.35"/><polygon class="cls-1" points="25.67 53.58 25.62 53.2 27.66 52.92 27.73 53.3 27.73 53.3 25.67 53.58"/><polygon class="cls-1" points="25.93 55.44 25.87 55.05 27.91 54.77 27.98 55.15 27.98 55.15 25.93 55.44"/><polygon class="cls-1" points="26.18 57.29 26.13 56.9 28.17 56.62 28.23 57 28.23 57 26.18 57.29"/><polygon class="cls-1" points="26.44 59.14 26.39 58.75 28.42 58.47 28.49 58.85 28.48 58.85 26.44 59.14"/><polygon class="cls-1" points="26.66 60.77 26.61 60.39 28.65 60.1 28.71 60.49 28.7 60.49 26.66 60.77"/><polygon class="cls-1" points="26.93 62.66 26.87 62.27 28.91 61.99 28.98 62.37 28.97 62.38 26.93 62.66"/><polygon class="cls-1" points="27.19 64.54 27.14 64.16 29.17 63.88 29.24 64.26 29.23 64.26 27.19 64.54"/><polygon class="cls-1" points="27.45 66.43 27.4 66.05 29.43 65.76 29.5 66.14 29.5 66.15 27.45 66.43"/></g><path class="cls-2" d="M28,67.5l1.2.46L28,67.5q-.24.5-.47,1.05l1.33.35-1.33-.35q-.23.56-.46,1.19l1.41.38-1.41-.38c-.13.35-.25.71-.37,1.09l1.52.3-1.52-.3q-.19.62-.37,1.29l1.61.3-1.61-.3q-.18.67-.34,1.4l1.72.25L26,73.51c-.1.46-.2.94-.3,1.44l1.83.21L25.67,75c-.1.52-.19,1.07-.27,1.63l1.94.18-1.94-.18c-.08.53-.15,1.07-.21,1.64l2.06.21A40.11,40.11,0,0,1,29.17,68"/><path class="cls-1" d="M27.24,78.63h0l-2.06-.21A.19.19,0,0,1,25,78.2c.06-.52.13-1,.22-1.64h0c.09-.6.18-1.14.27-1.64h0c.09-.48.19-1,.3-1.45h0c.11-.49.23-1,.35-1.41h0c.12-.45.25-.88.38-1.3h0c.12-.38.24-.75.37-1.1h0c.15-.42.31-.82.46-1.19h0c.16-.38.32-.74.47-1.06a.19.19,0,0,1,.25-.1l1.2.46a.19.19,0,0,1,.11.25h0a40.44,40.44,0,0,0-1.92,10.43.2.2,0,0,1-.07.13A.19.19,0,0,1,27.24,78.63Zm-1.85-.58,1.67.17q.05-.66.11-1.28l-1.62-.15C25.5,77.25,25.44,77.65,25.4,78.05Zm.22-1.64,1.6.15q.07-.63.14-1.21l-1.54-.18C25.75,75.56,25.69,76,25.62,76.41Zm.28-1.63,1.52.17q.07-.53.15-1l-1.45-.21C26,74.09,26,74.44,25.9,74.79Zm.3-1.44,1.43.21q.08-.51.17-1l-1.35-.25C26.36,72.66,26.28,73,26.2,73.35ZM26.55,72l1.32.24q.09-.48.19-.91l-1.24-.25C26.73,71.34,26.64,71.65,26.55,72Zm.38-1.28,1.21.24.15-.65L27.17,70Q27.05,70.31,26.93,70.68Zm.37-1.08,1.08.29c.08-.32.16-.61.23-.85l-1-.26C27.52,69,27.41,69.32,27.31,69.6Zm.47-1.18,1,.25c.08-.27.15-.46.19-.59l-.85-.33Z"/><path class="cls-2" d="M18.09,69.25a35,35,0,0,1,4.66.6,5.89,5.89,0,0,0,3.65,0,5.37,5.37,0,0,0,.72-.44,19.64,19.64,0,0,0,3.06-2.75.5.5,0,0,0-.61-.76l-1.22.71a6.27,6.27,0,0,1-2.36.84.88.88,0,0,1-.83-.55.9.9,0,0,1,.57-1A3.07,3.07,0,0,1,27,65.75a1.64,1.64,0,0,0,.73-.13A.62.62,0,0,0,28,65c0-.33-.42-.5-.74-.59a8.44,8.44,0,0,0-5.12.24c-1.32.49-2.6,1.33-4,1.18"/><path class="cls-1" d="M24.93,70.35a10.75,10.75,0,0,1-2.07-.27l-.15,0a35,35,0,0,0-4.63-.6.19.19,0,0,1-.18-.21.19.19,0,0,1,.21-.18,35.3,35.3,0,0,1,4.68.61l.15,0a5.45,5.45,0,0,0,3.38,0,5.31,5.31,0,0,0,.7-.43,19.53,19.53,0,0,0,3-2.7.3.3,0,0,0,0-.37.3.3,0,0,0-.37-.09h0l-1.23.72-.52.25a4.43,4.43,0,0,1-1.91.6A1.07,1.07,0,0,1,25,67a1.09,1.09,0,0,1,.67-1.23,2.91,2.91,0,0,1,1.19-.18H27a1.49,1.49,0,0,0,.64-.11.43.43,0,0,0,.26-.4c0-.23-.35-.36-.6-.43a8.24,8.24,0,0,0-5,.23c-.34.12-.68.28-1,.42a6.06,6.06,0,0,1-3.08.77.19.19,0,0,1,0-.39,5.73,5.73,0,0,0,2.88-.74c.34-.15.68-.3,1-.43a8.64,8.64,0,0,1,5.24-.24c.54.15.84.4.89.75a.81.81,0,0,1-.47.8,1.81,1.81,0,0,1-.81.15h-.12a2.59,2.59,0,0,0-1,.15.71.71,0,0,0-.46.76.69.69,0,0,0,.65.41,4.07,4.07,0,0,0,1.72-.56l.55-.26,1.2-.7a.7.7,0,0,1,.85.2.69.69,0,0,1,0,.84,19.87,19.87,0,0,1-3.1,2.8,5.58,5.58,0,0,1-.75.46A3.55,3.55,0,0,1,24.93,70.35Z"/></g></g></svg>