<svg xmlns="http://www.w3.org/2000/svg" viewBox="0 0 41.7 70.65"><defs><style>.cls-1{fill:#231f20;}.cls-2{fill:#fff;}.cls-3{fill:none;stroke:#231f20;stroke-linecap:round;stroke-linejoin:round;}</style></defs><title>Asset 12</title><g id="Layer_2" data-name="Layer 2"><g id="Layer_1-2" data-name="Layer 1"><path class="cls-1" d="M22.73,18.28a3.67,3.67,0,0,1-3-1.49,12,12,0,0,1-1.08-2.68c-.52-1.51-.52-3.74-.52-9.14V4.38a.19.19,0,1,1,.39,0V5c0,5.35,0,7.57.49,9a11.55,11.55,0,0,0,1,2.6,3.37,3.37,0,0,0,2.72,1.31.19.19,0,0,1,.2.19.19.19,0,0,1-.19.2Z" transform="translate(-5.07)"/><path class="cls-1" d="M26.34,17.37a.19.19,0,0,1-.12-.35l2.26-1.7a1.59,1.59,0,0,0,.63-1.27V12.71a.19.19,0,0,1,.39,0v1.34a2,2,0,0,1-.79,1.58l-2.26,1.7A.19.19,0,0,1,26.34,17.37Z" transform="translate(-5.07)"/><path class="cls-1" d="M22.44,12.48a9.51,9.51,0,0,1-1.58-.15.19.19,0,0,1,.07-.38A7.17,7.17,0,0,0,23.3,12l-.11-.47a.19.19,0,1,1,.38-.09l.15.65a.19.19,0,0,1-.12.23A3.55,3.55,0,0,1,22.44,12.48Z" transform="translate(-5.07)"/><path class="cls-1" d="M22.69,14.6a7.6,7.6,0,0,1-1.63-.18.19.19,0,1,1,.08-.38,7.18,7.18,0,0,0,3.1,0,.19.19,0,1,1,.08.38A7.59,7.59,0,0,1,22.69,14.6Z" transform="translate(-5.07)"/><path class="cls-1" d="M21.59,14.5a1.92,1.92,0,0,0,2.21,0" transform="translate(-5.07)"/><path class="cls-1" d="M22.69,15a1.74,1.74,0,0,1-1.24-.41.19.19,0,1,1,.28-.27,1.44,1.44,0,0,0,1,.29,1.35,1.35,0,0,0,.9-.28.19.19,0,0,1,.29.25,1.65,1.65,0,0,1-1.18.42Z" transform="translate(-5.07)"/><path class="cls-1" d="M22.23.6a7.07,7.07,0,0,1,5.18.17,12.55,12.55,0,0,1,1.41.76,7.87,7.87,0,0,1,1.07.73A5.53,5.53,0,0,1,31.1,3.77a5.54,5.54,0,0,1,.64,1.67A8.45,8.45,0,0,1,31.84,7l0,3.79a1.74,1.74,0,0,1-.07.62,1.75,1.75,0,0,1-.8.78,2.21,2.21,0,0,1-1.78.48,1.8,1.8,0,0,0,.73-1,1.22,1.22,0,0,0-.1-1,.75.75,0,0,0-.86-.33A12.29,12.29,0,0,1,28.22,7,2.91,2.91,0,0,1,29,4.3a14,14,0,0,1-2.36.24q-2.45.1-4.9.14a15.74,15.74,0,0,1-4.35-.35C17.24,4.28,17,4.2,17,4A.57.57,0,0,1,17,3.67a3,3,0,0,1,.88-1.38c.22-.16.47-.25.68-.42s.39-.46.61-.66A3,3,0,0,1,21.48.72a1.8,1.8,0,0,0,.35,0A2.06,2.06,0,0,0,22.23.6Z" transform="translate(-5.07)"/><path class="cls-1" d="M29.59,12.88a1.36,1.36,0,0,1-.44-.07.19.19,0,0,1,0-.35,1.6,1.6,0,0,0,.65-.91,1,1,0,0,0-.08-.81.57.57,0,0,0-.62-.25.19.19,0,0,1-.25-.11A12.45,12.45,0,0,1,28,7a3.61,3.61,0,0,1,.44-2.38c-.56.08-1.14.11-1.8.14-1.63.07-3.28.12-4.9.14h-.94a13.38,13.38,0,0,1-3.46-.36c-.13,0-.51-.14-.59-.47a.75.75,0,0,1,.07-.46,3.14,3.14,0,0,1,1-1.46,3.13,3.13,0,0,1,.33-.2,2.27,2.27,0,0,0,.34-.21,2.28,2.28,0,0,0,.31-.33,3.19,3.19,0,0,1,.29-.32A2.67,2.67,0,0,1,20.92.51l.57,0a1.6,1.6,0,0,0,.31,0,1.65,1.65,0,0,0,.33-.1l0,0a7.35,7.35,0,0,1,5.32.17,12.74,12.74,0,0,1,1.43.77A8.06,8.06,0,0,1,30,2.1a5.65,5.65,0,0,1,1.25,1.58,5.68,5.68,0,0,1,.66,1.73A8.62,8.62,0,0,1,32,7l0,3.79a1.91,1.91,0,0,1-.08.69,1.93,1.93,0,0,1-.88.88A3,3,0,0,1,29.59,12.88Zm-.39-2.79a1,1,0,0,1,.81.46,1.4,1.4,0,0,1,.13,1.12,2,2,0,0,1-.46.83A2.91,2.91,0,0,0,30.9,12a1.57,1.57,0,0,0,.72-.69,1.59,1.59,0,0,0,.06-.55l0-3.79a8.32,8.32,0,0,0-.1-1.48,5.3,5.3,0,0,0-.62-1.61A5.28,5.28,0,0,0,29.76,2.4a7.73,7.73,0,0,0-1-.71A12.41,12.41,0,0,0,27.33.95a7,7,0,0,0-5-.16l0,0a2,2,0,0,1-.4.11,1.94,1.94,0,0,1-.38,0l-.55,0a2.19,2.19,0,0,0-1.57.45,2.87,2.87,0,0,0-.25.28,2.59,2.59,0,0,1-.37.39,2.58,2.58,0,0,1-.4.25,2.77,2.77,0,0,0-.29.17,2.84,2.84,0,0,0-.82,1.29.46.46,0,0,0-.05.22s.08.12.31.18a13,13,0,0,0,3.36.35h.94c1.62,0,3.26-.08,4.89-.14A13.68,13.68,0,0,0,29,4.11a.19.19,0,0,1,.22.11.19.19,0,0,1-.06.24,2.64,2.64,0,0,0-.72,2.48,12.06,12.06,0,0,0,.7,3.15Z" transform="translate(-5.07)"/><g id="_Group_" data-name="&lt;Group&gt;"><polygon class="cls-2" points="20.29 18.23 20.29 19.64 18.95 19.64 18.95 19.57 18.95 18.17 20.29 18.17 20.29 18.23"/><polygon class="cls-2" points="18.95 19.57 18.95 19.64 17.71 19.64 17.71 18.21 17.71 18.17 18.95 18.17 18.95 19.57"/><polygon class="cls-2" points="17.71 18.21 17.71 19.64 16.46 19.64 16.46 18.17 17.71 18.17 17.71 18.21"/><rect class="cls-1" x="16.46" y="17.98" width="7.25" height="0.39"/><rect class="cls-1" x="16.46" y="19.45" width="7.53" height="0.39"/><polygon class="cls-1" points="21.7 19.61 21.31 19.61 21.31 18.17 21.7 18.14 21.7 19.61"/><polygon class="cls-1" points="22.93 19.61 22.54 19.61 22.54 18.17 22.93 18.14 22.93 19.61"/><rect class="cls-1" x="20.09" y="18.23" width="0.39" height="1.47"/><rect class="cls-1" x="18.76" y="18.1" width="0.39" height="1.47"/><polygon class="cls-1" points="17.52 19.68 17.52 18.21 17.91 18.21 17.91 19.64 17.52 19.68"/><rect class="cls-1" x="16.27" y="18.17" width="0.39" height="1.47"/></g><path class="cls-1" d="M21.37,21a.19.19,0,0,1-.19-.19c0-.21,0-.82,0-1.47s0-1.25,0-1.45a.19.19,0,1,1,.39,0c0,.21,0,.82,0,1.47s0,1.25,0,1.45A.19.19,0,0,1,21.37,21Z" transform="translate(-5.07)"/><path class="cls-1" d="M20.91,26.8a.19.19,0,0,1-.19-.17s-.54-3.85-.77-4.61c-.11-.37-.37-1.25.91-2.13a.19.19,0,0,1,.28.07,27.55,27.55,0,0,0,1.67,3,.2.2,0,0,1,.07.14.2.2,0,0,1,0,.14,7.59,7.59,0,0,0-1.74,3.33.19.19,0,0,1-.19.18Zm0-6.45a1.27,1.27,0,0,0-.58,1.56c.16.54.46,2.48.64,3.68a9.29,9.29,0,0,1,1.48-2.43C22.07,22.64,21.27,21.09,20.9,20.34Z" transform="translate(-5.07)"/><path class="cls-1" d="M29.06,19.9a.19.19,0,0,1-.16-.08c-.07-.1-.29-.4-.31-2.79V15.3a.19.19,0,0,1,.19-.2h0a.19.19,0,0,1,.19.19V17c0,2.15.2,2.51.23,2.56a.19.19,0,0,1-.16.31Z" transform="translate(-5.07)"/><path class="cls-1" d="M28.15,26.6h0A.19.19,0,0,1,28,26.4c0-1.24-1.5-3.1-1.52-3.12a.19.19,0,0,1,0-.29c.73-.47,2.17-2.92,2.66-3.82a.19.19,0,0,1,.17-.1h0a.19.19,0,0,1,.17.1A8.37,8.37,0,0,0,30,20c.39.58.49.79.11,1.74-.49,1.22-1.72,4.73-1.74,4.76A.19.19,0,0,1,28.15,26.6Zm-1.29-3.4a8.77,8.77,0,0,1,1.35,2.44c.39-1.1,1.14-3.19,1.49-4.08s.27-.88-.07-1.38c-.09-.14-.2-.3-.33-.51A17.42,17.42,0,0,1,26.86,23.2Z" transform="translate(-5.07)"/><path class="cls-1" d="M10.51,60.35H6a.19.19,0,0,1-.19-.19l-.11-3a7.19,7.19,0,0,1-.55-3.93c.26-1.67.38-3.66.54-6.18q.06-.93.12-1.95c.22-3.35,1.9-13,2.71-17.58l0-.28c.78-4.45,2.67-5.36,2.75-5.39l.06,0,8.66-1a.19.19,0,0,1,0,.39l-8.62,1c-.21.12-1.81,1.13-2.51,5.09l0,.28c-.81,4.61-2.49,14.2-2.7,17.54q-.07,1-.12,1.95c-.15,2.53-.28,4.53-.54,6.22A6.87,6.87,0,0,0,6.06,57a.2.2,0,0,1,0,.08l.1,2.9h4.14c0-.73.25-3.51.76-6.44.07-.42.16-.83.25-1.27C11.82,50,12.46,47,12.46,37.61a.19.19,0,0,1,.39,0c0,9.45-.65,12.5-1.13,14.72-.09.44-.18.84-.25,1.26a65.53,65.53,0,0,0-.77,6.58A.19.19,0,0,1,10.51,60.35Z" transform="translate(-5.07)"/><path class="cls-1" d="M45.95,59H41.41a.19.19,0,0,1-.19-.18c0-.13-.76-12.69-3.36-18.48a.19.19,0,1,1,.35-.16c2.45,5.47,3.28,16.85,3.38,18.43h4.18L46.1,55c1.17-11.11-1.51-19.8-3.12-25-.35-1.12-.64-2.08-.84-2.87-1.06-4.24-3.69-5-3.71-5a52.76,52.76,0,0,0-8.33-1.57.19.19,0,0,1,0-.39,53.18,53.18,0,0,1,8.4,1.58c.11,0,2.87.81,4,5.28.19.78.49,1.73.83,2.85,1.61,5.22,4.31,14,3.13,25.14l-.34,3.73A.19.19,0,0,1,45.95,59Z" transform="translate(-5.07)"/><path class="cls-1" d="M10.69,58.15H5.92a.19.19,0,0,1,0-.39h4.77a.19.19,0,0,1,0,.39Z" transform="translate(-5.07)"/><rect class="cls-1" x="41.25" y="56.35" width="4.98" height="0.39" transform="translate(-6.71 1.3) rotate(-1.68)"/><path class="cls-1" d="M12.54,33.88a.19.19,0,0,1-.19-.18,36.06,36.06,0,0,0-1.6-8.3.19.19,0,1,1,.37-.12,36.45,36.45,0,0,1,1.62,8.39.19.19,0,0,1-.18.21Z" transform="translate(-5.07)"/><path class="cls-1" d="M24.18,54.7c-2.91,0-5.87-.07-8.18-.29a6.47,6.47,0,0,1-3.11-.86,2.49,2.49,0,0,1-1.18-2.94.19.19,0,0,1,.38.08,2.13,2.13,0,0,0,1,2.54A6.16,6.16,0,0,0,16,54c6.66.63,18.92,0,19,0,1.76-.15,1.64-2.42,1.63-2.52l2-26.53a.19.19,0,0,1,.39,0l-2,26.5c.06.92-.28,2.76-2,2.9C35,54.44,29.71,54.7,24.18,54.7Z" transform="translate(-5.07)"/><path class="cls-1" d="M13.33,69.6a.19.19,0,0,1-.19-.19C13,67,13,64.21,13,61.49s0-5.54-.14-7.92a.19.19,0,1,1,.39,0c.09,2.39.11,5.21.14,7.93s0,5.54.14,7.92a.19.19,0,0,1-.19.2Z" transform="translate(-5.07)"/><path class="cls-1" d="M30.71,69.93a.19.19,0,0,1-.19-.18c-.13-1.69-.22-3.37-.3-5.14-.1-2-.2-4-.37-6a.19.19,0,0,1,.39,0c.17,2.05.27,4.08.37,6,.09,1.77.17,3.45.3,5.13a.19.19,0,0,1-.18.21Z" transform="translate(-5.07)"/><path class="cls-1" d="M36.6,70.65h0a.19.19,0,0,1-.18-.21c.11-1.35-.73-16.26-.74-16.42a.19.19,0,1,1,.39,0c0,.62.85,15.09.74,16.47A.19.19,0,0,1,36.6,70.65Z" transform="translate(-5.07)"/><path class="cls-1" d="M18.38,68.17a.19.19,0,0,1-.19-.19c0-5.16-.49-9.68-.49-9.72a.19.19,0,1,1,.39,0s.5,4.58.5,9.76A.19.19,0,0,1,18.38,68.17Z" transform="translate(-5.07)"/><path class="cls-1" d="M32.42,59.91a.19.19,0,0,1-.19-.19V58.56a.19.19,0,0,1,.39,0v1.16A.19.19,0,0,1,32.42,59.91Z" transform="translate(-5.07)"/><path class="cls-1" d="M15.91,59.34a.19.19,0,0,1-.19-.19V57.63a.19.19,0,0,1,.39,0v1.51A.19.19,0,0,1,15.91,59.34Z" transform="translate(-5.07)"/><path class="cls-1" d="M24.53,54.7h0a.19.19,0,0,1-.19-.2l.07-6.87L24.34,27.9a.2.2,0,0,1,0-.08l2.05-4.73a.19.19,0,1,1,.36.15l-2,4.7.07,19.7-.07,6.87A.19.19,0,0,1,24.53,54.7Z" transform="translate(-5.07)"/><path class="cls-1" d="M13.09,55.46c-.11.24,10.38,2.49,22.65,0V54.08S21,55.62,13.06,53.56Z" transform="translate(-5.07)"/><rect class="cls-2" x="17.23" y="54.51" width="4.1" height="2.58" rx="0.37" ry="0.37"/><path class="cls-1" d="M26,57.28H22.68a.57.57,0,0,1-.57-.57V54.88a.57.57,0,0,1,.57-.57H26a.57.57,0,0,1,.57.57v1.84A.57.57,0,0,1,26,57.28ZM22.68,54.7a.18.18,0,0,0-.18.18v1.84a.18.18,0,0,0,.18.18H26a.18.18,0,0,0,.18-.18V54.88A.18.18,0,0,0,26,54.7Z" transform="translate(-5.07)"/><line class="cls-2" x1="18.63" y1="57.09" x2="18.63" y2="68.57"/><rect class="cls-1" x="18.43" y="57.09" width="0.39" height="11.48"/><line class="cls-2" x1="20.11" y1="57.09" x2="20.11" y2="62.83"/><rect class="cls-1" x="19.92" y="57.09" width="0.39" height="5.74"/><path class="cls-3" d="M0,60.16" transform="translate(-5.07)"/><path class="cls-2" d="M9.8,31.86,11,33.56c10.65-7.67,10.61-13.91,10.61-13.91H21S20,25.63,9.8,31.86Z" transform="translate(-5.07)"/><path class="cls-1" d="M11,33.75h0a.19.19,0,0,1-.13-.08L9.64,32a.19.19,0,0,1,.06-.28A29.74,29.74,0,0,0,19,23.34a11.06,11.06,0,0,0,1.78-3.72.19.19,0,0,1,.19-.16h.61a.19.19,0,0,1,.19.19c0,.26-.08,6.43-10.69,14.07A.2.2,0,0,1,11,33.75Zm-.92-1.83,1,1.36c9.25-6.72,10.25-12.35,10.36-13.45h-.24C20.92,20.85,19.24,26.24,10.08,31.92Z" transform="translate(-5.07)"/><rect class="cls-1" x="11.59" y="30.78" width="0.39" height="2" transform="translate(-21.04 12.33) rotate(-34.63)"/><rect class="cls-1" x="12.88" y="29.87" width="0.39" height="1.84" transform="translate(-20.63 13.5) rotate(-35.87)"/><rect class="cls-1" x="14" y="29.01" width="0.39" height="1.74" transform="translate(-20.37 14.9) rotate(-37.66)"/><rect class="cls-1" x="15.06" y="28.13" width="0.39" height="1.64" transform="translate(-20.07 16.48) rotate(-39.82)"/><rect class="cls-1" x="16.02" y="27.26" width="0.39" height="1.55" transform="translate(-19.42 17.32) rotate(-40.65)"/><rect class="cls-1" x="16.78" y="26.51" width="0.39" height="1.47" transform="translate(-19.27 19.61) rotate(-44.31)"/><rect class="cls-1" x="17.62" y="25.6" width="0.39" height="1.38" transform="translate(-18.32 19.72) rotate(-43.93)"/><rect class="cls-1" x="18.29" y="24.81" width="0.39" height="1.29" transform="translate(-17.98 23.48) rotate(-50.42)"/><rect class="cls-1" x="18.93" y="23.97" width="0.39" height="1.2" transform="translate(-17.08 24.41) rotate(-51.81)"/><rect class="cls-1" x="19.52" y="23.12" width="0.39" height="1.14" transform="translate(-15.78 28.58) rotate(-59.37)"/><rect class="cls-1" x="20.05" y="22.2" width="0.39" height="1" transform="translate(-13.67 32.38) rotate(-66.83)"/><rect class="cls-1" x="20.52" y="21.23" width="0.39" height="0.88" transform="translate(-11.21 34.99) rotate(-72.66)"/><rect class="cls-1" x="20.84" y="20.43" width="0.39" height="0.78" transform="translate(-8.22 37.88) rotate(-79.91)"/><path class="cls-1" d="M20.13,9.15a.66.66,0,1,1,.66-.66A.66.66,0,0,1,20.13,9.15Zm0-1a.33.33,0,1,0,.33.33A.33.33,0,0,0,20.13,8.16Z" transform="translate(-5.07)"/><polygon class="cls-1" points="16.27 8.77 15.77 8.16 13.44 8.16 13.44 7.83 15.93 7.83 16.52 8.56 16.27 8.77"/><path class="cls-1" d="M24.34,8.49a.66.66,0,1,1,.66.66A.66.66,0,0,1,24.34,8.49Zm.33,0A.33.33,0,1,0,25,8.16.33.33,0,0,0,24.67,8.49Z" transform="translate(-5.07)"/><polygon class="cls-1" points="18.72 8.77 19.21 8.16 21.54 8.16 21.54 7.83 19.06 7.83 18.46 8.56 18.72 8.77"/><path class="cls-1" d="M11.2,68.76H11c-.81,0-4.21-1.77-4.36-1.85l-.07,0,0-.08a17.78,17.78,0,0,1-.68-3.69,12.23,12.23,0,0,1,.51-3l0-.14H9.62l.06.08A6.35,6.35,0,0,1,11,62.67c0,.9-.1,2-.1,2a.7.7,0,0,1-.14.53.56.56,0,0,1-.42.16h0a.78.78,0,0,1-.84-.67l0-.93-1-.46h0v0a4.08,4.08,0,0,0-.21,1.14,7.31,7.31,0,0,0,.22,1.4v0l1.9,1.42a1.42,1.42,0,0,1,.92,1.27ZM6.95,66.61a26.32,26.32,0,0,0,3.86,1.73,1.51,1.51,0,0,0-.7-.66L8.17,66.23A.34.34,0,0,1,8,66a7.41,7.41,0,0,1-.22-1.47A4.38,4.38,0,0,1,8,63.26a.35.35,0,0,1,.2-.27.43.43,0,0,1,.36,0l1,.46a.35.35,0,0,1,.21.3l0,1c0,.16.21.3.44.3a.27.27,0,0,0,.14,0s0-.07,0-.28c0,0,.1-1.16.1-2a5.65,5.65,0,0,0-1.13-2.31H6.75a11.61,11.61,0,0,0-.45,2.75A17,17,0,0,0,6.95,66.61Z" transform="translate(-5.07)"/><path class="cls-1" d="M40.74,67.5h-.15l0-.15c-.07-.3.21-.91.95-1.29l1.87-1.42a7.32,7.32,0,0,0,.22-1.4,4.07,4.07,0,0,0-.21-1.14v0l-1,.45,0,.93a.78.78,0,0,1-.83.68.57.57,0,0,1-.43-.16.74.74,0,0,1-.14-.56h0s-.1-1.12-.1-2a6.35,6.35,0,0,1,1.27-2.63l.06-.08h3.16l0,.14a12.24,12.24,0,0,1,.51,3,17.78,17.78,0,0,1-.68,3.69l0,.08-.07,0C44.95,65.73,41.55,67.5,40.74,67.5Zm3-2.78a.34.34,0,0,1-.14.24L41.7,66.4a1.58,1.58,0,0,0-.72.68,26.29,26.29,0,0,0,3.86-1.73,17,17,0,0,0,.64-3.5A11.62,11.62,0,0,0,45,59.09H42.35a5.66,5.66,0,0,0-1.13,2.31c0,.88.1,2,.1,2,0,.24,0,.3,0,.31a.28.28,0,0,0,.15,0c.22,0,.42-.14.43-.31l0-1a.35.35,0,0,1,.21-.3l1-.47a.43.43,0,0,1,.35,0,.35.35,0,0,1,.21.27A4.38,4.38,0,0,1,44,63.25,7.41,7.41,0,0,1,43.75,64.72Z" transform="translate(-5.07)"/><path class="cls-1" d="M24.53,28.09a.19.19,0,0,1-.18-.12l-1.84-4.73a.19.19,0,1,1,.36-.14l1.84,4.73a.19.19,0,0,1-.11.25Z" transform="translate(-5.07)"/><path class="cls-2" d="M13.19,15.93A28.24,28.24,0,0,0,17,15.51a4.75,4.75,0,0,1,2.95.05,4.34,4.34,0,0,1,.58.37,15.85,15.85,0,0,1,2.43,2.27.41.41,0,0,1-.5.6l-1-.59a5.06,5.06,0,0,0-1.89-.72.71.71,0,0,0-.68.43.73.73,0,0,0,.44.81,2.48,2.48,0,0,0,1,.15,1.33,1.33,0,0,1,.58.12.5.5,0,0,1,.28.49c0,.27-.35.4-.61.46a6.82,6.82,0,0,1-4.13-.27c-1.06-.42-2.08-1.11-3.21-1" transform="translate(-5.07)"/><path class="cls-1" d="M18.92,20.35a7,7,0,0,1-2.56-.48c-.28-.11-.56-.24-.83-.37a4.6,4.6,0,0,0-2.3-.64.19.19,0,1,1,0-.39,4.93,4.93,0,0,1,2.5.67c.26.12.54.25.8.36a6.63,6.63,0,0,0,4,.26c.16,0,.44-.13.46-.31a.31.31,0,0,0-.18-.28,1.17,1.17,0,0,0-.5-.09h-.09a2.37,2.37,0,0,1-1-.17.92.92,0,0,1-.54-1,.91.91,0,0,1,.87-.57h0a3.57,3.57,0,0,1,1.53.52l.43.21.59.36.4.25a.21.21,0,0,0,.24-.32,15.68,15.68,0,0,0-2.38-2.22,4.12,4.12,0,0,0-.55-.35,4.37,4.37,0,0,0-2.7-.06l-.12,0a28.52,28.52,0,0,1-3.79.42.19.19,0,0,1,0-.39,28.15,28.15,0,0,0,3.74-.41l.12,0a4.71,4.71,0,0,1,2.94.09,4.5,4.5,0,0,1,.6.38,16.08,16.08,0,0,1,2.47,2.31.6.6,0,0,1-.74.89l-.42-.26-.57-.35-.42-.21a3.35,3.35,0,0,0-1.36-.48.52.52,0,0,0-.5.3.55.55,0,0,0,.34.58,2.05,2.05,0,0,0,.82.13h.09a1.49,1.49,0,0,1,.67.14.69.69,0,0,1,.38.69c0,.21-.19.48-.75.62A6.93,6.93,0,0,1,18.92,20.35Z" transform="translate(-5.07)"/></g></g></svg>