<svg xmlns="http://www.w3.org/2000/svg" viewBox="0 0 60.33 81.88"><defs><style>.cls-1{fill:#231f20;}.cls-2{fill:#fff;}</style></defs><title>Asset 10</title><g id="Layer_2" data-name="Layer 2"><g id="Layer_1-2" data-name="Layer 1"><path class="cls-1" d="M31.34,19a1.68,1.68,0,0,1-.68-.14.19.19,0,0,1-.08-.06L29.4,17.14l.32-.23,1.14,1.61a1.51,1.51,0,0,0,1.35-.18,2.31,2.31,0,0,0,.88-1.22l.17-.48a4.39,4.39,0,0,0,.39-2c-.09-.69-.16-1.49-.23-2.34a27.88,27.88,0,0,0-.85-5.65l.37-.12a28.18,28.18,0,0,1,.87,5.74c.07.84.14,1.64.23,2.32a4.74,4.74,0,0,1-.41,2.2l-.17.47a2.7,2.7,0,0,1-1,1.42A2,2,0,0,1,31.34,19Z"/><path class="cls-1" d="M25.5.4a15,15,0,0,1,2-.21,6.29,6.29,0,0,1,3.93,1.23A4.63,4.63,0,0,1,33.28,5a2,2,0,0,1-1,1.88c-.56.21-1.25,0-1.77.3a8,8,0,0,1-.33,2.39.43.43,0,0,1-.3-.05A.63.63,0,0,0,29,9a3.4,3.4,0,0,0-.49,2,2,2,0,0,0,1.21,1.64c-.57,0-.87.68-1,1.24a11.18,11.18,0,0,0-.21,2.81L22,16.31a1.07,1.07,0,0,0-.68.1c-.19.13-.26.46-.06.59-.3.05-.53-.23-.69-.49A17.09,17.09,0,0,1,18.17,6.39a4.72,4.72,0,0,1,.38-1.71,5.44,5.44,0,0,1,1-1.27,10.24,10.24,0,0,1,2.11-1.89A10.25,10.25,0,0,1,25.5.4Z"/><path class="cls-1" d="M21.2,17.2c-.28,0-.55-.2-.78-.59A17.28,17.28,0,0,1,18,6.37a4.88,4.88,0,0,1,.4-1.77,5.66,5.66,0,0,1,1-1.31,10.5,10.5,0,0,1,2.15-1.93A10.41,10.41,0,0,1,25.47.21a15.28,15.28,0,0,1,2-.21h.1a6.46,6.46,0,0,1,4,1.27A4.85,4.85,0,0,1,33.47,5,2.15,2.15,0,0,1,32.31,7.1a2.72,2.72,0,0,1-.87.13,2.19,2.19,0,0,0-.77.11,8.21,8.21,0,0,1-.34,2.33.19.19,0,0,1-.15.13.63.63,0,0,1-.44-.07.19.19,0,0,1-.09-.16.45.45,0,0,0-.51-.37,3.21,3.21,0,0,0-.43,1.86,1.79,1.79,0,0,0,1.08,1.48.19.19,0,0,1-.06.38c-.54,0-.74.83-.79,1.09a11,11,0,0,0-.2,2.76.19.19,0,0,1-.06.15.19.19,0,0,1-.15.06L22,16.5h-.21a.61.61,0,0,0-.35.08.24.24,0,0,0-.1.19.08.08,0,0,0,0,.07.19.19,0,0,1-.07.35ZM27.6.39h-.09a15,15,0,0,0-2,.2,10.12,10.12,0,0,0-3.8,1.1,10.2,10.2,0,0,0-2.07,1.86,5.28,5.28,0,0,0-.93,1.22,4.54,4.54,0,0,0-.36,1.64,16.9,16.9,0,0,0,2.38,10,1.4,1.4,0,0,0,.22.28.63.63,0,0,1,.26-.44,1,1,0,0,1,.56-.14H22l6.3.45a11.38,11.38,0,0,1,.22-2.63,1.91,1.91,0,0,1,.68-1.24,2.29,2.29,0,0,1-.91-1.57,3.57,3.57,0,0,1,.51-2.17.19.19,0,0,1,.09-.08.71.71,0,0,1,.29-.06.85.85,0,0,1,.8.58,7.8,7.8,0,0,0,.28-2.16.19.19,0,0,1,.1-.17,2.17,2.17,0,0,1,1-.21,2.39,2.39,0,0,0,.75-.1A1.78,1.78,0,0,0,33.08,5a4.46,4.46,0,0,0-1.76-3.46A6.07,6.07,0,0,0,27.6.39Z"/><path class="cls-1" d="M22,18.9l-.33-.2a3,3,0,0,0-.19-1.37,1.32,1.32,0,0,1-.24-1l.37.11a1,1,0,0,0,.2.67A3,3,0,0,1,22,18.9Z"/><path class="cls-1" d="M14.49,74.27H12a.19.19,0,0,1-.18-.13A94.42,94.42,0,0,1,6.32,47.26c0-3.86,1.36-19.11,5.43-21.68s12.69-4.94,12.78-5l.1.37C24.54,21,16,23.39,12,25.91,10.28,27,8.86,30.54,7.84,36.23a75.42,75.42,0,0,0-1.14,11,94,94,0,0,0,5.38,26.61h2.4Z"/><path class="cls-1" d="M31,77.57a150.22,150.22,0,0,1-15.37-1,1.62,1.62,0,0,1-1.42-1.84c.52-3.66,2.22-15.91,2.22-19.6,0-4.38-4.79-16.32-4.84-16.44l.36-.15c.2.49,4.87,12.13,4.87,16.58,0,3.62-1.55,15-2.22,19.66a1.23,1.23,0,0,0,1.08,1.4,149.87,149.87,0,0,0,15.32,1,107.64,107.64,0,0,0,13-.88,1.67,1.67,0,0,0,1.42-2c-1-4.38-3.16-15-3.16-19.15,0-5.21,2.5-16.92,2.53-17l.38.08c0,.12-2.52,11.79-2.52,17,0,4.09,2.21,14.7,3.15,19.07A2.06,2.06,0,0,1,44,76.68,108.06,108.06,0,0,1,31,77.57Z"/><rect class="cls-1" x="27.3" y="20.8" width="0.39" height="56.58" transform="translate(-1.34 0.77) rotate(-1.57)"/><rect class="cls-1" x="12.85" y="78.93" width="5.49" height="0.39" transform="translate(-63.8 93.33) rotate(-88.99)"/><rect class="cls-1" x="44.73" y="76.1" width="0.39" height="5.49"/><rect class="cls-1" x="23.51" y="77.11" width="0.39" height="3.47"/><rect class="cls-1" x="37.68" y="77.11" width="0.39" height="2.6"/><path class="cls-1" d="M48.54,73.42H45.39V73h3c3.16-11.56.29-34.59-1.09-44-.08-.55-.09-.6-.09-.63s0-3.5-2.82-4.48c-6.7-2.34-18-3.14-18.11-3.15l0-.39c.11,0,11.46.81,18.22,3.17,3,1.07,3.08,4.81,3.08,4.85s0,.23.08.58c1.39,9.45,4.28,32.69,1,44.28A.19.19,0,0,1,48.54,73.42Z"/><path class="cls-1" d="M13.13,74.13C8,57.61,10.37,39.53,10.4,39.35l.38.05c0,.18-2.38,18.18,2.72,34.61Z"/><path class="cls-1" d="M46.52,73.27l-.38-.07c3.19-16.77,0-37.39,0-37.6l.38-.06C46.56,35.74,49.73,56.43,46.52,73.27Z"/><path class="cls-1" d="M15.53,78.09l-.47-.34c-1.38-1-2.58-1.81-3-3.59l.38-.09c.39,1.64,1.48,2.4,2.85,3.37l.48.34Z"/><path class="cls-1" d="M45,77.38l-.23-.31c.32-.23.62-.43.9-.61A4.06,4.06,0,0,0,48,73.17l.38.06a4.41,4.41,0,0,1-2.46,3.55C45.64,77,45.35,77.16,45,77.38Z"/><path class="cls-1" d="M20,22.16s-.09-3.68,2.83-3.89c2.75-.19,6.64,0,6.68,0a3.48,3.48,0,0,1,2.31.87,2.54,2.54,0,0,1,.68,1.95h-.39a2.16,2.16,0,0,0-.57-1.66,3.13,3.13,0,0,0-2-.75c-.05,0-3.92-.19-6.64,0-2.55.18-2.47,3.35-2.47,3.49Z"/><g id="_Group_" data-name="&lt;Group&gt;"><path class="cls-2" d="M49.22,26.36,48,28.47q-1.08-.66-2.18-1.23l1.07-2.18Q48.07,25.67,49.22,26.36Z"/><path class="cls-2" d="M46.9,25.06l-1.07,2.18q-1.19-.62-2.41-1.15l.92-2.25Q45.63,24.4,46.9,25.06Z"/><path class="cls-2" d="M44.33,23.84l-.92,2.25q-1.22-.53-2.45-1,.38-1.15.76-2.31Q43,23.29,44.33,23.84Z"/><path class="cls-2" d="M41.72,22.83Q41.35,24,41,25.14q-1.23-.43-2.49-.77.3-1.18.59-2.36Q40.41,22.37,41.72,22.83Z"/><path class="cls-2" d="M39.07,22q-.29,1.18-.59,2.36Q37.24,24,36,23.78q.22-1.19.43-2.39Q37.76,21.65,39.07,22Z"/><path class="cls-2" d="M36.43,21.39q-.21,1.2-.43,2.39-1.45-.29-2.91-.46.13-1.21.24-2.42Q34.88,21.08,36.43,21.39Z"/><path class="cls-2" d="M33.33,20.91q-.12,1.21-.24,2.42-1.46-.17-2.92-.22,0-1.21,0-2.43Q31.77,20.73,33.33,20.91Z"/><path class="cls-2" d="M30.22,20.67q0,1.21,0,2.43-1.46-.05-2.9,0-.07-1.21-.14-2.43Q28.66,20.62,30.22,20.67Z"/><path class="cls-2" d="M27.12,20.69q.08,1.21.14,2.43-1.45.06-2.88.24-.16-1.2-.34-2.41Q25.57,20.76,27.12,20.69Z"/><path class="cls-2" d="M24,20.95q.17,1.2.34,2.41-1.43.18-2.84.47-.26-1.19-.53-2.37Q22.52,21.14,24,20.95Z"/><path class="cls-2" d="M21,21.45q.27,1.19.53,2.37-1.41.29-2.8.69-.35-1.16-.71-2.32Q19.5,21.76,21,21.45Z"/><path class="cls-2" d="M18,22.2q.36,1.16.71,2.32-1.38.4-2.73.91l-.9-2.26Q16.55,22.63,18,22.2Z"/><path class="cls-2" d="M15.12,23.17l.9,2.26q-1.34.51-2.65,1.13l-1.08-2.18Q13.68,23.72,15.12,23.17Z"/><path class="cls-2" d="M12.29,24.38l1.08,2.18q-1.3.62-2.56,1.35L9.56,25.83Q10.9,25,12.29,24.38Z"/><path class="cls-1" d="M49.8,27a38.55,38.55,0,0,0-44.87,2.3L4.68,29A38.93,38.93,0,0,1,50,26.62Z"/><path class="cls-1" d="M48.85,29.24A36.13,36.13,0,0,0,6.67,31l-.25-.3a36.52,36.52,0,0,1,42.63-1.76Z"/><path class="cls-1" d="M36.21,23.82l-.43-.08q.21-1.2.42-2.39l.45.09Q36.43,22.63,36.21,23.82Z"/><path class="cls-1" d="M38.69,24.42l-.42-.11q.3-1.18.58-2.36l.45.12Q39,23.25,38.69,24.42Z"/><path class="cls-1" d="M41.17,25.21l-.42-.15q.38-1.16.74-2.31l.44.15Q41.56,24.06,41.17,25.21Z"/><path class="cls-1" d="M43.62,26.18,43.21,26l.9-2.26.44.19Z"/><path class="cls-1" d="M46,27.35l-.4-.21,1.06-2.19.43.22Z"/><path class="cls-1" d="M48.2,28.59l-.39-.24L49,26.24l.42.25Z"/><path class="cls-1" d="M33.3,23.35l-.43,0q.12-1.21.23-2.42l.46.05Q33.43,22.14,33.3,23.35Z"/><path class="cls-1" d="M30.38,23.11l-.43,0q0-1.21,0-2.43l.46,0Q30.42,21.9,30.38,23.11Z"/><path class="cls-1" d="M27.48,23.1l-.43,0q-.07-1.21-.16-2.42l.45,0Q27.42,21.89,27.48,23.1Z"/><path class="cls-1" d="M24.59,23.33l-.42.05q-.17-1.2-.35-2.4l.45-.06Q24.44,22.13,24.59,23.33Z"/><path class="cls-1" d="M21.75,23.78l-.41.09q-.26-1.19-.54-2.37l.44-.09Q21.49,22.59,21.75,23.78Z"/><path class="cls-1" d="M18.94,24.46l-.41.12q-.36-1.16-.73-2.32l.43-.13Q18.6,23.29,18.94,24.46Z"/><path class="cls-1" d="M16.21,25.36l-.39.15-.91-2.25.42-.16Z"/><path class="cls-1" d="M13.56,26.47l-.38.18-1.09-2.17.41-.19Z"/><path class="cls-1" d="M11,27.8l-.37.21L9.36,25.94l.39-.23Z"/></g><path class="cls-2" d="M.19,28.43a41.15,41.15,0,0,0,4.5-3.2c1.13-.92,2.33-2,3.79-2a6.32,6.32,0,0,1,1,.06,23.1,23.1,0,0,1,4.7,1.16A.59.59,0,0,1,14,25.54l-1.66-.07a7.38,7.38,0,0,0-2.91.43,1,1,0,0,0-.56,1,1.06,1.06,0,0,0,1.14.72,3.61,3.61,0,0,0,1.37-.51,1.93,1.93,0,0,1,.83-.27.73.73,0,0,1,.71.42c.13.37-.16.75-.45,1A9.93,9.93,0,0,1,7,30.91c-1.64.22-3.44.06-4.81,1"/><path class="cls-1" d="M9.86,30.27A10.05,10.05,0,0,1,7,31.1c-.43.06-.87.09-1.31.12a6.74,6.74,0,0,0-3.42.84.19.19,0,0,1-.22-.32,7.15,7.15,0,0,1,3.61-.9c.42,0,.86-.06,1.28-.12a9.74,9.74,0,0,0,5.34-2.54c.24-.22.5-.54.4-.81a.54.54,0,0,0-.52-.29,1.78,1.78,0,0,0-.74.25l-.12.06a3.39,3.39,0,0,1-1.32.47A1.25,1.25,0,0,1,8.64,27a1.23,1.23,0,0,1,.65-1.24,5.1,5.1,0,0,1,2.3-.42l.7,0h.11l1.58.06a.4.4,0,0,0,.12-.76,23,23,0,0,0-4.63-1.14,6.15,6.15,0,0,0-1-.06A6.43,6.43,0,0,0,5,25.26l-.14.12A41.52,41.52,0,0,1,.3,28.6a.19.19,0,0,1-.2-.33,41.12,41.12,0,0,0,4.48-3.19L4.71,25a6.81,6.81,0,0,1,3.76-2,6.43,6.43,0,0,1,1,.06,23.28,23.28,0,0,1,4.76,1.18.77.77,0,0,1,.43.85.78.78,0,0,1-.71.64l-1.6-.06h-.08l-.69,0a4.8,4.8,0,0,0-2.12.37.85.85,0,0,0-.47.83.87.87,0,0,0,.94.56A3.1,3.1,0,0,0,11.12,27l.12-.06a2.09,2.09,0,0,1,.91-.29.91.91,0,0,1,.89.55c.14.38,0,.79-.5,1.23A10.08,10.08,0,0,1,9.86,30.27Z"/><path class="cls-2" d="M60.14,28.17a41.15,41.15,0,0,1-4.84-2.65c-1.23-.79-2.54-1.67-4-1.57a6.32,6.32,0,0,0-1,.18,23.1,23.1,0,0,0-4.53,1.7.59.59,0,0,0,.34,1.09l1.64-.26a7.38,7.38,0,0,1,2.95.09,1,1,0,0,1,.68,1,1.06,1.06,0,0,1-1,.85,3.61,3.61,0,0,1-1.42-.35,1.93,1.93,0,0,0-.85-.17.73.73,0,0,0-.65.5c-.09.38.25.73.56,1a9.93,9.93,0,0,0,5.71,1.93c1.65,0,3.42-.34,4.89.42"/><path class="cls-1" d="M50.75,31.13a10.08,10.08,0,0,1-2.89-1.48c-.51-.38-.73-.77-.64-1.16a.91.91,0,0,1,.82-.65A2.09,2.09,0,0,1,49,28l.13,0a3.1,3.1,0,0,0,1.21.29.87.87,0,0,0,.86-.67.85.85,0,0,0-.56-.77,4.8,4.8,0,0,0-2.15-.12l-.72.05-.11,0-1.52.24a.78.78,0,0,1-.78-.56.77.77,0,0,1,.33-.89,23.29,23.29,0,0,1,4.59-1.73,6.48,6.48,0,0,1,1-.18,6.81,6.81,0,0,1,4,1.5l.15.1A41.12,41.12,0,0,0,60.22,28a.19.19,0,0,1-.16.35,41.52,41.52,0,0,1-4.87-2.67l-.16-.1a6.43,6.43,0,0,0-3.72-1.44,6.21,6.21,0,0,0-1,.17A23,23,0,0,0,45.89,26a.38.38,0,0,0-.16.45.39.39,0,0,0,.4.28l1.48-.24.14,0,.72-.05a5.07,5.07,0,0,1,2.33.15,1.23,1.23,0,0,1,.8,1.16,1.25,1.25,0,0,1-1.23,1A3.39,3.39,0,0,1,49,28.44l-.13,0a1.78,1.78,0,0,0-.76-.16.54.54,0,0,0-.48.35c-.07.28.23.57.49.76a9.74,9.74,0,0,0,5.6,1.89c.42,0,.86,0,1.29,0a7.14,7.14,0,0,1,3.69.47.19.19,0,0,1-.18.34A6.76,6.76,0,0,0,55,31.59c-.43,0-.88,0-1.31,0A10.06,10.06,0,0,1,50.75,31.13Z"/></g></g></svg>