<svg xmlns="http://www.w3.org/2000/svg" viewBox="0 0 31.06 86.62"><defs><style>.cls-1{fill:#231f20;}.cls-2{fill:#fff;}</style></defs><title>Asset 9</title><g id="Layer_2" data-name="Layer 2"><g id="Layer_1-2" data-name="Layer 1"><path class="cls-1" d="M7.32,19.86a.19.19,0,0,1-.19-.19l0-1.81A7,7,0,0,0,6,18.09c-.28.08-.56.15-.86.21a2.41,2.41,0,0,1-2.26-.59,2.9,2.9,0,0,1-.4-2.16,3.83,3.83,0,0,1,.29-1.37,1.69,1.69,0,0,1,.29-.43H2.73a.19.19,0,0,1-.16-.07.19.19,0,0,1,0-.16l.35-1.86a4.22,4.22,0,0,1-2.68,0,.19.19,0,0,1-.09-.3A11.26,11.26,0,0,0,2.34,3.5a.19.19,0,0,1,.17-.21.2.2,0,0,1,.21.17,11.66,11.66,0,0,1-2.14,8,3.83,3.83,0,0,0,2.47-.23.19.19,0,0,1,.27.21l-.37,2,.94,0H4a.19.19,0,0,1,0,.39h0a1.08,1.08,0,0,0-.81.64,3.48,3.48,0,0,0-.25,1.23,2.6,2.6,0,0,0,.31,1.88,2,2,0,0,0,1.89.46c.27,0,.55-.13.82-.2a6.25,6.25,0,0,1,1.39-.27.18.18,0,0,1,.14.05.2.2,0,0,1,.06.14l0,2a.19.19,0,0,1-.19.2Z"/><path class="cls-1" d="M15.79,7.76a5.79,5.79,0,0,1-.49.9c-.55,1-.31,2.35-.91,3.36a7.78,7.78,0,0,0-.11-1.74c-.13-.73-.55-1.59-1.3-1.58-1,0-1.28,1.56-2.23,1.9C10.31,9.38,9.55,8.31,9,7.14A4.62,4.62,0,0,1,8.73,3.4q-3.72.05-7.45,0a1.68,1.68,0,0,1-.75-.13.58.58,0,0,1-.33-.63,8.67,8.67,0,0,1,3.1-1.43A40.42,40.42,0,0,1,9.39.3c1.83-.23,3.95-.16,5.17,1.22a6.42,6.42,0,0,1,1.16,3.8l.12,1.42A2.65,2.65,0,0,1,15.79,7.76Z"/><path class="cls-1" d="M14.39,12.21h-.06a.19.19,0,0,1-.14-.2,7.59,7.59,0,0,0-.11-1.69C14,9.61,13.58,8.89,13,8.89s-.75.4-1.08.86a2.54,2.54,0,0,1-1.11,1,.19.19,0,0,1-.25-.12,14,14,0,0,0-1-2c-.26-.46-.52-.94-.74-1.44a5.05,5.05,0,0,1-.4-3.62c-2.38,0-4.78,0-7.16,0a1.86,1.86,0,0,1-.84-.16A.77.77,0,0,1,0,2.55a.19.19,0,0,1,.06-.1A8.88,8.88,0,0,1,3.25,1,24.68,24.68,0,0,1,7.66.29C8.24.23,8.81.17,9.36.1c2.54-.32,4.31.11,5.34,1.29A6.69,6.69,0,0,1,15.91,5.3L16,6.71A2.81,2.81,0,0,1,16,7.82a2.81,2.81,0,0,1-.33.63c-.06.1-.12.2-.18.3a4.72,4.72,0,0,0-.41,1.57,4.71,4.71,0,0,1-.51,1.8A.19.19,0,0,1,14.39,12.21ZM13,8.51c.88,0,1.35.94,1.49,1.74q.06.36.09.72c0-.23.08-.46.11-.7a5.08,5.08,0,0,1,.45-1.69c.06-.11.13-.22.19-.32a2.45,2.45,0,0,0,.28-.54,2.52,2.52,0,0,0,0-1l-.12-1.42a6.17,6.17,0,0,0-1.11-3.68C13.47.58,11.81.18,9.41.49,8.85.56,8.28.62,7.7.67a24.41,24.41,0,0,0-4.34.69,8.67,8.67,0,0,0-3,1.35.42.42,0,0,0,.24.35,1.54,1.54,0,0,0,.66.11c2.47.05,5,.06,7.44,0h0a.19.19,0,0,1,.18.27A4.47,4.47,0,0,0,9.2,7.06c.22.48.48,1,.73,1.41a15.82,15.82,0,0,1,.92,1.87,2.81,2.81,0,0,0,.75-.81c.36-.5.73-1,1.37-1Z"/><path class="cls-1" d="M17.62,86.62h0a.19.19,0,0,1-.14-.24c1-3.76,2.29-17.57,2.3-17.71a.19.19,0,0,1,.39,0c0,.14-1.35,14-2.31,17.77A.19.19,0,0,1,17.62,86.62Z"/><path class="cls-1" d="M16.65,65.22c-.24,0-.48,0-.69,0l-5.22-.46A3.76,3.76,0,0,1,9,64.28,2.59,2.59,0,0,1,8,62.54a7.42,7.42,0,0,1,0-1.91L8,59.4a80.2,80.2,0,0,0,.39-8.52.19.19,0,0,1,.19-.2H18.4v.39H8.82a82.45,82.45,0,0,1-.39,8.36l-.1,1.23a7.1,7.1,0,0,0,0,1.81A2.21,2.21,0,0,0,9.22,64a3.41,3.41,0,0,0,1.55.39L16,64.8a3.07,3.07,0,0,0,1.52-.12.92.92,0,0,0,.57-1.08l.36-.15A1.3,1.3,0,0,1,17.68,65,2.48,2.48,0,0,1,16.65,65.22Z"/><path class="cls-1" d="M23.09,68.87H5a2.7,2.7,0,0,1-2.27-1c-1-1.31-.52-3.47-.45-3.73l.74-27.67,0,0,12-22.63L22,17.17l-.17.35-6.57-3.17L3.44,36.61,2.69,64.26s-.56,2.21.38,3.42a2.33,2.33,0,0,0,2,.81H22.7V64.66h.39Z"/><path class="cls-1" d="M2.93,8.16a.78.78,0,1,1,.78.78A.78.78,0,0,1,2.93,8.16Zm.39,0a.39.39,0,1,0,.39-.39A.39.39,0,0,0,3.31,8.16Z"/><polygon class="cls-1" points="2.28 8.49 2.86 7.77 5.61 7.77 5.61 7.38 2.68 7.38 1.98 8.24 2.28 8.49"/><path class="cls-2" d="M24.34,64.75a.12.12,0,0,1,0,.08.12.12,0,0,1-.08,0h0l-.47-.09-.05.28-.05.29a.12.12,0,0,1-.13.1h0l-.2,0-.12,0-.12,0A8.09,8.09,0,0,1,22.87,67l-.1.33,0,.12,0,.12-.05.17-1,4.12a.39.39,0,0,1-.48.29.4.4,0,0,1-.3-.48l.57-2.37a.12.12,0,0,0,0-.1.14.14,0,0,0-.09,0h-.15a.12.12,0,0,0-.13.09l-.82,3.36a.4.4,0,0,1-.73.11.4.4,0,0,1,0-.3l.77-3.2a.12.12,0,0,0-.11-.15h0l-.27,0a.12.12,0,0,0-.13.13.4.4,0,0,1,0,.13L18.83,73a.41.41,0,0,1-.48.29.4.4,0,0,1-.3-.48l.89-3.66v0a.12.12,0,0,0,0-.09.12.12,0,0,0-.08,0h-.18a.12.12,0,0,0-.13.09l-.81,3.33a.39.39,0,0,1-.48.29.4.4,0,0,1-.3-.48l.89-3.67a11.72,11.72,0,0,0,.23-1.33s0-.08,0-.12,0-.08,0-.12a2.66,2.66,0,0,0,0-.46c0-.15-.12-.17-.15-.17s-.17,0-.49.57l-.06.12,0,0v.07c0,.18-.2.75-.27,1a.43.43,0,0,1-.51.42h-.07a.3.3,0,0,1-.21-.1.33.33,0,0,1,0-.25l.21-.66a1.58,1.58,0,0,0,.07-.44s0-.06,0-.09v0s0-.08,0-.12,0-.25,0-.42a1.82,1.82,0,0,1,.39-1l.13-.2c.12-.2.28-.44.45-.67l.11-.15-.13,0-.13,0-.11,0a.12.12,0,0,1-.08-.05.12.12,0,0,1,0-.09l.1-.55-.12,0a.12.12,0,0,1-.1-.14"/><path class="cls-1" d="M18.44,73.45h-.13a.59.59,0,0,1-.44-.72l.87-3.59h0l-.8,3.27a.6.6,0,0,1-.28.37.57.57,0,0,1-.45.06.6.6,0,0,1-.43-.72l.89-3.67a11.41,11.41,0,0,0,.23-1.31l0-.23a2.75,2.75,0,0,0,0-.39,2.8,2.8,0,0,0-.27.44l-.06.11-.2,0,.18.08c0,.25-.28,1-.28,1a.61.61,0,0,1-.71.56h-.06a.41.41,0,0,1-.37-.61l.21-.66a1.39,1.39,0,0,0,.06-.39v-.24c0-.13,0-.26,0-.44a2,2,0,0,1,.42-1.07l.13-.18c.11-.18.25-.39.39-.59h-.07a.31.31,0,0,1-.2-.13.32.32,0,0,1-.05-.23l.07-.38a.32.32,0,0,1-.18-.33l.38.06a.07.07,0,0,0-.06-.08l.31.06-.12.67.62.11-.29.38c-.18.24-.34.47-.46.68l-.15.21a1.63,1.63,0,0,0-.35.89c0,.17,0,.29,0,.41V67a1.91,1.91,0,0,1-.08.53l-.21.66a.46.46,0,0,0,0,.09l.07,0h0c.17,0,.27,0,.3-.26s.25-.83.27-1a.44.44,0,0,1,0-.12l.08-.14c.3-.56.46-.73.69-.7a.36.36,0,0,1,.32.34,2.79,2.79,0,0,1,0,.49c0,.06,0,.09,0,.13v.12A11.93,11.93,0,0,1,18,68.55l-.89,3.67a.21.21,0,0,0,.15.25.19.19,0,0,0,.15,0,.21.21,0,0,0,.1-.13L18.34,69a.31.31,0,0,1,.33-.24h.18a.32.32,0,0,1,.29.34l0,.08-.88,3.64a.2.2,0,0,0,0,.16.2.2,0,0,0,.13.09.21.21,0,0,0,.25-.15l.89-3.67a.24.24,0,0,0,0-.06.31.31,0,0,1,.09-.25.32.32,0,0,1,.25-.09l.27,0a.32.32,0,0,1,.23.13.32.32,0,0,1,.05.26l-.78,3.2a.2.2,0,0,0,0,.16.21.21,0,0,0,.28.07.2.2,0,0,0,.09-.13l.82-3.36a.31.31,0,0,1,.33-.24h.15a.34.34,0,0,1,.23.13.32.32,0,0,1,.05.26l-.58,2.37a.21.21,0,0,0,.15.25.19.19,0,0,0,.15,0,.21.21,0,0,0,.1-.13l1.17-4.65.06-.21a7.32,7.32,0,0,0,.16-1.6v-.22l.59.11.13-.69.66.12h-.06a.07.07,0,0,0,0,0l.38.06a.32.32,0,0,1-.34.27h-.06l-.25,0-.07.38a.32.32,0,0,1-.34.26l-.25,0a7,7,0,0,1-.17,1.48l-.07.22-.17.52-1,4.1a.6.6,0,0,1-.28.38.57.57,0,0,1-.45.06.6.6,0,0,1-.43-.72l.55-2.29h0l-.8,3.3a.59.59,0,0,1-.27.37.58.58,0,0,1-.45.06.58.58,0,0,1-.36-.26.59.59,0,0,1-.07-.45L20,69.23h-.1a.52.52,0,0,1,0,.1L19,73A.59.59,0,0,1,18.44,73.45Z"/><path class="cls-1" d="M25.11,64.89l-8.36-1.28,0-.19c0-.18,2.7-18.38,1.68-24.24a32.53,32.53,0,0,0-1.12-4.06c-1.81-5.65-4.06-12.67,4.45-17.94l.11-.07.1.07c.08.05,7.91,5.41,5.91,22.55C26.37,53,25.12,64,25.11,64.16Zm-7.92-1.6,7.53,1.15v-.3C24.73,64,26,53,27.53,39.69c1.85-15.85-4.75-21.43-5.64-22.11C13.77,22.68,16,29.51,17.71,35a32.64,32.64,0,0,1,1.13,4.12C19.83,44.78,17.49,61.22,17.19,63.29Z"/><path class="cls-1" d="M3.35,39.75,3,39.68c.45-2.39,9.73-14,10.68-15.23L12.85,22l2.79-1.47L15,14.11l.39,0,.71,6.64-2.74,1.44.76,2.37-.06.08C13.91,24.74,3.8,37.37,3.35,39.75Z"/><polygon class="cls-1" points="3.85 35.81 3.47 35.74 5.77 23.48 5.4 20.51 14.63 14.73 14.84 15.05 5.81 20.7 6.16 23.49 6.15 23.52 3.85 35.81"/><rect class="cls-1" x="7.88" y="19.45" width="0.39" height="6.67" transform="translate(-4.97 2.43) rotate(-13.15)"/><rect class="cls-1" x="-3.48" y="76.74" width="16.52" height="0.39" transform="translate(-72.26 79.46) rotate(-88.32)"/><rect class="cls-1" x="5.67" y="22.49" width="2.48" height="0.39" transform="translate(-12.93 9.7) rotate(-39.85)"/><rect class="cls-1" x="11.92" y="68.68" width="0.39" height="15.22"/><path class="cls-1" d="M20.4,86.46,20,86.38a105,105,0,0,0,2.07-17.7h.39A105.44,105.44,0,0,1,20.4,86.46Z"/><path class="cls-1" d="M11.81,38.06C10.25,38.06,9.36,38,9,37a4.1,4.1,0,0,1-.2-1.1A23.81,23.81,0,0,1,9,30.45l.38.06a23.45,23.45,0,0,0-.19,5.33,3.82,3.82,0,0,0,.17,1c.29.81,1,.85,3,.83H13v.39H11.81Z"/><rect class="cls-1" x="10.17" y="28.92" width="5.7" height="0.39"/><path class="cls-1" d="M5,42.88a1,1,0,1,1,1-1A1,1,0,0,1,5,42.88ZM5,41.2a.65.65,0,1,0,.65.65A.65.65,0,0,0,5,41.2Z"/><path class="cls-1" d="M5,51.57a1,1,0,1,1,1-1A1,1,0,0,1,5,51.57Zm0-1.68a.65.65,0,1,0,.65.65A.65.65,0,0,0,5,49.89Z"/><g id="_Group_" data-name="&lt;Group&gt;"><rect class="cls-2" x="20.98" y="18.34" width="2.43" height="2.13"/><rect class="cls-2" x="20.98" y="20.48" width="2.43" height="2.3"/><rect class="cls-2" x="20.98" y="22.78" width="2.43" height="2.3"/><rect class="cls-2" x="20.98" y="25.08" width="2.43" height="2.3"/><rect class="cls-2" x="20.98" y="27.38" width="2.43" height="2.28"/><rect class="cls-2" x="20.98" y="29.66" width="2.43" height="2.65"/><rect class="cls-2" x="20.98" y="32.31" width="2.43" height="2.65"/><rect class="cls-2" x="20.98" y="34.96" width="2.43" height="2.65"/><rect class="cls-2" x="20.98" y="37.6" width="2.43" height="2.65"/><rect class="cls-2" x="20.98" y="40.25" width="2.43" height="2.65"/><rect class="cls-2" x="20.98" y="42.89" width="2.43" height="2.65"/><rect class="cls-2" x="20.98" y="45.54" width="2.43" height="2.65"/><rect class="cls-2" x="20.98" y="48.19" width="2.43" height="2.65"/><rect class="cls-2" x="20.98" y="50.84" width="2.43" height="2.65"/><rect class="cls-2" x="20.98" y="53.48" width="2.43" height="2.65"/><rect class="cls-2" x="20.98" y="56.13" width="2.43" height="2.2"/><rect class="cls-2" x="20.98" y="58.33" width="2.43" height="2.2"/><rect class="cls-2" x="20.98" y="60.53" width="2.43" height="2.2"/><rect class="cls-2" x="20.98" y="62.73" width="2.43" height="1.94"/><rect class="cls-1" x="20.78" y="17.71" width="0.39" height="48.84"/><rect class="cls-1" x="23.21" y="18.34" width="0.39" height="48.2"/><rect class="cls-1" x="20.98" y="29.47" width="2.43" height="0.39"/><rect class="cls-1" x="20.98" y="27.19" width="2.43" height="0.39"/><rect class="cls-1" x="20.98" y="24.89" width="2.43" height="0.39"/><rect class="cls-1" x="20.98" y="22.59" width="2.43" height="0.39"/><rect class="cls-1" x="20.98" y="20.28" width="2.43" height="0.39"/><rect class="cls-1" x="20.98" y="18.15" width="2.43" height="0.39"/><rect class="cls-1" x="20.98" y="32.11" width="2.43" height="0.39"/><rect class="cls-1" x="20.98" y="34.76" width="2.43" height="0.39"/><rect class="cls-1" x="20.98" y="37.41" width="2.43" height="0.39"/><rect class="cls-1" x="20.98" y="40.05" width="2.43" height="0.39"/><rect class="cls-1" x="20.98" y="42.7" width="2.43" height="0.39"/><rect class="cls-1" x="20.98" y="45.35" width="2.43" height="0.39"/><rect class="cls-1" x="20.98" y="48" width="2.43" height="0.39"/><rect class="cls-1" x="20.98" y="50.64" width="2.43" height="0.39"/><rect class="cls-1" x="20.98" y="53.29" width="2.43" height="0.39"/><rect class="cls-1" x="20.98" y="55.94" width="2.43" height="0.39"/><rect class="cls-1" x="20.98" y="58.14" width="2.43" height="0.39"/><rect class="cls-1" x="20.98" y="60.33" width="2.43" height="0.39"/><rect class="cls-1" x="20.98" y="62.53" width="2.43" height="0.39"/><rect class="cls-1" x="20.98" y="64.47" width="2.43" height="0.39"/></g><path class="cls-2" d="M28.21,73.22A41.15,41.15,0,0,0,23.74,70c-1.24-.78-2.6-1.58-3.13-2.94a6.32,6.32,0,0,1-.26-1A23.1,23.1,0,0,1,20,61.25a.59.59,0,0,1,1.13-.16l.47,1.59a7.38,7.38,0,0,0,1.34,2.63,1,1,0,0,0,1.16.2,1.06,1.06,0,0,0,.32-1.31,3.61,3.61,0,0,0-.92-1.13,1.93,1.93,0,0,1-.52-.7.73.73,0,0,1,.17-.8c.31-.25.76-.09,1.11.1A9.93,9.93,0,0,1,28.4,66c.73,1.48,1.15,3.24,2.47,4.24"/><path class="cls-1" d="M28.21,73.42a.19.19,0,0,1-.12,0,41.12,41.12,0,0,0-4.45-3.23l-.16-.1a6.81,6.81,0,0,1-3-2.94,6.48,6.48,0,0,1-.27-1,23.29,23.29,0,0,1-.4-4.89.77.77,0,0,1,.67-.68.78.78,0,0,1,.84.47l.39,1.32.09.3c.08.18.17.41.25.65a4.81,4.81,0,0,0,1,1.89.85.85,0,0,0,.93.18.87.87,0,0,0,.24-1.07,3.1,3.1,0,0,0-.78-1l-.1-.1a2.1,2.1,0,0,1-.57-.77.91.91,0,0,1,.23-1c.31-.25.76-.22,1.32.08a10.13,10.13,0,0,1,4.27,4.42c.19.39.36.8.53,1.2a6.75,6.75,0,0,0,1.88,3,.19.19,0,1,1-.24.31,7.14,7.14,0,0,1-2-3.13c-.16-.39-.33-.8-.52-1.18a9.74,9.74,0,0,0-4.1-4.25c-.28-.15-.67-.3-.9-.12a.54.54,0,0,0-.11.59,1.78,1.78,0,0,0,.47.62l.1.09a3.38,3.38,0,0,1,.87,1.1,1.25,1.25,0,0,1-.4,1.55,1.23,1.23,0,0,1-1.39-.22,5.07,5.07,0,0,1-1.13-2c-.09-.23-.17-.45-.25-.65l-.1-.32-.38-1.29a.4.4,0,0,0-.75.13A23,23,0,0,0,20.54,66a6.19,6.19,0,0,0,.25.93,6.43,6.43,0,0,0,2.89,2.75l.16.1a41.45,41.45,0,0,1,4.49,3.26.19.19,0,0,1-.12.34Z"/><path class="cls-2" d="M25,7.86a41.15,41.15,0,0,1-3.48,4.28c-1,1.07-2.1,2.2-2.26,3.65a6.32,6.32,0,0,0,0,1,23.1,23.1,0,0,0,.86,4.76.59.59,0,0,0,1.14-.14l0-1.66a7.38,7.38,0,0,1,.62-2.88A1,1,0,0,1,23,16.38a1.06,1.06,0,0,1,.64,1.18,3.61,3.61,0,0,1-.6,1.33,1.93,1.93,0,0,0-.32.81.73.73,0,0,0,.37.73c.36.16.76-.11,1-.38a9.93,9.93,0,0,0,2.93-5.27c.32-1.62.28-3.43,1.29-4.73"/><path class="cls-1" d="M20.66,22.11a.76.76,0,0,1-.72-.49,23.31,23.31,0,0,1-.87-4.83,6.43,6.43,0,0,1,0-1,6.81,6.81,0,0,1,2.19-3.63l.13-.13a41.05,41.05,0,0,0,3.47-4.26.19.19,0,1,1,.32.22,41.47,41.47,0,0,1-3.5,4.3l-.13.13a6.43,6.43,0,0,0-2.09,3.4,6.18,6.18,0,0,0,0,1,23,23,0,0,0,.84,4.7.38.38,0,0,0,.41.24.39.39,0,0,0,.35-.34s0-1.62,0-1.64c0-.24.06-.48.08-.72a5.07,5.07,0,0,1,.57-2.27A1.23,1.23,0,0,1,23,16.19a1.25,1.25,0,0,1,.79,1.4,3.39,3.39,0,0,1-.55,1.29l-.07.12a1.77,1.77,0,0,0-.29.72.54.54,0,0,0,.26.54c.26.11.6-.12.84-.34a9.74,9.74,0,0,0,2.87-5.16c.08-.41.14-.85.2-1.27A7.14,7.14,0,0,1,28.2,9.93a.19.19,0,0,1,.31.24,6.75,6.75,0,0,0-1.05,3.36c-.06.43-.12.87-.2,1.29a10.13,10.13,0,0,1-3,5.37c-.47.44-.89.58-1.26.42a.91.91,0,0,1-.49-.93,2.09,2.09,0,0,1,.35-.89l.07-.12a3.1,3.1,0,0,0,.5-1.14.87.87,0,0,0-.5-1,.85.85,0,0,0-.86.41,4.8,4.8,0,0,0-.51,2.09c0,.25,0,.49-.08.71h0s0,1.63,0,1.67a.78.78,0,0,1-.68.65Z"/><path class="cls-1" d="M18,55H8.62a.19.19,0,1,1,0-.39H18A.19.19,0,0,1,18,55Z"/><path class="cls-1" d="M13.35,54.82h0a.19.19,0,0,1-.18-.21l.25-3.56V46.53a.19.19,0,0,1,.19-.19h0a.19.19,0,0,1,.19.19v4.53l-.25,3.58A.19.19,0,0,1,13.35,54.82Z"/><path class="cls-1" d="M11.65,68a4.11,4.11,0,0,1-2.16-.51C7.75,66.45,8,64,8.14,63.28a.19.19,0,0,1,.38.07c-.11.66-.36,2.9,1.17,3.84a4.36,4.36,0,0,0,2.53.43c.32,0,.68,0,1.06,0a5.82,5.82,0,0,0,2.13-.18c.78-.31,1.11-1.25,1.35-2.22a.19.19,0,0,1,.38.09,3.25,3.25,0,0,1-1.58,2.48,6.07,6.07,0,0,1-2.28.21c-.37,0-.72,0-1,0Z"/><path class="cls-1" d="M14.92,14.1a31.45,31.45,0,0,1,.44-6.45l.49.1a30.78,30.78,0,0,0-.43,6.33Z"/></g></g></svg>