<svg xmlns="http://www.w3.org/2000/svg" viewBox="0 0 53.79 83.05"><defs><style>.cls-1{fill:#231f20;}.cls-2{fill:#fff;}.cls-3{fill:none;stroke:#231f20;stroke-linecap:round;stroke-linejoin:round;}</style></defs><title>Asset 4</title><g id="Layer_2" data-name="Layer 2"><g id="Layer_1-2" data-name="Layer 1"><path class="cls-1" d="M26.74,21.44a4.28,4.28,0,0,1-3.51-1.74A14.16,14.16,0,0,1,22,16.55c-.61-1.77-.61-4.4-.6-10.75V5.12a.19.19,0,1,1,.39,0V5.8c0,6.3,0,8.91.58,10.62a13.61,13.61,0,0,0,1.23,3.07A4,4,0,0,0,26.79,21a.18.18,0,0,1,.2.19.19.19,0,0,1-.19.2Z" transform="translate(-1.2)"/><path class="cls-1" d="M31,20.37a.19.19,0,0,1-.12-.35l2.66-2a1.91,1.91,0,0,0,.76-1.52V14.93a.19.19,0,0,1,.39,0v1.58a2.3,2.3,0,0,1-.91,1.83l-2.66,2A.19.19,0,0,1,31,20.37Z" transform="translate(-1.2)"/><path class="cls-1" d="M26.39,14.62a11.16,11.16,0,0,1-1.86-.18.19.19,0,0,1,.07-.38,8.33,8.33,0,0,0,2.84.06l-.13-.59a.19.19,0,1,1,.38-.09l.17.76a.19.19,0,0,1-.12.23A4.14,4.14,0,0,1,26.39,14.62Z" transform="translate(-1.2)"/><path class="cls-1" d="M26.7,17.12a8.9,8.9,0,0,1-1.91-.21.19.19,0,1,1,.08-.38,8.48,8.48,0,0,0,3.66,0,.19.19,0,0,1,.08.38A8.9,8.9,0,0,1,26.7,17.12Z" transform="translate(-1.2)"/><path class="cls-1" d="M25.4,17A2.26,2.26,0,0,0,28,17" transform="translate(-1.2)"/><path class="cls-1" d="M26.69,17.63a2,2,0,0,1-1.43-.47.19.19,0,0,1,.28-.27,1.73,1.73,0,0,0,1.23.35,1.62,1.62,0,0,0,1.08-.34.19.19,0,1,1,.29.25,1.91,1.91,0,0,1-1.36.48Z" transform="translate(-1.2)"/><path class="cls-1" d="M26.16.68a8.32,8.32,0,0,1,6.09.2,14.77,14.77,0,0,1,1.66.89,9.26,9.26,0,0,1,1.26.85,6.51,6.51,0,0,1,1.42,1.79,6.52,6.52,0,0,1,.76,2,9.94,9.94,0,0,1,.12,1.78l0,4.45a2,2,0,0,1-.08.73,2.06,2.06,0,0,1-.94.92,2.6,2.6,0,0,1-2.09.57,2.11,2.11,0,0,0,.86-1.2,1.43,1.43,0,0,0-.12-1.13.88.88,0,0,0-1-.39,14.45,14.45,0,0,1-.9-4A3.42,3.42,0,0,1,34.14,5a16.53,16.53,0,0,1-2.77.28q-2.88.12-5.76.17a18.52,18.52,0,0,1-5.12-.41C20.28,5,20,4.91,20,4.69a.67.67,0,0,1,.07-.4,3.48,3.48,0,0,1,1-1.62c.26-.18.56-.29.8-.49s.46-.54.72-.78A3.56,3.56,0,0,1,25.27.82a2.12,2.12,0,0,0,.41,0A2.42,2.42,0,0,0,26.16.68Z" transform="translate(-1.2)"/><path class="cls-1" d="M34.82,15.09a1.57,1.57,0,0,1-.5-.08.19.19,0,0,1,0-.35A1.92,1.92,0,0,0,35,13.58a1.24,1.24,0,0,0-.1-1,.7.7,0,0,0-.78-.31.19.19,0,0,1-.25-.11,14.61,14.61,0,0,1-.92-4,4.12,4.12,0,0,1,.56-2.84,20.94,20.94,0,0,1-2.19.17c-1.91.08-3.85.14-5.77.17H24.51a15.71,15.71,0,0,1-4.06-.43c-.14,0-.58-.15-.67-.52a.85.85,0,0,1,.08-.52A3.66,3.66,0,0,1,21,2.51a3.65,3.65,0,0,1,.39-.23A2.7,2.7,0,0,0,21.76,2a2.69,2.69,0,0,0,.37-.4,3.7,3.7,0,0,1,.34-.37A3.05,3.05,0,0,1,24.61.61l.67,0a2,2,0,0,0,.37,0A2,2,0,0,0,26,.51l.05,0A8.38,8.38,0,0,1,28.94,0a8.5,8.5,0,0,1,3.38.7A15,15,0,0,1,34,1.6a9.47,9.47,0,0,1,1.28.87,6.62,6.62,0,0,1,1.47,1.85,6.64,6.64,0,0,1,.78,2,10.13,10.13,0,0,1,.12,1.82l0,4.45a2.21,2.21,0,0,1-.1.8,2.24,2.24,0,0,1-1,1A3.51,3.51,0,0,1,34.82,15.09Zm-.46-3.22a1.13,1.13,0,0,1,.92.52,1.62,1.62,0,0,1,.14,1.28,2.32,2.32,0,0,1-.59,1,3.23,3.23,0,0,0,1.54-.61,1.87,1.87,0,0,0,.86-.82,1.89,1.89,0,0,0,.07-.66l0-4.45a9.82,9.82,0,0,0-.12-1.75,6.27,6.27,0,0,0-.73-1.91A6.24,6.24,0,0,0,35,2.77a9.12,9.12,0,0,0-1.23-.84,14.67,14.67,0,0,0-1.63-.88A8.11,8.11,0,0,0,28.94.39a8,8,0,0,0-2.72.47l-.05,0A2.27,2.27,0,0,1,25.7,1a2.31,2.31,0,0,1-.45,0l-.65,0a2.61,2.61,0,0,0-1.87.54,3.36,3.36,0,0,0-.3.34,3,3,0,0,1-.43.45,3,3,0,0,1-.46.29,3.31,3.31,0,0,0-.35.21,3.37,3.37,0,0,0-1,1.54.53.53,0,0,0-.06.28c0,.1.15.18.39.24a15.36,15.36,0,0,0,4,.41h1.1c1.91,0,3.84-.09,5.76-.17a16.16,16.16,0,0,0,2.74-.27.19.19,0,0,1,.16.35c-.7.51-1,1.5-.87,2.95a14.22,14.22,0,0,0,.83,3.74Z" transform="translate(-1.2)"/><path class="cls-1" d="M25.25,22.73a.19.19,0,0,1-.19-.19V21a.19.19,0,0,1,.39,0v1.49A.19.19,0,0,1,25.25,22.73Z" transform="translate(-1.2)"/><path class="cls-1" d="M25.84,31.12a.19.19,0,0,1-.18-.12c-.07-.17-1.84-4.21-2.14-5.13a3.16,3.16,0,0,1,1.21-3.5.19.19,0,0,1,.22,0s3.75,2.82,4.11,3.07a.19.19,0,0,1,0,.28s-2.88,3.41-3.06,5.2a.19.19,0,0,1-.16.17Zm-1-8.34a2.83,2.83,0,0,0-.94,3c.23.7,1.39,3.38,1.89,4.55a17.7,17.7,0,0,1,2.89-4.65Z" transform="translate(-1.2)"/><path class="cls-1" d="M34.19,21.66a.19.19,0,0,1-.16-.08A2.62,2.62,0,0,1,33.68,20V18a.19.19,0,0,1,.19-.2h0a.19.19,0,0,1,.19.19v2a2.24,2.24,0,0,0,.28,1.34.19.19,0,0,1-.16.31Z" transform="translate(-1.2)"/><path class="cls-1" d="M31.54,30.65h-.07a.19.19,0,0,1-.13-.18c0-1.47-2.53-4.69-2.55-4.72a.19.19,0,0,1,0-.28c1.08-.7,5.47-4.32,5.52-4.36a.19.19,0,0,1,.29.06c.9,1.68,1.28,2.86.69,4.34s-3.53,4.94-3.65,5.09A.19.19,0,0,1,31.54,30.65Zm-2.31-5A15,15,0,0,1,31.67,30,28.54,28.54,0,0,0,35,25.35c.51-1.28.22-2.31-.56-3.8C33.61,22.21,30.4,24.84,29.22,25.66Z" transform="translate(-1.2)"/><polyline class="cls-2" points="26.48 29.4 25.31 52.66 27.75 56.01 30.18 52.42 28.82 29.4"/><path class="cls-1" d="M28.94,56.21a.19.19,0,0,1-.16-.08l-2.44-3.35a.19.19,0,0,1,0-.12l1.17-23.26a.19.19,0,0,1,.39,0L26.71,52.6l2.23,3.07,2.24-3.31L29.82,29.41a.19.19,0,0,1,.39,0l1.37,23a.19.19,0,0,1,0,.12l-2.44,3.59a.19.19,0,0,1-.16.09Z" transform="translate(-1.2)"/><path class="cls-1" d="M12.37,70.94H7.06a.19.19,0,0,1-.19-.19l-.13-3.59a8.41,8.41,0,0,1-.65-4.61c.31-2,.45-4.3.63-7.26q.07-1.1.14-2.3C7.12,49.05,9.1,37.76,10,32.33L10.1,32c.91-5.22,3.13-6.28,3.22-6.32l.06,0,10.19-1.21a.19.19,0,0,1,0,.39L13.46,26c-.23.13-2.15,1.31-3,6l-.06.34C9.48,37.82,7.5,49.1,7.25,53q-.08,1.2-.14,2.3c-.18,3-.32,5.32-.64,7.3A8.12,8.12,0,0,0,7.1,67a.2.2,0,0,1,0,.08l.12,3.44h4.94c.05-.8.29-4.12.9-7.61.09-.49.19-1,.3-1.5.55-2.6,1.31-6.16,1.31-17.23a.19.19,0,0,1,.39,0c0,11.11-.76,14.7-1.32,17.31-.11.51-.21,1-.3,1.48a77,77,0,0,0-.9,7.75A.19.19,0,0,1,12.37,70.94Z" transform="translate(-1.2)"/><path class="cls-1" d="M54.05,69.32H48.72a.19.19,0,0,1-.19-.18c0-.15-.9-14.94-4-21.75a.19.19,0,0,1,.35-.16c2.9,6.47,3.87,20,4,21.71h5l.39-4.21c1.38-13.08-1.78-23.3-3.67-29.41-.41-1.31-.76-2.45-1-3.37-1.25-5-4.36-5.9-4.39-5.9a62.09,62.09,0,0,0-9.8-1.85.19.19,0,0,1,0-.39,62.51,62.51,0,0,1,9.87,1.86c.13,0,3.36,1,4.66,6.18.23.91.58,2,1,3.35,1.9,6.14,5.07,16.41,3.68,29.56l-.4,4.39A.19.19,0,0,1,54.05,69.32Z" transform="translate(-1.2)"/><path class="cls-1" d="M30,29.6H27.68a.19.19,0,0,1-.16-.08l-.73-1.06a.19.19,0,0,1,.32-.22l.67,1h2.13l.7-1a.19.19,0,0,1,.32.23l-.76,1.06A.19.19,0,0,1,30,29.6Z" transform="translate(-1.2)"/><path class="cls-1" d="M12.58,68.35H7A.19.19,0,0,1,7,68h5.62a.19.19,0,0,1,0,.39Z" transform="translate(-1.2)"/><rect class="cls-1" x="48.52" y="66.3" width="5.86" height="0.39" transform="translate(-3.12 1.54) rotate(-1.68)"/><path class="cls-1" d="M14.75,39.8a.19.19,0,0,1-.19-.18,42.45,42.45,0,0,0-1.89-9.78.19.19,0,0,1,.37-.12,42.85,42.85,0,0,1,1.91,9.87.19.19,0,0,1-.18.21Z" transform="translate(-1.2)"/><path class="cls-1" d="M28.44,64.29c-3.42,0-6.91-.08-9.62-.34a7.59,7.59,0,0,1-3.65-1,2.9,2.9,0,0,1-1.38-3.42.19.19,0,0,1,.38.08,2.53,2.53,0,0,0,1.22,3,7.27,7.27,0,0,0,3.46.94c7.83.74,22.27,0,22.41,0,2.11-.18,2-2.88,2-3l2.33-31.21a.19.19,0,1,1,.39,0L43.61,60.59s.18,3.18-2.31,3.38C41.2,64,34.95,64.29,28.44,64.29Z" transform="translate(-1.2)"/><path class="cls-1" d="M15.68,81.82a.19.19,0,0,1-.19-.19c-.11-2.81-.13-6.12-.16-9.33s-.05-6.52-.16-9.32a.19.19,0,0,1,.19-.2.19.19,0,0,1,.2.19c.11,2.81.13,6.12.16,9.33s.05,6.52.16,9.32a.19.19,0,0,1-.19.2Z" transform="translate(-1.2)"/><path class="cls-1" d="M36.13,82.21a.19.19,0,0,1-.19-.18c-.16-2-.25-4-.36-6-.11-2.3-.23-4.69-.44-7.09a.19.19,0,1,1,.39,0c.2,2.41.32,4.8.44,7.11.1,2.09.2,4.05.36,6a.19.19,0,0,1-.18.21Z" transform="translate(-1.2)"/><path class="cls-1" d="M43.06,83h0a.19.19,0,0,1-.18-.21C43,81.25,42,63.7,42,63.52a.19.19,0,1,1,.39,0c0,.72,1,17.76.87,19.37A.19.19,0,0,1,43.06,83Z" transform="translate(-1.2)"/><path class="cls-1" d="M21.63,80.14a.19.19,0,0,1-.19-.19c0-6.07-.58-11.39-.58-11.44a.19.19,0,0,1,.39,0c0,.05.58,5.39.58,11.48A.19.19,0,0,1,21.63,80.14Z" transform="translate(-1.2)"/><path class="cls-1" d="M38.14,70.42a.19.19,0,0,1-.19-.19V68.87a.19.19,0,0,1,.39,0v1.36A.19.19,0,0,1,38.14,70.42Z" transform="translate(-1.2)"/><path class="cls-1" d="M18.71,69.74a.19.19,0,0,1-.19-.19V67.77a.19.19,0,1,1,.39,0v1.78A.19.19,0,0,1,18.71,69.74Z" transform="translate(-1.2)"/><path class="cls-1" d="M28.86,64.29h0a.19.19,0,0,1-.19-.2L28.75,56a.19.19,0,0,1,.19-.19h0a.19.19,0,0,1,.19.2l-.08,8.08A.19.19,0,0,1,28.86,64.29Z" transform="translate(-1.2)"/><path class="cls-1" d="M13.47,80.83h-.16c-.95,0-4.94-2.08-5.11-2.17l-.07,0,0-.08a20.87,20.87,0,0,1-.8-4.33,14.36,14.36,0,0,1,.6-3.52l0-.14h3.67l.06.08c.06.08,1.49,2,1.49,3.07S13,76.09,13,76.1a.8.8,0,0,1-.15.61.63.63,0,0,1-.47.18h0a.89.89,0,0,1-.95-.76l0-1.14-1.19-.53-.14-.18.08.21v0a4.84,4.84,0,0,0-.25,1.35,8.64,8.64,0,0,0,.25,1.65v0l2.24,1.67c.89.45,1.14,1.18,1.07,1.46Zm-5-2.48a29.53,29.53,0,0,0,4.63,2.06,1.75,1.75,0,0,0-.86-.86l-2.28-1.7a.36.36,0,0,1-.15-.26,8.71,8.71,0,0,1-.26-1.73A5.12,5.12,0,0,1,9.8,74.4a.38.38,0,0,1,.22-.3.47.47,0,0,1,.39,0l1.18.55a.37.37,0,0,1,.23.33l0,1.13c0,.21.26.39.55.39.11,0,.17,0,.19,0s.07-.1.05-.36c0,0,.12-1.36.12-2.4a6.72,6.72,0,0,0-1.35-2.76H8.23a13.77,13.77,0,0,0-.54,3.27A20.17,20.17,0,0,0,8.46,78.35Z" transform="translate(-1.2)"/><path class="cls-1" d="M48.24,79.35h-.16l0-.15c-.07-.28.18-1,1.1-1.47l2.22-1.67a9.36,9.36,0,0,0,.26-1.68A4.82,4.82,0,0,0,51.37,73V73l-.06,0-1.19.55,0,1.12a.89.89,0,0,1-.94.77.64.64,0,0,1-.48-.18.84.84,0,0,1-.15-.64h0s-.12-1.32-.12-2.38,1.43-3,1.49-3.07l.06-.08H53.6l0,.14a14.36,14.36,0,0,1,.6,3.52,20.88,20.88,0,0,1-.8,4.33l0,.08-.07,0C53.18,77.26,49.19,79.35,48.24,79.35Zm3.51-3.24a.37.37,0,0,1-.15.26l-2.25,1.68a1.81,1.81,0,0,0-.89.87,29.54,29.54,0,0,0,4.63-2.06,20.18,20.18,0,0,0,.76-4.14,13.77,13.77,0,0,0-.54-3.27H50.12a6.84,6.84,0,0,0-1.35,2.76c0,1,.12,2.36.12,2.37,0,.28,0,.36.05.38s.08,0,.2,0a.51.51,0,0,0,.54-.39l0-1.12a.38.38,0,0,1,.23-.33l1.19-.55a.48.48,0,0,1,.39,0,.38.38,0,0,1,.22.3A5.12,5.12,0,0,1,52,74.38,8.71,8.71,0,0,1,51.75,76.11Z" transform="translate(-1.2)"/><line class="cls-2" x1="26.68" y1="67.13" x2="26.68" y2="80.64"/><rect class="cls-1" x="26.48" y="67.13" width="0.39" height="13.51"/><line class="cls-2" x1="28.43" y1="67.13" x2="28.43" y2="73.88"/><rect class="cls-1" x="28.23" y="67.13" width="0.39" height="6.75"/><path class="cls-3" d="M0,70.75" transform="translate(-1.2)"/><line class="cls-2" x1="9.98" y1="57.23" x2="42.47" y2="57.23"/><rect class="cls-1" x="9.98" y="57.04" width="32.49" height="0.39"/><line class="cls-2" x1="9.44" y1="59.66" x2="42.47" y2="59.66"/><rect class="cls-1" x="9.44" y="59.46" width="33.03" height="0.39"/><line class="cls-2" x1="40.99" y1="57.23" x2="40.99" y2="59.66"/><rect class="cls-1" x="40.8" y="57.23" width="0.39" height="2.43"/><line class="cls-2" x1="38.34" y1="57.23" x2="38.34" y2="59.66"/><rect class="cls-1" x="38.15" y="57.23" width="0.39" height="2.43"/><line class="cls-2" x1="35.7" y1="57.23" x2="35.7" y2="59.66"/><rect class="cls-1" x="35.5" y="57.23" width="0.39" height="2.43"/><line class="cls-2" x1="33.05" y1="57.23" x2="33.05" y2="59.66"/><rect class="cls-1" x="32.85" y="57.23" width="0.39" height="2.43"/><line class="cls-2" x1="30.4" y1="57.23" x2="30.4" y2="59.66"/><rect class="cls-1" x="30.21" y="57.23" width="0.39" height="2.43"/><line class="cls-2" x1="27.76" y1="57.23" x2="27.76" y2="59.66"/><rect class="cls-1" x="27.56" y="57.23" width="0.39" height="2.43"/><line class="cls-2" x1="25.11" y1="57.23" x2="25.11" y2="59.66"/><rect class="cls-1" x="24.91" y="57.23" width="0.39" height="2.43"/><line class="cls-2" x1="22.46" y1="57.23" x2="22.46" y2="59.66"/><rect class="cls-1" x="22.27" y="57.23" width="0.39" height="2.43"/><line class="cls-2" x1="19.82" y1="57.23" x2="19.82" y2="59.66"/><rect class="cls-1" x="19.62" y="57.23" width="0.39" height="2.43"/><line class="cls-2" x1="17.17" y1="57.23" x2="17.17" y2="59.66"/><rect class="cls-1" x="16.97" y="57.23" width="0.39" height="2.43"/><line class="cls-2" x1="14.52" y1="57.23" x2="14.52" y2="59.66"/><rect class="cls-1" x="14.33" y="57.23" width="0.39" height="2.43"/><line class="cls-2" x1="11.88" y1="57.23" x2="11.88" y2="59.66"/><rect class="cls-1" x="11.68" y="57.23" width="0.39" height="2.43"/><path class="cls-2" d="M1.39,74,2.8,76c12.53-9,12.48-16.37,12.48-16.37h-.72S13.34,66.7,1.39,74Z" transform="translate(-1.2)"/><path class="cls-1" d="M2.8,76.22h0a.19.19,0,0,1-.13-.08l-1.41-2a.19.19,0,0,1,.06-.28C13,66.66,14.36,59.69,14.37,59.63a.19.19,0,0,1,.19-.16h.72a.19.19,0,0,1,.19.19c0,.3-.09,7.54-12.56,16.53A.2.2,0,0,1,2.8,76.22ZM1.67,74.09l1.18,1.66c11-8,12.12-14.69,12.23-15.9h-.35C14.47,61,12.55,67.35,1.67,74.09Z" transform="translate(-1.2)"/><rect class="cls-1" x="3.53" y="72.76" width="0.39" height="2.35" transform="translate(-42.55 15.21) rotate(-34.63)"/><rect class="cls-1" x="5.04" y="71.69" width="0.39" height="2.16" transform="translate(-42.85 16.88) rotate(-35.88)"/><rect class="cls-1" x="6.36" y="70.68" width="0.39" height="2.04" transform="translate(-43.64 18.95) rotate(-37.66)"/><rect class="cls-1" x="7.61" y="69.64" width="0.39" height="1.93" transform="translate(-44.61 21.38) rotate(-39.82)"/><rect class="cls-1" x="8.74" y="68.62" width="0.39" height="1.82" transform="translate(-44.34 22.59) rotate(-40.65)"/><rect class="cls-1" x="9.63" y="67.73" width="0.39" height="1.72" transform="translate(-46.32 26.37) rotate(-44.3)"/><rect class="cls-1" x="10.63" y="66.67" width="0.39" height="1.62" transform="translate(-44.99 26.39) rotate(-43.94)"/><rect class="cls-1" x="11.41" y="65.73" width="0.39" height="1.51" transform="translate(-48.23 33.07) rotate(-50.42)"/><rect class="cls-1" x="12.17" y="64.74" width="0.39" height="1.41" transform="translate(-47.92 34.7) rotate(-51.81)"/><rect class="cls-1" x="12.86" y="63.74" width="0.39" height="1.34" transform="translate(-50.22 42.83) rotate(-59.37)"/><rect class="cls-1" x="13.48" y="62.67" width="0.39" height="1.18" transform="translate(-51.06 50.93) rotate(-66.82)"/><rect class="cls-1" x="14.04" y="61.53" width="0.39" height="1.04" transform="translate(-50.43 57.14) rotate(-72.66)"/><rect class="cls-1" x="14.41" y="60.58" width="0.39" height="0.91" transform="translate(-49.25 64.73) rotate(-79.91)"/><path class="cls-2" d="M3.05,54.89a41.15,41.15,0,0,0,5.49-.6c1.44-.26,3-.57,4.29.08a6.32,6.32,0,0,1,.84.54,23.1,23.1,0,0,1,3.53,3.3.59.59,0,0,1-.73.88l-1.42-.87a7.38,7.38,0,0,0-2.76-1,1,1,0,0,0-1,.63A1.06,1.06,0,0,0,12,59a3.61,3.61,0,0,0,1.44.22,1.93,1.93,0,0,1,.85.17.73.73,0,0,1,.41.71c-.06.39-.51.58-.89.67a9.93,9.93,0,0,1-6-.39c-1.54-.61-3-1.62-4.68-1.48" transform="translate(-1.2)"/><path class="cls-1" d="M11.4,61.24a10.11,10.11,0,0,1-3.7-.7c-.4-.16-.81-.35-1.2-.53a6.76,6.76,0,0,0-3.39-.94.19.19,0,1,1,0-.39,7.14,7.14,0,0,1,3.59,1c.39.18.78.37,1.18.52a9.74,9.74,0,0,0,5.9.39c.31-.08.7-.23.74-.52a.54.54,0,0,0-.31-.51,1.78,1.78,0,0,0-.77-.15h-.13a3.39,3.39,0,0,1-1.38-.23,1.25,1.25,0,0,1-.75-1.42A1.23,1.23,0,0,1,12.3,57h0a5.13,5.13,0,0,1,2.19.75l.63.31.82.5.61.37a.4.4,0,0,0,.47-.6,23,23,0,0,0-3.49-3.26,6.2,6.2,0,0,0-.81-.52,6.43,6.43,0,0,0-4-.09l-.18,0a41.53,41.53,0,0,1-5.52.61.19.19,0,0,1-.2-.19.19.19,0,0,1,.19-.2,41.13,41.13,0,0,0,5.46-.6l.18,0a6.81,6.81,0,0,1,4.23.13,6.51,6.51,0,0,1,.87.55,23.3,23.3,0,0,1,3.58,3.35.77.77,0,0,1,0,1,.78.78,0,0,1-.93.22l-.63-.39-.8-.49-.62-.31a4.87,4.87,0,0,0-2-.71h0a.85.85,0,0,0-.81.5.87.87,0,0,0,.54.95,3.1,3.1,0,0,0,1.23.2h.14a2.09,2.09,0,0,1,.94.19.92.92,0,0,1,.51.91c-.06.4-.41.68-1,.83A10,10,0,0,1,11.4,61.24Z" transform="translate(-1.2)"/><path class="cls-1" d="M23.26,11.13a.78.78,0,1,1,.78-.78A.78.78,0,0,1,23.26,11.13Zm0-1.16a.39.39,0,1,0,.39.39A.39.39,0,0,0,23.26,10Z" transform="translate(-1.2)"/><polygon class="cls-1" points="23.49 10.68 22.91 9.96 20.16 9.96 20.16 9.57 23.09 9.57 23.79 10.43 23.49 10.68"/><path class="cls-1" d="M28.22,10.35a.78.78,0,1,1,.78.78A.78.78,0,0,1,28.22,10.35Zm.39,0A.39.39,0,1,0,29,10,.39.39,0,0,0,28.6,10.35Z" transform="translate(-1.2)"/><polygon class="cls-1" points="26.37 10.68 26.95 9.96 29.7 9.96 29.7 9.57 26.77 9.57 26.07 10.43 26.37 10.68"/></g></g></svg>