<svg xmlns="http://www.w3.org/2000/svg" viewBox="0 0 45.88 70.65"><defs><style>.cls-1{fill:#231f20;}.cls-2{fill:#fff;}.cls-3{fill:none;stroke:#231f20;stroke-linecap:round;stroke-linejoin:round;}</style></defs><title>Asset 2</title><g id="Layer_2" data-name="Layer 2"><g id="Layer_1-2" data-name="Layer 1"><path class="cls-1" d="M22.73,18.28a3.67,3.67,0,0,1-3-1.49,12,12,0,0,1-1.08-2.68c-.52-1.51-.52-3.74-.52-9.14V4.38a.19.19,0,1,1,.39,0V5c0,5.35,0,7.56.49,9a11.55,11.55,0,0,0,1,2.6,3.37,3.37,0,0,0,2.72,1.31.19.19,0,0,1,.2.19.19.19,0,0,1-.19.2Z" transform="translate(-0.9)"/><path class="cls-1" d="M26.34,17.37a.19.19,0,0,1-.12-.35l2.26-1.7a1.59,1.59,0,0,0,.63-1.27V12.71a.19.19,0,1,1,.39,0v1.34a2,2,0,0,1-.79,1.58l-2.26,1.7A.19.19,0,0,1,26.34,17.37Z" transform="translate(-0.9)"/><path class="cls-1" d="M22.44,12.48a9.52,9.52,0,0,1-1.58-.15.19.19,0,0,1,.07-.38A7.16,7.16,0,0,0,23.3,12l-.11-.47a.19.19,0,0,1,.38-.09l.15.65a.19.19,0,0,1-.12.23A3.55,3.55,0,0,1,22.44,12.48Z" transform="translate(-0.9)"/><path class="cls-1" d="M22.69,14.6a7.6,7.6,0,0,1-1.63-.18.19.19,0,0,1,.08-.38,7.17,7.17,0,0,0,3.1,0,.19.19,0,0,1,.08.38A7.6,7.6,0,0,1,22.69,14.6Z" transform="translate(-0.9)"/><path class="cls-1" d="M21.59,14.5a1.92,1.92,0,0,0,2.21,0" transform="translate(-0.9)"/><path class="cls-1" d="M22.69,15a1.74,1.74,0,0,1-1.24-.41.19.19,0,1,1,.28-.27,1.44,1.44,0,0,0,1,.29,1.35,1.35,0,0,0,.9-.28.19.19,0,1,1,.29.25,1.65,1.65,0,0,1-1.18.42Z" transform="translate(-0.9)"/><path class="cls-1" d="M22.23.6a7.07,7.07,0,0,1,5.18.17,12.55,12.55,0,0,1,1.41.76,7.87,7.87,0,0,1,1.07.73A5.53,5.53,0,0,1,31.1,3.77a5.54,5.54,0,0,1,.64,1.67A8.45,8.45,0,0,1,31.84,7l0,3.79a1.74,1.74,0,0,1-.07.62,1.75,1.75,0,0,1-.8.78,2.21,2.21,0,0,1-1.78.48,1.8,1.8,0,0,0,.73-1,1.22,1.22,0,0,0-.1-1,.75.75,0,0,0-.86-.33A12.29,12.29,0,0,1,28.22,7,2.91,2.91,0,0,1,29,4.3a14,14,0,0,1-2.36.24q-2.45.1-4.9.14a15.74,15.74,0,0,1-4.35-.35C17.24,4.28,17,4.2,17,4A.57.57,0,0,1,17,3.67a3,3,0,0,1,.88-1.38c.22-.16.47-.25.68-.42s.39-.46.61-.66A3,3,0,0,1,21.48.72a1.8,1.8,0,0,0,.35,0A2.06,2.06,0,0,0,22.23.6Z" transform="translate(-0.9)"/><path class="cls-1" d="M29.6,12.88a1.37,1.37,0,0,1-.44-.07.19.19,0,0,1,0-.35,1.61,1.61,0,0,0,.65-.91,1,1,0,0,0-.08-.81.57.57,0,0,0-.62-.25.2.2,0,0,1-.25-.11A12.46,12.46,0,0,1,28,7a3.61,3.61,0,0,1,.44-2.38c-.63.09-1.26.11-1.8.14-1.63.07-3.27.11-4.9.14h-.94a13.39,13.39,0,0,1-3.46-.36c-.13,0-.51-.14-.59-.47a.75.75,0,0,1,.07-.46,3.14,3.14,0,0,1,1-1.46,3.16,3.16,0,0,1,.33-.2,2.31,2.31,0,0,0,.34-.21,2.27,2.27,0,0,0,.31-.33,3.18,3.18,0,0,1,.29-.32A2.62,2.62,0,0,1,20.92.51l.57,0a1.68,1.68,0,0,0,.31,0,1.67,1.67,0,0,0,.33-.1l0,0a7.35,7.35,0,0,1,5.32.17,12.82,12.82,0,0,1,1.43.77A8.05,8.05,0,0,1,30,2.1a5.65,5.65,0,0,1,1.25,1.58,5.67,5.67,0,0,1,.66,1.73A8.61,8.61,0,0,1,32,7l0,3.79a1.91,1.91,0,0,1-.08.69,1.93,1.93,0,0,1-.88.88A3,3,0,0,1,29.6,12.88Zm-.39-2.79a1,1,0,0,1,.81.46,1.41,1.41,0,0,1,.13,1.12,2,2,0,0,1-.46.83A2.91,2.91,0,0,0,30.9,12a1.57,1.57,0,0,0,.72-.69,1.59,1.59,0,0,0,.06-.55l0-3.79a8.3,8.3,0,0,0-.1-1.48,5.3,5.3,0,0,0-.62-1.61A5.28,5.28,0,0,0,29.76,2.4a7.68,7.68,0,0,0-1-.71A12.57,12.57,0,0,0,27.33.95a7,7,0,0,0-5-.16h0a1.94,1.94,0,0,1-.41.12,1.91,1.91,0,0,1-.38,0l-.55,0a2.19,2.19,0,0,0-1.57.45,2.78,2.78,0,0,0-.25.28,2.62,2.62,0,0,1-.37.39,2.63,2.63,0,0,1-.4.25,2.75,2.75,0,0,0-.29.17,2.85,2.85,0,0,0-.82,1.29.46.46,0,0,0-.05.22s.08.12.31.18a13,13,0,0,0,3.36.35h.94c1.62,0,3.27-.08,4.89-.14A13.66,13.66,0,0,0,29,4.11a.19.19,0,0,1,.16.35,2.64,2.64,0,0,0-.72,2.48,12.08,12.08,0,0,0,.7,3.15Z" transform="translate(-0.9)"/><path class="cls-1" d="M21.47,19.38a.19.19,0,0,1-.19-.19V17.92a.19.19,0,1,1,.39,0v1.27A.19.19,0,0,1,21.47,19.38Z" transform="translate(-0.9)"/><path class="cls-1" d="M22,26.5a.19.19,0,0,1-.18-.12c-.06-.15-1.56-3.58-1.82-4.36a2.72,2.72,0,0,1,1-3,.19.19,0,0,1,.22,0s3.19,2.4,3.49,2.61a.19.19,0,0,1,0,.28s-2.44,2.89-2.6,4.41a.19.19,0,0,1-.16.17Zm-.86-7.08a2.38,2.38,0,0,0-.77,2.48c.19.58,1.13,2.77,1.58,3.79a15.35,15.35,0,0,1,2.42-3.86Z" transform="translate(-0.9)"/><path class="cls-1" d="M29.06,18.47a.19.19,0,0,1-.16-.08A2.25,2.25,0,0,1,28.6,17V15.3a.19.19,0,0,1,.19-.2.21.21,0,0,1,.2.19V17a1.88,1.88,0,0,0,.23,1.12.19.19,0,0,1-.16.31Z" transform="translate(-0.9)"/><path class="cls-1" d="M26.81,26.11h-.07a.19.19,0,0,1-.13-.18c0-1.24-2.14-4-2.16-4a.19.19,0,0,1,0-.28c.92-.59,4.65-3.67,4.69-3.7a.19.19,0,0,1,.29.06c.77,1.43,1.09,2.45.59,3.71A27.51,27.51,0,0,1,27,26,.19.19,0,0,1,26.81,26.11Zm-1.92-4.27a13,13,0,0,1,2.06,3.61,23.87,23.87,0,0,0,2.77-3.89,3.47,3.47,0,0,0-.46-3.18C28.52,19,25.89,21.14,24.88,21.84Z" transform="translate(-0.9)"/><polyline class="cls-2" points="22.64 25.02 21.64 44.79 23.71 47.63 25.78 44.58 24.62 25.02"/><path class="cls-1" d="M24.6,47.83a.19.19,0,0,1-.16-.08L22.38,44.9a.2.2,0,0,1,0-.12l1-19.77a.19.19,0,0,1,.39,0l-1,19.7L24.6,47.3l1.88-2.77L25.32,25a.19.19,0,0,1,.18-.21.19.19,0,0,1,.21.18l1.16,19.56a.19.19,0,0,1,0,.12l-2.07,3.05a.19.19,0,0,1-.16.09Z" transform="translate(-0.9)"/><path class="cls-1" d="M10.51,60.35H6a.19.19,0,0,1-.19-.19l-.11-3a7.19,7.19,0,0,1-.55-3.93c.26-1.66.38-3.65.54-6.17q.06-.93.12-2c.22-3.35,1.9-13,2.71-17.57l0-.28c.78-4.45,2.67-5.36,2.75-5.39l.06,0,8.66-1a.19.19,0,0,1,.22.17.19.19,0,0,1-.17.22l-8.62,1c-.21.12-1.81,1.13-2.51,5.09l0,.28c-.81,4.61-2.49,14.2-2.7,17.53q-.07,1-.12,2c-.15,2.53-.28,4.53-.54,6.21A6.89,6.89,0,0,0,6.06,57a.2.2,0,0,1,0,.08L6.19,60h4.14c0-.73.25-3.51.76-6.44.07-.42.16-.83.25-1.27C11.82,50,12.46,47,12.46,37.61a.19.19,0,1,1,.39,0c0,9.45-.65,12.5-1.13,14.72-.09.44-.18.84-.25,1.26a65.59,65.59,0,0,0-.77,6.58A.19.19,0,0,1,10.51,60.35Z" transform="translate(-0.9)"/><path class="cls-1" d="M45.95,59H41.41a.19.19,0,0,1-.19-.18c0-.13-.76-12.69-3.36-18.48a.19.19,0,0,1,.35-.16c2.45,5.47,3.28,16.85,3.38,18.43h4.18L46.1,55c1.17-11.11-1.51-19.8-3.12-25-.35-1.12-.64-2.08-.84-2.87-1.06-4.24-3.69-5-3.71-5a52.78,52.78,0,0,0-8.33-1.57.19.19,0,0,1-.17-.21.19.19,0,0,1,.21-.17,53.12,53.12,0,0,1,8.4,1.58c.11,0,2.87.81,4,5.28.19.78.49,1.73.83,2.85,1.61,5.22,4.32,14,3.13,25.14l-.34,3.73A.19.19,0,0,1,45.95,59Z" transform="translate(-0.9)"/><path class="cls-1" d="M25.51,25.21h-2a.19.19,0,0,1-.16-.08l-.62-.9a.19.19,0,1,1,.32-.22l.56.82h1.78L26,24a.19.19,0,0,1,.32.23l-.65.9A.19.19,0,0,1,25.51,25.21Z" transform="translate(-0.9)"/><path class="cls-1" d="M10.69,58.15H5.92a.19.19,0,1,1,0-.39h4.77a.19.19,0,1,1,0,.39Z" transform="translate(-0.9)"/><rect class="cls-1" x="41.25" y="56.35" width="4.98" height="0.39" transform="translate(-2.53 1.3) rotate(-1.68)"/><path class="cls-1" d="M12.54,33.88a.19.19,0,0,1-.19-.18,36.07,36.07,0,0,0-1.6-8.3.19.19,0,1,1,.37-.12,36.46,36.46,0,0,1,1.62,8.39.19.19,0,0,1-.18.21Z" transform="translate(-0.9)"/><path class="cls-1" d="M24.18,54.7c-2.91,0-5.87-.07-8.18-.29a6.47,6.47,0,0,1-3.11-.86,2.49,2.49,0,0,1-1.18-2.94.19.19,0,1,1,.38.08,2.13,2.13,0,0,0,1,2.54A6.16,6.16,0,0,0,16,54c6.66.62,18.92,0,19,0,1.76-.15,1.64-2.42,1.63-2.52l2-26.53a.19.19,0,1,1,.39,0l-2,26.5c.06.92-.28,2.76-2,2.9C35,54.44,29.71,54.7,24.18,54.7Z" transform="translate(-0.9)"/><path class="cls-1" d="M13.33,69.6a.19.19,0,0,1-.19-.19C13,67,13,64.21,13,61.49s0-5.54-.14-7.92a.19.19,0,0,1,.19-.2.2.2,0,0,1,.2.19c.09,2.39.11,5.21.14,7.93s0,5.54.14,7.92a.19.19,0,0,1-.19.2Z" transform="translate(-0.9)"/><path class="cls-1" d="M30.71,69.93a.19.19,0,0,1-.19-.18c-.13-1.69-.22-3.37-.3-5.15-.1-2-.2-4-.37-6a.19.19,0,0,1,.18-.21.2.2,0,0,1,.21.18c.17,2.05.27,4.08.37,6,.09,1.77.17,3.45.3,5.13a.19.19,0,0,1-.18.21Z" transform="translate(-0.9)"/><path class="cls-1" d="M36.6,70.65h0a.19.19,0,0,1-.18-.21c.11-1.35-.73-16.27-.74-16.42a.19.19,0,0,1,.18-.2.19.19,0,0,1,.2.18c0,.62.85,15.1.74,16.47A.19.19,0,0,1,36.6,70.65Z" transform="translate(-0.9)"/><path class="cls-1" d="M18.38,68.17a.19.19,0,0,1-.19-.19c0-5.16-.49-9.68-.49-9.72a.19.19,0,1,1,.39,0s.5,4.58.5,9.76A.19.19,0,0,1,18.38,68.17Z" transform="translate(-0.9)"/><path class="cls-1" d="M32.42,59.91a.19.19,0,0,1-.19-.19V58.56a.19.19,0,0,1,.39,0v1.15A.19.19,0,0,1,32.42,59.91Z" transform="translate(-0.9)"/><path class="cls-1" d="M15.91,59.34a.19.19,0,0,1-.19-.19V57.63a.19.19,0,0,1,.39,0v1.51A.19.19,0,0,1,15.91,59.34Z" transform="translate(-0.9)"/><path class="cls-1" d="M24.53,54.7h0a.19.19,0,0,1-.19-.2l.07-6.87a.19.19,0,0,1,.2-.19.19.19,0,0,1,.19.2l-.07,6.87A.19.19,0,0,1,24.53,54.7Z" transform="translate(-0.9)"/><path class="cls-1" d="M11.47,68.76h-.15C10.5,68.76,7.1,67,7,66.91l-.07,0,0-.08a17.77,17.77,0,0,1-.68-3.69,12.25,12.25,0,0,1,.51-3l0-.14H9.89l.06.08a6.36,6.36,0,0,1,1.27,2.63c0,.9-.1,2-.1,2a.7.7,0,0,1-.14.53.56.56,0,0,1-.42.16h0a.78.78,0,0,1-.84-.67l0-.93-1-.46h0v0a4.08,4.08,0,0,0-.21,1.14,7.31,7.31,0,0,0,.22,1.4v0l1.9,1.42a1.42,1.42,0,0,1,.92,1.27ZM7.21,66.61a26.21,26.21,0,0,0,3.86,1.73,1.51,1.51,0,0,0-.7-.66L8.44,66.22A.34.34,0,0,1,8.3,66a7.42,7.42,0,0,1-.22-1.47,4.39,4.39,0,0,1,.22-1.25.35.35,0,0,1,.2-.27.43.43,0,0,1,.36,0l1,.47a.35.35,0,0,1,.21.3l0,1c0,.16.21.3.44.3a.27.27,0,0,0,.14,0s0-.07,0-.28c0,0,.1-1.16.1-2A5.66,5.66,0,0,0,9.7,60.35H7a11.63,11.63,0,0,0-.45,2.75A17,17,0,0,0,7.21,66.61Z" transform="translate(-0.9)"/><path class="cls-1" d="M41,67.5h-.15l0-.15c-.07-.3.21-.91.95-1.29l1.87-1.42a7.3,7.3,0,0,0,.22-1.4,4.06,4.06,0,0,0-.21-1.14v0l-1,.45,0,.93a.78.78,0,0,1-.83.68.57.57,0,0,1-.43-.16.74.74,0,0,1-.14-.56h0s-.1-1.12-.1-2a6.36,6.36,0,0,1,1.27-2.63l.06-.08h3.16l0,.14a12.23,12.23,0,0,1,.51,3,17.77,17.77,0,0,1-.68,3.69l0,.08-.07,0C45.21,65.73,41.82,67.5,41,67.5Zm3-2.78a.34.34,0,0,1-.14.24L42,66.39a1.58,1.58,0,0,0-.72.68,26.25,26.25,0,0,0,3.86-1.73,17,17,0,0,0,.64-3.5,11.6,11.6,0,0,0-.45-2.75H42.62a5.66,5.66,0,0,0-1.13,2.31c0,.88.1,2,.1,2,0,.24,0,.3,0,.31a.28.28,0,0,0,.15,0c.22,0,.42-.14.43-.31l0-1a.35.35,0,0,1,.21-.3l1-.47a.43.43,0,0,1,.35,0A.35.35,0,0,1,44,62a4.37,4.37,0,0,1,.22,1.25A7.41,7.41,0,0,1,44,64.72Z" transform="translate(-0.9)"/><line class="cls-2" x1="22.8" y1="57.09" x2="22.8" y2="68.57"/><rect class="cls-1" x="22.61" y="57.09" width="0.39" height="11.48"/><line class="cls-2" x1="24.29" y1="57.09" x2="24.29" y2="62.83"/><rect class="cls-1" x="24.09" y="57.09" width="0.39" height="5.74"/><path class="cls-3" d="M0,60.16" transform="translate(-0.9)"/><line class="cls-2" x1="8.51" y1="54.24" x2="34.87" y2="54.24"/><rect class="cls-1" x="8.51" y="54.05" width="26.36" height="0.39"/><line class="cls-2" x1="8.06" y1="56.31" x2="35.11" y2="56.31"/><rect class="cls-1" x="8.06" y="56.11" width="27.05" height="0.39"/><line class="cls-2" x1="34.87" y1="54.24" x2="34.87" y2="56.31"/><rect class="cls-1" x="34.68" y="54.24" width="0.39" height="2.06"/><line class="cls-2" x1="32.62" y1="54.24" x2="32.62" y2="56.31"/><rect class="cls-1" x="32.43" y="54.24" width="0.39" height="2.06"/><line class="cls-2" x1="30.37" y1="54.24" x2="30.37" y2="56.31"/><rect class="cls-1" x="30.18" y="54.24" width="0.39" height="2.06"/><line class="cls-2" x1="28.12" y1="54.24" x2="28.12" y2="56.31"/><rect class="cls-1" x="27.93" y="54.24" width="0.39" height="2.06"/><line class="cls-2" x1="25.87" y1="54.24" x2="25.87" y2="56.31"/><rect class="cls-1" x="25.68" y="54.24" width="0.39" height="2.06"/><line class="cls-2" x1="23.62" y1="54.24" x2="23.62" y2="56.31"/><rect class="cls-1" x="23.43" y="54.24" width="0.39" height="2.06"/><line class="cls-2" x1="21.37" y1="54.24" x2="21.37" y2="56.31"/><rect class="cls-1" x="21.18" y="54.24" width="0.39" height="2.06"/><line class="cls-2" x1="19.12" y1="54.24" x2="19.12" y2="56.31"/><rect class="cls-1" x="18.93" y="54.24" width="0.39" height="2.06"/><line class="cls-2" x1="16.87" y1="54.24" x2="16.87" y2="56.31"/><rect class="cls-1" x="16.68" y="54.24" width="0.39" height="2.06"/><line class="cls-2" x1="14.62" y1="54.24" x2="14.62" y2="56.31"/><rect class="cls-1" x="14.43" y="54.24" width="0.39" height="2.06"/><line class="cls-2" x1="12.37" y1="54.24" x2="12.37" y2="56.31"/><rect class="cls-1" x="12.18" y="54.24" width="0.39" height="2.06"/><line class="cls-2" x1="10.12" y1="54.24" x2="10.12" y2="56.31"/><rect class="cls-1" x="9.93" y="54.24" width="0.39" height="2.06"/><path class="cls-2" d="M1.09,68.53l1.2,1.69C12.94,62.55,12.9,56.31,12.9,56.31h-.61S11.24,62.29,1.09,68.53Z" transform="translate(-0.9)"/><path class="cls-1" d="M2.29,70.41h0a.19.19,0,0,1-.13-.08L.93,68.64A.19.19,0,0,1,1,68.36,29.74,29.74,0,0,0,10.32,60a11.06,11.06,0,0,0,1.78-3.72.19.19,0,0,1,.19-.16h.61a.19.19,0,0,1,.19.19c0,.26-.08,6.43-10.69,14.07A.19.19,0,0,1,2.29,70.41Zm-.92-1.83,1,1.36C11.6,63.22,12.59,57.6,12.69,56.5h-.24C12.2,57.51,10.53,62.9,1.37,68.58Z" transform="translate(-0.9)"/><rect class="cls-1" x="2.87" y="67.45" width="0.39" height="2" transform="translate(-39.24 13.87) rotate(-34.63)"/><rect class="cls-1" x="4.17" y="66.53" width="0.39" height="1.84" transform="translate(-39.6 15.35) rotate(-35.87)"/><rect class="cls-1" x="5.29" y="65.67" width="0.39" height="1.74" transform="translate(-40.41 17.21) rotate(-37.66)"/><rect class="cls-1" x="6.34" y="64.79" width="0.39" height="1.64" transform="translate(-41.39 19.4) rotate(-39.81)"/><rect class="cls-1" x="7.3" y="63.92" width="0.39" height="1.55" transform="translate(-41.23 20.49) rotate(-40.65)"/><rect class="cls-1" x="8.07" y="63.17" width="0.39" height="1.47" transform="translate(-43.19 23.95) rotate(-44.31)"/><rect class="cls-1" x="8.91" y="62.26" width="0.39" height="1.38" transform="translate(-42.02 23.93) rotate(-43.93)"/><rect class="cls-1" x="9.58" y="61.47" width="0.39" height="1.29" transform="translate(-45.22 30.06) rotate(-50.41)"/><rect class="cls-1" x="10.22" y="60.63" width="0.39" height="1.2" transform="translate(-45.04 31.56) rotate(-51.81)"/><rect class="cls-1" x="10.81" y="59.78" width="0.39" height="1.14" transform="translate(-47.43 39.06) rotate(-59.36)"/><rect class="cls-1" x="11.33" y="58.87" width="0.39" height="1" transform="translate(-48.48 46.6) rotate(-66.83)"/><rect class="cls-1" x="11.81" y="57.9" width="0.39" height="0.88" transform="translate(-48.15 52.41) rotate(-72.66)"/><rect class="cls-1" x="12.13" y="57.09" width="0.39" height="0.78" transform="translate(-47.33 59.54) rotate(-79.91)"/><path class="cls-2" d="M2.5,52.25a35,35,0,0,0,4.67-.51,5.89,5.89,0,0,1,3.65.06,5.37,5.37,0,0,1,.71.46,19.64,19.64,0,0,1,3,2.81.5.5,0,0,1-.62.75l-1.2-.74a6.27,6.27,0,0,0-2.34-.89.88.88,0,0,0-.84.54.9.9,0,0,0,.55,1,3.07,3.07,0,0,0,1.23.19,1.64,1.64,0,0,1,.72.14.62.62,0,0,1,.35.6c-.05.33-.43.49-.75.57a8.44,8.44,0,0,1-5.11-.34c-1.31-.52-2.58-1.38-4-1.26" transform="translate(-0.9)"/><path class="cls-1" d="M9.59,57.68a8.62,8.62,0,0,1-3.16-.6c-.34-.14-.69-.3-1-.45a5.73,5.73,0,0,0-2.87-.79.19.19,0,0,1,0-.39,6.06,6.06,0,0,1,3.07.83c.33.15.67.31,1,.44a8.24,8.24,0,0,0,5,.33c.26-.06.57-.19.61-.42a.43.43,0,0,0-.25-.4,1.49,1.49,0,0,0-.64-.12h-.12a2.9,2.9,0,0,1-1.19-.2,1.09,1.09,0,0,1-.65-1.24,1.08,1.08,0,0,1,1-.67h0a4.38,4.38,0,0,1,1.88.64l.53.26h0l.55.34.66.4a.31.31,0,0,0,.36-.09.3.3,0,0,0,0-.37,19.5,19.5,0,0,0-3-2.76,5.27,5.27,0,0,0-.69-.44,5.44,5.44,0,0,0-3.38-.07l-.15,0a35.32,35.32,0,0,1-4.69.52.21.21,0,0,1-.2-.19.19.19,0,0,1,.19-.2,34.86,34.86,0,0,0,4.64-.51l.15,0a5.81,5.81,0,0,1,3.62.11,5.53,5.53,0,0,1,.74.47A19.84,19.84,0,0,1,14.7,55a.7.7,0,0,1-.86,1l-.69-.42-.53-.32L12.08,55a4.1,4.1,0,0,0-1.71-.6.69.69,0,0,0-.66.4.71.71,0,0,0,.45.77,2.57,2.57,0,0,0,1,.17h.12a1.83,1.83,0,0,1,.81.17.81.81,0,0,1,.45.81c-.06.35-.36.59-.9.73A8.55,8.55,0,0,1,9.59,57.68Z" transform="translate(-0.9)"/><path class="cls-1" d="M19.77,9.48a.66.66,0,1,1,.66-.66A.66.66,0,0,1,19.77,9.48Zm0-1a.33.33,0,1,0,.33.33A.33.33,0,0,0,19.77,8.49Z" transform="translate(-0.9)"/><polygon class="cls-1" points="20.09 9.1 19.59 8.49 17.26 8.49 17.26 8.16 19.75 8.16 20.34 8.89 20.09 9.1"/><path class="cls-1" d="M24,8.82a.66.66,0,1,1,.66.66A.66.66,0,0,1,24,8.82Zm.33,0a.33.33,0,1,0,.33-.33A.33.33,0,0,0,24.31,8.82Z" transform="translate(-0.9)"/><polygon class="cls-1" points="22.54 9.1 23.04 8.49 25.37 8.49 25.37 8.16 22.88 8.16 22.28 8.89 22.54 9.1"/></g></g></svg>